G04 #@! TF.GenerationSoftware,KiCad,Pcbnew,6.0.6+dfsg-1*
G04 #@! TF.CreationDate,2022-07-08T16:57:29-05:00*
G04 #@! TF.ProjectId,thermoelectric-tube,74686572-6d6f-4656-9c65-63747269632d,C*
G04 #@! TF.SameCoordinates,Original*
G04 #@! TF.FileFunction,AssemblyDrawing,Top*
%FSLAX46Y46*%
G04 Gerber Fmt 4.6, Leading zero omitted, Abs format (unit mm)*
G04 Created by KiCad (PCBNEW 6.0.6+dfsg-1) date 2022-07-08 16:57:29*
%MOMM*%
%LPD*%
G01*
G04 APERTURE LIST*
%ADD10C,0.150000*%
%ADD11C,0.200000*%
%ADD12C,0.015000*%
%ADD13C,0.100000*%
%ADD14C,0.120000*%
%ADD15C,0.127000*%
G04 APERTURE END LIST*
D10*
X170005714Y-103937619D02*
X170053333Y-103890000D01*
X170148571Y-103842380D01*
X170386666Y-103842380D01*
X170481904Y-103890000D01*
X170529523Y-103937619D01*
X170577142Y-104032857D01*
X170577142Y-104128095D01*
X170529523Y-104270952D01*
X169958095Y-104842380D01*
X170577142Y-104842380D01*
X171005714Y-104842380D02*
X171005714Y-103842380D01*
X171577142Y-104842380D01*
X171577142Y-103842380D01*
X171958095Y-103842380D02*
X172577142Y-103842380D01*
X172243809Y-104223333D01*
X172386666Y-104223333D01*
X172481904Y-104270952D01*
X172529523Y-104318571D01*
X172577142Y-104413809D01*
X172577142Y-104651904D01*
X172529523Y-104747142D01*
X172481904Y-104794761D01*
X172386666Y-104842380D01*
X172100952Y-104842380D01*
X172005714Y-104794761D01*
X171958095Y-104747142D01*
X173053333Y-104842380D02*
X173243809Y-104842380D01*
X173339047Y-104794761D01*
X173386666Y-104747142D01*
X173481904Y-104604285D01*
X173529523Y-104413809D01*
X173529523Y-104032857D01*
X173481904Y-103937619D01*
X173434285Y-103890000D01*
X173339047Y-103842380D01*
X173148571Y-103842380D01*
X173053333Y-103890000D01*
X173005714Y-103937619D01*
X172958095Y-104032857D01*
X172958095Y-104270952D01*
X173005714Y-104366190D01*
X173053333Y-104413809D01*
X173148571Y-104461428D01*
X173339047Y-104461428D01*
X173434285Y-104413809D01*
X173481904Y-104366190D01*
X173529523Y-104270952D01*
X174148571Y-103842380D02*
X174243809Y-103842380D01*
X174339047Y-103890000D01*
X174386666Y-103937619D01*
X174434285Y-104032857D01*
X174481904Y-104223333D01*
X174481904Y-104461428D01*
X174434285Y-104651904D01*
X174386666Y-104747142D01*
X174339047Y-104794761D01*
X174243809Y-104842380D01*
X174148571Y-104842380D01*
X174053333Y-104794761D01*
X174005714Y-104747142D01*
X173958095Y-104651904D01*
X173910476Y-104461428D01*
X173910476Y-104223333D01*
X173958095Y-104032857D01*
X174005714Y-103937619D01*
X174053333Y-103890000D01*
X174148571Y-103842380D01*
X175339047Y-104175714D02*
X175339047Y-104842380D01*
X175100952Y-103794761D02*
X174862857Y-104509047D01*
X175481904Y-104509047D01*
X172624761Y-98587619D02*
X172529523Y-98540000D01*
X172434285Y-98444761D01*
X172291428Y-98301904D01*
X172196190Y-98254285D01*
X172100952Y-98254285D01*
X172148571Y-98492380D02*
X172053333Y-98444761D01*
X171958095Y-98349523D01*
X171910476Y-98159047D01*
X171910476Y-97825714D01*
X171958095Y-97635238D01*
X172053333Y-97540000D01*
X172148571Y-97492380D01*
X172339047Y-97492380D01*
X172434285Y-97540000D01*
X172529523Y-97635238D01*
X172577142Y-97825714D01*
X172577142Y-98159047D01*
X172529523Y-98349523D01*
X172434285Y-98444761D01*
X172339047Y-98492380D01*
X172148571Y-98492380D01*
X173434285Y-97825714D02*
X173434285Y-98492380D01*
X173196190Y-97444761D02*
X172958095Y-98159047D01*
X173577142Y-98159047D01*
X59067142Y-57012380D02*
X58495714Y-57012380D01*
X58781428Y-57012380D02*
X58781428Y-56012380D01*
X58686190Y-56155238D01*
X58590952Y-56250476D01*
X58495714Y-56298095D01*
X59686190Y-56012380D02*
X59781428Y-56012380D01*
X59876666Y-56060000D01*
X59924285Y-56107619D01*
X59971904Y-56202857D01*
X60019523Y-56393333D01*
X60019523Y-56631428D01*
X59971904Y-56821904D01*
X59924285Y-56917142D01*
X59876666Y-56964761D01*
X59781428Y-57012380D01*
X59686190Y-57012380D01*
X59590952Y-56964761D01*
X59543333Y-56917142D01*
X59495714Y-56821904D01*
X59448095Y-56631428D01*
X59448095Y-56393333D01*
X59495714Y-56202857D01*
X59543333Y-56107619D01*
X59590952Y-56060000D01*
X59686190Y-56012380D01*
X60876666Y-56345714D02*
X60876666Y-57012380D01*
X60448095Y-56345714D02*
X60448095Y-56869523D01*
X60495714Y-56964761D01*
X60590952Y-57012380D01*
X60733809Y-57012380D01*
X60829047Y-56964761D01*
X60876666Y-56917142D01*
X59543333Y-61317142D02*
X59495714Y-61364761D01*
X59352857Y-61412380D01*
X59257619Y-61412380D01*
X59114761Y-61364761D01*
X59019523Y-61269523D01*
X58971904Y-61174285D01*
X58924285Y-60983809D01*
X58924285Y-60840952D01*
X58971904Y-60650476D01*
X59019523Y-60555238D01*
X59114761Y-60460000D01*
X59257619Y-60412380D01*
X59352857Y-60412380D01*
X59495714Y-60460000D01*
X59543333Y-60507619D01*
X59924285Y-60507619D02*
X59971904Y-60460000D01*
X60067142Y-60412380D01*
X60305238Y-60412380D01*
X60400476Y-60460000D01*
X60448095Y-60507619D01*
X60495714Y-60602857D01*
X60495714Y-60698095D01*
X60448095Y-60840952D01*
X59876666Y-61412380D01*
X60495714Y-61412380D01*
X48887142Y-95852380D02*
X48410952Y-95852380D01*
X48410952Y-94852380D01*
X49220476Y-95328571D02*
X49553809Y-95328571D01*
X49696666Y-95852380D02*
X49220476Y-95852380D01*
X49220476Y-94852380D01*
X49696666Y-94852380D01*
X50125238Y-95852380D02*
X50125238Y-94852380D01*
X50363333Y-94852380D01*
X50506190Y-94900000D01*
X50601428Y-94995238D01*
X50649047Y-95090476D01*
X50696666Y-95280952D01*
X50696666Y-95423809D01*
X50649047Y-95614285D01*
X50601428Y-95709523D01*
X50506190Y-95804761D01*
X50363333Y-95852380D01*
X50125238Y-95852380D01*
D11*
X48919523Y-91801904D02*
X48919523Y-91001904D01*
X49110000Y-91001904D01*
X49224285Y-91040000D01*
X49300476Y-91116190D01*
X49338571Y-91192380D01*
X49376666Y-91344761D01*
X49376666Y-91459047D01*
X49338571Y-91611428D01*
X49300476Y-91687619D01*
X49224285Y-91763809D01*
X49110000Y-91801904D01*
X48919523Y-91801904D01*
X50138571Y-91801904D02*
X49681428Y-91801904D01*
X49910000Y-91801904D02*
X49910000Y-91001904D01*
X49833809Y-91116190D01*
X49757619Y-91192380D01*
X49681428Y-91230476D01*
D10*
X156812380Y-126372857D02*
X156812380Y-126849047D01*
X155812380Y-126849047D01*
X156288571Y-126039523D02*
X156288571Y-125706190D01*
X156812380Y-125563333D02*
X156812380Y-126039523D01*
X155812380Y-126039523D01*
X155812380Y-125563333D01*
X156812380Y-125134761D02*
X155812380Y-125134761D01*
X155812380Y-124896666D01*
X155860000Y-124753809D01*
X155955238Y-124658571D01*
X156050476Y-124610952D01*
X156240952Y-124563333D01*
X156383809Y-124563333D01*
X156574285Y-124610952D01*
X156669523Y-124658571D01*
X156764761Y-124753809D01*
X156812380Y-124896666D01*
X156812380Y-125134761D01*
D11*
X152761904Y-126340476D02*
X151961904Y-126340476D01*
X151961904Y-126150000D01*
X152000000Y-126035714D01*
X152076190Y-125959523D01*
X152152380Y-125921428D01*
X152304761Y-125883333D01*
X152419047Y-125883333D01*
X152571428Y-125921428D01*
X152647619Y-125959523D01*
X152723809Y-126035714D01*
X152761904Y-126150000D01*
X152761904Y-126340476D01*
X152038095Y-125578571D02*
X152000000Y-125540476D01*
X151961904Y-125464285D01*
X151961904Y-125273809D01*
X152000000Y-125197619D01*
X152038095Y-125159523D01*
X152114285Y-125121428D01*
X152190476Y-125121428D01*
X152304761Y-125159523D01*
X152761904Y-125616666D01*
X152761904Y-125121428D01*
D10*
X166972380Y-126372857D02*
X166972380Y-126849047D01*
X165972380Y-126849047D01*
X166448571Y-126039523D02*
X166448571Y-125706190D01*
X166972380Y-125563333D02*
X166972380Y-126039523D01*
X165972380Y-126039523D01*
X165972380Y-125563333D01*
X166972380Y-125134761D02*
X165972380Y-125134761D01*
X165972380Y-124896666D01*
X166020000Y-124753809D01*
X166115238Y-124658571D01*
X166210476Y-124610952D01*
X166400952Y-124563333D01*
X166543809Y-124563333D01*
X166734285Y-124610952D01*
X166829523Y-124658571D01*
X166924761Y-124753809D01*
X166972380Y-124896666D01*
X166972380Y-125134761D01*
D11*
X162921904Y-126340476D02*
X162121904Y-126340476D01*
X162121904Y-126150000D01*
X162160000Y-126035714D01*
X162236190Y-125959523D01*
X162312380Y-125921428D01*
X162464761Y-125883333D01*
X162579047Y-125883333D01*
X162731428Y-125921428D01*
X162807619Y-125959523D01*
X162883809Y-126035714D01*
X162921904Y-126150000D01*
X162921904Y-126340476D01*
X162121904Y-125616666D02*
X162121904Y-125121428D01*
X162426666Y-125388095D01*
X162426666Y-125273809D01*
X162464761Y-125197619D01*
X162502857Y-125159523D01*
X162579047Y-125121428D01*
X162769523Y-125121428D01*
X162845714Y-125159523D01*
X162883809Y-125197619D01*
X162921904Y-125273809D01*
X162921904Y-125502380D01*
X162883809Y-125578571D01*
X162845714Y-125616666D01*
D10*
X71468571Y-50878095D02*
X71516190Y-50735238D01*
X71563809Y-50687619D01*
X71659047Y-50640000D01*
X71801904Y-50640000D01*
X71897142Y-50687619D01*
X71944761Y-50735238D01*
X71992380Y-50830476D01*
X71992380Y-51211428D01*
X70992380Y-51211428D01*
X70992380Y-50878095D01*
X71040000Y-50782857D01*
X71087619Y-50735238D01*
X71182857Y-50687619D01*
X71278095Y-50687619D01*
X71373333Y-50735238D01*
X71420952Y-50782857D01*
X71468571Y-50878095D01*
X71468571Y-51211428D01*
X71992380Y-49782857D02*
X71468571Y-49782857D01*
X71373333Y-49830476D01*
X71325714Y-49925714D01*
X71325714Y-50116190D01*
X71373333Y-50211428D01*
X71944761Y-49782857D02*
X71992380Y-49878095D01*
X71992380Y-50116190D01*
X71944761Y-50211428D01*
X71849523Y-50259047D01*
X71754285Y-50259047D01*
X71659047Y-50211428D01*
X71611428Y-50116190D01*
X71611428Y-49878095D01*
X71563809Y-49782857D01*
X71992380Y-49306666D02*
X71325714Y-49306666D01*
X71516190Y-49306666D02*
X71420952Y-49259047D01*
X71373333Y-49211428D01*
X71325714Y-49116190D01*
X71325714Y-49020952D01*
X71992380Y-48687619D02*
X71325714Y-48687619D01*
X71516190Y-48687619D02*
X71420952Y-48640000D01*
X71373333Y-48592380D01*
X71325714Y-48497142D01*
X71325714Y-48401904D01*
X71944761Y-47687619D02*
X71992380Y-47782857D01*
X71992380Y-47973333D01*
X71944761Y-48068571D01*
X71849523Y-48116190D01*
X71468571Y-48116190D01*
X71373333Y-48068571D01*
X71325714Y-47973333D01*
X71325714Y-47782857D01*
X71373333Y-47687619D01*
X71468571Y-47640000D01*
X71563809Y-47640000D01*
X71659047Y-48116190D01*
X71992380Y-47068571D02*
X71944761Y-47163809D01*
X71849523Y-47211428D01*
X70992380Y-47211428D01*
X72087619Y-46925714D02*
X72087619Y-46163809D01*
X70992380Y-45640000D02*
X71706666Y-45640000D01*
X71849523Y-45687619D01*
X71944761Y-45782857D01*
X71992380Y-45925714D01*
X71992380Y-46020952D01*
X71992380Y-44735238D02*
X71468571Y-44735238D01*
X71373333Y-44782857D01*
X71325714Y-44878095D01*
X71325714Y-45068571D01*
X71373333Y-45163809D01*
X71944761Y-44735238D02*
X71992380Y-44830476D01*
X71992380Y-45068571D01*
X71944761Y-45163809D01*
X71849523Y-45211428D01*
X71754285Y-45211428D01*
X71659047Y-45163809D01*
X71611428Y-45068571D01*
X71611428Y-44830476D01*
X71563809Y-44735238D01*
X71944761Y-43830476D02*
X71992380Y-43925714D01*
X71992380Y-44116190D01*
X71944761Y-44211428D01*
X71897142Y-44259047D01*
X71801904Y-44306666D01*
X71516190Y-44306666D01*
X71420952Y-44259047D01*
X71373333Y-44211428D01*
X71325714Y-44116190D01*
X71325714Y-43925714D01*
X71373333Y-43830476D01*
X71992380Y-43401904D02*
X70992380Y-43401904D01*
X71611428Y-43306666D02*
X71992380Y-43020952D01*
X71325714Y-43020952D02*
X71706666Y-43401904D01*
X68442380Y-50673333D02*
X69156666Y-50673333D01*
X69299523Y-50720952D01*
X69394761Y-50816190D01*
X69442380Y-50959047D01*
X69442380Y-51054285D01*
X69442380Y-49673333D02*
X69442380Y-50244761D01*
X69442380Y-49959047D02*
X68442380Y-49959047D01*
X68585238Y-50054285D01*
X68680476Y-50149523D01*
X68728095Y-50244761D01*
X167822857Y-74072380D02*
X167822857Y-73072380D01*
X168870476Y-74072380D02*
X168537142Y-73596190D01*
X168299047Y-74072380D02*
X168299047Y-73072380D01*
X168680000Y-73072380D01*
X168775238Y-73120000D01*
X168822857Y-73167619D01*
X168870476Y-73262857D01*
X168870476Y-73405714D01*
X168822857Y-73500952D01*
X168775238Y-73548571D01*
X168680000Y-73596190D01*
X168299047Y-73596190D01*
X169632380Y-73548571D02*
X169299047Y-73548571D01*
X169299047Y-74072380D02*
X169299047Y-73072380D01*
X169775238Y-73072380D01*
X170584761Y-73072380D02*
X170394285Y-73072380D01*
X170299047Y-73120000D01*
X170251428Y-73167619D01*
X170156190Y-73310476D01*
X170108571Y-73500952D01*
X170108571Y-73881904D01*
X170156190Y-73977142D01*
X170203809Y-74024761D01*
X170299047Y-74072380D01*
X170489523Y-74072380D01*
X170584761Y-74024761D01*
X170632380Y-73977142D01*
X170680000Y-73881904D01*
X170680000Y-73643809D01*
X170632380Y-73548571D01*
X170584761Y-73500952D01*
X170489523Y-73453333D01*
X170299047Y-73453333D01*
X170203809Y-73500952D01*
X170156190Y-73548571D01*
X170108571Y-73643809D01*
X171013333Y-73072380D02*
X171632380Y-73072380D01*
X171299047Y-73453333D01*
X171441904Y-73453333D01*
X171537142Y-73500952D01*
X171584761Y-73548571D01*
X171632380Y-73643809D01*
X171632380Y-73881904D01*
X171584761Y-73977142D01*
X171537142Y-74024761D01*
X171441904Y-74072380D01*
X171156190Y-74072380D01*
X171060952Y-74024761D01*
X171013333Y-73977142D01*
X172251428Y-73072380D02*
X172346666Y-73072380D01*
X172441904Y-73120000D01*
X172489523Y-73167619D01*
X172537142Y-73262857D01*
X172584761Y-73453333D01*
X172584761Y-73691428D01*
X172537142Y-73881904D01*
X172489523Y-73977142D01*
X172441904Y-74024761D01*
X172346666Y-74072380D01*
X172251428Y-74072380D01*
X172156190Y-74024761D01*
X172108571Y-73977142D01*
X172060952Y-73881904D01*
X172013333Y-73691428D01*
X172013333Y-73453333D01*
X172060952Y-73262857D01*
X172108571Y-73167619D01*
X172156190Y-73120000D01*
X172251428Y-73072380D01*
X170084761Y-67397619D02*
X169989523Y-67350000D01*
X169894285Y-67254761D01*
X169751428Y-67111904D01*
X169656190Y-67064285D01*
X169560952Y-67064285D01*
X169608571Y-67302380D02*
X169513333Y-67254761D01*
X169418095Y-67159523D01*
X169370476Y-66969047D01*
X169370476Y-66635714D01*
X169418095Y-66445238D01*
X169513333Y-66350000D01*
X169608571Y-66302380D01*
X169799047Y-66302380D01*
X169894285Y-66350000D01*
X169989523Y-66445238D01*
X170037142Y-66635714D01*
X170037142Y-66969047D01*
X169989523Y-67159523D01*
X169894285Y-67254761D01*
X169799047Y-67302380D01*
X169608571Y-67302380D01*
X170370476Y-66302380D02*
X170989523Y-66302380D01*
X170656190Y-66683333D01*
X170799047Y-66683333D01*
X170894285Y-66730952D01*
X170941904Y-66778571D01*
X170989523Y-66873809D01*
X170989523Y-67111904D01*
X170941904Y-67207142D01*
X170894285Y-67254761D01*
X170799047Y-67302380D01*
X170513333Y-67302380D01*
X170418095Y-67254761D01*
X170370476Y-67207142D01*
X152106666Y-86772380D02*
X152106666Y-85772380D01*
X153154285Y-86772380D02*
X152820952Y-86296190D01*
X152582857Y-86772380D02*
X152582857Y-85772380D01*
X152963809Y-85772380D01*
X153059047Y-85820000D01*
X153106666Y-85867619D01*
X153154285Y-85962857D01*
X153154285Y-86105714D01*
X153106666Y-86200952D01*
X153059047Y-86248571D01*
X152963809Y-86296190D01*
X152582857Y-86296190D01*
X153916190Y-86248571D02*
X153582857Y-86248571D01*
X153582857Y-86772380D02*
X153582857Y-85772380D01*
X154059047Y-85772380D01*
X154487619Y-86772380D02*
X154678095Y-86772380D01*
X154773333Y-86724761D01*
X154820952Y-86677142D01*
X154916190Y-86534285D01*
X154963809Y-86343809D01*
X154963809Y-85962857D01*
X154916190Y-85867619D01*
X154868571Y-85820000D01*
X154773333Y-85772380D01*
X154582857Y-85772380D01*
X154487619Y-85820000D01*
X154440000Y-85867619D01*
X154392380Y-85962857D01*
X154392380Y-86200952D01*
X154440000Y-86296190D01*
X154487619Y-86343809D01*
X154582857Y-86391428D01*
X154773333Y-86391428D01*
X154868571Y-86343809D01*
X154916190Y-86296190D01*
X154963809Y-86200952D01*
X155820952Y-85772380D02*
X155630476Y-85772380D01*
X155535238Y-85820000D01*
X155487619Y-85867619D01*
X155392380Y-86010476D01*
X155344761Y-86200952D01*
X155344761Y-86581904D01*
X155392380Y-86677142D01*
X155440000Y-86724761D01*
X155535238Y-86772380D01*
X155725714Y-86772380D01*
X155820952Y-86724761D01*
X155868571Y-86677142D01*
X155916190Y-86581904D01*
X155916190Y-86343809D01*
X155868571Y-86248571D01*
X155820952Y-86200952D01*
X155725714Y-86153333D01*
X155535238Y-86153333D01*
X155440000Y-86200952D01*
X155392380Y-86248571D01*
X155344761Y-86343809D01*
X156249523Y-85772380D02*
X156868571Y-85772380D01*
X156535238Y-86153333D01*
X156678095Y-86153333D01*
X156773333Y-86200952D01*
X156820952Y-86248571D01*
X156868571Y-86343809D01*
X156868571Y-86581904D01*
X156820952Y-86677142D01*
X156773333Y-86724761D01*
X156678095Y-86772380D01*
X156392380Y-86772380D01*
X156297142Y-86724761D01*
X156249523Y-86677142D01*
X157487619Y-85772380D02*
X157582857Y-85772380D01*
X157678095Y-85820000D01*
X157725714Y-85867619D01*
X157773333Y-85962857D01*
X157820952Y-86153333D01*
X157820952Y-86391428D01*
X157773333Y-86581904D01*
X157725714Y-86677142D01*
X157678095Y-86724761D01*
X157582857Y-86772380D01*
X157487619Y-86772380D01*
X157392380Y-86724761D01*
X157344761Y-86677142D01*
X157297142Y-86581904D01*
X157249523Y-86391428D01*
X157249523Y-86153333D01*
X157297142Y-85962857D01*
X157344761Y-85867619D01*
X157392380Y-85820000D01*
X157487619Y-85772380D01*
X154844761Y-80097619D02*
X154749523Y-80050000D01*
X154654285Y-79954761D01*
X154511428Y-79811904D01*
X154416190Y-79764285D01*
X154320952Y-79764285D01*
X154368571Y-80002380D02*
X154273333Y-79954761D01*
X154178095Y-79859523D01*
X154130476Y-79669047D01*
X154130476Y-79335714D01*
X154178095Y-79145238D01*
X154273333Y-79050000D01*
X154368571Y-79002380D01*
X154559047Y-79002380D01*
X154654285Y-79050000D01*
X154749523Y-79145238D01*
X154797142Y-79335714D01*
X154797142Y-79669047D01*
X154749523Y-79859523D01*
X154654285Y-79954761D01*
X154559047Y-80002380D01*
X154368571Y-80002380D01*
X155701904Y-79002380D02*
X155225714Y-79002380D01*
X155178095Y-79478571D01*
X155225714Y-79430952D01*
X155320952Y-79383333D01*
X155559047Y-79383333D01*
X155654285Y-79430952D01*
X155701904Y-79478571D01*
X155749523Y-79573809D01*
X155749523Y-79811904D01*
X155701904Y-79907142D01*
X155654285Y-79954761D01*
X155559047Y-80002380D01*
X155320952Y-80002380D01*
X155225714Y-79954761D01*
X155178095Y-79907142D01*
X167822857Y-86772380D02*
X167822857Y-85772380D01*
X168870476Y-86772380D02*
X168537142Y-86296190D01*
X168299047Y-86772380D02*
X168299047Y-85772380D01*
X168680000Y-85772380D01*
X168775238Y-85820000D01*
X168822857Y-85867619D01*
X168870476Y-85962857D01*
X168870476Y-86105714D01*
X168822857Y-86200952D01*
X168775238Y-86248571D01*
X168680000Y-86296190D01*
X168299047Y-86296190D01*
X169632380Y-86248571D02*
X169299047Y-86248571D01*
X169299047Y-86772380D02*
X169299047Y-85772380D01*
X169775238Y-85772380D01*
X170584761Y-85772380D02*
X170394285Y-85772380D01*
X170299047Y-85820000D01*
X170251428Y-85867619D01*
X170156190Y-86010476D01*
X170108571Y-86200952D01*
X170108571Y-86581904D01*
X170156190Y-86677142D01*
X170203809Y-86724761D01*
X170299047Y-86772380D01*
X170489523Y-86772380D01*
X170584761Y-86724761D01*
X170632380Y-86677142D01*
X170680000Y-86581904D01*
X170680000Y-86343809D01*
X170632380Y-86248571D01*
X170584761Y-86200952D01*
X170489523Y-86153333D01*
X170299047Y-86153333D01*
X170203809Y-86200952D01*
X170156190Y-86248571D01*
X170108571Y-86343809D01*
X171013333Y-85772380D02*
X171632380Y-85772380D01*
X171299047Y-86153333D01*
X171441904Y-86153333D01*
X171537142Y-86200952D01*
X171584761Y-86248571D01*
X171632380Y-86343809D01*
X171632380Y-86581904D01*
X171584761Y-86677142D01*
X171537142Y-86724761D01*
X171441904Y-86772380D01*
X171156190Y-86772380D01*
X171060952Y-86724761D01*
X171013333Y-86677142D01*
X172251428Y-85772380D02*
X172346666Y-85772380D01*
X172441904Y-85820000D01*
X172489523Y-85867619D01*
X172537142Y-85962857D01*
X172584761Y-86153333D01*
X172584761Y-86391428D01*
X172537142Y-86581904D01*
X172489523Y-86677142D01*
X172441904Y-86724761D01*
X172346666Y-86772380D01*
X172251428Y-86772380D01*
X172156190Y-86724761D01*
X172108571Y-86677142D01*
X172060952Y-86581904D01*
X172013333Y-86391428D01*
X172013333Y-86153333D01*
X172060952Y-85962857D01*
X172108571Y-85867619D01*
X172156190Y-85820000D01*
X172251428Y-85772380D01*
X170084761Y-80097619D02*
X169989523Y-80050000D01*
X169894285Y-79954761D01*
X169751428Y-79811904D01*
X169656190Y-79764285D01*
X169560952Y-79764285D01*
X169608571Y-80002380D02*
X169513333Y-79954761D01*
X169418095Y-79859523D01*
X169370476Y-79669047D01*
X169370476Y-79335714D01*
X169418095Y-79145238D01*
X169513333Y-79050000D01*
X169608571Y-79002380D01*
X169799047Y-79002380D01*
X169894285Y-79050000D01*
X169989523Y-79145238D01*
X170037142Y-79335714D01*
X170037142Y-79669047D01*
X169989523Y-79859523D01*
X169894285Y-79954761D01*
X169799047Y-80002380D01*
X169608571Y-80002380D01*
X170894285Y-79002380D02*
X170703809Y-79002380D01*
X170608571Y-79050000D01*
X170560952Y-79097619D01*
X170465714Y-79240476D01*
X170418095Y-79430952D01*
X170418095Y-79811904D01*
X170465714Y-79907142D01*
X170513333Y-79954761D01*
X170608571Y-80002380D01*
X170799047Y-80002380D01*
X170894285Y-79954761D01*
X170941904Y-79907142D01*
X170989523Y-79811904D01*
X170989523Y-79573809D01*
X170941904Y-79478571D01*
X170894285Y-79430952D01*
X170799047Y-79383333D01*
X170608571Y-79383333D01*
X170513333Y-79430952D01*
X170465714Y-79478571D01*
X170418095Y-79573809D01*
X66572380Y-68409047D02*
X66572380Y-68980476D01*
X66572380Y-68694761D02*
X65572380Y-68694761D01*
X65715238Y-68790000D01*
X65810476Y-68885238D01*
X65858095Y-68980476D01*
X65572380Y-67790000D02*
X65572380Y-67694761D01*
X65620000Y-67599523D01*
X65667619Y-67551904D01*
X65762857Y-67504285D01*
X65953333Y-67456666D01*
X66191428Y-67456666D01*
X66381904Y-67504285D01*
X66477142Y-67551904D01*
X66524761Y-67599523D01*
X66572380Y-67694761D01*
X66572380Y-67790000D01*
X66524761Y-67885238D01*
X66477142Y-67932857D01*
X66381904Y-67980476D01*
X66191428Y-68028095D01*
X65953333Y-68028095D01*
X65762857Y-67980476D01*
X65667619Y-67932857D01*
X65620000Y-67885238D01*
X65572380Y-67790000D01*
X65572380Y-66837619D02*
X65572380Y-66742380D01*
X65620000Y-66647142D01*
X65667619Y-66599523D01*
X65762857Y-66551904D01*
X65953333Y-66504285D01*
X66191428Y-66504285D01*
X66381904Y-66551904D01*
X66477142Y-66599523D01*
X66524761Y-66647142D01*
X66572380Y-66742380D01*
X66572380Y-66837619D01*
X66524761Y-66932857D01*
X66477142Y-66980476D01*
X66381904Y-67028095D01*
X66191428Y-67075714D01*
X65953333Y-67075714D01*
X65762857Y-67028095D01*
X65667619Y-66980476D01*
X65620000Y-66932857D01*
X65572380Y-66837619D01*
X65905714Y-65647142D02*
X66572380Y-65647142D01*
X65905714Y-66075714D02*
X66429523Y-66075714D01*
X66524761Y-66028095D01*
X66572380Y-65932857D01*
X66572380Y-65790000D01*
X66524761Y-65694761D01*
X66477142Y-65647142D01*
X71477142Y-67456666D02*
X71524761Y-67504285D01*
X71572380Y-67647142D01*
X71572380Y-67742380D01*
X71524761Y-67885238D01*
X71429523Y-67980476D01*
X71334285Y-68028095D01*
X71143809Y-68075714D01*
X71000952Y-68075714D01*
X70810476Y-68028095D01*
X70715238Y-67980476D01*
X70620000Y-67885238D01*
X70572380Y-67742380D01*
X70572380Y-67647142D01*
X70620000Y-67504285D01*
X70667619Y-67456666D01*
X71572380Y-66504285D02*
X71572380Y-67075714D01*
X71572380Y-66790000D02*
X70572380Y-66790000D01*
X70715238Y-66885238D01*
X70810476Y-66980476D01*
X70858095Y-67075714D01*
X158154761Y-104422380D02*
X157583333Y-104422380D01*
X157869047Y-104422380D02*
X157869047Y-103422380D01*
X157773809Y-103565238D01*
X157678571Y-103660476D01*
X157583333Y-103708095D01*
X158773809Y-103422380D02*
X158869047Y-103422380D01*
X158964285Y-103470000D01*
X159011904Y-103517619D01*
X159059523Y-103612857D01*
X159107142Y-103803333D01*
X159107142Y-104041428D01*
X159059523Y-104231904D01*
X159011904Y-104327142D01*
X158964285Y-104374761D01*
X158869047Y-104422380D01*
X158773809Y-104422380D01*
X158678571Y-104374761D01*
X158630952Y-104327142D01*
X158583333Y-104231904D01*
X158535714Y-104041428D01*
X158535714Y-103803333D01*
X158583333Y-103612857D01*
X158630952Y-103517619D01*
X158678571Y-103470000D01*
X158773809Y-103422380D01*
X159535714Y-104422380D02*
X159535714Y-103422380D01*
X159630952Y-104041428D02*
X159916666Y-104422380D01*
X159916666Y-103755714D02*
X159535714Y-104136666D01*
X158583333Y-102052380D02*
X158250000Y-101576190D01*
X158011904Y-102052380D02*
X158011904Y-101052380D01*
X158392857Y-101052380D01*
X158488095Y-101100000D01*
X158535714Y-101147619D01*
X158583333Y-101242857D01*
X158583333Y-101385714D01*
X158535714Y-101480952D01*
X158488095Y-101528571D01*
X158392857Y-101576190D01*
X158011904Y-101576190D01*
X158916666Y-101052380D02*
X159535714Y-101052380D01*
X159202380Y-101433333D01*
X159345238Y-101433333D01*
X159440476Y-101480952D01*
X159488095Y-101528571D01*
X159535714Y-101623809D01*
X159535714Y-101861904D01*
X159488095Y-101957142D01*
X159440476Y-102004761D01*
X159345238Y-102052380D01*
X159059523Y-102052380D01*
X158964285Y-102004761D01*
X158916666Y-101957142D01*
X170854761Y-109842380D02*
X170283333Y-109842380D01*
X170569047Y-109842380D02*
X170569047Y-108842380D01*
X170473809Y-108985238D01*
X170378571Y-109080476D01*
X170283333Y-109128095D01*
X171473809Y-108842380D02*
X171569047Y-108842380D01*
X171664285Y-108890000D01*
X171711904Y-108937619D01*
X171759523Y-109032857D01*
X171807142Y-109223333D01*
X171807142Y-109461428D01*
X171759523Y-109651904D01*
X171711904Y-109747142D01*
X171664285Y-109794761D01*
X171569047Y-109842380D01*
X171473809Y-109842380D01*
X171378571Y-109794761D01*
X171330952Y-109747142D01*
X171283333Y-109651904D01*
X171235714Y-109461428D01*
X171235714Y-109223333D01*
X171283333Y-109032857D01*
X171330952Y-108937619D01*
X171378571Y-108890000D01*
X171473809Y-108842380D01*
X172235714Y-109842380D02*
X172235714Y-108842380D01*
X172330952Y-109461428D02*
X172616666Y-109842380D01*
X172616666Y-109175714D02*
X172235714Y-109556666D01*
X171283333Y-112212380D02*
X170950000Y-111736190D01*
X170711904Y-112212380D02*
X170711904Y-111212380D01*
X171092857Y-111212380D01*
X171188095Y-111260000D01*
X171235714Y-111307619D01*
X171283333Y-111402857D01*
X171283333Y-111545714D01*
X171235714Y-111640952D01*
X171188095Y-111688571D01*
X171092857Y-111736190D01*
X170711904Y-111736190D01*
X172140476Y-111212380D02*
X171950000Y-111212380D01*
X171854761Y-111260000D01*
X171807142Y-111307619D01*
X171711904Y-111450476D01*
X171664285Y-111640952D01*
X171664285Y-112021904D01*
X171711904Y-112117142D01*
X171759523Y-112164761D01*
X171854761Y-112212380D01*
X172045238Y-112212380D01*
X172140476Y-112164761D01*
X172188095Y-112117142D01*
X172235714Y-112021904D01*
X172235714Y-111783809D01*
X172188095Y-111688571D01*
X172140476Y-111640952D01*
X172045238Y-111593333D01*
X171854761Y-111593333D01*
X171759523Y-111640952D01*
X171711904Y-111688571D01*
X171664285Y-111783809D01*
X165382380Y-115689047D02*
X165382380Y-116260476D01*
X165382380Y-115974761D02*
X164382380Y-115974761D01*
X164525238Y-116070000D01*
X164620476Y-116165238D01*
X164668095Y-116260476D01*
X165382380Y-115260476D02*
X164382380Y-115260476D01*
X165001428Y-115165238D02*
X165382380Y-114879523D01*
X164715714Y-114879523D02*
X165096666Y-115260476D01*
X163012380Y-115736666D02*
X162536190Y-116070000D01*
X163012380Y-116308095D02*
X162012380Y-116308095D01*
X162012380Y-115927142D01*
X162060000Y-115831904D01*
X162107619Y-115784285D01*
X162202857Y-115736666D01*
X162345714Y-115736666D01*
X162440952Y-115784285D01*
X162488571Y-115831904D01*
X162536190Y-115927142D01*
X162536190Y-116308095D01*
X162012380Y-115403333D02*
X162012380Y-114736666D01*
X163012380Y-115165238D01*
X173870952Y-96802380D02*
X173299523Y-96802380D01*
X173585238Y-96802380D02*
X173585238Y-95802380D01*
X173490000Y-95945238D01*
X173394761Y-96040476D01*
X173299523Y-96088095D01*
X174299523Y-96802380D02*
X174299523Y-95802380D01*
X174394761Y-96421428D02*
X174680476Y-96802380D01*
X174680476Y-96135714D02*
X174299523Y-96516666D01*
X173823333Y-94432380D02*
X173490000Y-93956190D01*
X173251904Y-94432380D02*
X173251904Y-93432380D01*
X173632857Y-93432380D01*
X173728095Y-93480000D01*
X173775714Y-93527619D01*
X173823333Y-93622857D01*
X173823333Y-93765714D01*
X173775714Y-93860952D01*
X173728095Y-93908571D01*
X173632857Y-93956190D01*
X173251904Y-93956190D01*
X174728095Y-93432380D02*
X174251904Y-93432380D01*
X174204285Y-93908571D01*
X174251904Y-93860952D01*
X174347142Y-93813333D01*
X174585238Y-93813333D01*
X174680476Y-93860952D01*
X174728095Y-93908571D01*
X174775714Y-94003809D01*
X174775714Y-94241904D01*
X174728095Y-94337142D01*
X174680476Y-94384761D01*
X174585238Y-94432380D01*
X174347142Y-94432380D01*
X174251904Y-94384761D01*
X174204285Y-94337142D01*
X155222380Y-115689047D02*
X155222380Y-116260476D01*
X155222380Y-115974761D02*
X154222380Y-115974761D01*
X154365238Y-116070000D01*
X154460476Y-116165238D01*
X154508095Y-116260476D01*
X155222380Y-115260476D02*
X154222380Y-115260476D01*
X154841428Y-115165238D02*
X155222380Y-114879523D01*
X154555714Y-114879523D02*
X154936666Y-115260476D01*
X152852380Y-115736666D02*
X152376190Y-116070000D01*
X152852380Y-116308095D02*
X151852380Y-116308095D01*
X151852380Y-115927142D01*
X151900000Y-115831904D01*
X151947619Y-115784285D01*
X152042857Y-115736666D01*
X152185714Y-115736666D01*
X152280952Y-115784285D01*
X152328571Y-115831904D01*
X152376190Y-115927142D01*
X152376190Y-116308095D01*
X151947619Y-115355714D02*
X151900000Y-115308095D01*
X151852380Y-115212857D01*
X151852380Y-114974761D01*
X151900000Y-114879523D01*
X151947619Y-114831904D01*
X152042857Y-114784285D01*
X152138095Y-114784285D01*
X152280952Y-114831904D01*
X152852380Y-115403333D01*
X152852380Y-114784285D01*
X159845714Y-90737619D02*
X159893333Y-90690000D01*
X159988571Y-90642380D01*
X160226666Y-90642380D01*
X160321904Y-90690000D01*
X160369523Y-90737619D01*
X160417142Y-90832857D01*
X160417142Y-90928095D01*
X160369523Y-91070952D01*
X159798095Y-91642380D01*
X160417142Y-91642380D01*
X160845714Y-91642380D02*
X160845714Y-90642380D01*
X161417142Y-91642380D01*
X161417142Y-90642380D01*
X161798095Y-90642380D02*
X162417142Y-90642380D01*
X162083809Y-91023333D01*
X162226666Y-91023333D01*
X162321904Y-91070952D01*
X162369523Y-91118571D01*
X162417142Y-91213809D01*
X162417142Y-91451904D01*
X162369523Y-91547142D01*
X162321904Y-91594761D01*
X162226666Y-91642380D01*
X161940952Y-91642380D01*
X161845714Y-91594761D01*
X161798095Y-91547142D01*
X162893333Y-91642380D02*
X163083809Y-91642380D01*
X163179047Y-91594761D01*
X163226666Y-91547142D01*
X163321904Y-91404285D01*
X163369523Y-91213809D01*
X163369523Y-90832857D01*
X163321904Y-90737619D01*
X163274285Y-90690000D01*
X163179047Y-90642380D01*
X162988571Y-90642380D01*
X162893333Y-90690000D01*
X162845714Y-90737619D01*
X162798095Y-90832857D01*
X162798095Y-91070952D01*
X162845714Y-91166190D01*
X162893333Y-91213809D01*
X162988571Y-91261428D01*
X163179047Y-91261428D01*
X163274285Y-91213809D01*
X163321904Y-91166190D01*
X163369523Y-91070952D01*
X163988571Y-90642380D02*
X164083809Y-90642380D01*
X164179047Y-90690000D01*
X164226666Y-90737619D01*
X164274285Y-90832857D01*
X164321904Y-91023333D01*
X164321904Y-91261428D01*
X164274285Y-91451904D01*
X164226666Y-91547142D01*
X164179047Y-91594761D01*
X164083809Y-91642380D01*
X163988571Y-91642380D01*
X163893333Y-91594761D01*
X163845714Y-91547142D01*
X163798095Y-91451904D01*
X163750476Y-91261428D01*
X163750476Y-91023333D01*
X163798095Y-90832857D01*
X163845714Y-90737619D01*
X163893333Y-90690000D01*
X163988571Y-90642380D01*
X165179047Y-90975714D02*
X165179047Y-91642380D01*
X164940952Y-90594761D02*
X164702857Y-91309047D01*
X165321904Y-91309047D01*
X162464761Y-98087619D02*
X162369523Y-98040000D01*
X162274285Y-97944761D01*
X162131428Y-97801904D01*
X162036190Y-97754285D01*
X161940952Y-97754285D01*
X161988571Y-97992380D02*
X161893333Y-97944761D01*
X161798095Y-97849523D01*
X161750476Y-97659047D01*
X161750476Y-97325714D01*
X161798095Y-97135238D01*
X161893333Y-97040000D01*
X161988571Y-96992380D01*
X162179047Y-96992380D01*
X162274285Y-97040000D01*
X162369523Y-97135238D01*
X162417142Y-97325714D01*
X162417142Y-97659047D01*
X162369523Y-97849523D01*
X162274285Y-97944761D01*
X162179047Y-97992380D01*
X161988571Y-97992380D01*
X163369523Y-97992380D02*
X162798095Y-97992380D01*
X163083809Y-97992380D02*
X163083809Y-96992380D01*
X162988571Y-97135238D01*
X162893333Y-97230476D01*
X162798095Y-97278095D01*
X151010952Y-92062380D02*
X150439523Y-92062380D01*
X150725238Y-92062380D02*
X150725238Y-91062380D01*
X150630000Y-91205238D01*
X150534761Y-91300476D01*
X150439523Y-91348095D01*
X151439523Y-92062380D02*
X151439523Y-91062380D01*
X151534761Y-91681428D02*
X151820476Y-92062380D01*
X151820476Y-91395714D02*
X151439523Y-91776666D01*
X150963333Y-94432380D02*
X150630000Y-93956190D01*
X150391904Y-94432380D02*
X150391904Y-93432380D01*
X150772857Y-93432380D01*
X150868095Y-93480000D01*
X150915714Y-93527619D01*
X150963333Y-93622857D01*
X150963333Y-93765714D01*
X150915714Y-93860952D01*
X150868095Y-93908571D01*
X150772857Y-93956190D01*
X150391904Y-93956190D01*
X151820476Y-93765714D02*
X151820476Y-94432380D01*
X151582380Y-93384761D02*
X151344285Y-94099047D01*
X151963333Y-94099047D01*
X152106666Y-74072380D02*
X152106666Y-73072380D01*
X153154285Y-74072380D02*
X152820952Y-73596190D01*
X152582857Y-74072380D02*
X152582857Y-73072380D01*
X152963809Y-73072380D01*
X153059047Y-73120000D01*
X153106666Y-73167619D01*
X153154285Y-73262857D01*
X153154285Y-73405714D01*
X153106666Y-73500952D01*
X153059047Y-73548571D01*
X152963809Y-73596190D01*
X152582857Y-73596190D01*
X153916190Y-73548571D02*
X153582857Y-73548571D01*
X153582857Y-74072380D02*
X153582857Y-73072380D01*
X154059047Y-73072380D01*
X154487619Y-74072380D02*
X154678095Y-74072380D01*
X154773333Y-74024761D01*
X154820952Y-73977142D01*
X154916190Y-73834285D01*
X154963809Y-73643809D01*
X154963809Y-73262857D01*
X154916190Y-73167619D01*
X154868571Y-73120000D01*
X154773333Y-73072380D01*
X154582857Y-73072380D01*
X154487619Y-73120000D01*
X154440000Y-73167619D01*
X154392380Y-73262857D01*
X154392380Y-73500952D01*
X154440000Y-73596190D01*
X154487619Y-73643809D01*
X154582857Y-73691428D01*
X154773333Y-73691428D01*
X154868571Y-73643809D01*
X154916190Y-73596190D01*
X154963809Y-73500952D01*
X155820952Y-73072380D02*
X155630476Y-73072380D01*
X155535238Y-73120000D01*
X155487619Y-73167619D01*
X155392380Y-73310476D01*
X155344761Y-73500952D01*
X155344761Y-73881904D01*
X155392380Y-73977142D01*
X155440000Y-74024761D01*
X155535238Y-74072380D01*
X155725714Y-74072380D01*
X155820952Y-74024761D01*
X155868571Y-73977142D01*
X155916190Y-73881904D01*
X155916190Y-73643809D01*
X155868571Y-73548571D01*
X155820952Y-73500952D01*
X155725714Y-73453333D01*
X155535238Y-73453333D01*
X155440000Y-73500952D01*
X155392380Y-73548571D01*
X155344761Y-73643809D01*
X156249523Y-73072380D02*
X156868571Y-73072380D01*
X156535238Y-73453333D01*
X156678095Y-73453333D01*
X156773333Y-73500952D01*
X156820952Y-73548571D01*
X156868571Y-73643809D01*
X156868571Y-73881904D01*
X156820952Y-73977142D01*
X156773333Y-74024761D01*
X156678095Y-74072380D01*
X156392380Y-74072380D01*
X156297142Y-74024761D01*
X156249523Y-73977142D01*
X157487619Y-73072380D02*
X157582857Y-73072380D01*
X157678095Y-73120000D01*
X157725714Y-73167619D01*
X157773333Y-73262857D01*
X157820952Y-73453333D01*
X157820952Y-73691428D01*
X157773333Y-73881904D01*
X157725714Y-73977142D01*
X157678095Y-74024761D01*
X157582857Y-74072380D01*
X157487619Y-74072380D01*
X157392380Y-74024761D01*
X157344761Y-73977142D01*
X157297142Y-73881904D01*
X157249523Y-73691428D01*
X157249523Y-73453333D01*
X157297142Y-73262857D01*
X157344761Y-73167619D01*
X157392380Y-73120000D01*
X157487619Y-73072380D01*
X154844761Y-67397619D02*
X154749523Y-67350000D01*
X154654285Y-67254761D01*
X154511428Y-67111904D01*
X154416190Y-67064285D01*
X154320952Y-67064285D01*
X154368571Y-67302380D02*
X154273333Y-67254761D01*
X154178095Y-67159523D01*
X154130476Y-66969047D01*
X154130476Y-66635714D01*
X154178095Y-66445238D01*
X154273333Y-66350000D01*
X154368571Y-66302380D01*
X154559047Y-66302380D01*
X154654285Y-66350000D01*
X154749523Y-66445238D01*
X154797142Y-66635714D01*
X154797142Y-66969047D01*
X154749523Y-67159523D01*
X154654285Y-67254761D01*
X154559047Y-67302380D01*
X154368571Y-67302380D01*
X155178095Y-66397619D02*
X155225714Y-66350000D01*
X155320952Y-66302380D01*
X155559047Y-66302380D01*
X155654285Y-66350000D01*
X155701904Y-66397619D01*
X155749523Y-66492857D01*
X155749523Y-66588095D01*
X155701904Y-66730952D01*
X155130476Y-67302380D01*
X155749523Y-67302380D01*
X103568571Y-64261904D02*
X103568571Y-64595238D01*
X104092380Y-64595238D02*
X103092380Y-64595238D01*
X103092380Y-64119047D01*
X104092380Y-63309523D02*
X103568571Y-63309523D01*
X103473333Y-63357142D01*
X103425714Y-63452380D01*
X103425714Y-63642857D01*
X103473333Y-63738095D01*
X104044761Y-63309523D02*
X104092380Y-63404761D01*
X104092380Y-63642857D01*
X104044761Y-63738095D01*
X103949523Y-63785714D01*
X103854285Y-63785714D01*
X103759047Y-63738095D01*
X103711428Y-63642857D01*
X103711428Y-63404761D01*
X103663809Y-63309523D01*
X103425714Y-62833333D02*
X104092380Y-62833333D01*
X103520952Y-62833333D02*
X103473333Y-62785714D01*
X103425714Y-62690476D01*
X103425714Y-62547619D01*
X103473333Y-62452380D01*
X103568571Y-62404761D01*
X104092380Y-62404761D01*
X124888571Y-64261904D02*
X124888571Y-64595238D01*
X125412380Y-64595238D02*
X124412380Y-64595238D01*
X124412380Y-64119047D01*
X125412380Y-63309523D02*
X124888571Y-63309523D01*
X124793333Y-63357142D01*
X124745714Y-63452380D01*
X124745714Y-63642857D01*
X124793333Y-63738095D01*
X125364761Y-63309523D02*
X125412380Y-63404761D01*
X125412380Y-63642857D01*
X125364761Y-63738095D01*
X125269523Y-63785714D01*
X125174285Y-63785714D01*
X125079047Y-63738095D01*
X125031428Y-63642857D01*
X125031428Y-63404761D01*
X124983809Y-63309523D01*
X124745714Y-62833333D02*
X125412380Y-62833333D01*
X124840952Y-62833333D02*
X124793333Y-62785714D01*
X124745714Y-62690476D01*
X124745714Y-62547619D01*
X124793333Y-62452380D01*
X124888571Y-62404761D01*
X125412380Y-62404761D01*
X156988571Y-46802380D02*
X156988571Y-45802380D01*
X157369523Y-45802380D01*
X157464761Y-45850000D01*
X157512380Y-45897619D01*
X157560000Y-45992857D01*
X157560000Y-46135714D01*
X157512380Y-46230952D01*
X157464761Y-46278571D01*
X157369523Y-46326190D01*
X156988571Y-46326190D01*
X158369523Y-46754761D02*
X158274285Y-46802380D01*
X158083809Y-46802380D01*
X157988571Y-46754761D01*
X157940952Y-46659523D01*
X157940952Y-46278571D01*
X157988571Y-46183333D01*
X158083809Y-46135714D01*
X158274285Y-46135714D01*
X158369523Y-46183333D01*
X158417142Y-46278571D01*
X158417142Y-46373809D01*
X157940952Y-46469047D01*
X158988571Y-46802380D02*
X158893333Y-46754761D01*
X158845714Y-46659523D01*
X158845714Y-45802380D01*
X159226666Y-46135714D02*
X159607619Y-46135714D01*
X159369523Y-45802380D02*
X159369523Y-46659523D01*
X159417142Y-46754761D01*
X159512380Y-46802380D01*
X159607619Y-46802380D01*
X159940952Y-46802380D02*
X159940952Y-46135714D01*
X159940952Y-45802380D02*
X159893333Y-45850000D01*
X159940952Y-45897619D01*
X159988571Y-45850000D01*
X159940952Y-45802380D01*
X159940952Y-45897619D01*
X160798095Y-46754761D02*
X160702857Y-46802380D01*
X160512380Y-46802380D01*
X160417142Y-46754761D01*
X160369523Y-46659523D01*
X160369523Y-46278571D01*
X160417142Y-46183333D01*
X160512380Y-46135714D01*
X160702857Y-46135714D01*
X160798095Y-46183333D01*
X160845714Y-46278571D01*
X160845714Y-46373809D01*
X160369523Y-46469047D01*
X161274285Y-46802380D02*
X161274285Y-46135714D01*
X161274285Y-46326190D02*
X161321904Y-46230952D01*
X161369523Y-46183333D01*
X161464761Y-46135714D01*
X161560000Y-46135714D01*
X161655238Y-46897619D02*
X162417142Y-46897619D01*
X162655238Y-46278571D02*
X162988571Y-46278571D01*
X163131428Y-46802380D02*
X162655238Y-46802380D01*
X162655238Y-45802380D01*
X163131428Y-45802380D01*
X163702857Y-46802380D02*
X163607619Y-46754761D01*
X163560000Y-46659523D01*
X163560000Y-45802380D01*
X164464761Y-46754761D02*
X164369523Y-46802380D01*
X164179047Y-46802380D01*
X164083809Y-46754761D01*
X164036190Y-46659523D01*
X164036190Y-46278571D01*
X164083809Y-46183333D01*
X164179047Y-46135714D01*
X164369523Y-46135714D01*
X164464761Y-46183333D01*
X164512380Y-46278571D01*
X164512380Y-46373809D01*
X164036190Y-46469047D01*
X164940952Y-46802380D02*
X164940952Y-46135714D01*
X164940952Y-46230952D02*
X164988571Y-46183333D01*
X165083809Y-46135714D01*
X165226666Y-46135714D01*
X165321904Y-46183333D01*
X165369523Y-46278571D01*
X165369523Y-46802380D01*
X165369523Y-46278571D02*
X165417142Y-46183333D01*
X165512380Y-46135714D01*
X165655238Y-46135714D01*
X165750476Y-46183333D01*
X165798095Y-46278571D01*
X165798095Y-46802380D01*
X166655238Y-46754761D02*
X166560000Y-46802380D01*
X166369523Y-46802380D01*
X166274285Y-46754761D01*
X166226666Y-46659523D01*
X166226666Y-46278571D01*
X166274285Y-46183333D01*
X166369523Y-46135714D01*
X166560000Y-46135714D01*
X166655238Y-46183333D01*
X166702857Y-46278571D01*
X166702857Y-46373809D01*
X166226666Y-46469047D01*
X167131428Y-46135714D02*
X167131428Y-46802380D01*
X167131428Y-46230952D02*
X167179047Y-46183333D01*
X167274285Y-46135714D01*
X167417142Y-46135714D01*
X167512380Y-46183333D01*
X167560000Y-46278571D01*
X167560000Y-46802380D01*
X167893333Y-46135714D02*
X168274285Y-46135714D01*
X168036190Y-45802380D02*
X168036190Y-46659523D01*
X168083809Y-46754761D01*
X168179047Y-46802380D01*
X168274285Y-46802380D01*
X161369523Y-58302380D02*
X161369523Y-57302380D01*
X161750476Y-57302380D01*
X161845714Y-57350000D01*
X161893333Y-57397619D01*
X161940952Y-57492857D01*
X161940952Y-57635714D01*
X161893333Y-57730952D01*
X161845714Y-57778571D01*
X161750476Y-57826190D01*
X161369523Y-57826190D01*
X162369523Y-57778571D02*
X162702857Y-57778571D01*
X162845714Y-58302380D02*
X162369523Y-58302380D01*
X162369523Y-57302380D01*
X162845714Y-57302380D01*
X163798095Y-58302380D02*
X163226666Y-58302380D01*
X163512380Y-58302380D02*
X163512380Y-57302380D01*
X163417142Y-57445238D01*
X163321904Y-57540476D01*
X163226666Y-57588095D01*
X95726666Y-44912380D02*
X96298095Y-44912380D01*
X96012380Y-45912380D02*
X96012380Y-44912380D01*
X97012380Y-45864761D02*
X96917142Y-45912380D01*
X96726666Y-45912380D01*
X96631428Y-45864761D01*
X96583809Y-45769523D01*
X96583809Y-45388571D01*
X96631428Y-45293333D01*
X96726666Y-45245714D01*
X96917142Y-45245714D01*
X97012380Y-45293333D01*
X97060000Y-45388571D01*
X97060000Y-45483809D01*
X96583809Y-45579047D01*
X97440952Y-45864761D02*
X97536190Y-45912380D01*
X97726666Y-45912380D01*
X97821904Y-45864761D01*
X97869523Y-45769523D01*
X97869523Y-45721904D01*
X97821904Y-45626666D01*
X97726666Y-45579047D01*
X97583809Y-45579047D01*
X97488571Y-45531428D01*
X97440952Y-45436190D01*
X97440952Y-45388571D01*
X97488571Y-45293333D01*
X97583809Y-45245714D01*
X97726666Y-45245714D01*
X97821904Y-45293333D01*
X98155238Y-45245714D02*
X98536190Y-45245714D01*
X98298095Y-44912380D02*
X98298095Y-45769523D01*
X98345714Y-45864761D01*
X98440952Y-45912380D01*
X98536190Y-45912380D01*
X98869523Y-45912380D02*
X98869523Y-44912380D01*
X99250476Y-44912380D01*
X99345714Y-44960000D01*
X99393333Y-45007619D01*
X99440952Y-45102857D01*
X99440952Y-45245714D01*
X99393333Y-45340952D01*
X99345714Y-45388571D01*
X99250476Y-45436190D01*
X98869523Y-45436190D01*
X100012380Y-45912380D02*
X99917142Y-45864761D01*
X99869523Y-45817142D01*
X99821904Y-45721904D01*
X99821904Y-45436190D01*
X99869523Y-45340952D01*
X99917142Y-45293333D01*
X100012380Y-45245714D01*
X100155238Y-45245714D01*
X100250476Y-45293333D01*
X100298095Y-45340952D01*
X100345714Y-45436190D01*
X100345714Y-45721904D01*
X100298095Y-45817142D01*
X100250476Y-45864761D01*
X100155238Y-45912380D01*
X100012380Y-45912380D01*
X100774285Y-45912380D02*
X100774285Y-45245714D01*
X100774285Y-44912380D02*
X100726666Y-44960000D01*
X100774285Y-45007619D01*
X100821904Y-44960000D01*
X100774285Y-44912380D01*
X100774285Y-45007619D01*
X101250476Y-45245714D02*
X101250476Y-45912380D01*
X101250476Y-45340952D02*
X101298095Y-45293333D01*
X101393333Y-45245714D01*
X101536190Y-45245714D01*
X101631428Y-45293333D01*
X101679047Y-45388571D01*
X101679047Y-45912380D01*
X102012380Y-45245714D02*
X102393333Y-45245714D01*
X102155238Y-44912380D02*
X102155238Y-45769523D01*
X102202857Y-45864761D01*
X102298095Y-45912380D01*
X102393333Y-45912380D01*
X98498095Y-50212380D02*
X99069523Y-50212380D01*
X98783809Y-51212380D02*
X98783809Y-50212380D01*
X99402857Y-51212380D02*
X99402857Y-50212380D01*
X99783809Y-50212380D01*
X99879047Y-50260000D01*
X99926666Y-50307619D01*
X99974285Y-50402857D01*
X99974285Y-50545714D01*
X99926666Y-50640952D01*
X99879047Y-50688571D01*
X99783809Y-50736190D01*
X99402857Y-50736190D01*
X100879047Y-50212380D02*
X100402857Y-50212380D01*
X100355238Y-50688571D01*
X100402857Y-50640952D01*
X100498095Y-50593333D01*
X100736190Y-50593333D01*
X100831428Y-50640952D01*
X100879047Y-50688571D01*
X100926666Y-50783809D01*
X100926666Y-51021904D01*
X100879047Y-51117142D01*
X100831428Y-51164761D01*
X100736190Y-51212380D01*
X100498095Y-51212380D01*
X100402857Y-51164761D01*
X100355238Y-51117142D01*
X108552380Y-126372857D02*
X108552380Y-126849047D01*
X107552380Y-126849047D01*
X108028571Y-126039523D02*
X108028571Y-125706190D01*
X108552380Y-125563333D02*
X108552380Y-126039523D01*
X107552380Y-126039523D01*
X107552380Y-125563333D01*
X108552380Y-125134761D02*
X107552380Y-125134761D01*
X107552380Y-124896666D01*
X107600000Y-124753809D01*
X107695238Y-124658571D01*
X107790476Y-124610952D01*
X107980952Y-124563333D01*
X108123809Y-124563333D01*
X108314285Y-124610952D01*
X108409523Y-124658571D01*
X108504761Y-124753809D01*
X108552380Y-124896666D01*
X108552380Y-125134761D01*
D11*
X104501904Y-126340476D02*
X103701904Y-126340476D01*
X103701904Y-126150000D01*
X103740000Y-126035714D01*
X103816190Y-125959523D01*
X103892380Y-125921428D01*
X104044761Y-125883333D01*
X104159047Y-125883333D01*
X104311428Y-125921428D01*
X104387619Y-125959523D01*
X104463809Y-126035714D01*
X104501904Y-126150000D01*
X104501904Y-126340476D01*
X103701904Y-125159523D02*
X103701904Y-125540476D01*
X104082857Y-125578571D01*
X104044761Y-125540476D01*
X104006666Y-125464285D01*
X104006666Y-125273809D01*
X104044761Y-125197619D01*
X104082857Y-125159523D01*
X104159047Y-125121428D01*
X104349523Y-125121428D01*
X104425714Y-125159523D01*
X104463809Y-125197619D01*
X104501904Y-125273809D01*
X104501904Y-125464285D01*
X104463809Y-125540476D01*
X104425714Y-125578571D01*
D10*
X128872380Y-126372857D02*
X128872380Y-126849047D01*
X127872380Y-126849047D01*
X128348571Y-126039523D02*
X128348571Y-125706190D01*
X128872380Y-125563333D02*
X128872380Y-126039523D01*
X127872380Y-126039523D01*
X127872380Y-125563333D01*
X128872380Y-125134761D02*
X127872380Y-125134761D01*
X127872380Y-124896666D01*
X127920000Y-124753809D01*
X128015238Y-124658571D01*
X128110476Y-124610952D01*
X128300952Y-124563333D01*
X128443809Y-124563333D01*
X128634285Y-124610952D01*
X128729523Y-124658571D01*
X128824761Y-124753809D01*
X128872380Y-124896666D01*
X128872380Y-125134761D01*
D11*
X124821904Y-126340476D02*
X124021904Y-126340476D01*
X124021904Y-126150000D01*
X124060000Y-126035714D01*
X124136190Y-125959523D01*
X124212380Y-125921428D01*
X124364761Y-125883333D01*
X124479047Y-125883333D01*
X124631428Y-125921428D01*
X124707619Y-125959523D01*
X124783809Y-126035714D01*
X124821904Y-126150000D01*
X124821904Y-126340476D01*
X124021904Y-125616666D02*
X124021904Y-125083333D01*
X124821904Y-125426190D01*
D10*
X66267619Y-83744285D02*
X66220000Y-83696666D01*
X66172380Y-83601428D01*
X66172380Y-83363333D01*
X66220000Y-83268095D01*
X66267619Y-83220476D01*
X66362857Y-83172857D01*
X66458095Y-83172857D01*
X66600952Y-83220476D01*
X67172380Y-83791904D01*
X67172380Y-83172857D01*
X66267619Y-82791904D02*
X66220000Y-82744285D01*
X66172380Y-82649047D01*
X66172380Y-82410952D01*
X66220000Y-82315714D01*
X66267619Y-82268095D01*
X66362857Y-82220476D01*
X66458095Y-82220476D01*
X66600952Y-82268095D01*
X67172380Y-82839523D01*
X67172380Y-82220476D01*
X66505714Y-81363333D02*
X67172380Y-81363333D01*
X66505714Y-81791904D02*
X67029523Y-81791904D01*
X67124761Y-81744285D01*
X67172380Y-81649047D01*
X67172380Y-81506190D01*
X67124761Y-81410952D01*
X67077142Y-81363333D01*
X71477142Y-82696666D02*
X71524761Y-82744285D01*
X71572380Y-82887142D01*
X71572380Y-82982380D01*
X71524761Y-83125238D01*
X71429523Y-83220476D01*
X71334285Y-83268095D01*
X71143809Y-83315714D01*
X71000952Y-83315714D01*
X70810476Y-83268095D01*
X70715238Y-83220476D01*
X70620000Y-83125238D01*
X70572380Y-82982380D01*
X70572380Y-82887142D01*
X70620000Y-82744285D01*
X70667619Y-82696666D01*
X70572380Y-82363333D02*
X70572380Y-81744285D01*
X70953333Y-82077619D01*
X70953333Y-81934761D01*
X71000952Y-81839523D01*
X71048571Y-81791904D01*
X71143809Y-81744285D01*
X71381904Y-81744285D01*
X71477142Y-81791904D01*
X71524761Y-81839523D01*
X71572380Y-81934761D01*
X71572380Y-82220476D01*
X71524761Y-82315714D01*
X71477142Y-82363333D01*
X132702380Y-116959047D02*
X132702380Y-117530476D01*
X132702380Y-117244761D02*
X131702380Y-117244761D01*
X131845238Y-117340000D01*
X131940476Y-117435238D01*
X131988095Y-117530476D01*
X132702380Y-116530476D02*
X131702380Y-116530476D01*
X132321428Y-116435238D02*
X132702380Y-116149523D01*
X132035714Y-116149523D02*
X132416666Y-116530476D01*
X135072380Y-117482857D02*
X134596190Y-117816190D01*
X135072380Y-118054285D02*
X134072380Y-118054285D01*
X134072380Y-117673333D01*
X134120000Y-117578095D01*
X134167619Y-117530476D01*
X134262857Y-117482857D01*
X134405714Y-117482857D01*
X134500952Y-117530476D01*
X134548571Y-117578095D01*
X134596190Y-117673333D01*
X134596190Y-118054285D01*
X135072380Y-116530476D02*
X135072380Y-117101904D01*
X135072380Y-116816190D02*
X134072380Y-116816190D01*
X134215238Y-116911428D01*
X134310476Y-117006666D01*
X134358095Y-117101904D01*
X134072380Y-116197142D02*
X134072380Y-115578095D01*
X134453333Y-115911428D01*
X134453333Y-115768571D01*
X134500952Y-115673333D01*
X134548571Y-115625714D01*
X134643809Y-115578095D01*
X134881904Y-115578095D01*
X134977142Y-115625714D01*
X135024761Y-115673333D01*
X135072380Y-115768571D01*
X135072380Y-116054285D01*
X135024761Y-116149523D01*
X134977142Y-116197142D01*
X102222380Y-116959047D02*
X102222380Y-117530476D01*
X102222380Y-117244761D02*
X101222380Y-117244761D01*
X101365238Y-117340000D01*
X101460476Y-117435238D01*
X101508095Y-117530476D01*
X102222380Y-116530476D02*
X101222380Y-116530476D01*
X101841428Y-116435238D02*
X102222380Y-116149523D01*
X101555714Y-116149523D02*
X101936666Y-116530476D01*
X104592380Y-117006666D02*
X104116190Y-117340000D01*
X104592380Y-117578095D02*
X103592380Y-117578095D01*
X103592380Y-117197142D01*
X103640000Y-117101904D01*
X103687619Y-117054285D01*
X103782857Y-117006666D01*
X103925714Y-117006666D01*
X104020952Y-117054285D01*
X104068571Y-117101904D01*
X104116190Y-117197142D01*
X104116190Y-117578095D01*
X104592380Y-116530476D02*
X104592380Y-116340000D01*
X104544761Y-116244761D01*
X104497142Y-116197142D01*
X104354285Y-116101904D01*
X104163809Y-116054285D01*
X103782857Y-116054285D01*
X103687619Y-116101904D01*
X103640000Y-116149523D01*
X103592380Y-116244761D01*
X103592380Y-116435238D01*
X103640000Y-116530476D01*
X103687619Y-116578095D01*
X103782857Y-116625714D01*
X104020952Y-116625714D01*
X104116190Y-116578095D01*
X104163809Y-116530476D01*
X104211428Y-116435238D01*
X104211428Y-116244761D01*
X104163809Y-116149523D01*
X104116190Y-116101904D01*
X104020952Y-116054285D01*
X85056666Y-106756666D02*
X85056666Y-106280476D01*
X85342380Y-106851904D02*
X84342380Y-106518571D01*
X85342380Y-106185238D01*
X84342380Y-105994761D02*
X84342380Y-105423333D01*
X85342380Y-105709047D02*
X84342380Y-105709047D01*
X85342380Y-105090000D02*
X84675714Y-105090000D01*
X84770952Y-105090000D02*
X84723333Y-105042380D01*
X84675714Y-104947142D01*
X84675714Y-104804285D01*
X84723333Y-104709047D01*
X84818571Y-104661428D01*
X85342380Y-104661428D01*
X84818571Y-104661428D02*
X84723333Y-104613809D01*
X84675714Y-104518571D01*
X84675714Y-104375714D01*
X84723333Y-104280476D01*
X84818571Y-104232857D01*
X85342380Y-104232857D01*
X85294761Y-103375714D02*
X85342380Y-103470952D01*
X85342380Y-103661428D01*
X85294761Y-103756666D01*
X85199523Y-103804285D01*
X84818571Y-103804285D01*
X84723333Y-103756666D01*
X84675714Y-103661428D01*
X84675714Y-103470952D01*
X84723333Y-103375714D01*
X84818571Y-103328095D01*
X84913809Y-103328095D01*
X85009047Y-103804285D01*
X84675714Y-102470952D02*
X85485238Y-102470952D01*
X85580476Y-102518571D01*
X85628095Y-102566190D01*
X85675714Y-102661428D01*
X85675714Y-102804285D01*
X85628095Y-102899523D01*
X85294761Y-102470952D02*
X85342380Y-102566190D01*
X85342380Y-102756666D01*
X85294761Y-102851904D01*
X85247142Y-102899523D01*
X85151904Y-102947142D01*
X84866190Y-102947142D01*
X84770952Y-102899523D01*
X84723333Y-102851904D01*
X84675714Y-102756666D01*
X84675714Y-102566190D01*
X84723333Y-102470952D01*
X85342380Y-101566190D02*
X84818571Y-101566190D01*
X84723333Y-101613809D01*
X84675714Y-101709047D01*
X84675714Y-101899523D01*
X84723333Y-101994761D01*
X85294761Y-101566190D02*
X85342380Y-101661428D01*
X85342380Y-101899523D01*
X85294761Y-101994761D01*
X85199523Y-102042380D01*
X85104285Y-102042380D01*
X85009047Y-101994761D01*
X84961428Y-101899523D01*
X84961428Y-101661428D01*
X84913809Y-101566190D01*
X84342380Y-101185238D02*
X84342380Y-100566190D01*
X84723333Y-100899523D01*
X84723333Y-100756666D01*
X84770952Y-100661428D01*
X84818571Y-100613809D01*
X84913809Y-100566190D01*
X85151904Y-100566190D01*
X85247142Y-100613809D01*
X85294761Y-100661428D01*
X85342380Y-100756666D01*
X85342380Y-101042380D01*
X85294761Y-101137619D01*
X85247142Y-101185238D01*
X84437619Y-100185238D02*
X84390000Y-100137619D01*
X84342380Y-100042380D01*
X84342380Y-99804285D01*
X84390000Y-99709047D01*
X84437619Y-99661428D01*
X84532857Y-99613809D01*
X84628095Y-99613809D01*
X84770952Y-99661428D01*
X85342380Y-100232857D01*
X85342380Y-99613809D01*
X84770952Y-99042380D02*
X84723333Y-99137619D01*
X84675714Y-99185238D01*
X84580476Y-99232857D01*
X84532857Y-99232857D01*
X84437619Y-99185238D01*
X84390000Y-99137619D01*
X84342380Y-99042380D01*
X84342380Y-98851904D01*
X84390000Y-98756666D01*
X84437619Y-98709047D01*
X84532857Y-98661428D01*
X84580476Y-98661428D01*
X84675714Y-98709047D01*
X84723333Y-98756666D01*
X84770952Y-98851904D01*
X84770952Y-99042380D01*
X84818571Y-99137619D01*
X84866190Y-99185238D01*
X84961428Y-99232857D01*
X85151904Y-99232857D01*
X85247142Y-99185238D01*
X85294761Y-99137619D01*
X85342380Y-99042380D01*
X85342380Y-98851904D01*
X85294761Y-98756666D01*
X85247142Y-98709047D01*
X85151904Y-98661428D01*
X84961428Y-98661428D01*
X84866190Y-98709047D01*
X84818571Y-98756666D01*
X84770952Y-98851904D01*
X84961428Y-98232857D02*
X84961428Y-97470952D01*
X85342380Y-96994761D02*
X84342380Y-96994761D01*
X84342380Y-96613809D01*
X84390000Y-96518571D01*
X84437619Y-96470952D01*
X84532857Y-96423333D01*
X84675714Y-96423333D01*
X84770952Y-96470952D01*
X84818571Y-96518571D01*
X84866190Y-96613809D01*
X84866190Y-96994761D01*
X65502380Y-102351904D02*
X66311904Y-102351904D01*
X66407142Y-102304285D01*
X66454761Y-102256666D01*
X66502380Y-102161428D01*
X66502380Y-101970952D01*
X66454761Y-101875714D01*
X66407142Y-101828095D01*
X66311904Y-101780476D01*
X65502380Y-101780476D01*
X66502380Y-100780476D02*
X66502380Y-101351904D01*
X66502380Y-101066190D02*
X65502380Y-101066190D01*
X65645238Y-101161428D01*
X65740476Y-101256666D01*
X65788095Y-101351904D01*
X140835238Y-121412380D02*
X140787619Y-121555238D01*
X140787619Y-121793333D01*
X140835238Y-121888571D01*
X140882857Y-121936190D01*
X140978095Y-121983809D01*
X141073333Y-121983809D01*
X141168571Y-121936190D01*
X141216190Y-121888571D01*
X141263809Y-121793333D01*
X141311428Y-121602857D01*
X141359047Y-121507619D01*
X141406666Y-121460000D01*
X141501904Y-121412380D01*
X141597142Y-121412380D01*
X141692380Y-121460000D01*
X141740000Y-121507619D01*
X141787619Y-121602857D01*
X141787619Y-121840952D01*
X141740000Y-121983809D01*
X141787619Y-122317142D02*
X140787619Y-122555238D01*
X141501904Y-122745714D01*
X140787619Y-122936190D01*
X141787619Y-123174285D01*
X140692380Y-123317142D02*
X140692380Y-124079047D01*
X140787619Y-124317142D02*
X141787619Y-124317142D01*
X141787619Y-124698095D01*
X141740000Y-124793333D01*
X141692380Y-124840952D01*
X141597142Y-124888571D01*
X141454285Y-124888571D01*
X141359047Y-124840952D01*
X141311428Y-124793333D01*
X141263809Y-124698095D01*
X141263809Y-124317142D01*
X141454285Y-125745714D02*
X140787619Y-125745714D01*
X141454285Y-125317142D02*
X140930476Y-125317142D01*
X140835238Y-125364761D01*
X140787619Y-125460000D01*
X140787619Y-125602857D01*
X140835238Y-125698095D01*
X140882857Y-125745714D01*
X140835238Y-126174285D02*
X140787619Y-126269523D01*
X140787619Y-126460000D01*
X140835238Y-126555238D01*
X140930476Y-126602857D01*
X140978095Y-126602857D01*
X141073333Y-126555238D01*
X141120952Y-126460000D01*
X141120952Y-126317142D01*
X141168571Y-126221904D01*
X141263809Y-126174285D01*
X141311428Y-126174285D01*
X141406666Y-126221904D01*
X141454285Y-126317142D01*
X141454285Y-126460000D01*
X141406666Y-126555238D01*
X140787619Y-127031428D02*
X141787619Y-127031428D01*
X140787619Y-127460000D02*
X141311428Y-127460000D01*
X141406666Y-127412380D01*
X141454285Y-127317142D01*
X141454285Y-127174285D01*
X141406666Y-127079047D01*
X141359047Y-127031428D01*
X139335238Y-123126666D02*
X139287619Y-123269523D01*
X139287619Y-123507619D01*
X139335238Y-123602857D01*
X139382857Y-123650476D01*
X139478095Y-123698095D01*
X139573333Y-123698095D01*
X139668571Y-123650476D01*
X139716190Y-123602857D01*
X139763809Y-123507619D01*
X139811428Y-123317142D01*
X139859047Y-123221904D01*
X139906666Y-123174285D01*
X140001904Y-123126666D01*
X140097142Y-123126666D01*
X140192380Y-123174285D01*
X140240000Y-123221904D01*
X140287619Y-123317142D01*
X140287619Y-123555238D01*
X140240000Y-123698095D01*
X140287619Y-124031428D02*
X139287619Y-124269523D01*
X140001904Y-124460000D01*
X139287619Y-124650476D01*
X140287619Y-124888571D01*
X139287619Y-125793333D02*
X139287619Y-125221904D01*
X139287619Y-125507619D02*
X140287619Y-125507619D01*
X140144761Y-125412380D01*
X140049523Y-125317142D01*
X140001904Y-125221904D01*
X70834285Y-114582380D02*
X70262857Y-114582380D01*
X70548571Y-114582380D02*
X70548571Y-113582380D01*
X70453333Y-113725238D01*
X70358095Y-113820476D01*
X70262857Y-113868095D01*
X71262857Y-114582380D02*
X71262857Y-113582380D01*
X71596190Y-114296666D01*
X71929523Y-113582380D01*
X71929523Y-114582380D01*
X70477142Y-112212380D02*
X70143809Y-111736190D01*
X69905714Y-112212380D02*
X69905714Y-111212380D01*
X70286666Y-111212380D01*
X70381904Y-111260000D01*
X70429523Y-111307619D01*
X70477142Y-111402857D01*
X70477142Y-111545714D01*
X70429523Y-111640952D01*
X70381904Y-111688571D01*
X70286666Y-111736190D01*
X69905714Y-111736190D01*
X71429523Y-112212380D02*
X70858095Y-112212380D01*
X71143809Y-112212380D02*
X71143809Y-111212380D01*
X71048571Y-111355238D01*
X70953333Y-111450476D01*
X70858095Y-111498095D01*
X72048571Y-111212380D02*
X72143809Y-111212380D01*
X72239047Y-111260000D01*
X72286666Y-111307619D01*
X72334285Y-111402857D01*
X72381904Y-111593333D01*
X72381904Y-111831428D01*
X72334285Y-112021904D01*
X72286666Y-112117142D01*
X72239047Y-112164761D01*
X72143809Y-112212380D01*
X72048571Y-112212380D01*
X71953333Y-112164761D01*
X71905714Y-112117142D01*
X71858095Y-112021904D01*
X71810476Y-111831428D01*
X71810476Y-111593333D01*
X71858095Y-111402857D01*
X71905714Y-111307619D01*
X71953333Y-111260000D01*
X72048571Y-111212380D01*
X98392380Y-126372857D02*
X98392380Y-126849047D01*
X97392380Y-126849047D01*
X97868571Y-126039523D02*
X97868571Y-125706190D01*
X98392380Y-125563333D02*
X98392380Y-126039523D01*
X97392380Y-126039523D01*
X97392380Y-125563333D01*
X98392380Y-125134761D02*
X97392380Y-125134761D01*
X97392380Y-124896666D01*
X97440000Y-124753809D01*
X97535238Y-124658571D01*
X97630476Y-124610952D01*
X97820952Y-124563333D01*
X97963809Y-124563333D01*
X98154285Y-124610952D01*
X98249523Y-124658571D01*
X98344761Y-124753809D01*
X98392380Y-124896666D01*
X98392380Y-125134761D01*
D11*
X94341904Y-126340476D02*
X93541904Y-126340476D01*
X93541904Y-126150000D01*
X93580000Y-126035714D01*
X93656190Y-125959523D01*
X93732380Y-125921428D01*
X93884761Y-125883333D01*
X93999047Y-125883333D01*
X94151428Y-125921428D01*
X94227619Y-125959523D01*
X94303809Y-126035714D01*
X94341904Y-126150000D01*
X94341904Y-126340476D01*
X93808571Y-125197619D02*
X94341904Y-125197619D01*
X93503809Y-125388095D02*
X94075238Y-125578571D01*
X94075238Y-125083333D01*
D10*
X103346666Y-44912380D02*
X103918095Y-44912380D01*
X103632380Y-45912380D02*
X103632380Y-44912380D01*
X104632380Y-45864761D02*
X104537142Y-45912380D01*
X104346666Y-45912380D01*
X104251428Y-45864761D01*
X104203809Y-45769523D01*
X104203809Y-45388571D01*
X104251428Y-45293333D01*
X104346666Y-45245714D01*
X104537142Y-45245714D01*
X104632380Y-45293333D01*
X104680000Y-45388571D01*
X104680000Y-45483809D01*
X104203809Y-45579047D01*
X105060952Y-45864761D02*
X105156190Y-45912380D01*
X105346666Y-45912380D01*
X105441904Y-45864761D01*
X105489523Y-45769523D01*
X105489523Y-45721904D01*
X105441904Y-45626666D01*
X105346666Y-45579047D01*
X105203809Y-45579047D01*
X105108571Y-45531428D01*
X105060952Y-45436190D01*
X105060952Y-45388571D01*
X105108571Y-45293333D01*
X105203809Y-45245714D01*
X105346666Y-45245714D01*
X105441904Y-45293333D01*
X105775238Y-45245714D02*
X106156190Y-45245714D01*
X105918095Y-44912380D02*
X105918095Y-45769523D01*
X105965714Y-45864761D01*
X106060952Y-45912380D01*
X106156190Y-45912380D01*
X106489523Y-45912380D02*
X106489523Y-44912380D01*
X106870476Y-44912380D01*
X106965714Y-44960000D01*
X107013333Y-45007619D01*
X107060952Y-45102857D01*
X107060952Y-45245714D01*
X107013333Y-45340952D01*
X106965714Y-45388571D01*
X106870476Y-45436190D01*
X106489523Y-45436190D01*
X107632380Y-45912380D02*
X107537142Y-45864761D01*
X107489523Y-45817142D01*
X107441904Y-45721904D01*
X107441904Y-45436190D01*
X107489523Y-45340952D01*
X107537142Y-45293333D01*
X107632380Y-45245714D01*
X107775238Y-45245714D01*
X107870476Y-45293333D01*
X107918095Y-45340952D01*
X107965714Y-45436190D01*
X107965714Y-45721904D01*
X107918095Y-45817142D01*
X107870476Y-45864761D01*
X107775238Y-45912380D01*
X107632380Y-45912380D01*
X108394285Y-45912380D02*
X108394285Y-45245714D01*
X108394285Y-44912380D02*
X108346666Y-44960000D01*
X108394285Y-45007619D01*
X108441904Y-44960000D01*
X108394285Y-44912380D01*
X108394285Y-45007619D01*
X108870476Y-45245714D02*
X108870476Y-45912380D01*
X108870476Y-45340952D02*
X108918095Y-45293333D01*
X109013333Y-45245714D01*
X109156190Y-45245714D01*
X109251428Y-45293333D01*
X109299047Y-45388571D01*
X109299047Y-45912380D01*
X109632380Y-45245714D02*
X110013333Y-45245714D01*
X109775238Y-44912380D02*
X109775238Y-45769523D01*
X109822857Y-45864761D01*
X109918095Y-45912380D01*
X110013333Y-45912380D01*
X106118095Y-50212380D02*
X106689523Y-50212380D01*
X106403809Y-51212380D02*
X106403809Y-50212380D01*
X107022857Y-51212380D02*
X107022857Y-50212380D01*
X107403809Y-50212380D01*
X107499047Y-50260000D01*
X107546666Y-50307619D01*
X107594285Y-50402857D01*
X107594285Y-50545714D01*
X107546666Y-50640952D01*
X107499047Y-50688571D01*
X107403809Y-50736190D01*
X107022857Y-50736190D01*
X108546666Y-51212380D02*
X107975238Y-51212380D01*
X108260952Y-51212380D02*
X108260952Y-50212380D01*
X108165714Y-50355238D01*
X108070476Y-50450476D01*
X107975238Y-50498095D01*
X133826666Y-44912380D02*
X134398095Y-44912380D01*
X134112380Y-45912380D02*
X134112380Y-44912380D01*
X135112380Y-45864761D02*
X135017142Y-45912380D01*
X134826666Y-45912380D01*
X134731428Y-45864761D01*
X134683809Y-45769523D01*
X134683809Y-45388571D01*
X134731428Y-45293333D01*
X134826666Y-45245714D01*
X135017142Y-45245714D01*
X135112380Y-45293333D01*
X135160000Y-45388571D01*
X135160000Y-45483809D01*
X134683809Y-45579047D01*
X135540952Y-45864761D02*
X135636190Y-45912380D01*
X135826666Y-45912380D01*
X135921904Y-45864761D01*
X135969523Y-45769523D01*
X135969523Y-45721904D01*
X135921904Y-45626666D01*
X135826666Y-45579047D01*
X135683809Y-45579047D01*
X135588571Y-45531428D01*
X135540952Y-45436190D01*
X135540952Y-45388571D01*
X135588571Y-45293333D01*
X135683809Y-45245714D01*
X135826666Y-45245714D01*
X135921904Y-45293333D01*
X136255238Y-45245714D02*
X136636190Y-45245714D01*
X136398095Y-44912380D02*
X136398095Y-45769523D01*
X136445714Y-45864761D01*
X136540952Y-45912380D01*
X136636190Y-45912380D01*
X136969523Y-45912380D02*
X136969523Y-44912380D01*
X137350476Y-44912380D01*
X137445714Y-44960000D01*
X137493333Y-45007619D01*
X137540952Y-45102857D01*
X137540952Y-45245714D01*
X137493333Y-45340952D01*
X137445714Y-45388571D01*
X137350476Y-45436190D01*
X136969523Y-45436190D01*
X138112380Y-45912380D02*
X138017142Y-45864761D01*
X137969523Y-45817142D01*
X137921904Y-45721904D01*
X137921904Y-45436190D01*
X137969523Y-45340952D01*
X138017142Y-45293333D01*
X138112380Y-45245714D01*
X138255238Y-45245714D01*
X138350476Y-45293333D01*
X138398095Y-45340952D01*
X138445714Y-45436190D01*
X138445714Y-45721904D01*
X138398095Y-45817142D01*
X138350476Y-45864761D01*
X138255238Y-45912380D01*
X138112380Y-45912380D01*
X138874285Y-45912380D02*
X138874285Y-45245714D01*
X138874285Y-44912380D02*
X138826666Y-44960000D01*
X138874285Y-45007619D01*
X138921904Y-44960000D01*
X138874285Y-44912380D01*
X138874285Y-45007619D01*
X139350476Y-45245714D02*
X139350476Y-45912380D01*
X139350476Y-45340952D02*
X139398095Y-45293333D01*
X139493333Y-45245714D01*
X139636190Y-45245714D01*
X139731428Y-45293333D01*
X139779047Y-45388571D01*
X139779047Y-45912380D01*
X140112380Y-45245714D02*
X140493333Y-45245714D01*
X140255238Y-44912380D02*
X140255238Y-45769523D01*
X140302857Y-45864761D01*
X140398095Y-45912380D01*
X140493333Y-45912380D01*
X136598095Y-50212380D02*
X137169523Y-50212380D01*
X136883809Y-51212380D02*
X136883809Y-50212380D01*
X137502857Y-51212380D02*
X137502857Y-50212380D01*
X137883809Y-50212380D01*
X137979047Y-50260000D01*
X138026666Y-50307619D01*
X138074285Y-50402857D01*
X138074285Y-50545714D01*
X138026666Y-50640952D01*
X137979047Y-50688571D01*
X137883809Y-50736190D01*
X137502857Y-50736190D01*
X138407619Y-50212380D02*
X139026666Y-50212380D01*
X138693333Y-50593333D01*
X138836190Y-50593333D01*
X138931428Y-50640952D01*
X138979047Y-50688571D01*
X139026666Y-50783809D01*
X139026666Y-51021904D01*
X138979047Y-51117142D01*
X138931428Y-51164761D01*
X138836190Y-51212380D01*
X138550476Y-51212380D01*
X138455238Y-51164761D01*
X138407619Y-51117142D01*
X122542380Y-116959047D02*
X122542380Y-117530476D01*
X122542380Y-117244761D02*
X121542380Y-117244761D01*
X121685238Y-117340000D01*
X121780476Y-117435238D01*
X121828095Y-117530476D01*
X122542380Y-116530476D02*
X121542380Y-116530476D01*
X122161428Y-116435238D02*
X122542380Y-116149523D01*
X121875714Y-116149523D02*
X122256666Y-116530476D01*
X124912380Y-117482857D02*
X124436190Y-117816190D01*
X124912380Y-118054285D02*
X123912380Y-118054285D01*
X123912380Y-117673333D01*
X123960000Y-117578095D01*
X124007619Y-117530476D01*
X124102857Y-117482857D01*
X124245714Y-117482857D01*
X124340952Y-117530476D01*
X124388571Y-117578095D01*
X124436190Y-117673333D01*
X124436190Y-118054285D01*
X124912380Y-116530476D02*
X124912380Y-117101904D01*
X124912380Y-116816190D02*
X123912380Y-116816190D01*
X124055238Y-116911428D01*
X124150476Y-117006666D01*
X124198095Y-117101904D01*
X124007619Y-116149523D02*
X123960000Y-116101904D01*
X123912380Y-116006666D01*
X123912380Y-115768571D01*
X123960000Y-115673333D01*
X124007619Y-115625714D01*
X124102857Y-115578095D01*
X124198095Y-115578095D01*
X124340952Y-115625714D01*
X124912380Y-116197142D01*
X124912380Y-115578095D01*
X63575714Y-122147619D02*
X63623333Y-122100000D01*
X63718571Y-122052380D01*
X63956666Y-122052380D01*
X64051904Y-122100000D01*
X64099523Y-122147619D01*
X64147142Y-122242857D01*
X64147142Y-122338095D01*
X64099523Y-122480952D01*
X63528095Y-123052380D01*
X64147142Y-123052380D01*
X64766190Y-122052380D02*
X64861428Y-122052380D01*
X64956666Y-122100000D01*
X65004285Y-122147619D01*
X65051904Y-122242857D01*
X65099523Y-122433333D01*
X65099523Y-122671428D01*
X65051904Y-122861904D01*
X65004285Y-122957142D01*
X64956666Y-123004761D01*
X64861428Y-123052380D01*
X64766190Y-123052380D01*
X64670952Y-123004761D01*
X64623333Y-122957142D01*
X64575714Y-122861904D01*
X64528095Y-122671428D01*
X64528095Y-122433333D01*
X64575714Y-122242857D01*
X64623333Y-122147619D01*
X64670952Y-122100000D01*
X64766190Y-122052380D01*
X65528095Y-122385714D02*
X65528095Y-123385714D01*
X65528095Y-122433333D02*
X65623333Y-122385714D01*
X65813809Y-122385714D01*
X65909047Y-122433333D01*
X65956666Y-122480952D01*
X66004285Y-122576190D01*
X66004285Y-122861904D01*
X65956666Y-122957142D01*
X65909047Y-123004761D01*
X65813809Y-123052380D01*
X65623333Y-123052380D01*
X65528095Y-123004761D01*
X64623333Y-127357142D02*
X64575714Y-127404761D01*
X64432857Y-127452380D01*
X64337619Y-127452380D01*
X64194761Y-127404761D01*
X64099523Y-127309523D01*
X64051904Y-127214285D01*
X64004285Y-127023809D01*
X64004285Y-126880952D01*
X64051904Y-126690476D01*
X64099523Y-126595238D01*
X64194761Y-126500000D01*
X64337619Y-126452380D01*
X64432857Y-126452380D01*
X64575714Y-126500000D01*
X64623333Y-126547619D01*
X65480476Y-126785714D02*
X65480476Y-127452380D01*
X65242380Y-126404761D02*
X65004285Y-127119047D01*
X65623333Y-127119047D01*
X60840952Y-89522380D02*
X60269523Y-89522380D01*
X60555238Y-89522380D02*
X60555238Y-88522380D01*
X60460000Y-88665238D01*
X60364761Y-88760476D01*
X60269523Y-88808095D01*
X61269523Y-89522380D02*
X61269523Y-88522380D01*
X61364761Y-89141428D02*
X61650476Y-89522380D01*
X61650476Y-88855714D02*
X61269523Y-89236666D01*
X60793333Y-91892380D02*
X60460000Y-91416190D01*
X60221904Y-91892380D02*
X60221904Y-90892380D01*
X60602857Y-90892380D01*
X60698095Y-90940000D01*
X60745714Y-90987619D01*
X60793333Y-91082857D01*
X60793333Y-91225714D01*
X60745714Y-91320952D01*
X60698095Y-91368571D01*
X60602857Y-91416190D01*
X60221904Y-91416190D01*
X61745714Y-91892380D02*
X61174285Y-91892380D01*
X61460000Y-91892380D02*
X61460000Y-90892380D01*
X61364761Y-91035238D01*
X61269523Y-91130476D01*
X61174285Y-91178095D01*
X112382380Y-116959047D02*
X112382380Y-117530476D01*
X112382380Y-117244761D02*
X111382380Y-117244761D01*
X111525238Y-117340000D01*
X111620476Y-117435238D01*
X111668095Y-117530476D01*
X112382380Y-116530476D02*
X111382380Y-116530476D01*
X112001428Y-116435238D02*
X112382380Y-116149523D01*
X111715714Y-116149523D02*
X112096666Y-116530476D01*
X114752380Y-117482857D02*
X114276190Y-117816190D01*
X114752380Y-118054285D02*
X113752380Y-118054285D01*
X113752380Y-117673333D01*
X113800000Y-117578095D01*
X113847619Y-117530476D01*
X113942857Y-117482857D01*
X114085714Y-117482857D01*
X114180952Y-117530476D01*
X114228571Y-117578095D01*
X114276190Y-117673333D01*
X114276190Y-118054285D01*
X114752380Y-116530476D02*
X114752380Y-117101904D01*
X114752380Y-116816190D02*
X113752380Y-116816190D01*
X113895238Y-116911428D01*
X113990476Y-117006666D01*
X114038095Y-117101904D01*
X114752380Y-115578095D02*
X114752380Y-116149523D01*
X114752380Y-115863809D02*
X113752380Y-115863809D01*
X113895238Y-115959047D01*
X113990476Y-116054285D01*
X114038095Y-116149523D01*
X141446666Y-44912380D02*
X142018095Y-44912380D01*
X141732380Y-45912380D02*
X141732380Y-44912380D01*
X142732380Y-45864761D02*
X142637142Y-45912380D01*
X142446666Y-45912380D01*
X142351428Y-45864761D01*
X142303809Y-45769523D01*
X142303809Y-45388571D01*
X142351428Y-45293333D01*
X142446666Y-45245714D01*
X142637142Y-45245714D01*
X142732380Y-45293333D01*
X142780000Y-45388571D01*
X142780000Y-45483809D01*
X142303809Y-45579047D01*
X143160952Y-45864761D02*
X143256190Y-45912380D01*
X143446666Y-45912380D01*
X143541904Y-45864761D01*
X143589523Y-45769523D01*
X143589523Y-45721904D01*
X143541904Y-45626666D01*
X143446666Y-45579047D01*
X143303809Y-45579047D01*
X143208571Y-45531428D01*
X143160952Y-45436190D01*
X143160952Y-45388571D01*
X143208571Y-45293333D01*
X143303809Y-45245714D01*
X143446666Y-45245714D01*
X143541904Y-45293333D01*
X143875238Y-45245714D02*
X144256190Y-45245714D01*
X144018095Y-44912380D02*
X144018095Y-45769523D01*
X144065714Y-45864761D01*
X144160952Y-45912380D01*
X144256190Y-45912380D01*
X144589523Y-45912380D02*
X144589523Y-44912380D01*
X144970476Y-44912380D01*
X145065714Y-44960000D01*
X145113333Y-45007619D01*
X145160952Y-45102857D01*
X145160952Y-45245714D01*
X145113333Y-45340952D01*
X145065714Y-45388571D01*
X144970476Y-45436190D01*
X144589523Y-45436190D01*
X145732380Y-45912380D02*
X145637142Y-45864761D01*
X145589523Y-45817142D01*
X145541904Y-45721904D01*
X145541904Y-45436190D01*
X145589523Y-45340952D01*
X145637142Y-45293333D01*
X145732380Y-45245714D01*
X145875238Y-45245714D01*
X145970476Y-45293333D01*
X146018095Y-45340952D01*
X146065714Y-45436190D01*
X146065714Y-45721904D01*
X146018095Y-45817142D01*
X145970476Y-45864761D01*
X145875238Y-45912380D01*
X145732380Y-45912380D01*
X146494285Y-45912380D02*
X146494285Y-45245714D01*
X146494285Y-44912380D02*
X146446666Y-44960000D01*
X146494285Y-45007619D01*
X146541904Y-44960000D01*
X146494285Y-44912380D01*
X146494285Y-45007619D01*
X146970476Y-45245714D02*
X146970476Y-45912380D01*
X146970476Y-45340952D02*
X147018095Y-45293333D01*
X147113333Y-45245714D01*
X147256190Y-45245714D01*
X147351428Y-45293333D01*
X147399047Y-45388571D01*
X147399047Y-45912380D01*
X147732380Y-45245714D02*
X148113333Y-45245714D01*
X147875238Y-44912380D02*
X147875238Y-45769523D01*
X147922857Y-45864761D01*
X148018095Y-45912380D01*
X148113333Y-45912380D01*
X144218095Y-50212380D02*
X144789523Y-50212380D01*
X144503809Y-51212380D02*
X144503809Y-50212380D01*
X145122857Y-51212380D02*
X145122857Y-50212380D01*
X145503809Y-50212380D01*
X145599047Y-50260000D01*
X145646666Y-50307619D01*
X145694285Y-50402857D01*
X145694285Y-50545714D01*
X145646666Y-50640952D01*
X145599047Y-50688571D01*
X145503809Y-50736190D01*
X145122857Y-50736190D01*
X146551428Y-50545714D02*
X146551428Y-51212380D01*
X146313333Y-50164761D02*
X146075238Y-50879047D01*
X146694285Y-50879047D01*
X118712380Y-126372857D02*
X118712380Y-126849047D01*
X117712380Y-126849047D01*
X118188571Y-126039523D02*
X118188571Y-125706190D01*
X118712380Y-125563333D02*
X118712380Y-126039523D01*
X117712380Y-126039523D01*
X117712380Y-125563333D01*
X118712380Y-125134761D02*
X117712380Y-125134761D01*
X117712380Y-124896666D01*
X117760000Y-124753809D01*
X117855238Y-124658571D01*
X117950476Y-124610952D01*
X118140952Y-124563333D01*
X118283809Y-124563333D01*
X118474285Y-124610952D01*
X118569523Y-124658571D01*
X118664761Y-124753809D01*
X118712380Y-124896666D01*
X118712380Y-125134761D01*
D11*
X114661904Y-126340476D02*
X113861904Y-126340476D01*
X113861904Y-126150000D01*
X113900000Y-126035714D01*
X113976190Y-125959523D01*
X114052380Y-125921428D01*
X114204761Y-125883333D01*
X114319047Y-125883333D01*
X114471428Y-125921428D01*
X114547619Y-125959523D01*
X114623809Y-126035714D01*
X114661904Y-126150000D01*
X114661904Y-126340476D01*
X113861904Y-125197619D02*
X113861904Y-125350000D01*
X113900000Y-125426190D01*
X113938095Y-125464285D01*
X114052380Y-125540476D01*
X114204761Y-125578571D01*
X114509523Y-125578571D01*
X114585714Y-125540476D01*
X114623809Y-125502380D01*
X114661904Y-125426190D01*
X114661904Y-125273809D01*
X114623809Y-125197619D01*
X114585714Y-125159523D01*
X114509523Y-125121428D01*
X114319047Y-125121428D01*
X114242857Y-125159523D01*
X114204761Y-125197619D01*
X114166666Y-125273809D01*
X114166666Y-125426190D01*
X114204761Y-125502380D01*
X114242857Y-125540476D01*
X114319047Y-125578571D01*
D10*
X139032380Y-126372857D02*
X139032380Y-126849047D01*
X138032380Y-126849047D01*
X138508571Y-126039523D02*
X138508571Y-125706190D01*
X139032380Y-125563333D02*
X139032380Y-126039523D01*
X138032380Y-126039523D01*
X138032380Y-125563333D01*
X139032380Y-125134761D02*
X138032380Y-125134761D01*
X138032380Y-124896666D01*
X138080000Y-124753809D01*
X138175238Y-124658571D01*
X138270476Y-124610952D01*
X138460952Y-124563333D01*
X138603809Y-124563333D01*
X138794285Y-124610952D01*
X138889523Y-124658571D01*
X138984761Y-124753809D01*
X139032380Y-124896666D01*
X139032380Y-125134761D01*
D11*
X134981904Y-126340476D02*
X134181904Y-126340476D01*
X134181904Y-126150000D01*
X134220000Y-126035714D01*
X134296190Y-125959523D01*
X134372380Y-125921428D01*
X134524761Y-125883333D01*
X134639047Y-125883333D01*
X134791428Y-125921428D01*
X134867619Y-125959523D01*
X134943809Y-126035714D01*
X134981904Y-126150000D01*
X134981904Y-126340476D01*
X134524761Y-125426190D02*
X134486666Y-125502380D01*
X134448571Y-125540476D01*
X134372380Y-125578571D01*
X134334285Y-125578571D01*
X134258095Y-125540476D01*
X134220000Y-125502380D01*
X134181904Y-125426190D01*
X134181904Y-125273809D01*
X134220000Y-125197619D01*
X134258095Y-125159523D01*
X134334285Y-125121428D01*
X134372380Y-125121428D01*
X134448571Y-125159523D01*
X134486666Y-125197619D01*
X134524761Y-125273809D01*
X134524761Y-125426190D01*
X134562857Y-125502380D01*
X134600952Y-125540476D01*
X134677142Y-125578571D01*
X134829523Y-125578571D01*
X134905714Y-125540476D01*
X134943809Y-125502380D01*
X134981904Y-125426190D01*
X134981904Y-125273809D01*
X134943809Y-125197619D01*
X134905714Y-125159523D01*
X134829523Y-125121428D01*
X134677142Y-125121428D01*
X134600952Y-125159523D01*
X134562857Y-125197619D01*
X134524761Y-125273809D01*
D12*
X54333809Y-84787380D02*
X54667142Y-85787380D01*
X55000476Y-84787380D01*
X55238571Y-84787380D02*
X55905238Y-85787380D01*
X55905238Y-84787380D02*
X55238571Y-85787380D01*
X56476666Y-84787380D02*
X56667142Y-84787380D01*
X56762380Y-84835000D01*
X56857619Y-84930238D01*
X56905238Y-85120714D01*
X56905238Y-85454047D01*
X56857619Y-85644523D01*
X56762380Y-85739761D01*
X56667142Y-85787380D01*
X56476666Y-85787380D01*
X56381428Y-85739761D01*
X56286190Y-85644523D01*
X56238571Y-85454047D01*
X56238571Y-85120714D01*
X56286190Y-84930238D01*
X56381428Y-84835000D01*
X56476666Y-84787380D01*
X57238571Y-84787380D02*
X57905238Y-84787380D01*
X57476666Y-85787380D01*
X58429047Y-85215952D02*
X58333809Y-85168333D01*
X58286190Y-85120714D01*
X58238571Y-85025476D01*
X58238571Y-84977857D01*
X58286190Y-84882619D01*
X58333809Y-84835000D01*
X58429047Y-84787380D01*
X58619523Y-84787380D01*
X58714761Y-84835000D01*
X58762380Y-84882619D01*
X58810000Y-84977857D01*
X58810000Y-85025476D01*
X58762380Y-85120714D01*
X58714761Y-85168333D01*
X58619523Y-85215952D01*
X58429047Y-85215952D01*
X58333809Y-85263571D01*
X58286190Y-85311190D01*
X58238571Y-85406428D01*
X58238571Y-85596904D01*
X58286190Y-85692142D01*
X58333809Y-85739761D01*
X58429047Y-85787380D01*
X58619523Y-85787380D01*
X58714761Y-85739761D01*
X58762380Y-85692142D01*
X58810000Y-85596904D01*
X58810000Y-85406428D01*
X58762380Y-85311190D01*
X58714761Y-85263571D01*
X58619523Y-85215952D01*
X59429047Y-84787380D02*
X59524285Y-84787380D01*
X59619523Y-84835000D01*
X59667142Y-84882619D01*
X59714761Y-84977857D01*
X59762380Y-85168333D01*
X59762380Y-85406428D01*
X59714761Y-85596904D01*
X59667142Y-85692142D01*
X59619523Y-85739761D01*
X59524285Y-85787380D01*
X59429047Y-85787380D01*
X59333809Y-85739761D01*
X59286190Y-85692142D01*
X59238571Y-85596904D01*
X59190952Y-85406428D01*
X59190952Y-85168333D01*
X59238571Y-84977857D01*
X59286190Y-84882619D01*
X59333809Y-84835000D01*
X59429047Y-84787380D01*
X60667142Y-84787380D02*
X60190952Y-84787380D01*
X60143333Y-85263571D01*
X60190952Y-85215952D01*
X60286190Y-85168333D01*
X60524285Y-85168333D01*
X60619523Y-85215952D01*
X60667142Y-85263571D01*
X60714761Y-85358809D01*
X60714761Y-85596904D01*
X60667142Y-85692142D01*
X60619523Y-85739761D01*
X60524285Y-85787380D01*
X60286190Y-85787380D01*
X60190952Y-85739761D01*
X60143333Y-85692142D01*
X61143333Y-85406428D02*
X61905238Y-85406428D01*
X62857619Y-84787380D02*
X62381428Y-84787380D01*
X62333809Y-85263571D01*
X62381428Y-85215952D01*
X62476666Y-85168333D01*
X62714761Y-85168333D01*
X62810000Y-85215952D01*
X62857619Y-85263571D01*
X62905238Y-85358809D01*
X62905238Y-85596904D01*
X62857619Y-85692142D01*
X62810000Y-85739761D01*
X62714761Y-85787380D01*
X62476666Y-85787380D01*
X62381428Y-85739761D01*
X62333809Y-85692142D01*
X63524285Y-84787380D02*
X63619523Y-84787380D01*
X63714761Y-84835000D01*
X63762380Y-84882619D01*
X63810000Y-84977857D01*
X63857619Y-85168333D01*
X63857619Y-85406428D01*
X63810000Y-85596904D01*
X63762380Y-85692142D01*
X63714761Y-85739761D01*
X63619523Y-85787380D01*
X63524285Y-85787380D01*
X63429047Y-85739761D01*
X63381428Y-85692142D01*
X63333809Y-85596904D01*
X63286190Y-85406428D01*
X63286190Y-85168333D01*
X63333809Y-84977857D01*
X63381428Y-84882619D01*
X63429047Y-84835000D01*
X63524285Y-84787380D01*
X64476666Y-84787380D02*
X64571904Y-84787380D01*
X64667142Y-84835000D01*
X64714761Y-84882619D01*
X64762380Y-84977857D01*
X64810000Y-85168333D01*
X64810000Y-85406428D01*
X64762380Y-85596904D01*
X64714761Y-85692142D01*
X64667142Y-85739761D01*
X64571904Y-85787380D01*
X64476666Y-85787380D01*
X64381428Y-85739761D01*
X64333809Y-85692142D01*
X64286190Y-85596904D01*
X64238571Y-85406428D01*
X64238571Y-85168333D01*
X64286190Y-84977857D01*
X64333809Y-84882619D01*
X64381428Y-84835000D01*
X64476666Y-84787380D01*
X65238571Y-85406428D02*
X66000476Y-85406428D01*
X66476666Y-85787380D02*
X66476666Y-84787380D01*
X66810000Y-85501666D01*
X67143333Y-84787380D01*
X67143333Y-85787380D01*
D10*
X69529523Y-116307380D02*
X68958095Y-116307380D01*
X69243809Y-116307380D02*
X69243809Y-115307380D01*
X69148571Y-115450238D01*
X69053333Y-115545476D01*
X68958095Y-115593095D01*
X70386666Y-115307380D02*
X70196190Y-115307380D01*
X70100952Y-115355000D01*
X70053333Y-115402619D01*
X69958095Y-115545476D01*
X69910476Y-115735952D01*
X69910476Y-116116904D01*
X69958095Y-116212142D01*
X70005714Y-116259761D01*
X70100952Y-116307380D01*
X70291428Y-116307380D01*
X70386666Y-116259761D01*
X70434285Y-116212142D01*
X70481904Y-116116904D01*
X70481904Y-115878809D01*
X70434285Y-115783571D01*
X70386666Y-115735952D01*
X70291428Y-115688333D01*
X70100952Y-115688333D01*
X70005714Y-115735952D01*
X69958095Y-115783571D01*
X69910476Y-115878809D01*
X70910476Y-116307380D02*
X70910476Y-115307380D01*
X71243809Y-116021666D01*
X71577142Y-115307380D01*
X71577142Y-116307380D01*
X72053333Y-116307380D02*
X72053333Y-115307380D01*
X72053333Y-115783571D02*
X72624761Y-115783571D01*
X72624761Y-116307380D02*
X72624761Y-115307380D01*
X73005714Y-115640714D02*
X73529523Y-115640714D01*
X73005714Y-116307380D01*
X73529523Y-116307380D01*
X70743809Y-119356190D02*
X70743809Y-119832380D01*
X70410476Y-118832380D02*
X70743809Y-119356190D01*
X71077142Y-118832380D01*
X71934285Y-119832380D02*
X71362857Y-119832380D01*
X71648571Y-119832380D02*
X71648571Y-118832380D01*
X71553333Y-118975238D01*
X71458095Y-119070476D01*
X71362857Y-119118095D01*
X84955238Y-121412380D02*
X84907619Y-121555238D01*
X84907619Y-121793333D01*
X84955238Y-121888571D01*
X85002857Y-121936190D01*
X85098095Y-121983809D01*
X85193333Y-121983809D01*
X85288571Y-121936190D01*
X85336190Y-121888571D01*
X85383809Y-121793333D01*
X85431428Y-121602857D01*
X85479047Y-121507619D01*
X85526666Y-121460000D01*
X85621904Y-121412380D01*
X85717142Y-121412380D01*
X85812380Y-121460000D01*
X85860000Y-121507619D01*
X85907619Y-121602857D01*
X85907619Y-121840952D01*
X85860000Y-121983809D01*
X85907619Y-122317142D02*
X84907619Y-122555238D01*
X85621904Y-122745714D01*
X84907619Y-122936190D01*
X85907619Y-123174285D01*
X84812380Y-123317142D02*
X84812380Y-124079047D01*
X84907619Y-124317142D02*
X85907619Y-124317142D01*
X85907619Y-124698095D01*
X85860000Y-124793333D01*
X85812380Y-124840952D01*
X85717142Y-124888571D01*
X85574285Y-124888571D01*
X85479047Y-124840952D01*
X85431428Y-124793333D01*
X85383809Y-124698095D01*
X85383809Y-124317142D01*
X85574285Y-125745714D02*
X84907619Y-125745714D01*
X85574285Y-125317142D02*
X85050476Y-125317142D01*
X84955238Y-125364761D01*
X84907619Y-125460000D01*
X84907619Y-125602857D01*
X84955238Y-125698095D01*
X85002857Y-125745714D01*
X84955238Y-126174285D02*
X84907619Y-126269523D01*
X84907619Y-126460000D01*
X84955238Y-126555238D01*
X85050476Y-126602857D01*
X85098095Y-126602857D01*
X85193333Y-126555238D01*
X85240952Y-126460000D01*
X85240952Y-126317142D01*
X85288571Y-126221904D01*
X85383809Y-126174285D01*
X85431428Y-126174285D01*
X85526666Y-126221904D01*
X85574285Y-126317142D01*
X85574285Y-126460000D01*
X85526666Y-126555238D01*
X84907619Y-127031428D02*
X85907619Y-127031428D01*
X84907619Y-127460000D02*
X85431428Y-127460000D01*
X85526666Y-127412380D01*
X85574285Y-127317142D01*
X85574285Y-127174285D01*
X85526666Y-127079047D01*
X85479047Y-127031428D01*
X83455238Y-123126666D02*
X83407619Y-123269523D01*
X83407619Y-123507619D01*
X83455238Y-123602857D01*
X83502857Y-123650476D01*
X83598095Y-123698095D01*
X83693333Y-123698095D01*
X83788571Y-123650476D01*
X83836190Y-123602857D01*
X83883809Y-123507619D01*
X83931428Y-123317142D01*
X83979047Y-123221904D01*
X84026666Y-123174285D01*
X84121904Y-123126666D01*
X84217142Y-123126666D01*
X84312380Y-123174285D01*
X84360000Y-123221904D01*
X84407619Y-123317142D01*
X84407619Y-123555238D01*
X84360000Y-123698095D01*
X84407619Y-124031428D02*
X83407619Y-124269523D01*
X84121904Y-124460000D01*
X83407619Y-124650476D01*
X84407619Y-124888571D01*
X84312380Y-125221904D02*
X84360000Y-125269523D01*
X84407619Y-125364761D01*
X84407619Y-125602857D01*
X84360000Y-125698095D01*
X84312380Y-125745714D01*
X84217142Y-125793333D01*
X84121904Y-125793333D01*
X83979047Y-125745714D01*
X83407619Y-125174285D01*
X83407619Y-125793333D01*
X110966666Y-44912380D02*
X111538095Y-44912380D01*
X111252380Y-45912380D02*
X111252380Y-44912380D01*
X112252380Y-45864761D02*
X112157142Y-45912380D01*
X111966666Y-45912380D01*
X111871428Y-45864761D01*
X111823809Y-45769523D01*
X111823809Y-45388571D01*
X111871428Y-45293333D01*
X111966666Y-45245714D01*
X112157142Y-45245714D01*
X112252380Y-45293333D01*
X112300000Y-45388571D01*
X112300000Y-45483809D01*
X111823809Y-45579047D01*
X112680952Y-45864761D02*
X112776190Y-45912380D01*
X112966666Y-45912380D01*
X113061904Y-45864761D01*
X113109523Y-45769523D01*
X113109523Y-45721904D01*
X113061904Y-45626666D01*
X112966666Y-45579047D01*
X112823809Y-45579047D01*
X112728571Y-45531428D01*
X112680952Y-45436190D01*
X112680952Y-45388571D01*
X112728571Y-45293333D01*
X112823809Y-45245714D01*
X112966666Y-45245714D01*
X113061904Y-45293333D01*
X113395238Y-45245714D02*
X113776190Y-45245714D01*
X113538095Y-44912380D02*
X113538095Y-45769523D01*
X113585714Y-45864761D01*
X113680952Y-45912380D01*
X113776190Y-45912380D01*
X114109523Y-45912380D02*
X114109523Y-44912380D01*
X114490476Y-44912380D01*
X114585714Y-44960000D01*
X114633333Y-45007619D01*
X114680952Y-45102857D01*
X114680952Y-45245714D01*
X114633333Y-45340952D01*
X114585714Y-45388571D01*
X114490476Y-45436190D01*
X114109523Y-45436190D01*
X115252380Y-45912380D02*
X115157142Y-45864761D01*
X115109523Y-45817142D01*
X115061904Y-45721904D01*
X115061904Y-45436190D01*
X115109523Y-45340952D01*
X115157142Y-45293333D01*
X115252380Y-45245714D01*
X115395238Y-45245714D01*
X115490476Y-45293333D01*
X115538095Y-45340952D01*
X115585714Y-45436190D01*
X115585714Y-45721904D01*
X115538095Y-45817142D01*
X115490476Y-45864761D01*
X115395238Y-45912380D01*
X115252380Y-45912380D01*
X116014285Y-45912380D02*
X116014285Y-45245714D01*
X116014285Y-44912380D02*
X115966666Y-44960000D01*
X116014285Y-45007619D01*
X116061904Y-44960000D01*
X116014285Y-44912380D01*
X116014285Y-45007619D01*
X116490476Y-45245714D02*
X116490476Y-45912380D01*
X116490476Y-45340952D02*
X116538095Y-45293333D01*
X116633333Y-45245714D01*
X116776190Y-45245714D01*
X116871428Y-45293333D01*
X116919047Y-45388571D01*
X116919047Y-45912380D01*
X117252380Y-45245714D02*
X117633333Y-45245714D01*
X117395238Y-44912380D02*
X117395238Y-45769523D01*
X117442857Y-45864761D01*
X117538095Y-45912380D01*
X117633333Y-45912380D01*
X113738095Y-50212380D02*
X114309523Y-50212380D01*
X114023809Y-51212380D02*
X114023809Y-50212380D01*
X114642857Y-51212380D02*
X114642857Y-50212380D01*
X115023809Y-50212380D01*
X115119047Y-50260000D01*
X115166666Y-50307619D01*
X115214285Y-50402857D01*
X115214285Y-50545714D01*
X115166666Y-50640952D01*
X115119047Y-50688571D01*
X115023809Y-50736190D01*
X114642857Y-50736190D01*
X115595238Y-50307619D02*
X115642857Y-50260000D01*
X115738095Y-50212380D01*
X115976190Y-50212380D01*
X116071428Y-50260000D01*
X116119047Y-50307619D01*
X116166666Y-50402857D01*
X116166666Y-50498095D01*
X116119047Y-50640952D01*
X115547619Y-51212380D01*
X116166666Y-51212380D01*
X73735714Y-122147619D02*
X73783333Y-122100000D01*
X73878571Y-122052380D01*
X74116666Y-122052380D01*
X74211904Y-122100000D01*
X74259523Y-122147619D01*
X74307142Y-122242857D01*
X74307142Y-122338095D01*
X74259523Y-122480952D01*
X73688095Y-123052380D01*
X74307142Y-123052380D01*
X74926190Y-122052380D02*
X75021428Y-122052380D01*
X75116666Y-122100000D01*
X75164285Y-122147619D01*
X75211904Y-122242857D01*
X75259523Y-122433333D01*
X75259523Y-122671428D01*
X75211904Y-122861904D01*
X75164285Y-122957142D01*
X75116666Y-123004761D01*
X75021428Y-123052380D01*
X74926190Y-123052380D01*
X74830952Y-123004761D01*
X74783333Y-122957142D01*
X74735714Y-122861904D01*
X74688095Y-122671428D01*
X74688095Y-122433333D01*
X74735714Y-122242857D01*
X74783333Y-122147619D01*
X74830952Y-122100000D01*
X74926190Y-122052380D01*
X75688095Y-122385714D02*
X75688095Y-123385714D01*
X75688095Y-122433333D02*
X75783333Y-122385714D01*
X75973809Y-122385714D01*
X76069047Y-122433333D01*
X76116666Y-122480952D01*
X76164285Y-122576190D01*
X76164285Y-122861904D01*
X76116666Y-122957142D01*
X76069047Y-123004761D01*
X75973809Y-123052380D01*
X75783333Y-123052380D01*
X75688095Y-123004761D01*
X74783333Y-127357142D02*
X74735714Y-127404761D01*
X74592857Y-127452380D01*
X74497619Y-127452380D01*
X74354761Y-127404761D01*
X74259523Y-127309523D01*
X74211904Y-127214285D01*
X74164285Y-127023809D01*
X74164285Y-126880952D01*
X74211904Y-126690476D01*
X74259523Y-126595238D01*
X74354761Y-126500000D01*
X74497619Y-126452380D01*
X74592857Y-126452380D01*
X74735714Y-126500000D01*
X74783333Y-126547619D01*
X75688095Y-126452380D02*
X75211904Y-126452380D01*
X75164285Y-126928571D01*
X75211904Y-126880952D01*
X75307142Y-126833333D01*
X75545238Y-126833333D01*
X75640476Y-126880952D01*
X75688095Y-126928571D01*
X75735714Y-127023809D01*
X75735714Y-127261904D01*
X75688095Y-127357142D01*
X75640476Y-127404761D01*
X75545238Y-127452380D01*
X75307142Y-127452380D01*
X75211904Y-127404761D01*
X75164285Y-127357142D01*
X92062380Y-116959047D02*
X92062380Y-117530476D01*
X92062380Y-117244761D02*
X91062380Y-117244761D01*
X91205238Y-117340000D01*
X91300476Y-117435238D01*
X91348095Y-117530476D01*
X92062380Y-116530476D02*
X91062380Y-116530476D01*
X91681428Y-116435238D02*
X92062380Y-116149523D01*
X91395714Y-116149523D02*
X91776666Y-116530476D01*
X94432380Y-117006666D02*
X93956190Y-117340000D01*
X94432380Y-117578095D02*
X93432380Y-117578095D01*
X93432380Y-117197142D01*
X93480000Y-117101904D01*
X93527619Y-117054285D01*
X93622857Y-117006666D01*
X93765714Y-117006666D01*
X93860952Y-117054285D01*
X93908571Y-117101904D01*
X93956190Y-117197142D01*
X93956190Y-117578095D01*
X93860952Y-116435238D02*
X93813333Y-116530476D01*
X93765714Y-116578095D01*
X93670476Y-116625714D01*
X93622857Y-116625714D01*
X93527619Y-116578095D01*
X93480000Y-116530476D01*
X93432380Y-116435238D01*
X93432380Y-116244761D01*
X93480000Y-116149523D01*
X93527619Y-116101904D01*
X93622857Y-116054285D01*
X93670476Y-116054285D01*
X93765714Y-116101904D01*
X93813333Y-116149523D01*
X93860952Y-116244761D01*
X93860952Y-116435238D01*
X93908571Y-116530476D01*
X93956190Y-116578095D01*
X94051428Y-116625714D01*
X94241904Y-116625714D01*
X94337142Y-116578095D01*
X94384761Y-116530476D01*
X94432380Y-116435238D01*
X94432380Y-116244761D01*
X94384761Y-116149523D01*
X94337142Y-116101904D01*
X94241904Y-116054285D01*
X94051428Y-116054285D01*
X93956190Y-116101904D01*
X93908571Y-116149523D01*
X93860952Y-116244761D01*
D13*
X170980000Y-103350000D02*
X174480000Y-103350000D01*
X174473625Y-103353625D02*
G75*
G03*
X172720000Y-99120000I-1753625J1753625D01*
G01*
X172720000Y-99120000D02*
G75*
G03*
X170966375Y-103353625I0J-2480000D01*
G01*
X62860000Y-60960000D02*
G75*
G03*
X62860000Y-60960000I-3150000J0D01*
G01*
X47030000Y-89970306D02*
X47030000Y-92909694D01*
X47029984Y-92909666D02*
G75*
G03*
X47030000Y-89970306I2500016J1469666D01*
G01*
X52030000Y-91440000D02*
G75*
G03*
X52030000Y-91440000I-2500000J0D01*
G01*
X150930306Y-128230000D02*
X153869694Y-128230000D01*
X153869666Y-128230016D02*
G75*
G03*
X150930306Y-128230000I-1469666J2500016D01*
G01*
X154900000Y-125730000D02*
G75*
G03*
X154900000Y-125730000I-2500000J0D01*
G01*
X161090306Y-128230000D02*
X164029694Y-128230000D01*
X164029666Y-128230016D02*
G75*
G03*
X161090306Y-128230000I-1469666J2500016D01*
G01*
X165060000Y-125730000D02*
G75*
G03*
X165060000Y-125730000I-2500000J0D01*
G01*
X70545425Y-53336787D02*
X69790000Y-54140000D01*
X61540000Y-54140000D02*
X69790000Y-54140000D01*
X61540000Y-39640000D02*
X61540000Y-54140000D01*
X70540000Y-53340000D02*
X70540000Y-39640000D01*
X70540000Y-43140000D02*
X61540000Y-43140000D01*
X70540000Y-39640000D02*
X61540000Y-39640000D01*
X175180000Y-67970000D02*
X165180000Y-67970000D01*
X165180000Y-72370000D02*
X175180000Y-72370000D01*
X172030000Y-67970000D02*
X172030000Y-69240000D01*
X175180000Y-72370000D02*
X175180000Y-67970000D01*
X165180000Y-69240000D02*
X175180000Y-69240000D01*
X168330000Y-67970000D02*
X168330000Y-69240000D01*
X165180000Y-67970000D02*
X165180000Y-72370000D01*
X149940000Y-81940000D02*
X159940000Y-81940000D01*
X156790000Y-80670000D02*
X156790000Y-81940000D01*
X149940000Y-85070000D02*
X159940000Y-85070000D01*
X149940000Y-80670000D02*
X149940000Y-85070000D01*
X153090000Y-80670000D02*
X153090000Y-81940000D01*
X159940000Y-80670000D02*
X149940000Y-80670000D01*
X159940000Y-85070000D02*
X159940000Y-80670000D01*
X175180000Y-80670000D02*
X165180000Y-80670000D01*
X172030000Y-80670000D02*
X172030000Y-81940000D01*
X165180000Y-80670000D02*
X165180000Y-85070000D01*
X175180000Y-85070000D02*
X175180000Y-80670000D01*
X165180000Y-81940000D02*
X175180000Y-81940000D01*
X168330000Y-80670000D02*
X168330000Y-81940000D01*
X165180000Y-85070000D02*
X175180000Y-85070000D01*
X72757500Y-64078767D02*
X72757500Y-64828767D01*
X73132500Y-64453767D02*
X72382500Y-64453767D01*
X74870000Y-67290000D02*
G75*
G03*
X74870000Y-67290000I-3750000J0D01*
G01*
X155600000Y-100350000D02*
X155600000Y-102850000D01*
X161900000Y-102850000D02*
X161900000Y-100350000D01*
X162560000Y-101600000D02*
X161900000Y-101600000D01*
X161900000Y-100350000D02*
X155600000Y-100350000D01*
X154940000Y-101600000D02*
X155600000Y-101600000D01*
X155600000Y-102850000D02*
X161900000Y-102850000D01*
X167640000Y-111760000D02*
X168300000Y-111760000D01*
X174600000Y-110510000D02*
X168300000Y-110510000D01*
X168300000Y-113010000D02*
X174600000Y-113010000D01*
X174600000Y-113010000D02*
X174600000Y-110510000D01*
X168300000Y-110510000D02*
X168300000Y-113010000D01*
X175260000Y-111760000D02*
X174600000Y-111760000D01*
X162560000Y-119380000D02*
X162560000Y-118720000D01*
X161310000Y-112420000D02*
X161310000Y-118720000D01*
X163810000Y-112420000D02*
X161310000Y-112420000D01*
X161310000Y-118720000D02*
X163810000Y-118720000D01*
X162560000Y-111760000D02*
X162560000Y-112420000D01*
X163810000Y-118720000D02*
X163810000Y-112420000D01*
X170180000Y-93980000D02*
X170840000Y-93980000D01*
X177140000Y-92730000D02*
X170840000Y-92730000D01*
X177800000Y-93980000D02*
X177140000Y-93980000D01*
X177140000Y-95230000D02*
X177140000Y-92730000D01*
X170840000Y-95230000D02*
X177140000Y-95230000D01*
X170840000Y-92730000D02*
X170840000Y-95230000D01*
X153650000Y-118720000D02*
X153650000Y-112420000D01*
X151150000Y-112420000D02*
X151150000Y-118720000D01*
X152400000Y-111760000D02*
X152400000Y-112420000D01*
X151150000Y-118720000D02*
X153650000Y-118720000D01*
X152400000Y-119380000D02*
X152400000Y-118720000D01*
X153650000Y-112420000D02*
X151150000Y-112420000D01*
X164300000Y-92230000D02*
X160800000Y-92230000D01*
X162560000Y-96460000D02*
G75*
G03*
X164313625Y-92226375I0J2480000D01*
G01*
X160806375Y-92226375D02*
G75*
G03*
X162560000Y-96460000I1753625J-1753625D01*
G01*
X147980000Y-95230000D02*
X154280000Y-95230000D01*
X154280000Y-92730000D02*
X147980000Y-92730000D01*
X147980000Y-92730000D02*
X147980000Y-95230000D01*
X154280000Y-95230000D02*
X154280000Y-92730000D01*
X147320000Y-93980000D02*
X147980000Y-93980000D01*
X154940000Y-93980000D02*
X154280000Y-93980000D01*
X159940000Y-72370000D02*
X159940000Y-67970000D01*
X149940000Y-72370000D02*
X159940000Y-72370000D01*
X153090000Y-67970000D02*
X153090000Y-69240000D01*
X156790000Y-67970000D02*
X156790000Y-69240000D01*
X149940000Y-67970000D02*
X149940000Y-72370000D01*
X159940000Y-67970000D02*
X149940000Y-67970000D01*
X149940000Y-69240000D02*
X159940000Y-69240000D01*
X162760000Y-58900000D02*
X165610000Y-58900000D01*
X164210000Y-52275000D02*
X163385000Y-53100000D01*
X159860000Y-58550000D02*
X165260000Y-58550000D01*
X159860000Y-48950000D02*
X159860000Y-58550000D01*
X160910000Y-49800000D02*
X164210000Y-49800000D01*
X164260000Y-48950000D02*
X164260000Y-47550000D01*
X161735000Y-53100000D02*
X160910000Y-52275000D01*
X163385000Y-53100000D02*
X161735000Y-53100000D01*
X164210000Y-49800000D02*
X164210000Y-52275000D01*
X164210000Y-57300000D02*
X164210000Y-54000000D01*
X160910000Y-57300000D02*
X164210000Y-57300000D01*
X165260000Y-48950000D02*
X159860000Y-48950000D01*
X165260000Y-58550000D02*
X165260000Y-48950000D01*
X164260000Y-47550000D02*
X160860000Y-47550000D01*
X160910000Y-54000000D02*
X160910000Y-57300000D01*
X165610000Y-58900000D02*
X165610000Y-56050000D01*
X164210000Y-54000000D02*
X160910000Y-54000000D01*
X160860000Y-47550000D02*
X160860000Y-48950000D01*
X160910000Y-52275000D02*
X160910000Y-49800000D01*
D14*
X100360000Y-47960000D02*
X97760000Y-47960000D01*
X97760000Y-48560000D02*
X100360000Y-48560000D01*
X97760000Y-47960000D02*
X97760000Y-48560000D01*
X100360000Y-48560000D02*
X100360000Y-47960000D01*
X100560000Y-48260000D02*
G75*
G03*
X100560000Y-48260000I-1500000J0D01*
G01*
D13*
X102670306Y-128230000D02*
X105609694Y-128230000D01*
X105609666Y-128230016D02*
G75*
G03*
X102670306Y-128230000I-1469666J2500016D01*
G01*
X106640000Y-125730000D02*
G75*
G03*
X106640000Y-125730000I-2500000J0D01*
G01*
X122990306Y-128230000D02*
X125929694Y-128230000D01*
X125929666Y-128230016D02*
G75*
G03*
X122990306Y-128230000I-1469666J2500016D01*
G01*
X126960000Y-125730000D02*
G75*
G03*
X126960000Y-125730000I-2500000J0D01*
G01*
X74270000Y-82530000D02*
G75*
G03*
X74270000Y-82530000I-3150000J0D01*
G01*
X134620000Y-113030000D02*
X134620000Y-113690000D01*
X133370000Y-113690000D02*
X133370000Y-119990000D01*
X135870000Y-119990000D02*
X135870000Y-113690000D01*
X135870000Y-113690000D02*
X133370000Y-113690000D01*
X133370000Y-119990000D02*
X135870000Y-119990000D01*
X134620000Y-120650000D02*
X134620000Y-119990000D01*
X102890000Y-113690000D02*
X102890000Y-119990000D01*
X105390000Y-119990000D02*
X105390000Y-113690000D01*
X102890000Y-119990000D02*
X105390000Y-119990000D01*
X105390000Y-113690000D02*
X102890000Y-113690000D01*
X104140000Y-120650000D02*
X104140000Y-119990000D01*
X104140000Y-113030000D02*
X104140000Y-113690000D01*
X48270000Y-98415000D02*
X83830000Y-98415000D01*
X83830000Y-98415000D02*
X83830000Y-104765000D01*
X48270000Y-103765000D02*
X48270000Y-98415000D01*
X83830000Y-104765000D02*
X49270000Y-104765000D01*
X49270000Y-104765000D02*
X48270000Y-103765000D01*
X67970000Y-113010000D02*
X74270000Y-113010000D01*
X67970000Y-110510000D02*
X67970000Y-113010000D01*
X67310000Y-111760000D02*
X67970000Y-111760000D01*
X74930000Y-111760000D02*
X74270000Y-111760000D01*
X74270000Y-113010000D02*
X74270000Y-110510000D01*
X74270000Y-110510000D02*
X67970000Y-110510000D01*
X92510306Y-128230000D02*
X95449694Y-128230000D01*
X95449666Y-128230016D02*
G75*
G03*
X92510306Y-128230000I-1469666J2500016D01*
G01*
X96480000Y-125730000D02*
G75*
G03*
X96480000Y-125730000I-2500000J0D01*
G01*
D14*
X107980000Y-48560000D02*
X107980000Y-47960000D01*
X105380000Y-48560000D02*
X107980000Y-48560000D01*
X105380000Y-47960000D02*
X105380000Y-48560000D01*
X107980000Y-47960000D02*
X105380000Y-47960000D01*
X108180000Y-48260000D02*
G75*
G03*
X108180000Y-48260000I-1500000J0D01*
G01*
X135860000Y-48560000D02*
X138460000Y-48560000D01*
X138460000Y-47960000D02*
X135860000Y-47960000D01*
X135860000Y-47960000D02*
X135860000Y-48560000D01*
X138460000Y-48560000D02*
X138460000Y-47960000D01*
X138660000Y-48260000D02*
G75*
G03*
X138660000Y-48260000I-1500000J0D01*
G01*
D13*
X125710000Y-113690000D02*
X123210000Y-113690000D01*
X124460000Y-113030000D02*
X124460000Y-113690000D01*
X123210000Y-119990000D02*
X125710000Y-119990000D01*
X125710000Y-119990000D02*
X125710000Y-113690000D01*
X123210000Y-113690000D02*
X123210000Y-119990000D01*
X124460000Y-120650000D02*
X124460000Y-119990000D01*
X67940000Y-127000000D02*
G75*
G03*
X67940000Y-127000000I-3150000J0D01*
G01*
X57810000Y-92690000D02*
X64110000Y-92690000D01*
X64770000Y-91440000D02*
X64110000Y-91440000D01*
X57810000Y-90190000D02*
X57810000Y-92690000D01*
X64110000Y-92690000D02*
X64110000Y-90190000D01*
X64110000Y-90190000D02*
X57810000Y-90190000D01*
X57150000Y-91440000D02*
X57810000Y-91440000D01*
X114300000Y-113030000D02*
X114300000Y-113690000D01*
X113050000Y-113690000D02*
X113050000Y-119990000D01*
X113050000Y-119990000D02*
X115550000Y-119990000D01*
X114300000Y-120650000D02*
X114300000Y-119990000D01*
X115550000Y-119990000D02*
X115550000Y-113690000D01*
X115550000Y-113690000D02*
X113050000Y-113690000D01*
D14*
X143480000Y-48560000D02*
X146080000Y-48560000D01*
X146080000Y-48560000D02*
X146080000Y-47960000D01*
X143480000Y-47960000D02*
X143480000Y-48560000D01*
X146080000Y-47960000D02*
X143480000Y-47960000D01*
X146280000Y-48260000D02*
G75*
G03*
X146280000Y-48260000I-1500000J0D01*
G01*
D13*
X112830306Y-128230000D02*
X115769694Y-128230000D01*
X115769666Y-128230016D02*
G75*
G03*
X112830306Y-128230000I-1469666J2500016D01*
G01*
X116800000Y-125730000D02*
G75*
G03*
X116800000Y-125730000I-2500000J0D01*
G01*
X133150306Y-128230000D02*
X136089694Y-128230000D01*
X136089666Y-128230016D02*
G75*
G03*
X133150306Y-128230000I-1469666J2500016D01*
G01*
X137120000Y-125730000D02*
G75*
G03*
X137120000Y-125730000I-2500000J0D01*
G01*
D15*
X49630000Y-82950000D02*
X49630000Y-69450000D01*
X62130000Y-69450000D02*
X62130000Y-82950000D01*
X49630000Y-69450000D02*
X62130000Y-69450000D01*
X62130000Y-82950000D02*
X49630000Y-82950000D01*
D11*
X50480000Y-68200000D02*
G75*
G03*
X50480000Y-68200000I-100000J0D01*
G01*
D13*
X74220000Y-117380000D02*
X68220000Y-117380000D01*
X74345000Y-121705000D02*
X68095000Y-121705000D01*
X74345000Y-117055000D02*
X68095000Y-117055000D01*
X74220000Y-121380000D02*
X68220000Y-121380000D01*
X68095000Y-117055000D02*
G75*
G03*
X68095000Y-121705000I0J-2325000D01*
G01*
X74345000Y-121705000D02*
G75*
G03*
X74345000Y-117055000I0J2325000D01*
G01*
X68220000Y-117380000D02*
G75*
G03*
X68220000Y-121380000I0J-2000000D01*
G01*
X74220000Y-121380000D02*
G75*
G03*
X74220000Y-117380000I0J2000000D01*
G01*
D14*
X115600000Y-47960000D02*
X113000000Y-47960000D01*
X113000000Y-48560000D02*
X115600000Y-48560000D01*
X115600000Y-48560000D02*
X115600000Y-47960000D01*
X113000000Y-47960000D02*
X113000000Y-48560000D01*
X115800000Y-48260000D02*
G75*
G03*
X115800000Y-48260000I-1500000J0D01*
G01*
D13*
X78100000Y-127000000D02*
G75*
G03*
X78100000Y-127000000I-3150000J0D01*
G01*
X92730000Y-113690000D02*
X92730000Y-119990000D01*
X95230000Y-119990000D02*
X95230000Y-113690000D01*
X93980000Y-120650000D02*
X93980000Y-119990000D01*
X92730000Y-119990000D02*
X95230000Y-119990000D01*
X95230000Y-113690000D02*
X92730000Y-113690000D01*
X93980000Y-113030000D02*
X93980000Y-113690000D01*
M02*
