G04 #@! TF.GenerationSoftware,KiCad,Pcbnew,5.1.8+dfsg1-1+b1*
G04 #@! TF.CreationDate,2021-07-27T16:42:41-05:00*
G04 #@! TF.ProjectId,thermoelectric-tube,74686572-6d6f-4656-9c65-63747269632d,B*
G04 #@! TF.SameCoordinates,Original*
G04 #@! TF.FileFunction,Legend,Bot*
G04 #@! TF.FilePolarity,Positive*
%FSLAX46Y46*%
G04 Gerber Fmt 4.6, Leading zero omitted, Abs format (unit mm)*
G04 Created by KiCad (PCBNEW 5.1.8+dfsg1-1+b1) date 2021-07-27 16:42:41*
%MOMM*%
%LPD*%
G01*
G04 APERTURE LIST*
%ADD10C,0.150000*%
%ADD11C,1.270000*%
%ADD12C,0.010000*%
G04 APERTURE END LIST*
D10*
X137111428Y-128342380D02*
X137111428Y-127342380D01*
X136682857Y-128342380D02*
X136682857Y-127818571D01*
X136730476Y-127723333D01*
X136825714Y-127675714D01*
X136968571Y-127675714D01*
X137063809Y-127723333D01*
X137111428Y-127770952D01*
X136349523Y-127675714D02*
X135968571Y-127675714D01*
X136206666Y-127342380D02*
X136206666Y-128199523D01*
X136159047Y-128294761D01*
X136063809Y-128342380D01*
X135968571Y-128342380D01*
X135778095Y-127675714D02*
X135397142Y-127675714D01*
X135635238Y-127342380D02*
X135635238Y-128199523D01*
X135587619Y-128294761D01*
X135492380Y-128342380D01*
X135397142Y-128342380D01*
X135063809Y-127675714D02*
X135063809Y-128675714D01*
X135063809Y-127723333D02*
X134968571Y-127675714D01*
X134778095Y-127675714D01*
X134682857Y-127723333D01*
X134635238Y-127770952D01*
X134587619Y-127866190D01*
X134587619Y-128151904D01*
X134635238Y-128247142D01*
X134682857Y-128294761D01*
X134778095Y-128342380D01*
X134968571Y-128342380D01*
X135063809Y-128294761D01*
X134206666Y-128294761D02*
X134111428Y-128342380D01*
X133920952Y-128342380D01*
X133825714Y-128294761D01*
X133778095Y-128199523D01*
X133778095Y-128151904D01*
X133825714Y-128056666D01*
X133920952Y-128009047D01*
X134063809Y-128009047D01*
X134159047Y-127961428D01*
X134206666Y-127866190D01*
X134206666Y-127818571D01*
X134159047Y-127723333D01*
X134063809Y-127675714D01*
X133920952Y-127675714D01*
X133825714Y-127723333D01*
X133349523Y-128247142D02*
X133301904Y-128294761D01*
X133349523Y-128342380D01*
X133397142Y-128294761D01*
X133349523Y-128247142D01*
X133349523Y-128342380D01*
X133349523Y-127723333D02*
X133301904Y-127770952D01*
X133349523Y-127818571D01*
X133397142Y-127770952D01*
X133349523Y-127723333D01*
X133349523Y-127818571D01*
X132159047Y-127294761D02*
X133016190Y-128580476D01*
X131111428Y-127294761D02*
X131968571Y-128580476D01*
X130349523Y-127675714D02*
X130349523Y-128485238D01*
X130397142Y-128580476D01*
X130444761Y-128628095D01*
X130540000Y-128675714D01*
X130682857Y-128675714D01*
X130778095Y-128628095D01*
X130349523Y-128294761D02*
X130444761Y-128342380D01*
X130635238Y-128342380D01*
X130730476Y-128294761D01*
X130778095Y-128247142D01*
X130825714Y-128151904D01*
X130825714Y-127866190D01*
X130778095Y-127770952D01*
X130730476Y-127723333D01*
X130635238Y-127675714D01*
X130444761Y-127675714D01*
X130349523Y-127723333D01*
X129873333Y-128342380D02*
X129873333Y-127675714D01*
X129873333Y-127342380D02*
X129920952Y-127390000D01*
X129873333Y-127437619D01*
X129825714Y-127390000D01*
X129873333Y-127342380D01*
X129873333Y-127437619D01*
X129540000Y-127675714D02*
X129159047Y-127675714D01*
X129397142Y-127342380D02*
X129397142Y-128199523D01*
X129349523Y-128294761D01*
X129254285Y-128342380D01*
X129159047Y-128342380D01*
X128825714Y-128342380D02*
X128825714Y-127342380D01*
X128397142Y-128342380D02*
X128397142Y-127818571D01*
X128444761Y-127723333D01*
X128540000Y-127675714D01*
X128682857Y-127675714D01*
X128778095Y-127723333D01*
X128825714Y-127770952D01*
X127492380Y-127675714D02*
X127492380Y-128342380D01*
X127920952Y-127675714D02*
X127920952Y-128199523D01*
X127873333Y-128294761D01*
X127778095Y-128342380D01*
X127635238Y-128342380D01*
X127540000Y-128294761D01*
X127492380Y-128247142D01*
X127016190Y-128342380D02*
X127016190Y-127342380D01*
X127016190Y-127723333D02*
X126920952Y-127675714D01*
X126730476Y-127675714D01*
X126635238Y-127723333D01*
X126587619Y-127770952D01*
X126540000Y-127866190D01*
X126540000Y-128151904D01*
X126587619Y-128247142D01*
X126635238Y-128294761D01*
X126730476Y-128342380D01*
X126920952Y-128342380D01*
X127016190Y-128294761D01*
X126111428Y-128247142D02*
X126063809Y-128294761D01*
X126111428Y-128342380D01*
X126159047Y-128294761D01*
X126111428Y-128247142D01*
X126111428Y-128342380D01*
X125206666Y-128294761D02*
X125301904Y-128342380D01*
X125492380Y-128342380D01*
X125587619Y-128294761D01*
X125635238Y-128247142D01*
X125682857Y-128151904D01*
X125682857Y-127866190D01*
X125635238Y-127770952D01*
X125587619Y-127723333D01*
X125492380Y-127675714D01*
X125301904Y-127675714D01*
X125206666Y-127723333D01*
X124635238Y-128342380D02*
X124730476Y-128294761D01*
X124778095Y-128247142D01*
X124825714Y-128151904D01*
X124825714Y-127866190D01*
X124778095Y-127770952D01*
X124730476Y-127723333D01*
X124635238Y-127675714D01*
X124492380Y-127675714D01*
X124397142Y-127723333D01*
X124349523Y-127770952D01*
X124301904Y-127866190D01*
X124301904Y-128151904D01*
X124349523Y-128247142D01*
X124397142Y-128294761D01*
X124492380Y-128342380D01*
X124635238Y-128342380D01*
X123873333Y-128342380D02*
X123873333Y-127675714D01*
X123873333Y-127770952D02*
X123825714Y-127723333D01*
X123730476Y-127675714D01*
X123587619Y-127675714D01*
X123492380Y-127723333D01*
X123444761Y-127818571D01*
X123444761Y-128342380D01*
X123444761Y-127818571D02*
X123397142Y-127723333D01*
X123301904Y-127675714D01*
X123159047Y-127675714D01*
X123063809Y-127723333D01*
X123016190Y-127818571D01*
X123016190Y-128342380D01*
X121825714Y-127294761D02*
X122682857Y-128580476D01*
X139492380Y-129325714D02*
X139492380Y-129992380D01*
X139920952Y-129325714D02*
X139920952Y-129849523D01*
X139873333Y-129944761D01*
X139778095Y-129992380D01*
X139635238Y-129992380D01*
X139540000Y-129944761D01*
X139492380Y-129897142D01*
X139111428Y-129325714D02*
X138920952Y-129992380D01*
X138730476Y-129516190D01*
X138540000Y-129992380D01*
X138349523Y-129325714D01*
X137968571Y-129611428D02*
X137206666Y-129611428D01*
X136730476Y-129992380D02*
X136730476Y-129325714D01*
X136730476Y-129420952D02*
X136682857Y-129373333D01*
X136587619Y-129325714D01*
X136444761Y-129325714D01*
X136349523Y-129373333D01*
X136301904Y-129468571D01*
X136301904Y-129992380D01*
X136301904Y-129468571D02*
X136254285Y-129373333D01*
X136159047Y-129325714D01*
X136016190Y-129325714D01*
X135920952Y-129373333D01*
X135873333Y-129468571D01*
X135873333Y-129992380D01*
X134968571Y-129992380D02*
X134968571Y-129468571D01*
X135016190Y-129373333D01*
X135111428Y-129325714D01*
X135301904Y-129325714D01*
X135397142Y-129373333D01*
X134968571Y-129944761D02*
X135063809Y-129992380D01*
X135301904Y-129992380D01*
X135397142Y-129944761D01*
X135444761Y-129849523D01*
X135444761Y-129754285D01*
X135397142Y-129659047D01*
X135301904Y-129611428D01*
X135063809Y-129611428D01*
X134968571Y-129563809D01*
X134063809Y-129992380D02*
X134063809Y-128992380D01*
X134063809Y-129944761D02*
X134159047Y-129992380D01*
X134349523Y-129992380D01*
X134444761Y-129944761D01*
X134492380Y-129897142D01*
X134540000Y-129801904D01*
X134540000Y-129516190D01*
X134492380Y-129420952D01*
X134444761Y-129373333D01*
X134349523Y-129325714D01*
X134159047Y-129325714D01*
X134063809Y-129373333D01*
X133587619Y-129992380D02*
X133587619Y-129325714D01*
X133587619Y-128992380D02*
X133635238Y-129040000D01*
X133587619Y-129087619D01*
X133540000Y-129040000D01*
X133587619Y-128992380D01*
X133587619Y-129087619D01*
X133159047Y-129944761D02*
X133063809Y-129992380D01*
X132873333Y-129992380D01*
X132778095Y-129944761D01*
X132730476Y-129849523D01*
X132730476Y-129801904D01*
X132778095Y-129706666D01*
X132873333Y-129659047D01*
X133016190Y-129659047D01*
X133111428Y-129611428D01*
X133159047Y-129516190D01*
X133159047Y-129468571D01*
X133111428Y-129373333D01*
X133016190Y-129325714D01*
X132873333Y-129325714D01*
X132778095Y-129373333D01*
X132159047Y-129992380D02*
X132254285Y-129944761D01*
X132301904Y-129897142D01*
X132349523Y-129801904D01*
X132349523Y-129516190D01*
X132301904Y-129420952D01*
X132254285Y-129373333D01*
X132159047Y-129325714D01*
X132016190Y-129325714D01*
X131920952Y-129373333D01*
X131873333Y-129420952D01*
X131825714Y-129516190D01*
X131825714Y-129801904D01*
X131873333Y-129897142D01*
X131920952Y-129944761D01*
X132016190Y-129992380D01*
X132159047Y-129992380D01*
X131397142Y-129325714D02*
X131397142Y-129992380D01*
X131397142Y-129420952D02*
X131349523Y-129373333D01*
X131254285Y-129325714D01*
X131111428Y-129325714D01*
X131016190Y-129373333D01*
X130968571Y-129468571D01*
X130968571Y-129992380D01*
X130492380Y-129611428D02*
X129730476Y-129611428D01*
X128825714Y-129944761D02*
X128920952Y-129992380D01*
X129111428Y-129992380D01*
X129206666Y-129944761D01*
X129254285Y-129897142D01*
X129301904Y-129801904D01*
X129301904Y-129516190D01*
X129254285Y-129420952D01*
X129206666Y-129373333D01*
X129111428Y-129325714D01*
X128920952Y-129325714D01*
X128825714Y-129373333D01*
X128397142Y-129992380D02*
X128397142Y-128992380D01*
X127968571Y-129992380D02*
X127968571Y-129468571D01*
X128016190Y-129373333D01*
X128111428Y-129325714D01*
X128254285Y-129325714D01*
X128349523Y-129373333D01*
X128397142Y-129420952D01*
X127111428Y-129944761D02*
X127206666Y-129992380D01*
X127397142Y-129992380D01*
X127492380Y-129944761D01*
X127540000Y-129849523D01*
X127540000Y-129468571D01*
X127492380Y-129373333D01*
X127397142Y-129325714D01*
X127206666Y-129325714D01*
X127111428Y-129373333D01*
X127063809Y-129468571D01*
X127063809Y-129563809D01*
X127540000Y-129659047D01*
X126635238Y-129992380D02*
X126635238Y-129325714D01*
X126635238Y-129420952D02*
X126587619Y-129373333D01*
X126492380Y-129325714D01*
X126349523Y-129325714D01*
X126254285Y-129373333D01*
X126206666Y-129468571D01*
X126206666Y-129992380D01*
X126206666Y-129468571D02*
X126159047Y-129373333D01*
X126063809Y-129325714D01*
X125920952Y-129325714D01*
X125825714Y-129373333D01*
X125778095Y-129468571D01*
X125778095Y-129992380D01*
X125301904Y-129611428D02*
X124540000Y-129611428D01*
X124111428Y-129944761D02*
X124016190Y-129992380D01*
X123825714Y-129992380D01*
X123730476Y-129944761D01*
X123682857Y-129849523D01*
X123682857Y-129801904D01*
X123730476Y-129706666D01*
X123825714Y-129659047D01*
X123968571Y-129659047D01*
X124063809Y-129611428D01*
X124111428Y-129516190D01*
X124111428Y-129468571D01*
X124063809Y-129373333D01*
X123968571Y-129325714D01*
X123825714Y-129325714D01*
X123730476Y-129373333D01*
X123254285Y-129992380D02*
X123254285Y-128992380D01*
X122825714Y-129992380D02*
X122825714Y-129468571D01*
X122873333Y-129373333D01*
X122968571Y-129325714D01*
X123111428Y-129325714D01*
X123206666Y-129373333D01*
X123254285Y-129420952D01*
X122206666Y-129992380D02*
X122301904Y-129944761D01*
X122349523Y-129897142D01*
X122397142Y-129801904D01*
X122397142Y-129516190D01*
X122349523Y-129420952D01*
X122301904Y-129373333D01*
X122206666Y-129325714D01*
X122063809Y-129325714D01*
X121968571Y-129373333D01*
X121920952Y-129420952D01*
X121873333Y-129516190D01*
X121873333Y-129801904D01*
X121920952Y-129897142D01*
X121968571Y-129944761D01*
X122063809Y-129992380D01*
X122206666Y-129992380D01*
X121444761Y-129325714D02*
X121444761Y-130325714D01*
X121444761Y-129373333D02*
X121349523Y-129325714D01*
X121159047Y-129325714D01*
X121063809Y-129373333D01*
X121016190Y-129420952D01*
X120968571Y-129516190D01*
X120968571Y-129801904D01*
X121016190Y-129897142D01*
X121063809Y-129944761D01*
X121159047Y-129992380D01*
X121349523Y-129992380D01*
X121444761Y-129944761D01*
X120587619Y-129944761D02*
X120492380Y-129992380D01*
X120301904Y-129992380D01*
X120206666Y-129944761D01*
X120159047Y-129849523D01*
X120159047Y-129801904D01*
X120206666Y-129706666D01*
X120301904Y-129659047D01*
X120444761Y-129659047D01*
X120540000Y-129611428D01*
X120587619Y-129516190D01*
X120587619Y-129468571D01*
X120540000Y-129373333D01*
X120444761Y-129325714D01*
X120301904Y-129325714D01*
X120206666Y-129373333D01*
X119016190Y-128944761D02*
X119873333Y-130230476D01*
X137087619Y-130975714D02*
X136706666Y-130975714D01*
X136944761Y-130642380D02*
X136944761Y-131499523D01*
X136897142Y-131594761D01*
X136801904Y-131642380D01*
X136706666Y-131642380D01*
X136373333Y-131642380D02*
X136373333Y-130642380D01*
X135944761Y-131642380D02*
X135944761Y-131118571D01*
X135992380Y-131023333D01*
X136087619Y-130975714D01*
X136230476Y-130975714D01*
X136325714Y-131023333D01*
X136373333Y-131070952D01*
X135087619Y-131594761D02*
X135182857Y-131642380D01*
X135373333Y-131642380D01*
X135468571Y-131594761D01*
X135516190Y-131499523D01*
X135516190Y-131118571D01*
X135468571Y-131023333D01*
X135373333Y-130975714D01*
X135182857Y-130975714D01*
X135087619Y-131023333D01*
X135040000Y-131118571D01*
X135040000Y-131213809D01*
X135516190Y-131309047D01*
X134611428Y-131642380D02*
X134611428Y-130975714D01*
X134611428Y-131166190D02*
X134563809Y-131070952D01*
X134516190Y-131023333D01*
X134420952Y-130975714D01*
X134325714Y-130975714D01*
X133992380Y-131642380D02*
X133992380Y-130975714D01*
X133992380Y-131070952D02*
X133944761Y-131023333D01*
X133849523Y-130975714D01*
X133706666Y-130975714D01*
X133611428Y-131023333D01*
X133563809Y-131118571D01*
X133563809Y-131642380D01*
X133563809Y-131118571D02*
X133516190Y-131023333D01*
X133420952Y-130975714D01*
X133278095Y-130975714D01*
X133182857Y-131023333D01*
X133135238Y-131118571D01*
X133135238Y-131642380D01*
X132516190Y-131642380D02*
X132611428Y-131594761D01*
X132659047Y-131547142D01*
X132706666Y-131451904D01*
X132706666Y-131166190D01*
X132659047Y-131070952D01*
X132611428Y-131023333D01*
X132516190Y-130975714D01*
X132373333Y-130975714D01*
X132278095Y-131023333D01*
X132230476Y-131070952D01*
X132182857Y-131166190D01*
X132182857Y-131451904D01*
X132230476Y-131547142D01*
X132278095Y-131594761D01*
X132373333Y-131642380D01*
X132516190Y-131642380D01*
X131373333Y-131594761D02*
X131468571Y-131642380D01*
X131659047Y-131642380D01*
X131754285Y-131594761D01*
X131801904Y-131499523D01*
X131801904Y-131118571D01*
X131754285Y-131023333D01*
X131659047Y-130975714D01*
X131468571Y-130975714D01*
X131373333Y-131023333D01*
X131325714Y-131118571D01*
X131325714Y-131213809D01*
X131801904Y-131309047D01*
X130754285Y-131642380D02*
X130849523Y-131594761D01*
X130897142Y-131499523D01*
X130897142Y-130642380D01*
X129992380Y-131594761D02*
X130087619Y-131642380D01*
X130278095Y-131642380D01*
X130373333Y-131594761D01*
X130420952Y-131499523D01*
X130420952Y-131118571D01*
X130373333Y-131023333D01*
X130278095Y-130975714D01*
X130087619Y-130975714D01*
X129992380Y-131023333D01*
X129944761Y-131118571D01*
X129944761Y-131213809D01*
X130420952Y-131309047D01*
X129087619Y-131594761D02*
X129182857Y-131642380D01*
X129373333Y-131642380D01*
X129468571Y-131594761D01*
X129516190Y-131547142D01*
X129563809Y-131451904D01*
X129563809Y-131166190D01*
X129516190Y-131070952D01*
X129468571Y-131023333D01*
X129373333Y-130975714D01*
X129182857Y-130975714D01*
X129087619Y-131023333D01*
X128801904Y-130975714D02*
X128420952Y-130975714D01*
X128659047Y-130642380D02*
X128659047Y-131499523D01*
X128611428Y-131594761D01*
X128516190Y-131642380D01*
X128420952Y-131642380D01*
X128087619Y-131642380D02*
X128087619Y-130975714D01*
X128087619Y-131166190D02*
X128040000Y-131070952D01*
X127992380Y-131023333D01*
X127897142Y-130975714D01*
X127801904Y-130975714D01*
X127468571Y-131642380D02*
X127468571Y-130975714D01*
X127468571Y-130642380D02*
X127516190Y-130690000D01*
X127468571Y-130737619D01*
X127420952Y-130690000D01*
X127468571Y-130642380D01*
X127468571Y-130737619D01*
X126563809Y-131594761D02*
X126659047Y-131642380D01*
X126849523Y-131642380D01*
X126944761Y-131594761D01*
X126992380Y-131547142D01*
X127040000Y-131451904D01*
X127040000Y-131166190D01*
X126992380Y-131070952D01*
X126944761Y-131023333D01*
X126849523Y-130975714D01*
X126659047Y-130975714D01*
X126563809Y-131023333D01*
X126135238Y-131261428D02*
X125373333Y-131261428D01*
X125040000Y-130975714D02*
X124659047Y-130975714D01*
X124897142Y-130642380D02*
X124897142Y-131499523D01*
X124849523Y-131594761D01*
X124754285Y-131642380D01*
X124659047Y-131642380D01*
X123897142Y-130975714D02*
X123897142Y-131642380D01*
X124325714Y-130975714D02*
X124325714Y-131499523D01*
X124278095Y-131594761D01*
X124182857Y-131642380D01*
X124040000Y-131642380D01*
X123944761Y-131594761D01*
X123897142Y-131547142D01*
X123420952Y-131642380D02*
X123420952Y-130642380D01*
X123420952Y-131023333D02*
X123325714Y-130975714D01*
X123135238Y-130975714D01*
X123040000Y-131023333D01*
X122992380Y-131070952D01*
X122944761Y-131166190D01*
X122944761Y-131451904D01*
X122992380Y-131547142D01*
X123040000Y-131594761D01*
X123135238Y-131642380D01*
X123325714Y-131642380D01*
X123420952Y-131594761D01*
X122135238Y-131594761D02*
X122230476Y-131642380D01*
X122420952Y-131642380D01*
X122516190Y-131594761D01*
X122563809Y-131499523D01*
X122563809Y-131118571D01*
X122516190Y-131023333D01*
X122420952Y-130975714D01*
X122230476Y-130975714D01*
X122135238Y-131023333D01*
X122087619Y-131118571D01*
X122087619Y-131213809D01*
X122563809Y-131309047D01*
D11*
X139700000Y-76200000D02*
X88900000Y-76200000D01*
X139700000Y-76200000D02*
X139700000Y-101600000D01*
X88900000Y-76200000D02*
X88900000Y-101600000D01*
X88900000Y-101600000D02*
X139700000Y-101600000D01*
D12*
G36*
X129191643Y-107594997D02*
G01*
X128928323Y-107596439D01*
X128737754Y-107600342D01*
X128607655Y-107607937D01*
X128525743Y-107620450D01*
X128479734Y-107639111D01*
X128457347Y-107665148D01*
X128446298Y-107699788D01*
X128445224Y-107704272D01*
X128428441Y-107785189D01*
X128397375Y-107944842D01*
X128355258Y-108166238D01*
X128305321Y-108432385D01*
X128250797Y-108726290D01*
X128248893Y-108736612D01*
X128194277Y-109024636D01*
X128143178Y-109279115D01*
X128098894Y-109484785D01*
X128064721Y-109626385D01*
X128043957Y-109688650D01*
X128042967Y-109689753D01*
X127981801Y-109720159D01*
X127855690Y-109770828D01*
X127691869Y-109830822D01*
X127690957Y-109831142D01*
X127484612Y-109908704D01*
X127241340Y-110007507D01*
X127012031Y-110106848D01*
X127001178Y-110111760D01*
X126627683Y-110281276D01*
X125800635Y-109716495D01*
X125546923Y-109544320D01*
X125317098Y-109390395D01*
X125124475Y-109263474D01*
X124982368Y-109172309D01*
X124904093Y-109125655D01*
X124896660Y-109122195D01*
X124839776Y-109137600D01*
X124733531Y-109211927D01*
X124573781Y-109348681D01*
X124356384Y-109551368D01*
X124134452Y-109767008D01*
X123920509Y-109979503D01*
X123729031Y-110173410D01*
X123571545Y-110336754D01*
X123459578Y-110457561D01*
X123404657Y-110523855D01*
X123402614Y-110527268D01*
X123396542Y-110572761D01*
X123419416Y-110647056D01*
X123476885Y-110760186D01*
X123574601Y-110922185D01*
X123718216Y-111143086D01*
X123909667Y-111427460D01*
X124079577Y-111677759D01*
X124231462Y-111902250D01*
X124356545Y-112087900D01*
X124446051Y-112221675D01*
X124491200Y-112290542D01*
X124494042Y-112295218D01*
X124488530Y-112361201D01*
X124446745Y-112489448D01*
X124377003Y-112655720D01*
X124352146Y-112708819D01*
X124243689Y-112945377D01*
X124127980Y-113213789D01*
X124033985Y-113446035D01*
X123966255Y-113618407D01*
X123912457Y-113749403D01*
X123881369Y-113817867D01*
X123877504Y-113823142D01*
X123820329Y-113831880D01*
X123685552Y-113855823D01*
X123491094Y-113891562D01*
X123254875Y-113935689D01*
X122994816Y-113984795D01*
X122728837Y-114035472D01*
X122474857Y-114084313D01*
X122250799Y-114127909D01*
X122074580Y-114162851D01*
X121964123Y-114185732D01*
X121937030Y-114192201D01*
X121909044Y-114208167D01*
X121887919Y-114244227D01*
X121872703Y-114312552D01*
X121862447Y-114425315D01*
X121856200Y-114594686D01*
X121853012Y-114832838D01*
X121851933Y-115151942D01*
X121851877Y-115282741D01*
X121851877Y-116346511D01*
X122107337Y-116396933D01*
X122249463Y-116424273D01*
X122461550Y-116464182D01*
X122717807Y-116511845D01*
X122992442Y-116562446D01*
X123068352Y-116576344D01*
X123321779Y-116625617D01*
X123542553Y-116674070D01*
X123712143Y-116717215D01*
X123812020Y-116750563D01*
X123828657Y-116760502D01*
X123869511Y-116830891D01*
X123928087Y-116967283D01*
X123993045Y-117142805D01*
X124005929Y-117180613D01*
X124091066Y-117415030D01*
X124196744Y-117679524D01*
X124300160Y-117917041D01*
X124300670Y-117918144D01*
X124472888Y-118290733D01*
X123906476Y-119123893D01*
X123340065Y-119957053D01*
X124067298Y-120685500D01*
X124287252Y-120902302D01*
X124487868Y-121093414D01*
X124657878Y-121248636D01*
X124786015Y-121357764D01*
X124861011Y-121410595D01*
X124871769Y-121413947D01*
X124934933Y-121387549D01*
X125063820Y-121314160D01*
X125244351Y-121202484D01*
X125462446Y-121061224D01*
X125698246Y-120903027D01*
X125937564Y-120741664D01*
X126150941Y-120601252D01*
X126324825Y-120490431D01*
X126445666Y-120417838D01*
X126499737Y-120392108D01*
X126565706Y-120413880D01*
X126690802Y-120471251D01*
X126849220Y-120552300D01*
X126866013Y-120561309D01*
X127079348Y-120668300D01*
X127225636Y-120720772D01*
X127316620Y-120721330D01*
X127364041Y-120672580D01*
X127364317Y-120671897D01*
X127388020Y-120614164D01*
X127444551Y-120477115D01*
X127529526Y-120271357D01*
X127638562Y-120007498D01*
X127767276Y-119696144D01*
X127911285Y-119347904D01*
X128050749Y-119010744D01*
X128204020Y-118638666D01*
X128344749Y-118293987D01*
X128468718Y-117987271D01*
X128571709Y-117729085D01*
X128649504Y-117529994D01*
X128697886Y-117400565D01*
X128712796Y-117352261D01*
X128675406Y-117296850D01*
X128577602Y-117208538D01*
X128447185Y-117111174D01*
X128075777Y-116803253D01*
X127785470Y-116450304D01*
X127579744Y-116059761D01*
X127462077Y-115639057D01*
X127435949Y-115195629D01*
X127454940Y-114990958D01*
X127558417Y-114566323D01*
X127736627Y-114191336D01*
X127978518Y-113869696D01*
X128273037Y-113605101D01*
X128609129Y-113401250D01*
X128975742Y-113261842D01*
X129361823Y-113190574D01*
X129756319Y-113191145D01*
X130148175Y-113267254D01*
X130526340Y-113422599D01*
X130879760Y-113660879D01*
X131027273Y-113795639D01*
X131310184Y-114141679D01*
X131507168Y-114519826D01*
X131619536Y-114919055D01*
X131648599Y-115328345D01*
X131595669Y-115736672D01*
X131462057Y-116133013D01*
X131249075Y-116506345D01*
X130958034Y-116845645D01*
X130632814Y-117111174D01*
X130497348Y-117212671D01*
X130401651Y-117300025D01*
X130367203Y-117352343D01*
X130385240Y-117409398D01*
X130436538Y-117545698D01*
X130516876Y-117750678D01*
X130622036Y-118013772D01*
X130747796Y-118324416D01*
X130889937Y-118672043D01*
X131029635Y-119010826D01*
X131183759Y-119383222D01*
X131326518Y-119728307D01*
X131453529Y-120035477D01*
X131560411Y-120294125D01*
X131642780Y-120493647D01*
X131696253Y-120623435D01*
X131716067Y-120671897D01*
X131762876Y-120721129D01*
X131853417Y-120720985D01*
X131999342Y-120668877D01*
X132212302Y-120562216D01*
X132213986Y-120561309D01*
X132374330Y-120478536D01*
X132503948Y-120418242D01*
X132577037Y-120392346D01*
X132580263Y-120392108D01*
X132635284Y-120418374D01*
X132756757Y-120491416D01*
X132931129Y-120602595D01*
X133144850Y-120743273D01*
X133381753Y-120903027D01*
X133622945Y-121064779D01*
X133840326Y-121205450D01*
X134019816Y-121316335D01*
X134147336Y-121388730D01*
X134208230Y-121413947D01*
X134264303Y-121380803D01*
X134377040Y-121288173D01*
X134535177Y-121146257D01*
X134727449Y-120965255D01*
X134942591Y-120755369D01*
X135012952Y-120685249D01*
X135740434Y-119956552D01*
X135186705Y-119143900D01*
X135018423Y-118894342D01*
X134870729Y-118670366D01*
X134751910Y-118484949D01*
X134670250Y-118351065D01*
X134634036Y-118281690D01*
X134632975Y-118276755D01*
X134652067Y-118211364D01*
X134703418Y-118079825D01*
X134778140Y-117904181D01*
X134830588Y-117786591D01*
X134928654Y-117561461D01*
X135021007Y-117334015D01*
X135092606Y-117141839D01*
X135112056Y-117083295D01*
X135167314Y-116926956D01*
X135221331Y-116806158D01*
X135251001Y-116760502D01*
X135316476Y-116732561D01*
X135459376Y-116692951D01*
X135661161Y-116646162D01*
X135903288Y-116596683D01*
X136011647Y-116576344D01*
X136286811Y-116525781D01*
X136550746Y-116476822D01*
X136777659Y-116434281D01*
X136941761Y-116402975D01*
X136972662Y-116396933D01*
X137228122Y-116346511D01*
X137228122Y-115282741D01*
X137227548Y-114932950D01*
X137225193Y-114668300D01*
X137220107Y-114476622D01*
X137211339Y-114345744D01*
X137197938Y-114263493D01*
X137178954Y-114217698D01*
X137153438Y-114196188D01*
X137142969Y-114192201D01*
X137079826Y-114178056D01*
X136940325Y-114149834D01*
X136742389Y-114110943D01*
X136503935Y-114064792D01*
X136242886Y-114014788D01*
X135977161Y-113964341D01*
X135724681Y-113916858D01*
X135503365Y-113875748D01*
X135331134Y-113844419D01*
X135225908Y-113826278D01*
X135202495Y-113823142D01*
X135181284Y-113781173D01*
X135134332Y-113669370D01*
X135070419Y-113508888D01*
X135046014Y-113446035D01*
X134947580Y-113203203D01*
X134831666Y-112934918D01*
X134727853Y-112708819D01*
X134651465Y-112535935D01*
X134600644Y-112393877D01*
X134583679Y-112306878D01*
X134586384Y-112295218D01*
X134622239Y-112240170D01*
X134704108Y-112117739D01*
X134823205Y-111940962D01*
X134970742Y-111722877D01*
X135137931Y-111476520D01*
X135170990Y-111427891D01*
X135364980Y-111139773D01*
X135507579Y-110920377D01*
X135604473Y-110759602D01*
X135661346Y-110647346D01*
X135683884Y-110573510D01*
X135677772Y-110527990D01*
X135677616Y-110527700D01*
X135629511Y-110467910D01*
X135523111Y-110352319D01*
X135369948Y-110192909D01*
X135181555Y-110001665D01*
X134969465Y-109790568D01*
X134945547Y-109767008D01*
X134678262Y-109508172D01*
X134471992Y-109318117D01*
X134322592Y-109193337D01*
X134225920Y-109130327D01*
X134183339Y-109122195D01*
X134121196Y-109157672D01*
X133992237Y-109239623D01*
X133809778Y-109359292D01*
X133587133Y-109507926D01*
X133337616Y-109676772D01*
X133279364Y-109716495D01*
X132452316Y-110281276D01*
X132078821Y-110111760D01*
X131851684Y-110012971D01*
X131607872Y-109913617D01*
X131398275Y-109834401D01*
X131389042Y-109831142D01*
X131225095Y-109771129D01*
X131098715Y-109720382D01*
X131037137Y-109689841D01*
X131037032Y-109689753D01*
X131017493Y-109634548D01*
X130984279Y-109498779D01*
X130940687Y-109297709D01*
X130890016Y-109046599D01*
X130835561Y-108760713D01*
X130831106Y-108736612D01*
X130776482Y-108442059D01*
X130726336Y-108174684D01*
X130683898Y-107951480D01*
X130652402Y-107789439D01*
X130635077Y-107705553D01*
X130634775Y-107704272D01*
X130624232Y-107668588D01*
X130603731Y-107641646D01*
X130560989Y-107622218D01*
X130483724Y-107609075D01*
X130359652Y-107600989D01*
X130176491Y-107596732D01*
X129921958Y-107595075D01*
X129583769Y-107594790D01*
X129540000Y-107594790D01*
X129191643Y-107594997D01*
G37*
X129191643Y-107594997D02*
X128928323Y-107596439D01*
X128737754Y-107600342D01*
X128607655Y-107607937D01*
X128525743Y-107620450D01*
X128479734Y-107639111D01*
X128457347Y-107665148D01*
X128446298Y-107699788D01*
X128445224Y-107704272D01*
X128428441Y-107785189D01*
X128397375Y-107944842D01*
X128355258Y-108166238D01*
X128305321Y-108432385D01*
X128250797Y-108726290D01*
X128248893Y-108736612D01*
X128194277Y-109024636D01*
X128143178Y-109279115D01*
X128098894Y-109484785D01*
X128064721Y-109626385D01*
X128043957Y-109688650D01*
X128042967Y-109689753D01*
X127981801Y-109720159D01*
X127855690Y-109770828D01*
X127691869Y-109830822D01*
X127690957Y-109831142D01*
X127484612Y-109908704D01*
X127241340Y-110007507D01*
X127012031Y-110106848D01*
X127001178Y-110111760D01*
X126627683Y-110281276D01*
X125800635Y-109716495D01*
X125546923Y-109544320D01*
X125317098Y-109390395D01*
X125124475Y-109263474D01*
X124982368Y-109172309D01*
X124904093Y-109125655D01*
X124896660Y-109122195D01*
X124839776Y-109137600D01*
X124733531Y-109211927D01*
X124573781Y-109348681D01*
X124356384Y-109551368D01*
X124134452Y-109767008D01*
X123920509Y-109979503D01*
X123729031Y-110173410D01*
X123571545Y-110336754D01*
X123459578Y-110457561D01*
X123404657Y-110523855D01*
X123402614Y-110527268D01*
X123396542Y-110572761D01*
X123419416Y-110647056D01*
X123476885Y-110760186D01*
X123574601Y-110922185D01*
X123718216Y-111143086D01*
X123909667Y-111427460D01*
X124079577Y-111677759D01*
X124231462Y-111902250D01*
X124356545Y-112087900D01*
X124446051Y-112221675D01*
X124491200Y-112290542D01*
X124494042Y-112295218D01*
X124488530Y-112361201D01*
X124446745Y-112489448D01*
X124377003Y-112655720D01*
X124352146Y-112708819D01*
X124243689Y-112945377D01*
X124127980Y-113213789D01*
X124033985Y-113446035D01*
X123966255Y-113618407D01*
X123912457Y-113749403D01*
X123881369Y-113817867D01*
X123877504Y-113823142D01*
X123820329Y-113831880D01*
X123685552Y-113855823D01*
X123491094Y-113891562D01*
X123254875Y-113935689D01*
X122994816Y-113984795D01*
X122728837Y-114035472D01*
X122474857Y-114084313D01*
X122250799Y-114127909D01*
X122074580Y-114162851D01*
X121964123Y-114185732D01*
X121937030Y-114192201D01*
X121909044Y-114208167D01*
X121887919Y-114244227D01*
X121872703Y-114312552D01*
X121862447Y-114425315D01*
X121856200Y-114594686D01*
X121853012Y-114832838D01*
X121851933Y-115151942D01*
X121851877Y-115282741D01*
X121851877Y-116346511D01*
X122107337Y-116396933D01*
X122249463Y-116424273D01*
X122461550Y-116464182D01*
X122717807Y-116511845D01*
X122992442Y-116562446D01*
X123068352Y-116576344D01*
X123321779Y-116625617D01*
X123542553Y-116674070D01*
X123712143Y-116717215D01*
X123812020Y-116750563D01*
X123828657Y-116760502D01*
X123869511Y-116830891D01*
X123928087Y-116967283D01*
X123993045Y-117142805D01*
X124005929Y-117180613D01*
X124091066Y-117415030D01*
X124196744Y-117679524D01*
X124300160Y-117917041D01*
X124300670Y-117918144D01*
X124472888Y-118290733D01*
X123906476Y-119123893D01*
X123340065Y-119957053D01*
X124067298Y-120685500D01*
X124287252Y-120902302D01*
X124487868Y-121093414D01*
X124657878Y-121248636D01*
X124786015Y-121357764D01*
X124861011Y-121410595D01*
X124871769Y-121413947D01*
X124934933Y-121387549D01*
X125063820Y-121314160D01*
X125244351Y-121202484D01*
X125462446Y-121061224D01*
X125698246Y-120903027D01*
X125937564Y-120741664D01*
X126150941Y-120601252D01*
X126324825Y-120490431D01*
X126445666Y-120417838D01*
X126499737Y-120392108D01*
X126565706Y-120413880D01*
X126690802Y-120471251D01*
X126849220Y-120552300D01*
X126866013Y-120561309D01*
X127079348Y-120668300D01*
X127225636Y-120720772D01*
X127316620Y-120721330D01*
X127364041Y-120672580D01*
X127364317Y-120671897D01*
X127388020Y-120614164D01*
X127444551Y-120477115D01*
X127529526Y-120271357D01*
X127638562Y-120007498D01*
X127767276Y-119696144D01*
X127911285Y-119347904D01*
X128050749Y-119010744D01*
X128204020Y-118638666D01*
X128344749Y-118293987D01*
X128468718Y-117987271D01*
X128571709Y-117729085D01*
X128649504Y-117529994D01*
X128697886Y-117400565D01*
X128712796Y-117352261D01*
X128675406Y-117296850D01*
X128577602Y-117208538D01*
X128447185Y-117111174D01*
X128075777Y-116803253D01*
X127785470Y-116450304D01*
X127579744Y-116059761D01*
X127462077Y-115639057D01*
X127435949Y-115195629D01*
X127454940Y-114990958D01*
X127558417Y-114566323D01*
X127736627Y-114191336D01*
X127978518Y-113869696D01*
X128273037Y-113605101D01*
X128609129Y-113401250D01*
X128975742Y-113261842D01*
X129361823Y-113190574D01*
X129756319Y-113191145D01*
X130148175Y-113267254D01*
X130526340Y-113422599D01*
X130879760Y-113660879D01*
X131027273Y-113795639D01*
X131310184Y-114141679D01*
X131507168Y-114519826D01*
X131619536Y-114919055D01*
X131648599Y-115328345D01*
X131595669Y-115736672D01*
X131462057Y-116133013D01*
X131249075Y-116506345D01*
X130958034Y-116845645D01*
X130632814Y-117111174D01*
X130497348Y-117212671D01*
X130401651Y-117300025D01*
X130367203Y-117352343D01*
X130385240Y-117409398D01*
X130436538Y-117545698D01*
X130516876Y-117750678D01*
X130622036Y-118013772D01*
X130747796Y-118324416D01*
X130889937Y-118672043D01*
X131029635Y-119010826D01*
X131183759Y-119383222D01*
X131326518Y-119728307D01*
X131453529Y-120035477D01*
X131560411Y-120294125D01*
X131642780Y-120493647D01*
X131696253Y-120623435D01*
X131716067Y-120671897D01*
X131762876Y-120721129D01*
X131853417Y-120720985D01*
X131999342Y-120668877D01*
X132212302Y-120562216D01*
X132213986Y-120561309D01*
X132374330Y-120478536D01*
X132503948Y-120418242D01*
X132577037Y-120392346D01*
X132580263Y-120392108D01*
X132635284Y-120418374D01*
X132756757Y-120491416D01*
X132931129Y-120602595D01*
X133144850Y-120743273D01*
X133381753Y-120903027D01*
X133622945Y-121064779D01*
X133840326Y-121205450D01*
X134019816Y-121316335D01*
X134147336Y-121388730D01*
X134208230Y-121413947D01*
X134264303Y-121380803D01*
X134377040Y-121288173D01*
X134535177Y-121146257D01*
X134727449Y-120965255D01*
X134942591Y-120755369D01*
X135012952Y-120685249D01*
X135740434Y-119956552D01*
X135186705Y-119143900D01*
X135018423Y-118894342D01*
X134870729Y-118670366D01*
X134751910Y-118484949D01*
X134670250Y-118351065D01*
X134634036Y-118281690D01*
X134632975Y-118276755D01*
X134652067Y-118211364D01*
X134703418Y-118079825D01*
X134778140Y-117904181D01*
X134830588Y-117786591D01*
X134928654Y-117561461D01*
X135021007Y-117334015D01*
X135092606Y-117141839D01*
X135112056Y-117083295D01*
X135167314Y-116926956D01*
X135221331Y-116806158D01*
X135251001Y-116760502D01*
X135316476Y-116732561D01*
X135459376Y-116692951D01*
X135661161Y-116646162D01*
X135903288Y-116596683D01*
X136011647Y-116576344D01*
X136286811Y-116525781D01*
X136550746Y-116476822D01*
X136777659Y-116434281D01*
X136941761Y-116402975D01*
X136972662Y-116396933D01*
X137228122Y-116346511D01*
X137228122Y-115282741D01*
X137227548Y-114932950D01*
X137225193Y-114668300D01*
X137220107Y-114476622D01*
X137211339Y-114345744D01*
X137197938Y-114263493D01*
X137178954Y-114217698D01*
X137153438Y-114196188D01*
X137142969Y-114192201D01*
X137079826Y-114178056D01*
X136940325Y-114149834D01*
X136742389Y-114110943D01*
X136503935Y-114064792D01*
X136242886Y-114014788D01*
X135977161Y-113964341D01*
X135724681Y-113916858D01*
X135503365Y-113875748D01*
X135331134Y-113844419D01*
X135225908Y-113826278D01*
X135202495Y-113823142D01*
X135181284Y-113781173D01*
X135134332Y-113669370D01*
X135070419Y-113508888D01*
X135046014Y-113446035D01*
X134947580Y-113203203D01*
X134831666Y-112934918D01*
X134727853Y-112708819D01*
X134651465Y-112535935D01*
X134600644Y-112393877D01*
X134583679Y-112306878D01*
X134586384Y-112295218D01*
X134622239Y-112240170D01*
X134704108Y-112117739D01*
X134823205Y-111940962D01*
X134970742Y-111722877D01*
X135137931Y-111476520D01*
X135170990Y-111427891D01*
X135364980Y-111139773D01*
X135507579Y-110920377D01*
X135604473Y-110759602D01*
X135661346Y-110647346D01*
X135683884Y-110573510D01*
X135677772Y-110527990D01*
X135677616Y-110527700D01*
X135629511Y-110467910D01*
X135523111Y-110352319D01*
X135369948Y-110192909D01*
X135181555Y-110001665D01*
X134969465Y-109790568D01*
X134945547Y-109767008D01*
X134678262Y-109508172D01*
X134471992Y-109318117D01*
X134322592Y-109193337D01*
X134225920Y-109130327D01*
X134183339Y-109122195D01*
X134121196Y-109157672D01*
X133992237Y-109239623D01*
X133809778Y-109359292D01*
X133587133Y-109507926D01*
X133337616Y-109676772D01*
X133279364Y-109716495D01*
X132452316Y-110281276D01*
X132078821Y-110111760D01*
X131851684Y-110012971D01*
X131607872Y-109913617D01*
X131398275Y-109834401D01*
X131389042Y-109831142D01*
X131225095Y-109771129D01*
X131098715Y-109720382D01*
X131037137Y-109689841D01*
X131037032Y-109689753D01*
X131017493Y-109634548D01*
X130984279Y-109498779D01*
X130940687Y-109297709D01*
X130890016Y-109046599D01*
X130835561Y-108760713D01*
X130831106Y-108736612D01*
X130776482Y-108442059D01*
X130726336Y-108174684D01*
X130683898Y-107951480D01*
X130652402Y-107789439D01*
X130635077Y-107705553D01*
X130634775Y-107704272D01*
X130624232Y-107668588D01*
X130603731Y-107641646D01*
X130560989Y-107622218D01*
X130483724Y-107609075D01*
X130359652Y-107600989D01*
X130176491Y-107596732D01*
X129921958Y-107595075D01*
X129583769Y-107594790D01*
X129540000Y-107594790D01*
X129191643Y-107594997D01*
G36*
X118967601Y-123434233D02*
G01*
X118775083Y-123560057D01*
X118682226Y-123672696D01*
X118608660Y-123877092D01*
X118602817Y-124038830D01*
X118616053Y-124255094D01*
X119114808Y-124473398D01*
X119357315Y-124584930D01*
X119515771Y-124674650D01*
X119598164Y-124752361D01*
X119612482Y-124827867D01*
X119566713Y-124910971D01*
X119516245Y-124966054D01*
X119369395Y-125054389D01*
X119209672Y-125060579D01*
X119062980Y-124991735D01*
X118955219Y-124854972D01*
X118935945Y-124806680D01*
X118843624Y-124655848D01*
X118737412Y-124591567D01*
X118591724Y-124536576D01*
X118591724Y-124745057D01*
X118604604Y-124886926D01*
X118655057Y-125006563D01*
X118760803Y-125143927D01*
X118776520Y-125161777D01*
X118894145Y-125283986D01*
X118995254Y-125349570D01*
X119121750Y-125379742D01*
X119226616Y-125389623D01*
X119414189Y-125392085D01*
X119547716Y-125360892D01*
X119631017Y-125314579D01*
X119761937Y-125212735D01*
X119852561Y-125102591D01*
X119909913Y-124964069D01*
X119941020Y-124777090D01*
X119952906Y-124521577D01*
X119953855Y-124391894D01*
X119950629Y-124236421D01*
X119656834Y-124236421D01*
X119653427Y-124319827D01*
X119644934Y-124333487D01*
X119588890Y-124314931D01*
X119468282Y-124265822D01*
X119307087Y-124196002D01*
X119273378Y-124180995D01*
X119069661Y-124077404D01*
X118957421Y-123986359D01*
X118932753Y-123901081D01*
X118991755Y-123814794D01*
X119040482Y-123776667D01*
X119216306Y-123700417D01*
X119380873Y-123713014D01*
X119518646Y-123806086D01*
X119614087Y-123971256D01*
X119644686Y-124102357D01*
X119656834Y-124236421D01*
X119950629Y-124236421D01*
X119947568Y-124088919D01*
X119924401Y-123864756D01*
X119878510Y-123701526D01*
X119804046Y-123581352D01*
X119695164Y-123486355D01*
X119647695Y-123455655D01*
X119432062Y-123375703D01*
X119195979Y-123370672D01*
X118967601Y-123434233D01*
G37*
X118967601Y-123434233D02*
X118775083Y-123560057D01*
X118682226Y-123672696D01*
X118608660Y-123877092D01*
X118602817Y-124038830D01*
X118616053Y-124255094D01*
X119114808Y-124473398D01*
X119357315Y-124584930D01*
X119515771Y-124674650D01*
X119598164Y-124752361D01*
X119612482Y-124827867D01*
X119566713Y-124910971D01*
X119516245Y-124966054D01*
X119369395Y-125054389D01*
X119209672Y-125060579D01*
X119062980Y-124991735D01*
X118955219Y-124854972D01*
X118935945Y-124806680D01*
X118843624Y-124655848D01*
X118737412Y-124591567D01*
X118591724Y-124536576D01*
X118591724Y-124745057D01*
X118604604Y-124886926D01*
X118655057Y-125006563D01*
X118760803Y-125143927D01*
X118776520Y-125161777D01*
X118894145Y-125283986D01*
X118995254Y-125349570D01*
X119121750Y-125379742D01*
X119226616Y-125389623D01*
X119414189Y-125392085D01*
X119547716Y-125360892D01*
X119631017Y-125314579D01*
X119761937Y-125212735D01*
X119852561Y-125102591D01*
X119909913Y-124964069D01*
X119941020Y-124777090D01*
X119952906Y-124521577D01*
X119953855Y-124391894D01*
X119950629Y-124236421D01*
X119656834Y-124236421D01*
X119653427Y-124319827D01*
X119644934Y-124333487D01*
X119588890Y-124314931D01*
X119468282Y-124265822D01*
X119307087Y-124196002D01*
X119273378Y-124180995D01*
X119069661Y-124077404D01*
X118957421Y-123986359D01*
X118932753Y-123901081D01*
X118991755Y-123814794D01*
X119040482Y-123776667D01*
X119216306Y-123700417D01*
X119380873Y-123713014D01*
X119518646Y-123806086D01*
X119614087Y-123971256D01*
X119644686Y-124102357D01*
X119656834Y-124236421D01*
X119950629Y-124236421D01*
X119947568Y-124088919D01*
X119924401Y-123864756D01*
X119878510Y-123701526D01*
X119804046Y-123581352D01*
X119695164Y-123486355D01*
X119647695Y-123455655D01*
X119432062Y-123375703D01*
X119195979Y-123370672D01*
X118967601Y-123434233D01*
G36*
X120647184Y-123406697D02*
G01*
X120589024Y-123432116D01*
X120450205Y-123542059D01*
X120331495Y-123701030D01*
X120258079Y-123870677D01*
X120246130Y-123954313D01*
X120286191Y-124071078D01*
X120374065Y-124132862D01*
X120468282Y-124170273D01*
X120511423Y-124177167D01*
X120532429Y-124127138D01*
X120573910Y-124018269D01*
X120592108Y-123969076D01*
X120694152Y-123798913D01*
X120841897Y-123714038D01*
X121031345Y-123716648D01*
X121045377Y-123719991D01*
X121146519Y-123767945D01*
X121220876Y-123861432D01*
X121271662Y-124011939D01*
X121302092Y-124230951D01*
X121315382Y-124529956D01*
X121316628Y-124689056D01*
X121317246Y-124939855D01*
X121321295Y-125110825D01*
X121332067Y-125219454D01*
X121352853Y-125283230D01*
X121386945Y-125319643D01*
X121437635Y-125346179D01*
X121440565Y-125347515D01*
X121538182Y-125388787D01*
X121586542Y-125403985D01*
X121593973Y-125358037D01*
X121600334Y-125231034D01*
X121605168Y-125039235D01*
X121608015Y-124798902D01*
X121608582Y-124623024D01*
X121605687Y-124282688D01*
X121594363Y-124024495D01*
X121570654Y-123833374D01*
X121530603Y-123694253D01*
X121470253Y-123592060D01*
X121385647Y-123511724D01*
X121302101Y-123455655D01*
X121101209Y-123381032D01*
X120867404Y-123364202D01*
X120647184Y-123406697D01*
G37*
X120647184Y-123406697D02*
X120589024Y-123432116D01*
X120450205Y-123542059D01*
X120331495Y-123701030D01*
X120258079Y-123870677D01*
X120246130Y-123954313D01*
X120286191Y-124071078D01*
X120374065Y-124132862D01*
X120468282Y-124170273D01*
X120511423Y-124177167D01*
X120532429Y-124127138D01*
X120573910Y-124018269D01*
X120592108Y-123969076D01*
X120694152Y-123798913D01*
X120841897Y-123714038D01*
X121031345Y-123716648D01*
X121045377Y-123719991D01*
X121146519Y-123767945D01*
X121220876Y-123861432D01*
X121271662Y-124011939D01*
X121302092Y-124230951D01*
X121315382Y-124529956D01*
X121316628Y-124689056D01*
X121317246Y-124939855D01*
X121321295Y-125110825D01*
X121332067Y-125219454D01*
X121352853Y-125283230D01*
X121386945Y-125319643D01*
X121437635Y-125346179D01*
X121440565Y-125347515D01*
X121538182Y-125388787D01*
X121586542Y-125403985D01*
X121593973Y-125358037D01*
X121600334Y-125231034D01*
X121605168Y-125039235D01*
X121608015Y-124798902D01*
X121608582Y-124623024D01*
X121605687Y-124282688D01*
X121594363Y-124024495D01*
X121570654Y-123833374D01*
X121530603Y-123694253D01*
X121470253Y-123592060D01*
X121385647Y-123511724D01*
X121302101Y-123455655D01*
X121101209Y-123381032D01*
X120867404Y-123364202D01*
X120647184Y-123406697D01*
G36*
X122349322Y-123398594D02*
G01*
X122209218Y-123462323D01*
X122099250Y-123539543D01*
X122018676Y-123625887D01*
X121963046Y-123737272D01*
X121927911Y-123889616D01*
X121908821Y-124098835D01*
X121901328Y-124380846D01*
X121900536Y-124566555D01*
X121900536Y-125291046D01*
X122024473Y-125347515D01*
X122122090Y-125388787D01*
X122170450Y-125403985D01*
X122179702Y-125358762D01*
X122187042Y-125236824D01*
X122191536Y-125058772D01*
X122192490Y-124917395D01*
X122196590Y-124713146D01*
X122207646Y-124551113D01*
X122223789Y-124451891D01*
X122236613Y-124430805D01*
X122322814Y-124452338D01*
X122458138Y-124507566D01*
X122614830Y-124582436D01*
X122765137Y-124662892D01*
X122881307Y-124734880D01*
X122935587Y-124784346D01*
X122935802Y-124784881D01*
X122931133Y-124876428D01*
X122889268Y-124963820D01*
X122815765Y-125034802D01*
X122708484Y-125058543D01*
X122616798Y-125055777D01*
X122486942Y-125053741D01*
X122418779Y-125084164D01*
X122377841Y-125164543D01*
X122372679Y-125179700D01*
X122354933Y-125294331D01*
X122402391Y-125363934D01*
X122526093Y-125397105D01*
X122659719Y-125403240D01*
X122900183Y-125357763D01*
X123024662Y-125292817D01*
X123178395Y-125140246D01*
X123259927Y-124952971D01*
X123267244Y-124755085D01*
X123198331Y-124570685D01*
X123094672Y-124455134D01*
X122991177Y-124390442D01*
X122828508Y-124308542D01*
X122638946Y-124225486D01*
X122607350Y-124212795D01*
X122399131Y-124120908D01*
X122279102Y-124039923D01*
X122240499Y-123959413D01*
X122276560Y-123868950D01*
X122338467Y-123798238D01*
X122484787Y-123711170D01*
X122645783Y-123704640D01*
X122793427Y-123771735D01*
X122899690Y-123905544D01*
X122913638Y-123940067D01*
X122994840Y-124067042D01*
X123113392Y-124161309D01*
X123262988Y-124238668D01*
X123262988Y-124019307D01*
X123254183Y-123885280D01*
X123216430Y-123779644D01*
X123132721Y-123666939D01*
X123052364Y-123580127D01*
X122927409Y-123457204D01*
X122830323Y-123391171D01*
X122726046Y-123364684D01*
X122608011Y-123360307D01*
X122349322Y-123398594D01*
G37*
X122349322Y-123398594D02*
X122209218Y-123462323D01*
X122099250Y-123539543D01*
X122018676Y-123625887D01*
X121963046Y-123737272D01*
X121927911Y-123889616D01*
X121908821Y-124098835D01*
X121901328Y-124380846D01*
X121900536Y-124566555D01*
X121900536Y-125291046D01*
X122024473Y-125347515D01*
X122122090Y-125388787D01*
X122170450Y-125403985D01*
X122179702Y-125358762D01*
X122187042Y-125236824D01*
X122191536Y-125058772D01*
X122192490Y-124917395D01*
X122196590Y-124713146D01*
X122207646Y-124551113D01*
X122223789Y-124451891D01*
X122236613Y-124430805D01*
X122322814Y-124452338D01*
X122458138Y-124507566D01*
X122614830Y-124582436D01*
X122765137Y-124662892D01*
X122881307Y-124734880D01*
X122935587Y-124784346D01*
X122935802Y-124784881D01*
X122931133Y-124876428D01*
X122889268Y-124963820D01*
X122815765Y-125034802D01*
X122708484Y-125058543D01*
X122616798Y-125055777D01*
X122486942Y-125053741D01*
X122418779Y-125084164D01*
X122377841Y-125164543D01*
X122372679Y-125179700D01*
X122354933Y-125294331D01*
X122402391Y-125363934D01*
X122526093Y-125397105D01*
X122659719Y-125403240D01*
X122900183Y-125357763D01*
X123024662Y-125292817D01*
X123178395Y-125140246D01*
X123259927Y-124952971D01*
X123267244Y-124755085D01*
X123198331Y-124570685D01*
X123094672Y-124455134D01*
X122991177Y-124390442D01*
X122828508Y-124308542D01*
X122638946Y-124225486D01*
X122607350Y-124212795D01*
X122399131Y-124120908D01*
X122279102Y-124039923D01*
X122240499Y-123959413D01*
X122276560Y-123868950D01*
X122338467Y-123798238D01*
X122484787Y-123711170D01*
X122645783Y-123704640D01*
X122793427Y-123771735D01*
X122899690Y-123905544D01*
X122913638Y-123940067D01*
X122994840Y-124067042D01*
X123113392Y-124161309D01*
X123262988Y-124238668D01*
X123262988Y-124019307D01*
X123254183Y-123885280D01*
X123216430Y-123779644D01*
X123132721Y-123666939D01*
X123052364Y-123580127D01*
X122927409Y-123457204D01*
X122830323Y-123391171D01*
X122726046Y-123364684D01*
X122608011Y-123360307D01*
X122349322Y-123398594D01*
G36*
X123573127Y-123406400D02*
G01*
X123565701Y-123534422D01*
X123559882Y-123728985D01*
X123556141Y-123974702D01*
X123554942Y-124232426D01*
X123554942Y-125104545D01*
X123708925Y-125258528D01*
X123815037Y-125353412D01*
X123908184Y-125391845D01*
X124035496Y-125389413D01*
X124086032Y-125383223D01*
X124243983Y-125365210D01*
X124374629Y-125354888D01*
X124406475Y-125353935D01*
X124513834Y-125360171D01*
X124667381Y-125375824D01*
X124726917Y-125383223D01*
X124873143Y-125394668D01*
X124971411Y-125369808D01*
X125068850Y-125293058D01*
X125104024Y-125258528D01*
X125258007Y-125104545D01*
X125258007Y-123473246D01*
X125134070Y-123416776D01*
X125027350Y-123374950D01*
X124964913Y-123360307D01*
X124948904Y-123406583D01*
X124933942Y-123535884D01*
X124921022Y-123733914D01*
X124911143Y-123986380D01*
X124906378Y-124199675D01*
X124893065Y-125039042D01*
X124776920Y-125055464D01*
X124671284Y-125043982D01*
X124619523Y-125006805D01*
X124605055Y-124937298D01*
X124592702Y-124789240D01*
X124583448Y-124581391D01*
X124578272Y-124332512D01*
X124577526Y-124204435D01*
X124576781Y-123467145D01*
X124423543Y-123413726D01*
X124315084Y-123377406D01*
X124256087Y-123360468D01*
X124254386Y-123360307D01*
X124248467Y-123406349D01*
X124241961Y-123534018D01*
X124235414Y-123727632D01*
X124229373Y-123971507D01*
X124225152Y-124199675D01*
X124211839Y-125039042D01*
X123919885Y-125039042D01*
X123906487Y-124273275D01*
X123893090Y-123507508D01*
X123750762Y-123433908D01*
X123645678Y-123383366D01*
X123583483Y-123360431D01*
X123581688Y-123360307D01*
X123573127Y-123406400D01*
G37*
X123573127Y-123406400D02*
X123565701Y-123534422D01*
X123559882Y-123728985D01*
X123556141Y-123974702D01*
X123554942Y-124232426D01*
X123554942Y-125104545D01*
X123708925Y-125258528D01*
X123815037Y-125353412D01*
X123908184Y-125391845D01*
X124035496Y-125389413D01*
X124086032Y-125383223D01*
X124243983Y-125365210D01*
X124374629Y-125354888D01*
X124406475Y-125353935D01*
X124513834Y-125360171D01*
X124667381Y-125375824D01*
X124726917Y-125383223D01*
X124873143Y-125394668D01*
X124971411Y-125369808D01*
X125068850Y-125293058D01*
X125104024Y-125258528D01*
X125258007Y-125104545D01*
X125258007Y-123473246D01*
X125134070Y-123416776D01*
X125027350Y-123374950D01*
X124964913Y-123360307D01*
X124948904Y-123406583D01*
X124933942Y-123535884D01*
X124921022Y-123733914D01*
X124911143Y-123986380D01*
X124906378Y-124199675D01*
X124893065Y-125039042D01*
X124776920Y-125055464D01*
X124671284Y-125043982D01*
X124619523Y-125006805D01*
X124605055Y-124937298D01*
X124592702Y-124789240D01*
X124583448Y-124581391D01*
X124578272Y-124332512D01*
X124577526Y-124204435D01*
X124576781Y-123467145D01*
X124423543Y-123413726D01*
X124315084Y-123377406D01*
X124256087Y-123360468D01*
X124254386Y-123360307D01*
X124248467Y-123406349D01*
X124241961Y-123534018D01*
X124235414Y-123727632D01*
X124229373Y-123971507D01*
X124225152Y-124199675D01*
X124211839Y-125039042D01*
X123919885Y-125039042D01*
X123906487Y-124273275D01*
X123893090Y-123507508D01*
X123750762Y-123433908D01*
X123645678Y-123383366D01*
X123583483Y-123360431D01*
X123581688Y-123360307D01*
X123573127Y-123406400D01*
G36*
X125550143Y-123764093D02*
G01*
X125550761Y-124127769D01*
X125553153Y-124407532D01*
X125558329Y-124616784D01*
X125567296Y-124768926D01*
X125581064Y-124877359D01*
X125600639Y-124955485D01*
X125627032Y-125016707D01*
X125647016Y-125051652D01*
X125812517Y-125241157D01*
X126022352Y-125359942D01*
X126254514Y-125402564D01*
X126486992Y-125363583D01*
X126625428Y-125293532D01*
X126770758Y-125172353D01*
X126869805Y-125024354D01*
X126929565Y-124830534D01*
X126957031Y-124571892D01*
X126960921Y-124382146D01*
X126960397Y-124368510D01*
X126620459Y-124368510D01*
X126618383Y-124586096D01*
X126608870Y-124730134D01*
X126586992Y-124824364D01*
X126547824Y-124892523D01*
X126501024Y-124943936D01*
X126343854Y-125043175D01*
X126175100Y-125051653D01*
X126015607Y-124968799D01*
X126003193Y-124957572D01*
X125950209Y-124899171D01*
X125916986Y-124829686D01*
X125899000Y-124726270D01*
X125891725Y-124566073D01*
X125890574Y-124388965D01*
X125893068Y-124166467D01*
X125903392Y-124018037D01*
X125925809Y-123920489D01*
X125964582Y-123850637D01*
X125996374Y-123813539D01*
X126144061Y-123719975D01*
X126314154Y-123708725D01*
X126476508Y-123780190D01*
X126507840Y-123806720D01*
X126561178Y-123865636D01*
X126594469Y-123935837D01*
X126612344Y-124040418D01*
X126619434Y-124202479D01*
X126620459Y-124368510D01*
X126960397Y-124368510D01*
X126949160Y-124076579D01*
X126909213Y-123846993D01*
X126834087Y-123674387D01*
X126716786Y-123539760D01*
X126625428Y-123470759D01*
X126459373Y-123396214D01*
X126266908Y-123361613D01*
X126088001Y-123370875D01*
X125987892Y-123408238D01*
X125948607Y-123418872D01*
X125922539Y-123379225D01*
X125904342Y-123272981D01*
X125890574Y-123111145D01*
X125875501Y-122930902D01*
X125854564Y-122822458D01*
X125816468Y-122760446D01*
X125749915Y-122719499D01*
X125708103Y-122701366D01*
X125549961Y-122635120D01*
X125550143Y-123764093D01*
G37*
X125550143Y-123764093D02*
X125550761Y-124127769D01*
X125553153Y-124407532D01*
X125558329Y-124616784D01*
X125567296Y-124768926D01*
X125581064Y-124877359D01*
X125600639Y-124955485D01*
X125627032Y-125016707D01*
X125647016Y-125051652D01*
X125812517Y-125241157D01*
X126022352Y-125359942D01*
X126254514Y-125402564D01*
X126486992Y-125363583D01*
X126625428Y-125293532D01*
X126770758Y-125172353D01*
X126869805Y-125024354D01*
X126929565Y-124830534D01*
X126957031Y-124571892D01*
X126960921Y-124382146D01*
X126960397Y-124368510D01*
X126620459Y-124368510D01*
X126618383Y-124586096D01*
X126608870Y-124730134D01*
X126586992Y-124824364D01*
X126547824Y-124892523D01*
X126501024Y-124943936D01*
X126343854Y-125043175D01*
X126175100Y-125051653D01*
X126015607Y-124968799D01*
X126003193Y-124957572D01*
X125950209Y-124899171D01*
X125916986Y-124829686D01*
X125899000Y-124726270D01*
X125891725Y-124566073D01*
X125890574Y-124388965D01*
X125893068Y-124166467D01*
X125903392Y-124018037D01*
X125925809Y-123920489D01*
X125964582Y-123850637D01*
X125996374Y-123813539D01*
X126144061Y-123719975D01*
X126314154Y-123708725D01*
X126476508Y-123780190D01*
X126507840Y-123806720D01*
X126561178Y-123865636D01*
X126594469Y-123935837D01*
X126612344Y-124040418D01*
X126619434Y-124202479D01*
X126620459Y-124368510D01*
X126960397Y-124368510D01*
X126949160Y-124076579D01*
X126909213Y-123846993D01*
X126834087Y-123674387D01*
X126716786Y-123539760D01*
X126625428Y-123470759D01*
X126459373Y-123396214D01*
X126266908Y-123361613D01*
X126088001Y-123370875D01*
X125987892Y-123408238D01*
X125948607Y-123418872D01*
X125922539Y-123379225D01*
X125904342Y-123272981D01*
X125890574Y-123111145D01*
X125875501Y-122930902D01*
X125854564Y-122822458D01*
X125816468Y-122760446D01*
X125749915Y-122719499D01*
X125708103Y-122701366D01*
X125549961Y-122635120D01*
X125550143Y-123764093D01*
G36*
X127763428Y-123376534D02*
G01*
X127542391Y-123458099D01*
X127363317Y-123602366D01*
X127293280Y-123703920D01*
X127216929Y-123890268D01*
X127218515Y-124025010D01*
X127298653Y-124115631D01*
X127328304Y-124131040D01*
X127456326Y-124179084D01*
X127521706Y-124166776D01*
X127543852Y-124086098D01*
X127544980Y-124041533D01*
X127585523Y-123877581D01*
X127691198Y-123762891D01*
X127838076Y-123707497D01*
X128002227Y-123721435D01*
X128135663Y-123793827D01*
X128180731Y-123835120D01*
X128212677Y-123885216D01*
X128234256Y-123960942D01*
X128248227Y-124079128D01*
X128257345Y-124256600D01*
X128264369Y-124510186D01*
X128266188Y-124590479D01*
X128272822Y-124865158D01*
X128280364Y-125058481D01*
X128291675Y-125186388D01*
X128309615Y-125264822D01*
X128337045Y-125309725D01*
X128376823Y-125337038D01*
X128402290Y-125349105D01*
X128510444Y-125390367D01*
X128574110Y-125403985D01*
X128595146Y-125358505D01*
X128607987Y-125221006D01*
X128612700Y-124989902D01*
X128609356Y-124663604D01*
X128608314Y-124613276D01*
X128600965Y-124315581D01*
X128592274Y-124098205D01*
X128579908Y-123944153D01*
X128561530Y-123836430D01*
X128534805Y-123758042D01*
X128497398Y-123691994D01*
X128477830Y-123663691D01*
X128365634Y-123538467D01*
X128240150Y-123441063D01*
X128224787Y-123432561D01*
X127999777Y-123365433D01*
X127763428Y-123376534D01*
G37*
X127763428Y-123376534D02*
X127542391Y-123458099D01*
X127363317Y-123602366D01*
X127293280Y-123703920D01*
X127216929Y-123890268D01*
X127218515Y-124025010D01*
X127298653Y-124115631D01*
X127328304Y-124131040D01*
X127456326Y-124179084D01*
X127521706Y-124166776D01*
X127543852Y-124086098D01*
X127544980Y-124041533D01*
X127585523Y-123877581D01*
X127691198Y-123762891D01*
X127838076Y-123707497D01*
X128002227Y-123721435D01*
X128135663Y-123793827D01*
X128180731Y-123835120D01*
X128212677Y-123885216D01*
X128234256Y-123960942D01*
X128248227Y-124079128D01*
X128257345Y-124256600D01*
X128264369Y-124510186D01*
X128266188Y-124590479D01*
X128272822Y-124865158D01*
X128280364Y-125058481D01*
X128291675Y-125186388D01*
X128309615Y-125264822D01*
X128337045Y-125309725D01*
X128376823Y-125337038D01*
X128402290Y-125349105D01*
X128510444Y-125390367D01*
X128574110Y-125403985D01*
X128595146Y-125358505D01*
X128607987Y-125221006D01*
X128612700Y-124989902D01*
X128609356Y-124663604D01*
X128608314Y-124613276D01*
X128600965Y-124315581D01*
X128592274Y-124098205D01*
X128579908Y-123944153D01*
X128561530Y-123836430D01*
X128534805Y-123758042D01*
X128497398Y-123691994D01*
X128477830Y-123663691D01*
X128365634Y-123538467D01*
X128240150Y-123441063D01*
X128224787Y-123432561D01*
X127999777Y-123365433D01*
X127763428Y-123376534D01*
G36*
X129406759Y-123380601D02*
G01*
X129216095Y-123451403D01*
X129213914Y-123452764D01*
X129095994Y-123539550D01*
X129008940Y-123640973D01*
X128947714Y-123773145D01*
X128907277Y-123952182D01*
X128882591Y-124194195D01*
X128868618Y-124515299D01*
X128867393Y-124561048D01*
X128849800Y-125250869D01*
X128997848Y-125327427D01*
X129104970Y-125379163D01*
X129169649Y-125403678D01*
X129172641Y-125403985D01*
X129183834Y-125358751D01*
X129192725Y-125236736D01*
X129198194Y-125058468D01*
X129199387Y-124914116D01*
X129199414Y-124680271D01*
X129210104Y-124533419D01*
X129247367Y-124463376D01*
X129327112Y-124459958D01*
X129465251Y-124512983D01*
X129673812Y-124610454D01*
X129827171Y-124691409D01*
X129906048Y-124761644D01*
X129929236Y-124838194D01*
X129929272Y-124841982D01*
X129891007Y-124973852D01*
X129777717Y-125045091D01*
X129604336Y-125055410D01*
X129479450Y-125053620D01*
X129413601Y-125089589D01*
X129372536Y-125175985D01*
X129348901Y-125286054D01*
X129382961Y-125348508D01*
X129395786Y-125357446D01*
X129516528Y-125393343D01*
X129685612Y-125398426D01*
X129859739Y-125374631D01*
X129983124Y-125331147D01*
X130153713Y-125186309D01*
X130250681Y-124984694D01*
X130269885Y-124827180D01*
X130255230Y-124685104D01*
X130202199Y-124569127D01*
X130097194Y-124466121D01*
X129926614Y-124362954D01*
X129676862Y-124246496D01*
X129661647Y-124239914D01*
X129436671Y-124135981D01*
X129297843Y-124050743D01*
X129238338Y-123974147D01*
X129251328Y-123896139D01*
X129329988Y-123806664D01*
X129353510Y-123786073D01*
X129511067Y-123706236D01*
X129674323Y-123709597D01*
X129816505Y-123787874D01*
X129910840Y-123932781D01*
X129919605Y-123961224D01*
X130004962Y-124099174D01*
X130113271Y-124165620D01*
X130269885Y-124231471D01*
X130269885Y-124061097D01*
X130222244Y-123813454D01*
X130080841Y-123586307D01*
X130007258Y-123510318D01*
X129839991Y-123412790D01*
X129627274Y-123368640D01*
X129406759Y-123380601D01*
G37*
X129406759Y-123380601D02*
X129216095Y-123451403D01*
X129213914Y-123452764D01*
X129095994Y-123539550D01*
X129008940Y-123640973D01*
X128947714Y-123773145D01*
X128907277Y-123952182D01*
X128882591Y-124194195D01*
X128868618Y-124515299D01*
X128867393Y-124561048D01*
X128849800Y-125250869D01*
X128997848Y-125327427D01*
X129104970Y-125379163D01*
X129169649Y-125403678D01*
X129172641Y-125403985D01*
X129183834Y-125358751D01*
X129192725Y-125236736D01*
X129198194Y-125058468D01*
X129199387Y-124914116D01*
X129199414Y-124680271D01*
X129210104Y-124533419D01*
X129247367Y-124463376D01*
X129327112Y-124459958D01*
X129465251Y-124512983D01*
X129673812Y-124610454D01*
X129827171Y-124691409D01*
X129906048Y-124761644D01*
X129929236Y-124838194D01*
X129929272Y-124841982D01*
X129891007Y-124973852D01*
X129777717Y-125045091D01*
X129604336Y-125055410D01*
X129479450Y-125053620D01*
X129413601Y-125089589D01*
X129372536Y-125175985D01*
X129348901Y-125286054D01*
X129382961Y-125348508D01*
X129395786Y-125357446D01*
X129516528Y-125393343D01*
X129685612Y-125398426D01*
X129859739Y-125374631D01*
X129983124Y-125331147D01*
X130153713Y-125186309D01*
X130250681Y-124984694D01*
X130269885Y-124827180D01*
X130255230Y-124685104D01*
X130202199Y-124569127D01*
X130097194Y-124466121D01*
X129926614Y-124362954D01*
X129676862Y-124246496D01*
X129661647Y-124239914D01*
X129436671Y-124135981D01*
X129297843Y-124050743D01*
X129238338Y-123974147D01*
X129251328Y-123896139D01*
X129329988Y-123806664D01*
X129353510Y-123786073D01*
X129511067Y-123706236D01*
X129674323Y-123709597D01*
X129816505Y-123787874D01*
X129910840Y-123932781D01*
X129919605Y-123961224D01*
X130004962Y-124099174D01*
X130113271Y-124165620D01*
X130269885Y-124231471D01*
X130269885Y-124061097D01*
X130222244Y-123813454D01*
X130080841Y-123586307D01*
X130007258Y-123510318D01*
X129839991Y-123412790D01*
X129627274Y-123368640D01*
X129406759Y-123380601D01*
G36*
X131632337Y-123046429D02*
G01*
X131618077Y-123245313D01*
X131601698Y-123362511D01*
X131579002Y-123413632D01*
X131545788Y-123414286D01*
X131535019Y-123408183D01*
X131391767Y-123363997D01*
X131205425Y-123366577D01*
X131015976Y-123411999D01*
X130897483Y-123470759D01*
X130775991Y-123564631D01*
X130687177Y-123670865D01*
X130626208Y-123805850D01*
X130588250Y-123985976D01*
X130568468Y-124227633D01*
X130562030Y-124547211D01*
X130561914Y-124608516D01*
X130561839Y-125297147D01*
X130715077Y-125350566D01*
X130823913Y-125386908D01*
X130883626Y-125403828D01*
X130885383Y-125403985D01*
X130891264Y-125358100D01*
X130896268Y-125231539D01*
X130900016Y-125040941D01*
X130902127Y-124802948D01*
X130902452Y-124658252D01*
X130903129Y-124372955D01*
X130906614Y-124168480D01*
X130915088Y-124028334D01*
X130930734Y-123936023D01*
X130955731Y-123875053D01*
X130992262Y-123828931D01*
X131015071Y-123806720D01*
X131171751Y-123717214D01*
X131342726Y-123710511D01*
X131497850Y-123786208D01*
X131526537Y-123813539D01*
X131568613Y-123864929D01*
X131597799Y-123925886D01*
X131616429Y-124014025D01*
X131626839Y-124146961D01*
X131631363Y-124342309D01*
X131632337Y-124611652D01*
X131632337Y-125297147D01*
X131785575Y-125350566D01*
X131894411Y-125386908D01*
X131954124Y-125403828D01*
X131955881Y-125403985D01*
X131960375Y-125357414D01*
X131964425Y-125226051D01*
X131967870Y-125022422D01*
X131970547Y-124759054D01*
X131972294Y-124448471D01*
X131972949Y-124103201D01*
X131972950Y-124087843D01*
X131972950Y-122771701D01*
X131656666Y-122638289D01*
X131632337Y-123046429D01*
G37*
X131632337Y-123046429D02*
X131618077Y-123245313D01*
X131601698Y-123362511D01*
X131579002Y-123413632D01*
X131545788Y-123414286D01*
X131535019Y-123408183D01*
X131391767Y-123363997D01*
X131205425Y-123366577D01*
X131015976Y-123411999D01*
X130897483Y-123470759D01*
X130775991Y-123564631D01*
X130687177Y-123670865D01*
X130626208Y-123805850D01*
X130588250Y-123985976D01*
X130568468Y-124227633D01*
X130562030Y-124547211D01*
X130561914Y-124608516D01*
X130561839Y-125297147D01*
X130715077Y-125350566D01*
X130823913Y-125386908D01*
X130883626Y-125403828D01*
X130885383Y-125403985D01*
X130891264Y-125358100D01*
X130896268Y-125231539D01*
X130900016Y-125040941D01*
X130902127Y-124802948D01*
X130902452Y-124658252D01*
X130903129Y-124372955D01*
X130906614Y-124168480D01*
X130915088Y-124028334D01*
X130930734Y-123936023D01*
X130955731Y-123875053D01*
X130992262Y-123828931D01*
X131015071Y-123806720D01*
X131171751Y-123717214D01*
X131342726Y-123710511D01*
X131497850Y-123786208D01*
X131526537Y-123813539D01*
X131568613Y-123864929D01*
X131597799Y-123925886D01*
X131616429Y-124014025D01*
X131626839Y-124146961D01*
X131631363Y-124342309D01*
X131632337Y-124611652D01*
X131632337Y-125297147D01*
X131785575Y-125350566D01*
X131894411Y-125386908D01*
X131954124Y-125403828D01*
X131955881Y-125403985D01*
X131960375Y-125357414D01*
X131964425Y-125226051D01*
X131967870Y-125022422D01*
X131970547Y-124759054D01*
X131972294Y-124448471D01*
X131972949Y-124103201D01*
X131972950Y-124087843D01*
X131972950Y-122771701D01*
X131656666Y-122638289D01*
X131632337Y-123046429D01*
G36*
X135680747Y-123314461D02*
G01*
X135488903Y-123443519D01*
X135340648Y-123629915D01*
X135252084Y-123867109D01*
X135234172Y-124041691D01*
X135236206Y-124114544D01*
X135253240Y-124170324D01*
X135300064Y-124220298D01*
X135391473Y-124275733D01*
X135542258Y-124347896D01*
X135767213Y-124448055D01*
X135768352Y-124448558D01*
X135975415Y-124543396D01*
X136145212Y-124627609D01*
X136260388Y-124692133D01*
X136303590Y-124727900D01*
X136303601Y-124728188D01*
X136265525Y-124806074D01*
X136176484Y-124891924D01*
X136074263Y-124953769D01*
X136022474Y-124966054D01*
X135881184Y-124923564D01*
X135759512Y-124817152D01*
X135700145Y-124700156D01*
X135643033Y-124613905D01*
X135531161Y-124515681D01*
X135399654Y-124430827D01*
X135283632Y-124384681D01*
X135259371Y-124382146D01*
X135232062Y-124423868D01*
X135230416Y-124530519D01*
X135250486Y-124674321D01*
X135288322Y-124827501D01*
X135339977Y-124962283D01*
X135342586Y-124967516D01*
X135498031Y-125184557D01*
X135699493Y-125332185D01*
X135928288Y-125404644D01*
X136165733Y-125396177D01*
X136393146Y-125301027D01*
X136403257Y-125294337D01*
X136582150Y-125132211D01*
X136699780Y-124920682D01*
X136764877Y-124642543D01*
X136773613Y-124564398D01*
X136789086Y-124195549D01*
X136770537Y-124023541D01*
X136303601Y-124023541D01*
X136297534Y-124130838D01*
X136264351Y-124162152D01*
X136181623Y-124138725D01*
X136051221Y-124083348D01*
X135905457Y-124013932D01*
X135901834Y-124012094D01*
X135778283Y-123947108D01*
X135728697Y-123903740D01*
X135740925Y-123858275D01*
X135792412Y-123798536D01*
X135923399Y-123712085D01*
X136064462Y-123705733D01*
X136190995Y-123768649D01*
X136278392Y-123890003D01*
X136303601Y-124023541D01*
X136770537Y-124023541D01*
X136757260Y-123900435D01*
X136675609Y-123666382D01*
X136561939Y-123502413D01*
X136356775Y-123336716D01*
X136130786Y-123254519D01*
X135900075Y-123249281D01*
X135680747Y-123314461D01*
G37*
X135680747Y-123314461D02*
X135488903Y-123443519D01*
X135340648Y-123629915D01*
X135252084Y-123867109D01*
X135234172Y-124041691D01*
X135236206Y-124114544D01*
X135253240Y-124170324D01*
X135300064Y-124220298D01*
X135391473Y-124275733D01*
X135542258Y-124347896D01*
X135767213Y-124448055D01*
X135768352Y-124448558D01*
X135975415Y-124543396D01*
X136145212Y-124627609D01*
X136260388Y-124692133D01*
X136303590Y-124727900D01*
X136303601Y-124728188D01*
X136265525Y-124806074D01*
X136176484Y-124891924D01*
X136074263Y-124953769D01*
X136022474Y-124966054D01*
X135881184Y-124923564D01*
X135759512Y-124817152D01*
X135700145Y-124700156D01*
X135643033Y-124613905D01*
X135531161Y-124515681D01*
X135399654Y-124430827D01*
X135283632Y-124384681D01*
X135259371Y-124382146D01*
X135232062Y-124423868D01*
X135230416Y-124530519D01*
X135250486Y-124674321D01*
X135288322Y-124827501D01*
X135339977Y-124962283D01*
X135342586Y-124967516D01*
X135498031Y-125184557D01*
X135699493Y-125332185D01*
X135928288Y-125404644D01*
X136165733Y-125396177D01*
X136393146Y-125301027D01*
X136403257Y-125294337D01*
X136582150Y-125132211D01*
X136699780Y-124920682D01*
X136764877Y-124642543D01*
X136773613Y-124564398D01*
X136789086Y-124195549D01*
X136770537Y-124023541D01*
X136303601Y-124023541D01*
X136297534Y-124130838D01*
X136264351Y-124162152D01*
X136181623Y-124138725D01*
X136051221Y-124083348D01*
X135905457Y-124013932D01*
X135901834Y-124012094D01*
X135778283Y-123947108D01*
X135728697Y-123903740D01*
X135740925Y-123858275D01*
X135792412Y-123798536D01*
X135923399Y-123712085D01*
X136064462Y-123705733D01*
X136190995Y-123768649D01*
X136278392Y-123890003D01*
X136303601Y-124023541D01*
X136770537Y-124023541D01*
X136757260Y-123900435D01*
X136675609Y-123666382D01*
X136561939Y-123502413D01*
X136356775Y-123336716D01*
X136130786Y-123254519D01*
X135900075Y-123249281D01*
X135680747Y-123314461D01*
G36*
X139459632Y-123283358D02*
G01*
X139231564Y-123403280D01*
X139063248Y-123596278D01*
X139003459Y-123720355D01*
X138956934Y-123906653D01*
X138933118Y-124142045D01*
X138930860Y-124398952D01*
X138949008Y-124649799D01*
X138986411Y-124867009D01*
X139041916Y-125023005D01*
X139058975Y-125049871D01*
X139261030Y-125250415D01*
X139501022Y-125370529D01*
X139761434Y-125405680D01*
X140024753Y-125351337D01*
X140098033Y-125318756D01*
X140240739Y-125218353D01*
X140365986Y-125085225D01*
X140377823Y-125068341D01*
X140425935Y-124986969D01*
X140457738Y-124899984D01*
X140476526Y-124785475D01*
X140485592Y-124621530D01*
X140488229Y-124386240D01*
X140488275Y-124333487D01*
X140488154Y-124316699D01*
X140001685Y-124316699D01*
X139998854Y-124538761D01*
X139987712Y-124686123D01*
X139964291Y-124781308D01*
X139924619Y-124846837D01*
X139904367Y-124868736D01*
X139787940Y-124951953D01*
X139674902Y-124948158D01*
X139560609Y-124875973D01*
X139492441Y-124798911D01*
X139452070Y-124686429D01*
X139429398Y-124509055D01*
X139427843Y-124488367D01*
X139423973Y-124166911D01*
X139464417Y-123928167D01*
X139548626Y-123773600D01*
X139676053Y-123704678D01*
X139721540Y-123700920D01*
X139840981Y-123719821D01*
X139922683Y-123785306D01*
X139972637Y-123910544D01*
X139996834Y-124108704D01*
X140001685Y-124316699D01*
X140488154Y-124316699D01*
X140486463Y-124082765D01*
X140478853Y-123907582D01*
X140462186Y-123786191D01*
X140433201Y-123696847D01*
X140388640Y-123617803D01*
X140378793Y-123603107D01*
X140213280Y-123405011D01*
X140032930Y-123290014D01*
X139813365Y-123244365D01*
X139738805Y-123242135D01*
X139459632Y-123283358D01*
G37*
X139459632Y-123283358D02*
X139231564Y-123403280D01*
X139063248Y-123596278D01*
X139003459Y-123720355D01*
X138956934Y-123906653D01*
X138933118Y-124142045D01*
X138930860Y-124398952D01*
X138949008Y-124649799D01*
X138986411Y-124867009D01*
X139041916Y-125023005D01*
X139058975Y-125049871D01*
X139261030Y-125250415D01*
X139501022Y-125370529D01*
X139761434Y-125405680D01*
X140024753Y-125351337D01*
X140098033Y-125318756D01*
X140240739Y-125218353D01*
X140365986Y-125085225D01*
X140377823Y-125068341D01*
X140425935Y-124986969D01*
X140457738Y-124899984D01*
X140476526Y-124785475D01*
X140485592Y-124621530D01*
X140488229Y-124386240D01*
X140488275Y-124333487D01*
X140488154Y-124316699D01*
X140001685Y-124316699D01*
X139998854Y-124538761D01*
X139987712Y-124686123D01*
X139964291Y-124781308D01*
X139924619Y-124846837D01*
X139904367Y-124868736D01*
X139787940Y-124951953D01*
X139674902Y-124948158D01*
X139560609Y-124875973D01*
X139492441Y-124798911D01*
X139452070Y-124686429D01*
X139429398Y-124509055D01*
X139427843Y-124488367D01*
X139423973Y-124166911D01*
X139464417Y-123928167D01*
X139548626Y-123773600D01*
X139676053Y-123704678D01*
X139721540Y-123700920D01*
X139840981Y-123719821D01*
X139922683Y-123785306D01*
X139972637Y-123910544D01*
X139996834Y-124108704D01*
X140001685Y-124316699D01*
X140488154Y-124316699D01*
X140486463Y-124082765D01*
X140478853Y-123907582D01*
X140462186Y-123786191D01*
X140433201Y-123696847D01*
X140388640Y-123617803D01*
X140378793Y-123603107D01*
X140213280Y-123405011D01*
X140032930Y-123290014D01*
X139813365Y-123244365D01*
X139738805Y-123242135D01*
X139459632Y-123283358D01*
G36*
X133844284Y-123302865D02*
G01*
X133688128Y-123393190D01*
X133579559Y-123482845D01*
X133500155Y-123576776D01*
X133445454Y-123691646D01*
X133410990Y-123844114D01*
X133392299Y-124050844D01*
X133384919Y-124328496D01*
X133384061Y-124528086D01*
X133384061Y-125262766D01*
X133590862Y-125355472D01*
X133797662Y-125448179D01*
X133821992Y-124643492D01*
X133832045Y-124342966D01*
X133842591Y-124124835D01*
X133855657Y-123974186D01*
X133873271Y-123876107D01*
X133897461Y-123815688D01*
X133930254Y-123778016D01*
X133940775Y-123769862D01*
X134100187Y-123706178D01*
X134261321Y-123731378D01*
X134357241Y-123798238D01*
X134396259Y-123845616D01*
X134423267Y-123907787D01*
X134440432Y-124002039D01*
X134449918Y-124145657D01*
X134453893Y-124355931D01*
X134454559Y-124575070D01*
X134454690Y-124849999D01*
X134459397Y-125044602D01*
X134475154Y-125175851D01*
X134508433Y-125260718D01*
X134565707Y-125316177D01*
X134653447Y-125359201D01*
X134770638Y-125403907D01*
X134898632Y-125452571D01*
X134883396Y-124588910D01*
X134877261Y-124277565D01*
X134870082Y-124047483D01*
X134859795Y-123882614D01*
X134844330Y-123766909D01*
X134821621Y-123684316D01*
X134789601Y-123618788D01*
X134750997Y-123560974D01*
X134564747Y-123376283D01*
X134337479Y-123269481D01*
X134090291Y-123243898D01*
X133844284Y-123302865D01*
G37*
X133844284Y-123302865D02*
X133688128Y-123393190D01*
X133579559Y-123482845D01*
X133500155Y-123576776D01*
X133445454Y-123691646D01*
X133410990Y-123844114D01*
X133392299Y-124050844D01*
X133384919Y-124328496D01*
X133384061Y-124528086D01*
X133384061Y-125262766D01*
X133590862Y-125355472D01*
X133797662Y-125448179D01*
X133821992Y-124643492D01*
X133832045Y-124342966D01*
X133842591Y-124124835D01*
X133855657Y-123974186D01*
X133873271Y-123876107D01*
X133897461Y-123815688D01*
X133930254Y-123778016D01*
X133940775Y-123769862D01*
X134100187Y-123706178D01*
X134261321Y-123731378D01*
X134357241Y-123798238D01*
X134396259Y-123845616D01*
X134423267Y-123907787D01*
X134440432Y-124002039D01*
X134449918Y-124145657D01*
X134453893Y-124355931D01*
X134454559Y-124575070D01*
X134454690Y-124849999D01*
X134459397Y-125044602D01*
X134475154Y-125175851D01*
X134508433Y-125260718D01*
X134565707Y-125316177D01*
X134653447Y-125359201D01*
X134770638Y-125403907D01*
X134898632Y-125452571D01*
X134883396Y-124588910D01*
X134877261Y-124277565D01*
X134870082Y-124047483D01*
X134859795Y-123882614D01*
X134844330Y-123766909D01*
X134821621Y-123684316D01*
X134789601Y-123618788D01*
X134750997Y-123560974D01*
X134564747Y-123376283D01*
X134337479Y-123269481D01*
X134090291Y-123243898D01*
X133844284Y-123302865D01*
G36*
X137586834Y-123276506D02*
G01*
X137400916Y-123369204D01*
X137236820Y-123539885D01*
X137191628Y-123603107D01*
X137142396Y-123685834D01*
X137110453Y-123775687D01*
X137092178Y-123895608D01*
X137083952Y-124068537D01*
X137082145Y-124296835D01*
X137090303Y-124609693D01*
X137118659Y-124844598D01*
X137173038Y-125019847D01*
X137259263Y-125153738D01*
X137383159Y-125264569D01*
X137392263Y-125271131D01*
X137514366Y-125338256D01*
X137661400Y-125371467D01*
X137848396Y-125379655D01*
X138152387Y-125379655D01*
X138152515Y-125674762D01*
X138155344Y-125839117D01*
X138172582Y-125935523D01*
X138217630Y-125993343D01*
X138303886Y-126041941D01*
X138324601Y-126051869D01*
X138421538Y-126098398D01*
X138496593Y-126127786D01*
X138552402Y-126130324D01*
X138591603Y-126096302D01*
X138616832Y-126016012D01*
X138630728Y-125879743D01*
X138635927Y-125677787D01*
X138635066Y-125400434D01*
X138630784Y-125037976D01*
X138629447Y-124929560D01*
X138624629Y-124555837D01*
X138620313Y-124311369D01*
X138152643Y-124311369D01*
X138150015Y-124518877D01*
X138138333Y-124654645D01*
X138111903Y-124744192D01*
X138065031Y-124813039D01*
X138033207Y-124846618D01*
X137903108Y-124944869D01*
X137787921Y-124952866D01*
X137669066Y-124871730D01*
X137666053Y-124868736D01*
X137617695Y-124806030D01*
X137588278Y-124720808D01*
X137573440Y-124589564D01*
X137568819Y-124388793D01*
X137568735Y-124344314D01*
X137579902Y-124067639D01*
X137616253Y-123875842D01*
X137682059Y-123758757D01*
X137781593Y-123706215D01*
X137839119Y-123700920D01*
X137975649Y-123725767D01*
X138069298Y-123807581D01*
X138125670Y-123957270D01*
X138150367Y-124185743D01*
X138152643Y-124311369D01*
X138620313Y-124311369D01*
X138619522Y-124266587D01*
X138612922Y-124048970D01*
X138603623Y-123890146D01*
X138590423Y-123777274D01*
X138572115Y-123697513D01*
X138547497Y-123638023D01*
X138515363Y-123585963D01*
X138501585Y-123566373D01*
X138318812Y-123381328D01*
X138087724Y-123276412D01*
X137820410Y-123247163D01*
X137586834Y-123276506D01*
G37*
X137586834Y-123276506D02*
X137400916Y-123369204D01*
X137236820Y-123539885D01*
X137191628Y-123603107D01*
X137142396Y-123685834D01*
X137110453Y-123775687D01*
X137092178Y-123895608D01*
X137083952Y-124068537D01*
X137082145Y-124296835D01*
X137090303Y-124609693D01*
X137118659Y-124844598D01*
X137173038Y-125019847D01*
X137259263Y-125153738D01*
X137383159Y-125264569D01*
X137392263Y-125271131D01*
X137514366Y-125338256D01*
X137661400Y-125371467D01*
X137848396Y-125379655D01*
X138152387Y-125379655D01*
X138152515Y-125674762D01*
X138155344Y-125839117D01*
X138172582Y-125935523D01*
X138217630Y-125993343D01*
X138303886Y-126041941D01*
X138324601Y-126051869D01*
X138421538Y-126098398D01*
X138496593Y-126127786D01*
X138552402Y-126130324D01*
X138591603Y-126096302D01*
X138616832Y-126016012D01*
X138630728Y-125879743D01*
X138635927Y-125677787D01*
X138635066Y-125400434D01*
X138630784Y-125037976D01*
X138629447Y-124929560D01*
X138624629Y-124555837D01*
X138620313Y-124311369D01*
X138152643Y-124311369D01*
X138150015Y-124518877D01*
X138138333Y-124654645D01*
X138111903Y-124744192D01*
X138065031Y-124813039D01*
X138033207Y-124846618D01*
X137903108Y-124944869D01*
X137787921Y-124952866D01*
X137669066Y-124871730D01*
X137666053Y-124868736D01*
X137617695Y-124806030D01*
X137588278Y-124720808D01*
X137573440Y-124589564D01*
X137568819Y-124388793D01*
X137568735Y-124344314D01*
X137579902Y-124067639D01*
X137616253Y-123875842D01*
X137682059Y-123758757D01*
X137781593Y-123706215D01*
X137839119Y-123700920D01*
X137975649Y-123725767D01*
X138069298Y-123807581D01*
X138125670Y-123957270D01*
X138150367Y-124185743D01*
X138152643Y-124311369D01*
X138620313Y-124311369D01*
X138619522Y-124266587D01*
X138612922Y-124048970D01*
X138603623Y-123890146D01*
X138590423Y-123777274D01*
X138572115Y-123697513D01*
X138547497Y-123638023D01*
X138515363Y-123585963D01*
X138501585Y-123566373D01*
X138318812Y-123381328D01*
X138087724Y-123276412D01*
X137820410Y-123247163D01*
X137586834Y-123276506D01*
M02*
