G04 #@! TF.GenerationSoftware,KiCad,Pcbnew,6.0.6+dfsg-1*
G04 #@! TF.CreationDate,2022-07-08T16:57:29-05:00*
G04 #@! TF.ProjectId,thermoelectric-tube,74686572-6d6f-4656-9c65-63747269632d,C*
G04 #@! TF.SameCoordinates,Original*
G04 #@! TF.FileFunction,Other,User*
%FSLAX46Y46*%
G04 Gerber Fmt 4.6, Leading zero omitted, Abs format (unit mm)*
G04 Created by KiCad (PCBNEW 6.0.6+dfsg-1) date 2022-07-08 16:57:29*
%MOMM*%
%LPD*%
G01*
G04 APERTURE LIST*
%ADD10C,0.050000*%
G04 APERTURE END LIST*
D10*
X169170000Y-98870000D02*
X176270000Y-98870000D01*
X176270000Y-103610000D02*
X176270000Y-98870000D01*
X176270000Y-103610000D02*
X169170000Y-103610000D01*
X169170000Y-98870000D02*
X169170000Y-103610000D01*
X63110000Y-60960000D02*
G75*
G03*
X63110000Y-60960000I-3400000J0D01*
G01*
X46310000Y-94690000D02*
X52760000Y-94690000D01*
X52760000Y-88190000D02*
X46310000Y-88190000D01*
X52760000Y-94690000D02*
X52760000Y-88190000D01*
X46310000Y-88190000D02*
X46310000Y-94690000D01*
X155650000Y-128950000D02*
X155650000Y-122500000D01*
X155650000Y-122500000D02*
X149150000Y-122500000D01*
X149150000Y-128950000D02*
X155650000Y-128950000D01*
X149150000Y-122500000D02*
X149150000Y-128950000D01*
X159310000Y-122500000D02*
X159310000Y-128950000D01*
X165810000Y-122500000D02*
X159310000Y-122500000D01*
X165810000Y-128950000D02*
X165810000Y-122500000D01*
X159310000Y-128950000D02*
X165810000Y-128950000D01*
X68040000Y-55340000D02*
X64040000Y-55340000D01*
X61290000Y-54340000D02*
X61290000Y-52340000D01*
X70540000Y-54340000D02*
X70790000Y-54340000D01*
X64040000Y-54340000D02*
X61290000Y-54340000D01*
X70790000Y-54340000D02*
X70790000Y-39340000D01*
X61290000Y-52340000D02*
X59290000Y-52340000D01*
X68040000Y-54340000D02*
X68040000Y-55340000D01*
X61290000Y-39340000D02*
X70790000Y-39340000D01*
X61290000Y-48340000D02*
X61290000Y-39340000D01*
X59290000Y-48340000D02*
X61290000Y-48340000D01*
X70540000Y-54340000D02*
X68040000Y-54340000D01*
X64040000Y-55340000D02*
X64040000Y-54340000D01*
X59290000Y-52340000D02*
X59290000Y-48340000D01*
X164930000Y-72630000D02*
X175430000Y-72630000D01*
X164930000Y-67720000D02*
X164930000Y-72630000D01*
X175430000Y-67720000D02*
X164930000Y-67720000D01*
X175430000Y-72630000D02*
X175430000Y-67720000D01*
X160190000Y-85330000D02*
X160190000Y-80420000D01*
X149690000Y-80420000D02*
X149690000Y-85330000D01*
X149690000Y-85330000D02*
X160190000Y-85330000D01*
X160190000Y-80420000D02*
X149690000Y-80420000D01*
X175430000Y-80420000D02*
X164930000Y-80420000D01*
X175430000Y-85330000D02*
X175430000Y-80420000D01*
X164930000Y-85330000D02*
X175430000Y-85330000D01*
X164930000Y-80420000D02*
X164930000Y-85330000D01*
X54250000Y-50800000D02*
G75*
G03*
X54250000Y-50800000I-3450000J0D01*
G01*
X181250000Y-127000000D02*
G75*
G03*
X181250000Y-127000000I-3450000J0D01*
G01*
X181250000Y-50800000D02*
G75*
G03*
X181250000Y-50800000I-3450000J0D01*
G01*
X75120000Y-67290000D02*
G75*
G03*
X75120000Y-67290000I-4000000J0D01*
G01*
X153890000Y-103100000D02*
X163610000Y-103100000D01*
X153890000Y-100100000D02*
X153890000Y-103100000D01*
X163610000Y-100100000D02*
X153890000Y-100100000D01*
X163610000Y-103100000D02*
X163610000Y-100100000D01*
X166590000Y-113260000D02*
X176310000Y-113260000D01*
X176310000Y-113260000D02*
X176310000Y-110260000D01*
X176310000Y-110260000D02*
X166590000Y-110260000D01*
X166590000Y-110260000D02*
X166590000Y-113260000D01*
X164060000Y-110710000D02*
X161060000Y-110710000D01*
X161060000Y-120430000D02*
X164060000Y-120430000D01*
X164060000Y-120430000D02*
X164060000Y-110710000D01*
X161060000Y-110710000D02*
X161060000Y-120430000D01*
X178850000Y-92480000D02*
X169130000Y-92480000D01*
X169130000Y-92480000D02*
X169130000Y-95480000D01*
X178850000Y-95480000D02*
X178850000Y-92480000D01*
X169130000Y-95480000D02*
X178850000Y-95480000D01*
X150900000Y-120430000D02*
X153900000Y-120430000D01*
X153900000Y-110710000D02*
X150900000Y-110710000D01*
X150900000Y-110710000D02*
X150900000Y-120430000D01*
X153900000Y-120430000D02*
X153900000Y-110710000D01*
X159010000Y-91970000D02*
X166110000Y-91970000D01*
X159010000Y-91970000D02*
X159010000Y-96710000D01*
X166110000Y-96710000D02*
X166110000Y-91970000D01*
X166110000Y-96710000D02*
X159010000Y-96710000D01*
X155990000Y-92480000D02*
X146270000Y-92480000D01*
X155990000Y-95480000D02*
X155990000Y-92480000D01*
X146270000Y-92480000D02*
X146270000Y-95480000D01*
X146270000Y-95480000D02*
X155990000Y-95480000D01*
X160190000Y-72630000D02*
X160190000Y-67720000D01*
X160190000Y-67720000D02*
X149690000Y-67720000D01*
X149690000Y-67720000D02*
X149690000Y-72630000D01*
X149690000Y-72630000D02*
X160190000Y-72630000D01*
X138070000Y-88900000D02*
G75*
G03*
X138070000Y-88900000I-3450000J0D01*
G01*
X165760000Y-47050000D02*
X159360000Y-47050000D01*
X159360000Y-59050000D02*
X165760000Y-59050000D01*
X165760000Y-59050000D02*
X165760000Y-47050000D01*
X159360000Y-47050000D02*
X159360000Y-59050000D01*
X101060000Y-48260000D02*
G75*
G03*
X101060000Y-48260000I-2000000J0D01*
G01*
X100890000Y-122500000D02*
X100890000Y-128950000D01*
X107390000Y-122500000D02*
X100890000Y-122500000D01*
X107390000Y-128950000D02*
X107390000Y-122500000D01*
X100890000Y-128950000D02*
X107390000Y-128950000D01*
X121210000Y-128950000D02*
X127710000Y-128950000D01*
X127710000Y-128950000D02*
X127710000Y-122500000D01*
X127710000Y-122500000D02*
X121210000Y-122500000D01*
X121210000Y-122500000D02*
X121210000Y-128950000D01*
X74520000Y-82530000D02*
G75*
G03*
X74520000Y-82530000I-3400000J0D01*
G01*
X97430000Y-88900000D02*
G75*
G03*
X97430000Y-88900000I-3450000J0D01*
G01*
X136120000Y-111980000D02*
X133120000Y-111980000D01*
X133120000Y-121700000D02*
X136120000Y-121700000D01*
X136120000Y-121700000D02*
X136120000Y-111980000D01*
X133120000Y-111980000D02*
X133120000Y-121700000D01*
X102640000Y-121700000D02*
X105640000Y-121700000D01*
X105640000Y-111980000D02*
X102640000Y-111980000D01*
X105640000Y-121700000D02*
X105640000Y-111980000D01*
X102640000Y-111980000D02*
X102640000Y-121700000D01*
X84090000Y-106500000D02*
X84090000Y-96700000D01*
X84090000Y-96700000D02*
X47990000Y-96700000D01*
X47990000Y-96700000D02*
X47990000Y-106500000D01*
X47990000Y-106500000D02*
X84090000Y-106500000D01*
X75980000Y-110260000D02*
X66260000Y-110260000D01*
X66260000Y-113260000D02*
X75980000Y-113260000D01*
X75980000Y-113260000D02*
X75980000Y-110260000D01*
X66260000Y-110260000D02*
X66260000Y-113260000D01*
X97230000Y-128950000D02*
X97230000Y-122500000D01*
X90730000Y-122500000D02*
X90730000Y-128950000D01*
X97230000Y-122500000D02*
X90730000Y-122500000D01*
X90730000Y-128950000D02*
X97230000Y-128950000D01*
X108680000Y-48260000D02*
G75*
G03*
X108680000Y-48260000I-2000000J0D01*
G01*
X139160000Y-48260000D02*
G75*
G03*
X139160000Y-48260000I-2000000J0D01*
G01*
X125960000Y-121700000D02*
X125960000Y-111980000D01*
X122960000Y-111980000D02*
X122960000Y-121700000D01*
X125960000Y-111980000D02*
X122960000Y-111980000D01*
X122960000Y-121700000D02*
X125960000Y-121700000D01*
X54250000Y-127000000D02*
G75*
G03*
X54250000Y-127000000I-3450000J0D01*
G01*
X68190000Y-127000000D02*
G75*
G03*
X68190000Y-127000000I-3400000J0D01*
G01*
X65820000Y-89940000D02*
X56100000Y-89940000D01*
X65820000Y-92940000D02*
X65820000Y-89940000D01*
X56100000Y-92940000D02*
X65820000Y-92940000D01*
X56100000Y-89940000D02*
X56100000Y-92940000D01*
X115800000Y-111980000D02*
X112800000Y-111980000D01*
X112800000Y-111980000D02*
X112800000Y-121700000D01*
X115800000Y-121700000D02*
X115800000Y-111980000D01*
X112800000Y-121700000D02*
X115800000Y-121700000D01*
X146780000Y-48260000D02*
G75*
G03*
X146780000Y-48260000I-2000000J0D01*
G01*
X117550000Y-122500000D02*
X111050000Y-122500000D01*
X117550000Y-128950000D02*
X117550000Y-122500000D01*
X111050000Y-128950000D02*
X117550000Y-128950000D01*
X111050000Y-122500000D02*
X111050000Y-128950000D01*
X137870000Y-122500000D02*
X131370000Y-122500000D01*
X131370000Y-122500000D02*
X131370000Y-128950000D01*
X131370000Y-128950000D02*
X137870000Y-128950000D01*
X137870000Y-128950000D02*
X137870000Y-122500000D01*
X62880000Y-83700000D02*
X48880000Y-83700000D01*
X48880000Y-68700000D02*
X62880000Y-68700000D01*
X62880000Y-68700000D02*
X62880000Y-83700000D01*
X48880000Y-83700000D02*
X48880000Y-68700000D01*
X65260000Y-122180000D02*
X77160000Y-122180000D01*
X77160000Y-122180000D02*
X77160000Y-116580000D01*
X65260000Y-116580000D02*
X65260000Y-122180000D01*
X77160000Y-116580000D02*
X65260000Y-116580000D01*
X116300000Y-48260000D02*
G75*
G03*
X116300000Y-48260000I-2000000J0D01*
G01*
X78350000Y-127000000D02*
G75*
G03*
X78350000Y-127000000I-3400000J0D01*
G01*
X92480000Y-111980000D02*
X92480000Y-121700000D01*
X95480000Y-121700000D02*
X95480000Y-111980000D01*
X95480000Y-111980000D02*
X92480000Y-111980000D01*
X92480000Y-121700000D02*
X95480000Y-121700000D01*
M02*
