M48
; DRILL file {KiCad 5.1.8+dfsg1-1+b1} date Tue Jul 27 16:41:48 2021
; FORMAT={-:-/ absolute / inch / decimal}
; #@! TF.CreationDate,2021-07-27T16:41:48-05:00
; #@! TF.GenerationSoftware,Kicad,Pcbnew,5.1.8+dfsg1-1+b1
; #@! TF.FileFunction,Plated,1,2,PTH
FMAT,2
INCH
T1C0.0300
T2C0.0315
T3C0.0354
T4C0.0394
T5C0.0400
T6C0.0433
T7C0.0551
T8C0.0984
%
G90
G05
T1
X3.6Y-2.7
X3.6Y-2.8
X5.4Y-2.2
X5.4Y-2.3
T2
X2.3Y-3.9
X2.3984Y-3.9
X6.4Y-4.4
X6.4Y-4.7
X6.1Y-4.0
X6.4Y-4.0
X5.8Y-3.7
X6.1Y-3.7
X2.4Y-2.4
X2.4Y-2.4984
X2.0Y-3.3
X2.0Y-3.6
X2.1Y-3.3
X2.1Y-3.6
X2.2Y-3.3
X2.2Y-3.6
X2.3Y-3.3
X2.3Y-3.6
X2.4Y-3.3
X2.4Y-3.6
X2.5Y-3.3
X2.5Y-3.6
X2.6Y-3.3
X2.6Y-3.6
X2.0Y-2.3
X2.0Y-2.6
X6.3Y-3.7
X6.4Y-3.7
X6.5Y-3.7
X6.6Y-4.4
X6.9Y-4.4
X6.0Y-4.4
X6.0Y-4.7
X6.7Y-3.7
X7.0Y-3.7
X6.7Y-4.0
X6.8Y-4.0
X6.9Y-4.0
T3
X2.0Y-2.8
X2.0Y-2.9
X6.4Y-4.9
X6.4Y-5.0
X6.0Y-4.9
X6.0Y-5.0
T5
X2.5Y-4.5
X2.5Y-5.1
X2.6Y-4.5
X2.6Y-5.1
X2.7Y-4.5
X2.7Y-5.1
X2.8Y-4.5
X2.8Y-5.1
X2.9Y-4.5
X2.9Y-5.1
X3.0Y-4.5
X3.0Y-5.1
X3.1Y-4.5
X3.1Y-5.1
X3.2Y-4.5
X3.2Y-5.1
X3.3Y-4.5
X3.3Y-5.1
X3.4Y-4.5
X3.4Y-5.1
X3.5Y-4.5
X3.5Y-5.1
X3.6Y-4.5
X3.6Y-5.1
X3.7Y-4.5
X3.7Y-5.1
X3.8Y-4.5
X3.8Y-5.1
X3.9Y-4.5
X3.9Y-5.1
X4.0Y-4.5
X4.0Y-5.1
X4.1Y-4.5
X4.1Y-5.1
T6
X6.0Y-3.3
X6.1Y-3.3
X6.2Y-3.3
X6.6Y-3.3
X6.7Y-3.3
X6.8Y-3.3
X6.0Y-2.8
X6.1Y-2.8
X6.2Y-2.8
X6.6Y-2.8
X6.7Y-2.8
X6.8Y-2.8
T7
X6.4Y-2.0
X6.4Y-2.2165
T8
X3.0Y-3.2929
X3.0Y-3.6
T4
G00X2.415Y-1.9425
M15
G01X2.415Y-2.0213
M16
G05
G00X2.6394Y-1.8638
M15
G01X2.5606Y-1.8638
M16
G05
G00X2.6394Y-2.1
M15
G01X2.5606Y-2.1
M16
G05
T0
M30
