M48
; DRILL file {KiCad 6.0.6+dfsg-1} date Fri 08 Jul 2022 04:57:31 PM CDT
; FORMAT={-:-/ absolute / inch / decimal}
; #@! TF.CreationDate,2022-07-08T16:57:31-05:00
; #@! TF.GenerationSoftware,Kicad,Pcbnew,6.0.6+dfsg-1
; #@! TF.FileFunction,Plated,1,2,PTH
FMAT,2
INCH
; #@! TA.AperFunction,Plated,PTH,ComponentDrill
T1C0.0300
; #@! TA.AperFunction,Plated,PTH,ComponentDrill
T2C0.0315
; #@! TA.AperFunction,Plated,PTH,ComponentDrill
T3C0.0354
; #@! TA.AperFunction,Plated,PTH,ComponentDrill
T4C0.0394
; #@! TA.AperFunction,Plated,PTH,ComponentDrill
T5C0.0433
; #@! TA.AperFunction,Plated,PTH,ComponentDrill
T6C0.0551
; #@! TA.AperFunction,Plated,PTH,ComponentDrill
T7C0.0630
%
G90
G05
T1
X3.4Y-4.774
X3.4Y-5.026
X3.6Y-2.7
X3.6Y-2.8
X5.4Y-2.2
X5.4Y-2.3
X5.6Y-4.774
X5.6Y-5.026
T2
X1.9504Y-3.8496
X1.9504Y-4.1496
X2.0504Y-3.8496
X2.0504Y-4.1496
X2.1504Y-3.8496
X2.1504Y-4.1496
X2.25Y-3.6
X2.2504Y-3.8496
X2.2504Y-4.1496
X2.3016Y-2.4
X2.3504Y-3.8496
X2.3504Y-4.1496
X2.4Y-2.4
X2.4504Y-3.8496
X2.4504Y-4.1496
X2.5016Y-5.0
X2.55Y-3.6
X2.5504Y-3.8496
X2.5504Y-4.1496
X2.6Y-5.0
X2.65Y-4.4
X2.6504Y-3.8496
X2.6504Y-4.1496
X2.7079Y-4.7
X2.7504Y-3.8496
X2.7504Y-4.1496
X2.8Y-2.6
X2.8Y-2.6984
X2.8Y-3.2
X2.8Y-3.2984
X2.8504Y-3.8496
X2.8504Y-4.1496
X2.9Y-4.7
X2.9016Y-5.0
X2.95Y-4.4
X2.9504Y-3.8496
X2.9504Y-4.1496
X3.0Y-5.0
X3.0504Y-3.8496
X3.0504Y-4.1496
X3.1504Y-3.8496
X3.1504Y-4.1496
X3.2504Y-3.8496
X3.2504Y-4.1496
X3.7Y-4.45
X3.7Y-4.75
X4.1Y-4.45
X4.1Y-4.75
X4.5Y-4.45
X4.5Y-4.75
X4.9Y-4.45
X4.9Y-4.75
X5.3Y-4.45
X5.3Y-4.75
X5.8Y-3.7
X6.0Y-4.4
X6.0Y-4.7
X6.1Y-3.7
X6.1Y-4.0
X6.3Y-3.7
X6.4Y-3.7
X6.4Y-4.0
X6.4Y-4.4
X6.4Y-4.7
X6.5Y-3.7
X6.6Y-4.4
X6.7Y-3.7
X6.7Y-4.0
X6.8Y-4.0
X6.9Y-4.0
X6.9Y-4.4
X7.0Y-3.7
T3
X1.9Y-3.6
X2.0Y-3.6
X3.7Y-4.9
X3.7Y-5.0
X4.1Y-4.9
X4.1Y-5.0
X4.5Y-4.9
X4.5Y-5.0
X4.9Y-4.9
X4.9Y-5.0
X5.3Y-4.9
X5.3Y-5.0
X6.0Y-4.9
X6.0Y-5.0
X6.4Y-4.9
X6.4Y-5.0
T5
X6.0Y-2.8
X6.0Y-3.3
X6.1Y-2.8
X6.1Y-3.3
X6.2Y-2.8
X6.2Y-3.3
X6.6Y-2.8
X6.6Y-3.3
X6.7Y-2.8
X6.7Y-3.3
X6.8Y-2.8
X6.8Y-3.3
T6
X6.4Y-2.0
X6.4Y-2.2165
T7
X3.9Y-1.9
X4.2Y-1.9
X4.5Y-1.9
X5.4Y-1.9
X5.7Y-1.9
T4
G00X2.415Y-1.9425
M15
G01X2.415Y-2.0213
M16
G05
G00X2.6394Y-1.8638
M15
G01X2.5606Y-1.8638
M16
G05
G00X2.6394Y-2.1
M15
G01X2.5606Y-2.1
M16
G05
T0
M30
