G04 #@! TF.GenerationSoftware,KiCad,Pcbnew,6.0.6+dfsg-1*
G04 #@! TF.CreationDate,2022-07-08T16:57:29-05:00*
G04 #@! TF.ProjectId,thermoelectric-tube,74686572-6d6f-4656-9c65-63747269632d,C*
G04 #@! TF.SameCoordinates,Original*
G04 #@! TF.FileFunction,Legend,Top*
G04 #@! TF.FilePolarity,Positive*
%FSLAX46Y46*%
G04 Gerber Fmt 4.6, Leading zero omitted, Abs format (unit mm)*
G04 Created by KiCad (PCBNEW 6.0.6+dfsg-1) date 2022-07-08 16:57:29*
%MOMM*%
%LPD*%
G01*
G04 APERTURE LIST*
%ADD10C,1.270000*%
%ADD11C,0.150000*%
%ADD12C,0.300000*%
%ADD13C,0.635000*%
%ADD14C,0.015000*%
%ADD15C,0.120000*%
%ADD16C,0.127000*%
%ADD17C,0.200000*%
G04 APERTURE END LIST*
D10*
X139700000Y-101600000D02*
X88900000Y-101600000D01*
X139700000Y-101600000D02*
X139700000Y-76200000D01*
X88900000Y-101600000D02*
X88900000Y-76200000D01*
X88900000Y-76200000D02*
X139700000Y-76200000D01*
D11*
X150852380Y-129992380D02*
X150852380Y-128992380D01*
X150852380Y-129468571D02*
X151423809Y-129468571D01*
X151423809Y-129992380D02*
X151423809Y-128992380D01*
X151900000Y-129468571D02*
X152233333Y-129468571D01*
X152376190Y-129992380D02*
X151900000Y-129992380D01*
X151900000Y-128992380D01*
X152376190Y-128992380D01*
X152757142Y-129706666D02*
X153233333Y-129706666D01*
X152661904Y-129992380D02*
X152995238Y-128992380D01*
X153328571Y-129992380D01*
X153519047Y-128992380D02*
X154090476Y-128992380D01*
X153804761Y-129992380D02*
X153804761Y-128992380D01*
X161417142Y-129897142D02*
X161369523Y-129944761D01*
X161226666Y-129992380D01*
X161131428Y-129992380D01*
X160988571Y-129944761D01*
X160893333Y-129849523D01*
X160845714Y-129754285D01*
X160798095Y-129563809D01*
X160798095Y-129420952D01*
X160845714Y-129230476D01*
X160893333Y-129135238D01*
X160988571Y-129040000D01*
X161131428Y-128992380D01*
X161226666Y-128992380D01*
X161369523Y-129040000D01*
X161417142Y-129087619D01*
X162036190Y-128992380D02*
X162226666Y-128992380D01*
X162321904Y-129040000D01*
X162417142Y-129135238D01*
X162464761Y-129325714D01*
X162464761Y-129659047D01*
X162417142Y-129849523D01*
X162321904Y-129944761D01*
X162226666Y-129992380D01*
X162036190Y-129992380D01*
X161940952Y-129944761D01*
X161845714Y-129849523D01*
X161798095Y-129659047D01*
X161798095Y-129325714D01*
X161845714Y-129135238D01*
X161940952Y-129040000D01*
X162036190Y-128992380D01*
X163083809Y-128992380D02*
X163274285Y-128992380D01*
X163369523Y-129040000D01*
X163464761Y-129135238D01*
X163512380Y-129325714D01*
X163512380Y-129659047D01*
X163464761Y-129849523D01*
X163369523Y-129944761D01*
X163274285Y-129992380D01*
X163083809Y-129992380D01*
X162988571Y-129944761D01*
X162893333Y-129849523D01*
X162845714Y-129659047D01*
X162845714Y-129325714D01*
X162893333Y-129135238D01*
X162988571Y-129040000D01*
X163083809Y-128992380D01*
X164417142Y-129992380D02*
X163940952Y-129992380D01*
X163940952Y-128992380D01*
X87272380Y-48612619D02*
X87605714Y-49088809D01*
X87843809Y-48612619D02*
X87843809Y-49612619D01*
X87462857Y-49612619D01*
X87367619Y-49565000D01*
X87320000Y-49517380D01*
X87272380Y-49422142D01*
X87272380Y-49279285D01*
X87320000Y-49184047D01*
X87367619Y-49136428D01*
X87462857Y-49088809D01*
X87843809Y-49088809D01*
X86843809Y-49136428D02*
X86510476Y-49136428D01*
X86367619Y-48612619D02*
X86843809Y-48612619D01*
X86843809Y-49612619D01*
X86367619Y-49612619D01*
X86081904Y-49612619D02*
X85748571Y-48612619D01*
X85415238Y-49612619D01*
X85081904Y-48612619D02*
X85081904Y-49612619D01*
X84653333Y-48660238D02*
X84510476Y-48612619D01*
X84272380Y-48612619D01*
X84177142Y-48660238D01*
X84129523Y-48707857D01*
X84081904Y-48803095D01*
X84081904Y-48898333D01*
X84129523Y-48993571D01*
X84177142Y-49041190D01*
X84272380Y-49088809D01*
X84462857Y-49136428D01*
X84558095Y-49184047D01*
X84605714Y-49231666D01*
X84653333Y-49326904D01*
X84653333Y-49422142D01*
X84605714Y-49517380D01*
X84558095Y-49565000D01*
X84462857Y-49612619D01*
X84224761Y-49612619D01*
X84081904Y-49565000D01*
X83653333Y-48612619D02*
X83653333Y-49612619D01*
X82986666Y-49612619D02*
X82796190Y-49612619D01*
X82700952Y-49565000D01*
X82605714Y-49469761D01*
X82558095Y-49279285D01*
X82558095Y-48945952D01*
X82605714Y-48755476D01*
X82700952Y-48660238D01*
X82796190Y-48612619D01*
X82986666Y-48612619D01*
X83081904Y-48660238D01*
X83177142Y-48755476D01*
X83224761Y-48945952D01*
X83224761Y-49279285D01*
X83177142Y-49469761D01*
X83081904Y-49565000D01*
X82986666Y-49612619D01*
X82129523Y-48612619D02*
X82129523Y-49612619D01*
X81558095Y-48612619D01*
X81558095Y-49612619D01*
X79748571Y-48707857D02*
X79796190Y-48660238D01*
X79939047Y-48612619D01*
X80034285Y-48612619D01*
X80177142Y-48660238D01*
X80272380Y-48755476D01*
X80320000Y-48850714D01*
X80367619Y-49041190D01*
X80367619Y-49184047D01*
X80320000Y-49374523D01*
X80272380Y-49469761D01*
X80177142Y-49565000D01*
X80034285Y-49612619D01*
X79939047Y-49612619D01*
X79796190Y-49565000D01*
X79748571Y-49517380D01*
X87320000Y-48002619D02*
X87320000Y-47288333D01*
X87367619Y-47145476D01*
X87462857Y-47050238D01*
X87605714Y-47002619D01*
X87700952Y-47002619D01*
X86843809Y-48002619D02*
X86843809Y-47193095D01*
X86796190Y-47097857D01*
X86748571Y-47050238D01*
X86653333Y-47002619D01*
X86462857Y-47002619D01*
X86367619Y-47050238D01*
X86320000Y-47097857D01*
X86272380Y-47193095D01*
X86272380Y-48002619D01*
X85320000Y-47002619D02*
X85796190Y-47002619D01*
X85796190Y-48002619D01*
X84796190Y-47478809D02*
X84796190Y-47002619D01*
X85129523Y-48002619D02*
X84796190Y-47478809D01*
X84462857Y-48002619D01*
X83415238Y-47907380D02*
X83367619Y-47955000D01*
X83272380Y-48002619D01*
X83034285Y-48002619D01*
X82939047Y-47955000D01*
X82891428Y-47907380D01*
X82843809Y-47812142D01*
X82843809Y-47716904D01*
X82891428Y-47574047D01*
X83462857Y-47002619D01*
X82843809Y-47002619D01*
X82224761Y-48002619D02*
X82129523Y-48002619D01*
X82034285Y-47955000D01*
X81986666Y-47907380D01*
X81939047Y-47812142D01*
X81891428Y-47621666D01*
X81891428Y-47383571D01*
X81939047Y-47193095D01*
X81986666Y-47097857D01*
X82034285Y-47050238D01*
X82129523Y-47002619D01*
X82224761Y-47002619D01*
X82320000Y-47050238D01*
X82367619Y-47097857D01*
X82415238Y-47193095D01*
X82462857Y-47383571D01*
X82462857Y-47621666D01*
X82415238Y-47812142D01*
X82367619Y-47907380D01*
X82320000Y-47955000D01*
X82224761Y-48002619D01*
X81510476Y-47907380D02*
X81462857Y-47955000D01*
X81367619Y-48002619D01*
X81129523Y-48002619D01*
X81034285Y-47955000D01*
X80986666Y-47907380D01*
X80939047Y-47812142D01*
X80939047Y-47716904D01*
X80986666Y-47574047D01*
X81558095Y-47002619D01*
X80939047Y-47002619D01*
X80558095Y-47907380D02*
X80510476Y-47955000D01*
X80415238Y-48002619D01*
X80177142Y-48002619D01*
X80081904Y-47955000D01*
X80034285Y-47907380D01*
X79986666Y-47812142D01*
X79986666Y-47716904D01*
X80034285Y-47574047D01*
X80605714Y-47002619D01*
X79986666Y-47002619D01*
D12*
X56808571Y-45041428D02*
X57665714Y-45041428D01*
X57237142Y-45041428D02*
X57237142Y-46541428D01*
X57380000Y-46327142D01*
X57522857Y-46184285D01*
X57665714Y-46112857D01*
X56237142Y-46398571D02*
X56165714Y-46470000D01*
X56022857Y-46541428D01*
X55665714Y-46541428D01*
X55522857Y-46470000D01*
X55451428Y-46398571D01*
X55380000Y-46255714D01*
X55380000Y-46112857D01*
X55451428Y-45898571D01*
X56308571Y-45041428D01*
X55380000Y-45041428D01*
X54951428Y-46541428D02*
X54451428Y-45041428D01*
X53951428Y-46541428D01*
D11*
X90153333Y-54216428D02*
X90010476Y-54168809D01*
X89962857Y-54121190D01*
X89915238Y-54025952D01*
X89915238Y-53883095D01*
X89962857Y-53787857D01*
X90010476Y-53740238D01*
X90105714Y-53692619D01*
X90486666Y-53692619D01*
X90486666Y-54692619D01*
X90153333Y-54692619D01*
X90058095Y-54645000D01*
X90010476Y-54597380D01*
X89962857Y-54502142D01*
X89962857Y-54406904D01*
X90010476Y-54311666D01*
X90058095Y-54264047D01*
X90153333Y-54216428D01*
X90486666Y-54216428D01*
X89010476Y-53692619D02*
X89486666Y-53692619D01*
X89486666Y-54692619D01*
X88724761Y-53978333D02*
X88248571Y-53978333D01*
X88820000Y-53692619D02*
X88486666Y-54692619D01*
X88153333Y-53692619D01*
X87820000Y-53692619D02*
X87820000Y-54692619D01*
X87391428Y-53740238D02*
X87248571Y-53692619D01*
X87010476Y-53692619D01*
X86915238Y-53740238D01*
X86867619Y-53787857D01*
X86820000Y-53883095D01*
X86820000Y-53978333D01*
X86867619Y-54073571D01*
X86915238Y-54121190D01*
X87010476Y-54168809D01*
X87200952Y-54216428D01*
X87296190Y-54264047D01*
X87343809Y-54311666D01*
X87391428Y-54406904D01*
X87391428Y-54502142D01*
X87343809Y-54597380D01*
X87296190Y-54645000D01*
X87200952Y-54692619D01*
X86962857Y-54692619D01*
X86820000Y-54645000D01*
X86391428Y-54216428D02*
X86058095Y-54216428D01*
X85915238Y-53692619D02*
X86391428Y-53692619D01*
X86391428Y-54692619D01*
X85915238Y-54692619D01*
X84867619Y-54692619D02*
X84296190Y-54692619D01*
X84581904Y-53692619D02*
X84581904Y-54692619D01*
X83962857Y-53692619D02*
X83962857Y-54692619D01*
X83962857Y-54216428D02*
X83391428Y-54216428D01*
X83391428Y-53692619D02*
X83391428Y-54692619D01*
X82724761Y-54692619D02*
X82534285Y-54692619D01*
X82439047Y-54645000D01*
X82343809Y-54549761D01*
X82296190Y-54359285D01*
X82296190Y-54025952D01*
X82343809Y-53835476D01*
X82439047Y-53740238D01*
X82534285Y-53692619D01*
X82724761Y-53692619D01*
X82820000Y-53740238D01*
X82915238Y-53835476D01*
X82962857Y-54025952D01*
X82962857Y-54359285D01*
X82915238Y-54549761D01*
X82820000Y-54645000D01*
X82724761Y-54692619D01*
X81867619Y-53692619D02*
X81867619Y-54692619D01*
X81534285Y-53978333D01*
X81200952Y-54692619D01*
X81200952Y-53692619D01*
X80724761Y-53692619D02*
X80724761Y-54692619D01*
X80343809Y-54692619D01*
X80248571Y-54645000D01*
X80200952Y-54597380D01*
X80153333Y-54502142D01*
X80153333Y-54359285D01*
X80200952Y-54264047D01*
X80248571Y-54216428D01*
X80343809Y-54168809D01*
X80724761Y-54168809D01*
X79772380Y-53740238D02*
X79629523Y-53692619D01*
X79391428Y-53692619D01*
X79296190Y-53740238D01*
X79248571Y-53787857D01*
X79200952Y-53883095D01*
X79200952Y-53978333D01*
X79248571Y-54073571D01*
X79296190Y-54121190D01*
X79391428Y-54168809D01*
X79581904Y-54216428D01*
X79677142Y-54264047D01*
X79724761Y-54311666D01*
X79772380Y-54406904D01*
X79772380Y-54502142D01*
X79724761Y-54597380D01*
X79677142Y-54645000D01*
X79581904Y-54692619D01*
X79343809Y-54692619D01*
X79200952Y-54645000D01*
X78581904Y-54692619D02*
X78391428Y-54692619D01*
X78296190Y-54645000D01*
X78200952Y-54549761D01*
X78153333Y-54359285D01*
X78153333Y-54025952D01*
X78200952Y-53835476D01*
X78296190Y-53740238D01*
X78391428Y-53692619D01*
X78581904Y-53692619D01*
X78677142Y-53740238D01*
X78772380Y-53835476D01*
X78820000Y-54025952D01*
X78820000Y-54359285D01*
X78772380Y-54549761D01*
X78677142Y-54645000D01*
X78581904Y-54692619D01*
X77724761Y-53692619D02*
X77724761Y-54692619D01*
X77153333Y-53692619D01*
X77153333Y-54692619D01*
X90558095Y-52082619D02*
X90558095Y-53082619D01*
X90081904Y-52082619D02*
X90081904Y-53082619D01*
X89510476Y-52082619D01*
X89510476Y-53082619D01*
X89081904Y-52130238D02*
X88939047Y-52082619D01*
X88700952Y-52082619D01*
X88605714Y-52130238D01*
X88558095Y-52177857D01*
X88510476Y-52273095D01*
X88510476Y-52368333D01*
X88558095Y-52463571D01*
X88605714Y-52511190D01*
X88700952Y-52558809D01*
X88891428Y-52606428D01*
X88986666Y-52654047D01*
X89034285Y-52701666D01*
X89081904Y-52796904D01*
X89081904Y-52892142D01*
X89034285Y-52987380D01*
X88986666Y-53035000D01*
X88891428Y-53082619D01*
X88653333Y-53082619D01*
X88510476Y-53035000D01*
X88224761Y-53082619D02*
X87653333Y-53082619D01*
X87939047Y-52082619D02*
X87939047Y-53082619D01*
X86748571Y-52082619D02*
X87081904Y-52558809D01*
X87320000Y-52082619D02*
X87320000Y-53082619D01*
X86939047Y-53082619D01*
X86843809Y-53035000D01*
X86796190Y-52987380D01*
X86748571Y-52892142D01*
X86748571Y-52749285D01*
X86796190Y-52654047D01*
X86843809Y-52606428D01*
X86939047Y-52558809D01*
X87320000Y-52558809D01*
X86320000Y-53082619D02*
X86320000Y-52273095D01*
X86272380Y-52177857D01*
X86224761Y-52130238D01*
X86129523Y-52082619D01*
X85939047Y-52082619D01*
X85843809Y-52130238D01*
X85796190Y-52177857D01*
X85748571Y-52273095D01*
X85748571Y-53082619D01*
X85272380Y-52082619D02*
X85272380Y-53082619D01*
X84939047Y-52368333D01*
X84605714Y-53082619D01*
X84605714Y-52082619D01*
X84129523Y-52606428D02*
X83796190Y-52606428D01*
X83653333Y-52082619D02*
X84129523Y-52082619D01*
X84129523Y-53082619D01*
X83653333Y-53082619D01*
X83224761Y-52082619D02*
X83224761Y-53082619D01*
X82653333Y-52082619D01*
X82653333Y-53082619D01*
X82320000Y-53082619D02*
X81748571Y-53082619D01*
X82034285Y-52082619D02*
X82034285Y-53082619D01*
X80700952Y-52130238D02*
X80558095Y-52082619D01*
X80320000Y-52082619D01*
X80224761Y-52130238D01*
X80177142Y-52177857D01*
X80129523Y-52273095D01*
X80129523Y-52368333D01*
X80177142Y-52463571D01*
X80224761Y-52511190D01*
X80320000Y-52558809D01*
X80510476Y-52606428D01*
X80605714Y-52654047D01*
X80653333Y-52701666D01*
X80700952Y-52796904D01*
X80700952Y-52892142D01*
X80653333Y-52987380D01*
X80605714Y-53035000D01*
X80510476Y-53082619D01*
X80272380Y-53082619D01*
X80129523Y-53035000D01*
X79700952Y-52082619D02*
X79700952Y-53082619D01*
X79700952Y-52606428D02*
X79129523Y-52606428D01*
X79129523Y-52082619D02*
X79129523Y-53082619D01*
X78462857Y-53082619D02*
X78272380Y-53082619D01*
X78177142Y-53035000D01*
X78081904Y-52939761D01*
X78034285Y-52749285D01*
X78034285Y-52415952D01*
X78081904Y-52225476D01*
X78177142Y-52130238D01*
X78272380Y-52082619D01*
X78462857Y-52082619D01*
X78558095Y-52130238D01*
X78653333Y-52225476D01*
X78700952Y-52415952D01*
X78700952Y-52749285D01*
X78653333Y-52939761D01*
X78558095Y-53035000D01*
X78462857Y-53082619D01*
X77605714Y-52082619D02*
X77605714Y-53082619D01*
X77224761Y-53082619D01*
X77129523Y-53035000D01*
X77081904Y-52987380D01*
X77034285Y-52892142D01*
X77034285Y-52749285D01*
X77081904Y-52654047D01*
X77129523Y-52606428D01*
X77224761Y-52558809D01*
X77605714Y-52558809D01*
D13*
X92649523Y-105289047D02*
X94100952Y-105289047D01*
X93375238Y-107829047D02*
X93375238Y-105289047D01*
X94947619Y-107829047D02*
X94947619Y-105289047D01*
X94947619Y-106498571D02*
X96399047Y-106498571D01*
X96399047Y-107829047D02*
X96399047Y-105289047D01*
X97608571Y-106498571D02*
X98455238Y-106498571D01*
X98818095Y-107829047D02*
X97608571Y-107829047D01*
X97608571Y-105289047D01*
X98818095Y-105289047D01*
X101358095Y-107829047D02*
X100511428Y-106619523D01*
X99906666Y-107829047D02*
X99906666Y-105289047D01*
X100874285Y-105289047D01*
X101116190Y-105410000D01*
X101237142Y-105530952D01*
X101358095Y-105772857D01*
X101358095Y-106135714D01*
X101237142Y-106377619D01*
X101116190Y-106498571D01*
X100874285Y-106619523D01*
X99906666Y-106619523D01*
X102446666Y-107829047D02*
X102446666Y-105289047D01*
X103293333Y-107103333D01*
X104140000Y-105289047D01*
X104140000Y-107829047D01*
X105833333Y-105289047D02*
X106317142Y-105289047D01*
X106559047Y-105410000D01*
X106800952Y-105651904D01*
X106921904Y-106135714D01*
X106921904Y-106982380D01*
X106800952Y-107466190D01*
X106559047Y-107708095D01*
X106317142Y-107829047D01*
X105833333Y-107829047D01*
X105591428Y-107708095D01*
X105349523Y-107466190D01*
X105228571Y-106982380D01*
X105228571Y-106135714D01*
X105349523Y-105651904D01*
X105591428Y-105410000D01*
X105833333Y-105289047D01*
X108010476Y-106498571D02*
X108857142Y-106498571D01*
X109220000Y-107829047D02*
X108010476Y-107829047D01*
X108010476Y-105289047D01*
X109220000Y-105289047D01*
X111518095Y-107829047D02*
X110308571Y-107829047D01*
X110308571Y-105289047D01*
X112364761Y-106498571D02*
X113211428Y-106498571D01*
X113574285Y-107829047D02*
X112364761Y-107829047D01*
X112364761Y-105289047D01*
X113574285Y-105289047D01*
X116114285Y-107587142D02*
X115993333Y-107708095D01*
X115630476Y-107829047D01*
X115388571Y-107829047D01*
X115025714Y-107708095D01*
X114783809Y-107466190D01*
X114662857Y-107224285D01*
X114541904Y-106740476D01*
X114541904Y-106377619D01*
X114662857Y-105893809D01*
X114783809Y-105651904D01*
X115025714Y-105410000D01*
X115388571Y-105289047D01*
X115630476Y-105289047D01*
X115993333Y-105410000D01*
X116114285Y-105530952D01*
X116840000Y-105289047D02*
X118291428Y-105289047D01*
X117565714Y-107829047D02*
X117565714Y-105289047D01*
X120589523Y-107829047D02*
X119742857Y-106619523D01*
X119138095Y-107829047D02*
X119138095Y-105289047D01*
X120105714Y-105289047D01*
X120347619Y-105410000D01*
X120468571Y-105530952D01*
X120589523Y-105772857D01*
X120589523Y-106135714D01*
X120468571Y-106377619D01*
X120347619Y-106498571D01*
X120105714Y-106619523D01*
X119138095Y-106619523D01*
X121678095Y-107829047D02*
X121678095Y-105289047D01*
X124339047Y-107587142D02*
X124218095Y-107708095D01*
X123855238Y-107829047D01*
X123613333Y-107829047D01*
X123250476Y-107708095D01*
X123008571Y-107466190D01*
X122887619Y-107224285D01*
X122766666Y-106740476D01*
X122766666Y-106377619D01*
X122887619Y-105893809D01*
X123008571Y-105651904D01*
X123250476Y-105410000D01*
X123613333Y-105289047D01*
X123855238Y-105289047D01*
X124218095Y-105410000D01*
X124339047Y-105530952D01*
X127000000Y-105289047D02*
X128451428Y-105289047D01*
X127725714Y-107829047D02*
X127725714Y-105289047D01*
X129298095Y-105289047D02*
X129298095Y-107345238D01*
X129419047Y-107587142D01*
X129540000Y-107708095D01*
X129781904Y-107829047D01*
X130265714Y-107829047D01*
X130507619Y-107708095D01*
X130628571Y-107587142D01*
X130749523Y-107345238D01*
X130749523Y-105289047D01*
X132805714Y-106498571D02*
X133168571Y-106619523D01*
X133289523Y-106740476D01*
X133410476Y-106982380D01*
X133410476Y-107345238D01*
X133289523Y-107587142D01*
X133168571Y-107708095D01*
X132926666Y-107829047D01*
X131959047Y-107829047D01*
X131959047Y-105289047D01*
X132805714Y-105289047D01*
X133047619Y-105410000D01*
X133168571Y-105530952D01*
X133289523Y-105772857D01*
X133289523Y-106014761D01*
X133168571Y-106256666D01*
X133047619Y-106377619D01*
X132805714Y-106498571D01*
X131959047Y-106498571D01*
X134499047Y-106498571D02*
X135345714Y-106498571D01*
X135708571Y-107829047D02*
X134499047Y-107829047D01*
X134499047Y-105289047D01*
X135708571Y-105289047D01*
D11*
X172624761Y-98587619D02*
X172529523Y-98540000D01*
X172434285Y-98444761D01*
X172291428Y-98301904D01*
X172196190Y-98254285D01*
X172100952Y-98254285D01*
X172148571Y-98492380D02*
X172053333Y-98444761D01*
X171958095Y-98349523D01*
X171910476Y-98159047D01*
X171910476Y-97825714D01*
X171958095Y-97635238D01*
X172053333Y-97540000D01*
X172148571Y-97492380D01*
X172339047Y-97492380D01*
X172434285Y-97540000D01*
X172529523Y-97635238D01*
X172577142Y-97825714D01*
X172577142Y-98159047D01*
X172529523Y-98349523D01*
X172434285Y-98444761D01*
X172339047Y-98492380D01*
X172148571Y-98492380D01*
X173434285Y-97825714D02*
X173434285Y-98492380D01*
X173196190Y-97444761D02*
X172958095Y-98159047D01*
X173577142Y-98159047D01*
X59543333Y-65717142D02*
X59495714Y-65764761D01*
X59352857Y-65812380D01*
X59257619Y-65812380D01*
X59114761Y-65764761D01*
X59019523Y-65669523D01*
X58971904Y-65574285D01*
X58924285Y-65383809D01*
X58924285Y-65240952D01*
X58971904Y-65050476D01*
X59019523Y-64955238D01*
X59114761Y-64860000D01*
X59257619Y-64812380D01*
X59352857Y-64812380D01*
X59495714Y-64860000D01*
X59543333Y-64907619D01*
X59924285Y-64907619D02*
X59971904Y-64860000D01*
X60067142Y-64812380D01*
X60305238Y-64812380D01*
X60400476Y-64860000D01*
X60448095Y-64907619D01*
X60495714Y-65002857D01*
X60495714Y-65098095D01*
X60448095Y-65240952D01*
X59876666Y-65812380D01*
X60495714Y-65812380D01*
X48791904Y-87932380D02*
X48791904Y-86932380D01*
X49030000Y-86932380D01*
X49172857Y-86980000D01*
X49268095Y-87075238D01*
X49315714Y-87170476D01*
X49363333Y-87360952D01*
X49363333Y-87503809D01*
X49315714Y-87694285D01*
X49268095Y-87789523D01*
X49172857Y-87884761D01*
X49030000Y-87932380D01*
X48791904Y-87932380D01*
X50315714Y-87932380D02*
X49744285Y-87932380D01*
X50030000Y-87932380D02*
X50030000Y-86932380D01*
X49934761Y-87075238D01*
X49839523Y-87170476D01*
X49744285Y-87218095D01*
X148892380Y-126468095D02*
X147892380Y-126468095D01*
X147892380Y-126230000D01*
X147940000Y-126087142D01*
X148035238Y-125991904D01*
X148130476Y-125944285D01*
X148320952Y-125896666D01*
X148463809Y-125896666D01*
X148654285Y-125944285D01*
X148749523Y-125991904D01*
X148844761Y-126087142D01*
X148892380Y-126230000D01*
X148892380Y-126468095D01*
X147987619Y-125515714D02*
X147940000Y-125468095D01*
X147892380Y-125372857D01*
X147892380Y-125134761D01*
X147940000Y-125039523D01*
X147987619Y-124991904D01*
X148082857Y-124944285D01*
X148178095Y-124944285D01*
X148320952Y-124991904D01*
X148892380Y-125563333D01*
X148892380Y-124944285D01*
X159052380Y-126468095D02*
X158052380Y-126468095D01*
X158052380Y-126230000D01*
X158100000Y-126087142D01*
X158195238Y-125991904D01*
X158290476Y-125944285D01*
X158480952Y-125896666D01*
X158623809Y-125896666D01*
X158814285Y-125944285D01*
X158909523Y-125991904D01*
X159004761Y-126087142D01*
X159052380Y-126230000D01*
X159052380Y-126468095D01*
X158052380Y-125563333D02*
X158052380Y-124944285D01*
X158433333Y-125277619D01*
X158433333Y-125134761D01*
X158480952Y-125039523D01*
X158528571Y-124991904D01*
X158623809Y-124944285D01*
X158861904Y-124944285D01*
X158957142Y-124991904D01*
X159004761Y-125039523D01*
X159052380Y-125134761D01*
X159052380Y-125420476D01*
X159004761Y-125515714D01*
X158957142Y-125563333D01*
X59742380Y-45223333D02*
X60456666Y-45223333D01*
X60599523Y-45270952D01*
X60694761Y-45366190D01*
X60742380Y-45509047D01*
X60742380Y-45604285D01*
X60742380Y-44223333D02*
X60742380Y-44794761D01*
X60742380Y-44509047D02*
X59742380Y-44509047D01*
X59885238Y-44604285D01*
X59980476Y-44699523D01*
X60028095Y-44794761D01*
X170084761Y-67397619D02*
X169989523Y-67350000D01*
X169894285Y-67254761D01*
X169751428Y-67111904D01*
X169656190Y-67064285D01*
X169560952Y-67064285D01*
X169608571Y-67302380D02*
X169513333Y-67254761D01*
X169418095Y-67159523D01*
X169370476Y-66969047D01*
X169370476Y-66635714D01*
X169418095Y-66445238D01*
X169513333Y-66350000D01*
X169608571Y-66302380D01*
X169799047Y-66302380D01*
X169894285Y-66350000D01*
X169989523Y-66445238D01*
X170037142Y-66635714D01*
X170037142Y-66969047D01*
X169989523Y-67159523D01*
X169894285Y-67254761D01*
X169799047Y-67302380D01*
X169608571Y-67302380D01*
X170370476Y-66302380D02*
X170989523Y-66302380D01*
X170656190Y-66683333D01*
X170799047Y-66683333D01*
X170894285Y-66730952D01*
X170941904Y-66778571D01*
X170989523Y-66873809D01*
X170989523Y-67111904D01*
X170941904Y-67207142D01*
X170894285Y-67254761D01*
X170799047Y-67302380D01*
X170513333Y-67302380D01*
X170418095Y-67254761D01*
X170370476Y-67207142D01*
X154844761Y-80097619D02*
X154749523Y-80050000D01*
X154654285Y-79954761D01*
X154511428Y-79811904D01*
X154416190Y-79764285D01*
X154320952Y-79764285D01*
X154368571Y-80002380D02*
X154273333Y-79954761D01*
X154178095Y-79859523D01*
X154130476Y-79669047D01*
X154130476Y-79335714D01*
X154178095Y-79145238D01*
X154273333Y-79050000D01*
X154368571Y-79002380D01*
X154559047Y-79002380D01*
X154654285Y-79050000D01*
X154749523Y-79145238D01*
X154797142Y-79335714D01*
X154797142Y-79669047D01*
X154749523Y-79859523D01*
X154654285Y-79954761D01*
X154559047Y-80002380D01*
X154368571Y-80002380D01*
X155701904Y-79002380D02*
X155225714Y-79002380D01*
X155178095Y-79478571D01*
X155225714Y-79430952D01*
X155320952Y-79383333D01*
X155559047Y-79383333D01*
X155654285Y-79430952D01*
X155701904Y-79478571D01*
X155749523Y-79573809D01*
X155749523Y-79811904D01*
X155701904Y-79907142D01*
X155654285Y-79954761D01*
X155559047Y-80002380D01*
X155320952Y-80002380D01*
X155225714Y-79954761D01*
X155178095Y-79907142D01*
X170084761Y-80097619D02*
X169989523Y-80050000D01*
X169894285Y-79954761D01*
X169751428Y-79811904D01*
X169656190Y-79764285D01*
X169560952Y-79764285D01*
X169608571Y-80002380D02*
X169513333Y-79954761D01*
X169418095Y-79859523D01*
X169370476Y-79669047D01*
X169370476Y-79335714D01*
X169418095Y-79145238D01*
X169513333Y-79050000D01*
X169608571Y-79002380D01*
X169799047Y-79002380D01*
X169894285Y-79050000D01*
X169989523Y-79145238D01*
X170037142Y-79335714D01*
X170037142Y-79669047D01*
X169989523Y-79859523D01*
X169894285Y-79954761D01*
X169799047Y-80002380D01*
X169608571Y-80002380D01*
X170894285Y-79002380D02*
X170703809Y-79002380D01*
X170608571Y-79050000D01*
X170560952Y-79097619D01*
X170465714Y-79240476D01*
X170418095Y-79430952D01*
X170418095Y-79811904D01*
X170465714Y-79907142D01*
X170513333Y-79954761D01*
X170608571Y-80002380D01*
X170799047Y-80002380D01*
X170894285Y-79954761D01*
X170941904Y-79907142D01*
X170989523Y-79811904D01*
X170989523Y-79573809D01*
X170941904Y-79478571D01*
X170894285Y-79430952D01*
X170799047Y-79383333D01*
X170608571Y-79383333D01*
X170513333Y-79430952D01*
X170465714Y-79478571D01*
X170418095Y-79573809D01*
X76477142Y-67456666D02*
X76524761Y-67504285D01*
X76572380Y-67647142D01*
X76572380Y-67742380D01*
X76524761Y-67885238D01*
X76429523Y-67980476D01*
X76334285Y-68028095D01*
X76143809Y-68075714D01*
X76000952Y-68075714D01*
X75810476Y-68028095D01*
X75715238Y-67980476D01*
X75620000Y-67885238D01*
X75572380Y-67742380D01*
X75572380Y-67647142D01*
X75620000Y-67504285D01*
X75667619Y-67456666D01*
X76572380Y-66504285D02*
X76572380Y-67075714D01*
X76572380Y-66790000D02*
X75572380Y-66790000D01*
X75715238Y-66885238D01*
X75810476Y-66980476D01*
X75858095Y-67075714D01*
X158583333Y-99682380D02*
X158250000Y-99206190D01*
X158011904Y-99682380D02*
X158011904Y-98682380D01*
X158392857Y-98682380D01*
X158488095Y-98730000D01*
X158535714Y-98777619D01*
X158583333Y-98872857D01*
X158583333Y-99015714D01*
X158535714Y-99110952D01*
X158488095Y-99158571D01*
X158392857Y-99206190D01*
X158011904Y-99206190D01*
X158916666Y-98682380D02*
X159535714Y-98682380D01*
X159202380Y-99063333D01*
X159345238Y-99063333D01*
X159440476Y-99110952D01*
X159488095Y-99158571D01*
X159535714Y-99253809D01*
X159535714Y-99491904D01*
X159488095Y-99587142D01*
X159440476Y-99634761D01*
X159345238Y-99682380D01*
X159059523Y-99682380D01*
X158964285Y-99634761D01*
X158916666Y-99587142D01*
X171283333Y-114582380D02*
X170950000Y-114106190D01*
X170711904Y-114582380D02*
X170711904Y-113582380D01*
X171092857Y-113582380D01*
X171188095Y-113630000D01*
X171235714Y-113677619D01*
X171283333Y-113772857D01*
X171283333Y-113915714D01*
X171235714Y-114010952D01*
X171188095Y-114058571D01*
X171092857Y-114106190D01*
X170711904Y-114106190D01*
X172140476Y-113582380D02*
X171950000Y-113582380D01*
X171854761Y-113630000D01*
X171807142Y-113677619D01*
X171711904Y-113820476D01*
X171664285Y-114010952D01*
X171664285Y-114391904D01*
X171711904Y-114487142D01*
X171759523Y-114534761D01*
X171854761Y-114582380D01*
X172045238Y-114582380D01*
X172140476Y-114534761D01*
X172188095Y-114487142D01*
X172235714Y-114391904D01*
X172235714Y-114153809D01*
X172188095Y-114058571D01*
X172140476Y-114010952D01*
X172045238Y-113963333D01*
X171854761Y-113963333D01*
X171759523Y-114010952D01*
X171711904Y-114058571D01*
X171664285Y-114153809D01*
X160642380Y-115736666D02*
X160166190Y-116070000D01*
X160642380Y-116308095D02*
X159642380Y-116308095D01*
X159642380Y-115927142D01*
X159690000Y-115831904D01*
X159737619Y-115784285D01*
X159832857Y-115736666D01*
X159975714Y-115736666D01*
X160070952Y-115784285D01*
X160118571Y-115831904D01*
X160166190Y-115927142D01*
X160166190Y-116308095D01*
X159642380Y-115403333D02*
X159642380Y-114736666D01*
X160642380Y-115165238D01*
X173823333Y-92062380D02*
X173490000Y-91586190D01*
X173251904Y-92062380D02*
X173251904Y-91062380D01*
X173632857Y-91062380D01*
X173728095Y-91110000D01*
X173775714Y-91157619D01*
X173823333Y-91252857D01*
X173823333Y-91395714D01*
X173775714Y-91490952D01*
X173728095Y-91538571D01*
X173632857Y-91586190D01*
X173251904Y-91586190D01*
X174728095Y-91062380D02*
X174251904Y-91062380D01*
X174204285Y-91538571D01*
X174251904Y-91490952D01*
X174347142Y-91443333D01*
X174585238Y-91443333D01*
X174680476Y-91490952D01*
X174728095Y-91538571D01*
X174775714Y-91633809D01*
X174775714Y-91871904D01*
X174728095Y-91967142D01*
X174680476Y-92014761D01*
X174585238Y-92062380D01*
X174347142Y-92062380D01*
X174251904Y-92014761D01*
X174204285Y-91967142D01*
X150482380Y-115736666D02*
X150006190Y-116070000D01*
X150482380Y-116308095D02*
X149482380Y-116308095D01*
X149482380Y-115927142D01*
X149530000Y-115831904D01*
X149577619Y-115784285D01*
X149672857Y-115736666D01*
X149815714Y-115736666D01*
X149910952Y-115784285D01*
X149958571Y-115831904D01*
X150006190Y-115927142D01*
X150006190Y-116308095D01*
X149577619Y-115355714D02*
X149530000Y-115308095D01*
X149482380Y-115212857D01*
X149482380Y-114974761D01*
X149530000Y-114879523D01*
X149577619Y-114831904D01*
X149672857Y-114784285D01*
X149768095Y-114784285D01*
X149910952Y-114831904D01*
X150482380Y-115403333D01*
X150482380Y-114784285D01*
X162464761Y-98087619D02*
X162369523Y-98040000D01*
X162274285Y-97944761D01*
X162131428Y-97801904D01*
X162036190Y-97754285D01*
X161940952Y-97754285D01*
X161988571Y-97992380D02*
X161893333Y-97944761D01*
X161798095Y-97849523D01*
X161750476Y-97659047D01*
X161750476Y-97325714D01*
X161798095Y-97135238D01*
X161893333Y-97040000D01*
X161988571Y-96992380D01*
X162179047Y-96992380D01*
X162274285Y-97040000D01*
X162369523Y-97135238D01*
X162417142Y-97325714D01*
X162417142Y-97659047D01*
X162369523Y-97849523D01*
X162274285Y-97944761D01*
X162179047Y-97992380D01*
X161988571Y-97992380D01*
X163369523Y-97992380D02*
X162798095Y-97992380D01*
X163083809Y-97992380D02*
X163083809Y-96992380D01*
X162988571Y-97135238D01*
X162893333Y-97230476D01*
X162798095Y-97278095D01*
X150963333Y-96802380D02*
X150630000Y-96326190D01*
X150391904Y-96802380D02*
X150391904Y-95802380D01*
X150772857Y-95802380D01*
X150868095Y-95850000D01*
X150915714Y-95897619D01*
X150963333Y-95992857D01*
X150963333Y-96135714D01*
X150915714Y-96230952D01*
X150868095Y-96278571D01*
X150772857Y-96326190D01*
X150391904Y-96326190D01*
X151820476Y-96135714D02*
X151820476Y-96802380D01*
X151582380Y-95754761D02*
X151344285Y-96469047D01*
X151963333Y-96469047D01*
X154844761Y-67397619D02*
X154749523Y-67350000D01*
X154654285Y-67254761D01*
X154511428Y-67111904D01*
X154416190Y-67064285D01*
X154320952Y-67064285D01*
X154368571Y-67302380D02*
X154273333Y-67254761D01*
X154178095Y-67159523D01*
X154130476Y-66969047D01*
X154130476Y-66635714D01*
X154178095Y-66445238D01*
X154273333Y-66350000D01*
X154368571Y-66302380D01*
X154559047Y-66302380D01*
X154654285Y-66350000D01*
X154749523Y-66445238D01*
X154797142Y-66635714D01*
X154797142Y-66969047D01*
X154749523Y-67159523D01*
X154654285Y-67254761D01*
X154559047Y-67302380D01*
X154368571Y-67302380D01*
X155178095Y-66397619D02*
X155225714Y-66350000D01*
X155320952Y-66302380D01*
X155559047Y-66302380D01*
X155654285Y-66350000D01*
X155701904Y-66397619D01*
X155749523Y-66492857D01*
X155749523Y-66588095D01*
X155701904Y-66730952D01*
X155130476Y-67302380D01*
X155749523Y-67302380D01*
X105092380Y-64309523D02*
X104092380Y-64309523D01*
X104806666Y-63976190D01*
X104092380Y-63642857D01*
X105092380Y-63642857D01*
X105092380Y-62642857D02*
X105092380Y-63214285D01*
X105092380Y-62928571D02*
X104092380Y-62928571D01*
X104235238Y-63023809D01*
X104330476Y-63119047D01*
X104378095Y-63214285D01*
X92781428Y-68960952D02*
X92781428Y-68199047D01*
X93162380Y-68580000D02*
X92400476Y-68580000D01*
X92781428Y-71500952D02*
X92781428Y-70739047D01*
X124412380Y-64309523D02*
X123412380Y-64309523D01*
X124126666Y-63976190D01*
X123412380Y-63642857D01*
X124412380Y-63642857D01*
X123507619Y-63214285D02*
X123460000Y-63166666D01*
X123412380Y-63071428D01*
X123412380Y-62833333D01*
X123460000Y-62738095D01*
X123507619Y-62690476D01*
X123602857Y-62642857D01*
X123698095Y-62642857D01*
X123840952Y-62690476D01*
X124412380Y-63261904D01*
X124412380Y-62642857D01*
X135961428Y-58800952D02*
X135961428Y-58039047D01*
X136342380Y-58420000D02*
X135580476Y-58420000D01*
X135961428Y-56260952D02*
X135961428Y-55499047D01*
X161369523Y-60202380D02*
X161369523Y-59202380D01*
X161750476Y-59202380D01*
X161845714Y-59250000D01*
X161893333Y-59297619D01*
X161940952Y-59392857D01*
X161940952Y-59535714D01*
X161893333Y-59630952D01*
X161845714Y-59678571D01*
X161750476Y-59726190D01*
X161369523Y-59726190D01*
X162369523Y-59678571D02*
X162702857Y-59678571D01*
X162845714Y-60202380D02*
X162369523Y-60202380D01*
X162369523Y-59202380D01*
X162845714Y-59202380D01*
X163798095Y-60202380D02*
X163226666Y-60202380D01*
X163512380Y-60202380D02*
X163512380Y-59202380D01*
X163417142Y-59345238D01*
X163321904Y-59440476D01*
X163226666Y-59488095D01*
X98498095Y-50212380D02*
X99069523Y-50212380D01*
X98783809Y-51212380D02*
X98783809Y-50212380D01*
X99402857Y-51212380D02*
X99402857Y-50212380D01*
X99783809Y-50212380D01*
X99879047Y-50260000D01*
X99926666Y-50307619D01*
X99974285Y-50402857D01*
X99974285Y-50545714D01*
X99926666Y-50640952D01*
X99879047Y-50688571D01*
X99783809Y-50736190D01*
X99402857Y-50736190D01*
X100879047Y-50212380D02*
X100402857Y-50212380D01*
X100355238Y-50688571D01*
X100402857Y-50640952D01*
X100498095Y-50593333D01*
X100736190Y-50593333D01*
X100831428Y-50640952D01*
X100879047Y-50688571D01*
X100926666Y-50783809D01*
X100926666Y-51021904D01*
X100879047Y-51117142D01*
X100831428Y-51164761D01*
X100736190Y-51212380D01*
X100498095Y-51212380D01*
X100402857Y-51164761D01*
X100355238Y-51117142D01*
X100632380Y-126468095D02*
X99632380Y-126468095D01*
X99632380Y-126230000D01*
X99680000Y-126087142D01*
X99775238Y-125991904D01*
X99870476Y-125944285D01*
X100060952Y-125896666D01*
X100203809Y-125896666D01*
X100394285Y-125944285D01*
X100489523Y-125991904D01*
X100584761Y-126087142D01*
X100632380Y-126230000D01*
X100632380Y-126468095D01*
X99632380Y-124991904D02*
X99632380Y-125468095D01*
X100108571Y-125515714D01*
X100060952Y-125468095D01*
X100013333Y-125372857D01*
X100013333Y-125134761D01*
X100060952Y-125039523D01*
X100108571Y-124991904D01*
X100203809Y-124944285D01*
X100441904Y-124944285D01*
X100537142Y-124991904D01*
X100584761Y-125039523D01*
X100632380Y-125134761D01*
X100632380Y-125372857D01*
X100584761Y-125468095D01*
X100537142Y-125515714D01*
X120952380Y-126468095D02*
X119952380Y-126468095D01*
X119952380Y-126230000D01*
X120000000Y-126087142D01*
X120095238Y-125991904D01*
X120190476Y-125944285D01*
X120380952Y-125896666D01*
X120523809Y-125896666D01*
X120714285Y-125944285D01*
X120809523Y-125991904D01*
X120904761Y-126087142D01*
X120952380Y-126230000D01*
X120952380Y-126468095D01*
X119952380Y-125563333D02*
X119952380Y-124896666D01*
X120952380Y-125325238D01*
X75877142Y-82696666D02*
X75924761Y-82744285D01*
X75972380Y-82887142D01*
X75972380Y-82982380D01*
X75924761Y-83125238D01*
X75829523Y-83220476D01*
X75734285Y-83268095D01*
X75543809Y-83315714D01*
X75400952Y-83315714D01*
X75210476Y-83268095D01*
X75115238Y-83220476D01*
X75020000Y-83125238D01*
X74972380Y-82982380D01*
X74972380Y-82887142D01*
X75020000Y-82744285D01*
X75067619Y-82696666D01*
X74972380Y-82363333D02*
X74972380Y-81744285D01*
X75353333Y-82077619D01*
X75353333Y-81934761D01*
X75400952Y-81839523D01*
X75448571Y-81791904D01*
X75543809Y-81744285D01*
X75781904Y-81744285D01*
X75877142Y-81791904D01*
X75924761Y-81839523D01*
X75972380Y-81934761D01*
X75972380Y-82220476D01*
X75924761Y-82315714D01*
X75877142Y-82363333D01*
X137442380Y-117482857D02*
X136966190Y-117816190D01*
X137442380Y-118054285D02*
X136442380Y-118054285D01*
X136442380Y-117673333D01*
X136490000Y-117578095D01*
X136537619Y-117530476D01*
X136632857Y-117482857D01*
X136775714Y-117482857D01*
X136870952Y-117530476D01*
X136918571Y-117578095D01*
X136966190Y-117673333D01*
X136966190Y-118054285D01*
X137442380Y-116530476D02*
X137442380Y-117101904D01*
X137442380Y-116816190D02*
X136442380Y-116816190D01*
X136585238Y-116911428D01*
X136680476Y-117006666D01*
X136728095Y-117101904D01*
X136442380Y-116197142D02*
X136442380Y-115578095D01*
X136823333Y-115911428D01*
X136823333Y-115768571D01*
X136870952Y-115673333D01*
X136918571Y-115625714D01*
X137013809Y-115578095D01*
X137251904Y-115578095D01*
X137347142Y-115625714D01*
X137394761Y-115673333D01*
X137442380Y-115768571D01*
X137442380Y-116054285D01*
X137394761Y-116149523D01*
X137347142Y-116197142D01*
X106962380Y-117006666D02*
X106486190Y-117340000D01*
X106962380Y-117578095D02*
X105962380Y-117578095D01*
X105962380Y-117197142D01*
X106010000Y-117101904D01*
X106057619Y-117054285D01*
X106152857Y-117006666D01*
X106295714Y-117006666D01*
X106390952Y-117054285D01*
X106438571Y-117101904D01*
X106486190Y-117197142D01*
X106486190Y-117578095D01*
X106962380Y-116530476D02*
X106962380Y-116340000D01*
X106914761Y-116244761D01*
X106867142Y-116197142D01*
X106724285Y-116101904D01*
X106533809Y-116054285D01*
X106152857Y-116054285D01*
X106057619Y-116101904D01*
X106010000Y-116149523D01*
X105962380Y-116244761D01*
X105962380Y-116435238D01*
X106010000Y-116530476D01*
X106057619Y-116578095D01*
X106152857Y-116625714D01*
X106390952Y-116625714D01*
X106486190Y-116578095D01*
X106533809Y-116530476D01*
X106581428Y-116435238D01*
X106581428Y-116244761D01*
X106533809Y-116149523D01*
X106486190Y-116101904D01*
X106390952Y-116054285D01*
X46662380Y-102351904D02*
X47471904Y-102351904D01*
X47567142Y-102304285D01*
X47614761Y-102256666D01*
X47662380Y-102161428D01*
X47662380Y-101970952D01*
X47614761Y-101875714D01*
X47567142Y-101828095D01*
X47471904Y-101780476D01*
X46662380Y-101780476D01*
X47662380Y-100780476D02*
X47662380Y-101351904D01*
X47662380Y-101066190D02*
X46662380Y-101066190D01*
X46805238Y-101161428D01*
X46900476Y-101256666D01*
X46948095Y-101351904D01*
X142335238Y-123126666D02*
X142287619Y-123269523D01*
X142287619Y-123507619D01*
X142335238Y-123602857D01*
X142382857Y-123650476D01*
X142478095Y-123698095D01*
X142573333Y-123698095D01*
X142668571Y-123650476D01*
X142716190Y-123602857D01*
X142763809Y-123507619D01*
X142811428Y-123317142D01*
X142859047Y-123221904D01*
X142906666Y-123174285D01*
X143001904Y-123126666D01*
X143097142Y-123126666D01*
X143192380Y-123174285D01*
X143240000Y-123221904D01*
X143287619Y-123317142D01*
X143287619Y-123555238D01*
X143240000Y-123698095D01*
X143287619Y-124031428D02*
X142287619Y-124269523D01*
X143001904Y-124460000D01*
X142287619Y-124650476D01*
X143287619Y-124888571D01*
X142287619Y-125793333D02*
X142287619Y-125221904D01*
X142287619Y-125507619D02*
X143287619Y-125507619D01*
X143144761Y-125412380D01*
X143049523Y-125317142D01*
X143001904Y-125221904D01*
X70477142Y-109842380D02*
X70143809Y-109366190D01*
X69905714Y-109842380D02*
X69905714Y-108842380D01*
X70286666Y-108842380D01*
X70381904Y-108890000D01*
X70429523Y-108937619D01*
X70477142Y-109032857D01*
X70477142Y-109175714D01*
X70429523Y-109270952D01*
X70381904Y-109318571D01*
X70286666Y-109366190D01*
X69905714Y-109366190D01*
X71429523Y-109842380D02*
X70858095Y-109842380D01*
X71143809Y-109842380D02*
X71143809Y-108842380D01*
X71048571Y-108985238D01*
X70953333Y-109080476D01*
X70858095Y-109128095D01*
X72048571Y-108842380D02*
X72143809Y-108842380D01*
X72239047Y-108890000D01*
X72286666Y-108937619D01*
X72334285Y-109032857D01*
X72381904Y-109223333D01*
X72381904Y-109461428D01*
X72334285Y-109651904D01*
X72286666Y-109747142D01*
X72239047Y-109794761D01*
X72143809Y-109842380D01*
X72048571Y-109842380D01*
X71953333Y-109794761D01*
X71905714Y-109747142D01*
X71858095Y-109651904D01*
X71810476Y-109461428D01*
X71810476Y-109223333D01*
X71858095Y-109032857D01*
X71905714Y-108937619D01*
X71953333Y-108890000D01*
X72048571Y-108842380D01*
X90472380Y-126468095D02*
X89472380Y-126468095D01*
X89472380Y-126230000D01*
X89520000Y-126087142D01*
X89615238Y-125991904D01*
X89710476Y-125944285D01*
X89900952Y-125896666D01*
X90043809Y-125896666D01*
X90234285Y-125944285D01*
X90329523Y-125991904D01*
X90424761Y-126087142D01*
X90472380Y-126230000D01*
X90472380Y-126468095D01*
X89805714Y-125039523D02*
X90472380Y-125039523D01*
X89424761Y-125277619D02*
X90139047Y-125515714D01*
X90139047Y-124896666D01*
X105418095Y-50252380D02*
X105989523Y-50252380D01*
X105703809Y-51252380D02*
X105703809Y-50252380D01*
X106322857Y-51252380D02*
X106322857Y-50252380D01*
X106703809Y-50252380D01*
X106799047Y-50300000D01*
X106846666Y-50347619D01*
X106894285Y-50442857D01*
X106894285Y-50585714D01*
X106846666Y-50680952D01*
X106799047Y-50728571D01*
X106703809Y-50776190D01*
X106322857Y-50776190D01*
X107846666Y-51252380D02*
X107275238Y-51252380D01*
X107560952Y-51252380D02*
X107560952Y-50252380D01*
X107465714Y-50395238D01*
X107370476Y-50490476D01*
X107275238Y-50538095D01*
X136598095Y-50212380D02*
X137169523Y-50212380D01*
X136883809Y-51212380D02*
X136883809Y-50212380D01*
X137502857Y-51212380D02*
X137502857Y-50212380D01*
X137883809Y-50212380D01*
X137979047Y-50260000D01*
X138026666Y-50307619D01*
X138074285Y-50402857D01*
X138074285Y-50545714D01*
X138026666Y-50640952D01*
X137979047Y-50688571D01*
X137883809Y-50736190D01*
X137502857Y-50736190D01*
X138407619Y-50212380D02*
X139026666Y-50212380D01*
X138693333Y-50593333D01*
X138836190Y-50593333D01*
X138931428Y-50640952D01*
X138979047Y-50688571D01*
X139026666Y-50783809D01*
X139026666Y-51021904D01*
X138979047Y-51117142D01*
X138931428Y-51164761D01*
X138836190Y-51212380D01*
X138550476Y-51212380D01*
X138455238Y-51164761D01*
X138407619Y-51117142D01*
X127282380Y-117482857D02*
X126806190Y-117816190D01*
X127282380Y-118054285D02*
X126282380Y-118054285D01*
X126282380Y-117673333D01*
X126330000Y-117578095D01*
X126377619Y-117530476D01*
X126472857Y-117482857D01*
X126615714Y-117482857D01*
X126710952Y-117530476D01*
X126758571Y-117578095D01*
X126806190Y-117673333D01*
X126806190Y-118054285D01*
X127282380Y-116530476D02*
X127282380Y-117101904D01*
X127282380Y-116816190D02*
X126282380Y-116816190D01*
X126425238Y-116911428D01*
X126520476Y-117006666D01*
X126568095Y-117101904D01*
X126377619Y-116149523D02*
X126330000Y-116101904D01*
X126282380Y-116006666D01*
X126282380Y-115768571D01*
X126330000Y-115673333D01*
X126377619Y-115625714D01*
X126472857Y-115578095D01*
X126568095Y-115578095D01*
X126710952Y-115625714D01*
X127282380Y-116197142D01*
X127282380Y-115578095D01*
X64623333Y-131757142D02*
X64575714Y-131804761D01*
X64432857Y-131852380D01*
X64337619Y-131852380D01*
X64194761Y-131804761D01*
X64099523Y-131709523D01*
X64051904Y-131614285D01*
X64004285Y-131423809D01*
X64004285Y-131280952D01*
X64051904Y-131090476D01*
X64099523Y-130995238D01*
X64194761Y-130900000D01*
X64337619Y-130852380D01*
X64432857Y-130852380D01*
X64575714Y-130900000D01*
X64623333Y-130947619D01*
X65480476Y-131185714D02*
X65480476Y-131852380D01*
X65242380Y-130804761D02*
X65004285Y-131519047D01*
X65623333Y-131519047D01*
X60793333Y-94262380D02*
X60460000Y-93786190D01*
X60221904Y-94262380D02*
X60221904Y-93262380D01*
X60602857Y-93262380D01*
X60698095Y-93310000D01*
X60745714Y-93357619D01*
X60793333Y-93452857D01*
X60793333Y-93595714D01*
X60745714Y-93690952D01*
X60698095Y-93738571D01*
X60602857Y-93786190D01*
X60221904Y-93786190D01*
X61745714Y-94262380D02*
X61174285Y-94262380D01*
X61460000Y-94262380D02*
X61460000Y-93262380D01*
X61364761Y-93405238D01*
X61269523Y-93500476D01*
X61174285Y-93548095D01*
X117122380Y-117482857D02*
X116646190Y-117816190D01*
X117122380Y-118054285D02*
X116122380Y-118054285D01*
X116122380Y-117673333D01*
X116170000Y-117578095D01*
X116217619Y-117530476D01*
X116312857Y-117482857D01*
X116455714Y-117482857D01*
X116550952Y-117530476D01*
X116598571Y-117578095D01*
X116646190Y-117673333D01*
X116646190Y-118054285D01*
X117122380Y-116530476D02*
X117122380Y-117101904D01*
X117122380Y-116816190D02*
X116122380Y-116816190D01*
X116265238Y-116911428D01*
X116360476Y-117006666D01*
X116408095Y-117101904D01*
X117122380Y-115578095D02*
X117122380Y-116149523D01*
X117122380Y-115863809D02*
X116122380Y-115863809D01*
X116265238Y-115959047D01*
X116360476Y-116054285D01*
X116408095Y-116149523D01*
X144218095Y-50212380D02*
X144789523Y-50212380D01*
X144503809Y-51212380D02*
X144503809Y-50212380D01*
X145122857Y-51212380D02*
X145122857Y-50212380D01*
X145503809Y-50212380D01*
X145599047Y-50260000D01*
X145646666Y-50307619D01*
X145694285Y-50402857D01*
X145694285Y-50545714D01*
X145646666Y-50640952D01*
X145599047Y-50688571D01*
X145503809Y-50736190D01*
X145122857Y-50736190D01*
X146551428Y-50545714D02*
X146551428Y-51212380D01*
X146313333Y-50164761D02*
X146075238Y-50879047D01*
X146694285Y-50879047D01*
X110792380Y-126468095D02*
X109792380Y-126468095D01*
X109792380Y-126230000D01*
X109840000Y-126087142D01*
X109935238Y-125991904D01*
X110030476Y-125944285D01*
X110220952Y-125896666D01*
X110363809Y-125896666D01*
X110554285Y-125944285D01*
X110649523Y-125991904D01*
X110744761Y-126087142D01*
X110792380Y-126230000D01*
X110792380Y-126468095D01*
X109792380Y-125039523D02*
X109792380Y-125230000D01*
X109840000Y-125325238D01*
X109887619Y-125372857D01*
X110030476Y-125468095D01*
X110220952Y-125515714D01*
X110601904Y-125515714D01*
X110697142Y-125468095D01*
X110744761Y-125420476D01*
X110792380Y-125325238D01*
X110792380Y-125134761D01*
X110744761Y-125039523D01*
X110697142Y-124991904D01*
X110601904Y-124944285D01*
X110363809Y-124944285D01*
X110268571Y-124991904D01*
X110220952Y-125039523D01*
X110173333Y-125134761D01*
X110173333Y-125325238D01*
X110220952Y-125420476D01*
X110268571Y-125468095D01*
X110363809Y-125515714D01*
X131112380Y-126468095D02*
X130112380Y-126468095D01*
X130112380Y-126230000D01*
X130160000Y-126087142D01*
X130255238Y-125991904D01*
X130350476Y-125944285D01*
X130540952Y-125896666D01*
X130683809Y-125896666D01*
X130874285Y-125944285D01*
X130969523Y-125991904D01*
X131064761Y-126087142D01*
X131112380Y-126230000D01*
X131112380Y-126468095D01*
X130540952Y-125325238D02*
X130493333Y-125420476D01*
X130445714Y-125468095D01*
X130350476Y-125515714D01*
X130302857Y-125515714D01*
X130207619Y-125468095D01*
X130160000Y-125420476D01*
X130112380Y-125325238D01*
X130112380Y-125134761D01*
X130160000Y-125039523D01*
X130207619Y-124991904D01*
X130302857Y-124944285D01*
X130350476Y-124944285D01*
X130445714Y-124991904D01*
X130493333Y-125039523D01*
X130540952Y-125134761D01*
X130540952Y-125325238D01*
X130588571Y-125420476D01*
X130636190Y-125468095D01*
X130731428Y-125515714D01*
X130921904Y-125515714D01*
X131017142Y-125468095D01*
X131064761Y-125420476D01*
X131112380Y-125325238D01*
X131112380Y-125134761D01*
X131064761Y-125039523D01*
X131017142Y-124991904D01*
X130921904Y-124944285D01*
X130731428Y-124944285D01*
X130636190Y-124991904D01*
X130588571Y-125039523D01*
X130540952Y-125134761D01*
D14*
X51340714Y-67517380D02*
X51340714Y-66517380D01*
X51721666Y-66517380D01*
X51816904Y-66565000D01*
X51864523Y-66612619D01*
X51912142Y-66707857D01*
X51912142Y-66850714D01*
X51864523Y-66945952D01*
X51816904Y-66993571D01*
X51721666Y-67041190D01*
X51340714Y-67041190D01*
X52293095Y-67469761D02*
X52435952Y-67517380D01*
X52674047Y-67517380D01*
X52769285Y-67469761D01*
X52816904Y-67422142D01*
X52864523Y-67326904D01*
X52864523Y-67231666D01*
X52816904Y-67136428D01*
X52769285Y-67088809D01*
X52674047Y-67041190D01*
X52483571Y-66993571D01*
X52388333Y-66945952D01*
X52340714Y-66898333D01*
X52293095Y-66803095D01*
X52293095Y-66707857D01*
X52340714Y-66612619D01*
X52388333Y-66565000D01*
X52483571Y-66517380D01*
X52721666Y-66517380D01*
X52864523Y-66565000D01*
X53816904Y-67517380D02*
X53245476Y-67517380D01*
X53531190Y-67517380D02*
X53531190Y-66517380D01*
X53435952Y-66660238D01*
X53340714Y-66755476D01*
X53245476Y-66803095D01*
D11*
X70743809Y-122881190D02*
X70743809Y-123357380D01*
X70410476Y-122357380D02*
X70743809Y-122881190D01*
X71077142Y-122357380D01*
X71934285Y-123357380D02*
X71362857Y-123357380D01*
X71648571Y-123357380D02*
X71648571Y-122357380D01*
X71553333Y-122500238D01*
X71458095Y-122595476D01*
X71362857Y-122643095D01*
X86455238Y-123126666D02*
X86407619Y-123269523D01*
X86407619Y-123507619D01*
X86455238Y-123602857D01*
X86502857Y-123650476D01*
X86598095Y-123698095D01*
X86693333Y-123698095D01*
X86788571Y-123650476D01*
X86836190Y-123602857D01*
X86883809Y-123507619D01*
X86931428Y-123317142D01*
X86979047Y-123221904D01*
X87026666Y-123174285D01*
X87121904Y-123126666D01*
X87217142Y-123126666D01*
X87312380Y-123174285D01*
X87360000Y-123221904D01*
X87407619Y-123317142D01*
X87407619Y-123555238D01*
X87360000Y-123698095D01*
X87407619Y-124031428D02*
X86407619Y-124269523D01*
X87121904Y-124460000D01*
X86407619Y-124650476D01*
X87407619Y-124888571D01*
X87312380Y-125221904D02*
X87360000Y-125269523D01*
X87407619Y-125364761D01*
X87407619Y-125602857D01*
X87360000Y-125698095D01*
X87312380Y-125745714D01*
X87217142Y-125793333D01*
X87121904Y-125793333D01*
X86979047Y-125745714D01*
X86407619Y-125174285D01*
X86407619Y-125793333D01*
X113738095Y-50212380D02*
X114309523Y-50212380D01*
X114023809Y-51212380D02*
X114023809Y-50212380D01*
X114642857Y-51212380D02*
X114642857Y-50212380D01*
X115023809Y-50212380D01*
X115119047Y-50260000D01*
X115166666Y-50307619D01*
X115214285Y-50402857D01*
X115214285Y-50545714D01*
X115166666Y-50640952D01*
X115119047Y-50688571D01*
X115023809Y-50736190D01*
X114642857Y-50736190D01*
X115595238Y-50307619D02*
X115642857Y-50260000D01*
X115738095Y-50212380D01*
X115976190Y-50212380D01*
X116071428Y-50260000D01*
X116119047Y-50307619D01*
X116166666Y-50402857D01*
X116166666Y-50498095D01*
X116119047Y-50640952D01*
X115547619Y-51212380D01*
X116166666Y-51212380D01*
X74783333Y-131757142D02*
X74735714Y-131804761D01*
X74592857Y-131852380D01*
X74497619Y-131852380D01*
X74354761Y-131804761D01*
X74259523Y-131709523D01*
X74211904Y-131614285D01*
X74164285Y-131423809D01*
X74164285Y-131280952D01*
X74211904Y-131090476D01*
X74259523Y-130995238D01*
X74354761Y-130900000D01*
X74497619Y-130852380D01*
X74592857Y-130852380D01*
X74735714Y-130900000D01*
X74783333Y-130947619D01*
X75688095Y-130852380D02*
X75211904Y-130852380D01*
X75164285Y-131328571D01*
X75211904Y-131280952D01*
X75307142Y-131233333D01*
X75545238Y-131233333D01*
X75640476Y-131280952D01*
X75688095Y-131328571D01*
X75735714Y-131423809D01*
X75735714Y-131661904D01*
X75688095Y-131757142D01*
X75640476Y-131804761D01*
X75545238Y-131852380D01*
X75307142Y-131852380D01*
X75211904Y-131804761D01*
X75164285Y-131757142D01*
X96802380Y-117006666D02*
X96326190Y-117340000D01*
X96802380Y-117578095D02*
X95802380Y-117578095D01*
X95802380Y-117197142D01*
X95850000Y-117101904D01*
X95897619Y-117054285D01*
X95992857Y-117006666D01*
X96135714Y-117006666D01*
X96230952Y-117054285D01*
X96278571Y-117101904D01*
X96326190Y-117197142D01*
X96326190Y-117578095D01*
X96230952Y-116435238D02*
X96183333Y-116530476D01*
X96135714Y-116578095D01*
X96040476Y-116625714D01*
X95992857Y-116625714D01*
X95897619Y-116578095D01*
X95850000Y-116530476D01*
X95802380Y-116435238D01*
X95802380Y-116244761D01*
X95850000Y-116149523D01*
X95897619Y-116101904D01*
X95992857Y-116054285D01*
X96040476Y-116054285D01*
X96135714Y-116101904D01*
X96183333Y-116149523D01*
X96230952Y-116244761D01*
X96230952Y-116435238D01*
X96278571Y-116530476D01*
X96326190Y-116578095D01*
X96421428Y-116625714D01*
X96611904Y-116625714D01*
X96707142Y-116578095D01*
X96754761Y-116530476D01*
X96802380Y-116435238D01*
X96802380Y-116244761D01*
X96754761Y-116149523D01*
X96707142Y-116101904D01*
X96611904Y-116054285D01*
X96421428Y-116054285D01*
X96326190Y-116101904D01*
X96278571Y-116149523D01*
X96230952Y-116244761D01*
D15*
X170920000Y-103450000D02*
X174520000Y-103450000D01*
X170395816Y-102722795D02*
G75*
G03*
X170920000Y-103450000I2324184J1122795D01*
G01*
X174520000Y-103450000D02*
G75*
G03*
X175044184Y-102722795I-1800000J1850000D01*
G01*
X172720000Y-99000000D02*
G75*
G03*
X170363600Y-100501193I0J-2600000D01*
G01*
X175076400Y-100501193D02*
G75*
G03*
X172720000Y-99000000I-2356400J-1098807D01*
G01*
X62980000Y-60960000D02*
G75*
G03*
X62980000Y-60960000I-3270000J0D01*
G01*
X46970000Y-89895000D02*
X46970000Y-92985000D01*
X52520000Y-91440462D02*
G75*
G03*
X46970000Y-89895170I-2990000J462D01*
G01*
X46970000Y-92984830D02*
G75*
G03*
X52520000Y-91439538I2560000J1544830D01*
G01*
X52030000Y-91440000D02*
G75*
G03*
X52030000Y-91440000I-2500000J0D01*
G01*
X150855000Y-128290000D02*
X153945000Y-128290000D01*
X153944830Y-128290000D02*
G75*
G03*
X152399538Y-122740000I-1544830J2560000D01*
G01*
X152400462Y-122740000D02*
G75*
G03*
X150855170Y-128290000I-462J-2990000D01*
G01*
X154900000Y-125730000D02*
G75*
G03*
X154900000Y-125730000I-2500000J0D01*
G01*
X161015000Y-128290000D02*
X164105000Y-128290000D01*
X162560462Y-122740000D02*
G75*
G03*
X161015170Y-128290000I-462J-2990000D01*
G01*
X164104830Y-128290000D02*
G75*
G03*
X162559538Y-122740000I-1544830J2560000D01*
G01*
X165060000Y-125730000D02*
G75*
G03*
X165060000Y-125730000I-2500000J0D01*
G01*
X61440000Y-54240000D02*
X61440000Y-52340000D01*
X61440000Y-48340000D02*
X61440000Y-39540000D01*
X69790000Y-54440000D02*
X70840000Y-54440000D01*
X70640000Y-39540000D02*
X70640000Y-54240000D01*
X70840000Y-53390000D02*
X70840000Y-54440000D01*
X64140000Y-54240000D02*
X61440000Y-54240000D01*
X70640000Y-54240000D02*
X68040000Y-54240000D01*
X61440000Y-39540000D02*
X70640000Y-39540000D01*
X165060000Y-72491000D02*
X175300000Y-72491000D01*
X172031000Y-67850000D02*
X172031000Y-69360000D01*
X175300000Y-67850000D02*
X175300000Y-72491000D01*
X165060000Y-69360000D02*
X175300000Y-69360000D01*
X165060000Y-67850000D02*
X175300000Y-67850000D01*
X165060000Y-67850000D02*
X165060000Y-72491000D01*
X168330000Y-67850000D02*
X168330000Y-69360000D01*
X149820000Y-85191000D02*
X160060000Y-85191000D01*
X153090000Y-80550000D02*
X153090000Y-82060000D01*
X149820000Y-80550000D02*
X149820000Y-85191000D01*
X156791000Y-80550000D02*
X156791000Y-82060000D01*
X160060000Y-80550000D02*
X160060000Y-85191000D01*
X149820000Y-80550000D02*
X160060000Y-80550000D01*
X149820000Y-82060000D02*
X160060000Y-82060000D01*
X165060000Y-82060000D02*
X175300000Y-82060000D01*
X172031000Y-80550000D02*
X172031000Y-82060000D01*
X165060000Y-80550000D02*
X165060000Y-85191000D01*
X165060000Y-80550000D02*
X175300000Y-80550000D01*
X175300000Y-80550000D02*
X175300000Y-85191000D01*
X168330000Y-80550000D02*
X168330000Y-82060000D01*
X165060000Y-85191000D02*
X175300000Y-85191000D01*
X74506000Y-69091000D02*
X72160000Y-69091000D01*
X72501000Y-70891000D02*
X69739000Y-70891000D01*
X74567000Y-68971000D02*
X72160000Y-68971000D01*
X74849000Y-68171000D02*
X72160000Y-68171000D01*
X70080000Y-69131000D02*
X67755000Y-69131000D01*
X74910000Y-67850000D02*
X72160000Y-67850000D01*
X70080000Y-69051000D02*
X67713000Y-69051000D01*
X74718000Y-68611000D02*
X72160000Y-68611000D01*
X73574000Y-70251000D02*
X68666000Y-70251000D01*
X70080000Y-69171000D02*
X67777000Y-69171000D01*
X70080000Y-68371000D02*
X67443000Y-68371000D01*
X70080000Y-67570000D02*
X67300000Y-67570000D01*
X74441000Y-69211000D02*
X72160000Y-69211000D01*
X74148000Y-69651000D02*
X68092000Y-69651000D01*
X74417000Y-69251000D02*
X72160000Y-69251000D01*
X74840000Y-68211000D02*
X72160000Y-68211000D01*
X70080000Y-67610000D02*
X67303000Y-67610000D01*
X72853000Y-70731000D02*
X69387000Y-70731000D01*
X70080000Y-68251000D02*
X67410000Y-68251000D01*
X74394000Y-69291000D02*
X72160000Y-69291000D01*
X70080000Y-68611000D02*
X67522000Y-68611000D01*
X73670000Y-63522789D02*
X72920000Y-63522789D01*
X74897000Y-67930000D02*
X72160000Y-67930000D01*
X74808000Y-68331000D02*
X72160000Y-68331000D01*
X70080000Y-69011000D02*
X67693000Y-69011000D01*
X70080000Y-68571000D02*
X67507000Y-68571000D01*
X74921000Y-67770000D02*
X72160000Y-67770000D01*
X70080000Y-69491000D02*
X67976000Y-69491000D01*
X74369000Y-69331000D02*
X72160000Y-69331000D01*
X70080000Y-69251000D02*
X67823000Y-69251000D01*
X73947000Y-69891000D02*
X68293000Y-69891000D01*
X74875000Y-68051000D02*
X72160000Y-68051000D01*
X70080000Y-68291000D02*
X67421000Y-68291000D01*
X74622000Y-68851000D02*
X72160000Y-68851000D01*
X70080000Y-67650000D02*
X67306000Y-67650000D01*
X70080000Y-68011000D02*
X67357000Y-68011000D01*
X74704000Y-68651000D02*
X72160000Y-68651000D01*
X74733000Y-68571000D02*
X72160000Y-68571000D01*
X74830000Y-68251000D02*
X72160000Y-68251000D01*
X73295000Y-63147789D02*
X73295000Y-63897789D01*
X74858000Y-68131000D02*
X72160000Y-68131000D01*
X71561000Y-71131000D02*
X70679000Y-71131000D01*
X70080000Y-68451000D02*
X67467000Y-68451000D01*
X74785000Y-68411000D02*
X72160000Y-68411000D01*
X74318000Y-69411000D02*
X72160000Y-69411000D01*
X74890000Y-67970000D02*
X72160000Y-67970000D01*
X70080000Y-69451000D02*
X67948000Y-69451000D01*
X74883000Y-68011000D02*
X72160000Y-68011000D01*
X74586000Y-68931000D02*
X72160000Y-68931000D01*
X74945000Y-67490000D02*
X67295000Y-67490000D01*
X74746000Y-68531000D02*
X72160000Y-68531000D01*
X74904000Y-67890000D02*
X72160000Y-67890000D01*
X74208000Y-69571000D02*
X72160000Y-69571000D01*
X74604000Y-68891000D02*
X72160000Y-68891000D01*
X72148000Y-71011000D02*
X70092000Y-71011000D01*
X72598000Y-70851000D02*
X69642000Y-70851000D01*
X70080000Y-68651000D02*
X67536000Y-68651000D01*
X72774000Y-70771000D02*
X69466000Y-70771000D01*
X70080000Y-69371000D02*
X67896000Y-69371000D01*
X73069000Y-70611000D02*
X69171000Y-70611000D01*
X72395000Y-70931000D02*
X69845000Y-70931000D01*
X72929000Y-70691000D02*
X69311000Y-70691000D01*
X70080000Y-68091000D02*
X67373000Y-68091000D01*
X70080000Y-67530000D02*
X67297000Y-67530000D01*
X70080000Y-68331000D02*
X67432000Y-68331000D01*
X74264000Y-69491000D02*
X72160000Y-69491000D01*
X74463000Y-69171000D02*
X72160000Y-69171000D01*
X73666000Y-70171000D02*
X68574000Y-70171000D01*
X70080000Y-68731000D02*
X67567000Y-68731000D01*
X74915000Y-67810000D02*
X72160000Y-67810000D01*
X70080000Y-69331000D02*
X67871000Y-69331000D01*
X70080000Y-68491000D02*
X67480000Y-68491000D01*
X70080000Y-67770000D02*
X67319000Y-67770000D01*
X70080000Y-67930000D02*
X67343000Y-67930000D01*
X70080000Y-68411000D02*
X67455000Y-68411000D01*
X70080000Y-68171000D02*
X67391000Y-68171000D01*
X74673000Y-68731000D02*
X72160000Y-68731000D01*
X70080000Y-68971000D02*
X67673000Y-68971000D01*
X71997000Y-71051000D02*
X70243000Y-71051000D01*
X74934000Y-67650000D02*
X72160000Y-67650000D01*
X74051000Y-69771000D02*
X68189000Y-69771000D01*
X74656000Y-68771000D02*
X72160000Y-68771000D01*
X70080000Y-69291000D02*
X67846000Y-69291000D01*
X70080000Y-67810000D02*
X67325000Y-67810000D01*
X70080000Y-69531000D02*
X68004000Y-69531000D01*
X74018000Y-69811000D02*
X68222000Y-69811000D01*
X74485000Y-69131000D02*
X72160000Y-69131000D01*
X74950000Y-67370000D02*
X67290000Y-67370000D01*
X72689000Y-70811000D02*
X69551000Y-70811000D01*
X74925000Y-67730000D02*
X72160000Y-67730000D01*
X73793000Y-70051000D02*
X68447000Y-70051000D01*
X74819000Y-68291000D02*
X72160000Y-68291000D01*
X73709000Y-70131000D02*
X68531000Y-70131000D01*
X74292000Y-69451000D02*
X72160000Y-69451000D01*
X73001000Y-70651000D02*
X69239000Y-70651000D01*
X70080000Y-68211000D02*
X67400000Y-68211000D01*
X74760000Y-68491000D02*
X72160000Y-68491000D01*
X74236000Y-69531000D02*
X72160000Y-69531000D01*
X74930000Y-67690000D02*
X72160000Y-67690000D01*
X74937000Y-67610000D02*
X72160000Y-67610000D01*
X73257000Y-70491000D02*
X68983000Y-70491000D01*
X74940000Y-67570000D02*
X72160000Y-67570000D01*
X70080000Y-67890000D02*
X67336000Y-67890000D01*
X73620000Y-70211000D02*
X68620000Y-70211000D01*
X70080000Y-68771000D02*
X67584000Y-68771000D01*
X70080000Y-68851000D02*
X67618000Y-68851000D01*
X70080000Y-69411000D02*
X67922000Y-69411000D01*
X73983000Y-69851000D02*
X68257000Y-69851000D01*
X74084000Y-69731000D02*
X68156000Y-69731000D01*
X74640000Y-68811000D02*
X72160000Y-68811000D01*
X74178000Y-69611000D02*
X68062000Y-69611000D01*
X74950000Y-67290000D02*
X67290000Y-67290000D01*
X74797000Y-68371000D02*
X72160000Y-68371000D01*
X74773000Y-68451000D02*
X72160000Y-68451000D01*
X70080000Y-68811000D02*
X67600000Y-68811000D01*
X73197000Y-70531000D02*
X69043000Y-70531000D01*
X71813000Y-71091000D02*
X70427000Y-71091000D01*
X70080000Y-67730000D02*
X67315000Y-67730000D01*
X74116000Y-69691000D02*
X68124000Y-69691000D01*
X73872000Y-69971000D02*
X68368000Y-69971000D01*
X73910000Y-69931000D02*
X68330000Y-69931000D01*
X70080000Y-68691000D02*
X67552000Y-68691000D01*
X73315000Y-70451000D02*
X68925000Y-70451000D01*
X70080000Y-67970000D02*
X67350000Y-67970000D01*
X73134000Y-70571000D02*
X69106000Y-70571000D01*
X73752000Y-70091000D02*
X68488000Y-70091000D01*
X74344000Y-69371000D02*
X72160000Y-69371000D01*
X74950000Y-67330000D02*
X67290000Y-67330000D01*
X74949000Y-67410000D02*
X67291000Y-67410000D01*
X73525000Y-70291000D02*
X68715000Y-70291000D01*
X70080000Y-69091000D02*
X67734000Y-69091000D01*
X70080000Y-69211000D02*
X67799000Y-69211000D01*
X70080000Y-69571000D02*
X68032000Y-69571000D01*
X73833000Y-70011000D02*
X68407000Y-70011000D01*
X74527000Y-69051000D02*
X72160000Y-69051000D01*
X74947000Y-67450000D02*
X67293000Y-67450000D01*
X73370000Y-70411000D02*
X68870000Y-70411000D01*
X74943000Y-67530000D02*
X72160000Y-67530000D01*
X70080000Y-67690000D02*
X67310000Y-67690000D01*
X70080000Y-68131000D02*
X67382000Y-68131000D01*
X70080000Y-68931000D02*
X67654000Y-68931000D01*
X70080000Y-68531000D02*
X67494000Y-68531000D01*
X73424000Y-70371000D02*
X68816000Y-70371000D01*
X72278000Y-70971000D02*
X69962000Y-70971000D01*
X70080000Y-68051000D02*
X67365000Y-68051000D01*
X74547000Y-69011000D02*
X72160000Y-69011000D01*
X73475000Y-70331000D02*
X68765000Y-70331000D01*
X70080000Y-67850000D02*
X67330000Y-67850000D01*
X74867000Y-68091000D02*
X72160000Y-68091000D01*
X74688000Y-68691000D02*
X72160000Y-68691000D01*
X70080000Y-68891000D02*
X67636000Y-68891000D01*
X74990000Y-67290000D02*
G75*
G03*
X74990000Y-67290000I-3870000J0D01*
G01*
X155480000Y-102640000D02*
X155480000Y-102970000D01*
X162020000Y-102970000D02*
X162020000Y-102640000D01*
X155480000Y-100230000D02*
X162020000Y-100230000D01*
X162020000Y-100230000D02*
X162020000Y-100560000D01*
X155480000Y-102970000D02*
X162020000Y-102970000D01*
X155480000Y-100560000D02*
X155480000Y-100230000D01*
X174720000Y-110390000D02*
X168180000Y-110390000D01*
X168180000Y-110390000D02*
X168180000Y-110720000D01*
X174720000Y-112800000D02*
X174720000Y-113130000D01*
X174720000Y-113130000D02*
X168180000Y-113130000D01*
X168180000Y-113130000D02*
X168180000Y-112800000D01*
X174720000Y-110720000D02*
X174720000Y-110390000D01*
X163600000Y-118840000D02*
X163930000Y-118840000D01*
X163930000Y-118840000D02*
X163930000Y-112300000D01*
X161520000Y-118840000D02*
X161190000Y-118840000D01*
X163930000Y-112300000D02*
X163600000Y-112300000D01*
X161190000Y-112300000D02*
X161520000Y-112300000D01*
X161190000Y-118840000D02*
X161190000Y-112300000D01*
X177260000Y-95350000D02*
X177260000Y-95020000D01*
X170720000Y-92610000D02*
X177260000Y-92610000D01*
X170720000Y-95350000D02*
X177260000Y-95350000D01*
X170720000Y-95020000D02*
X170720000Y-95350000D01*
X170720000Y-92940000D02*
X170720000Y-92610000D01*
X177260000Y-92610000D02*
X177260000Y-92940000D01*
X151030000Y-118840000D02*
X151030000Y-112300000D01*
X151030000Y-112300000D02*
X151360000Y-112300000D01*
X153440000Y-118840000D02*
X153770000Y-118840000D01*
X151360000Y-118840000D02*
X151030000Y-118840000D01*
X153770000Y-112300000D02*
X153440000Y-112300000D01*
X153770000Y-118840000D02*
X153770000Y-112300000D01*
X164360000Y-92130000D02*
X160760000Y-92130000D01*
X164884184Y-92857205D02*
G75*
G03*
X164360000Y-92130000I-2324184J-1122795D01*
G01*
X162560000Y-96580000D02*
G75*
G03*
X164916400Y-95078807I0J2600000D01*
G01*
X160760000Y-92130000D02*
G75*
G03*
X160235816Y-92857205I1800000J-1850000D01*
G01*
X160203600Y-95078807D02*
G75*
G03*
X162560000Y-96580000I2356400J1098807D01*
G01*
X154400000Y-95350000D02*
X147860000Y-95350000D01*
X147860000Y-92610000D02*
X147860000Y-92940000D01*
X154400000Y-95020000D02*
X154400000Y-95350000D01*
X154400000Y-92940000D02*
X154400000Y-92610000D01*
X154400000Y-92610000D02*
X147860000Y-92610000D01*
X147860000Y-95350000D02*
X147860000Y-95020000D01*
X149820000Y-67850000D02*
X149820000Y-72491000D01*
X149820000Y-72491000D02*
X160060000Y-72491000D01*
X149820000Y-69360000D02*
X160060000Y-69360000D01*
X160060000Y-67850000D02*
X160060000Y-72491000D01*
X149820000Y-67850000D02*
X160060000Y-67850000D01*
X153090000Y-67850000D02*
X153090000Y-69360000D01*
X156791000Y-67850000D02*
X156791000Y-69360000D01*
D11*
X95640000Y-70500000D02*
X95640000Y-56500000D01*
X97140000Y-55000000D02*
X111140000Y-55000000D01*
X112640000Y-56500000D02*
X112640000Y-70500000D01*
X111140000Y-72000000D02*
X97140000Y-72000000D01*
X97140000Y-55000000D02*
G75*
G03*
X95640000Y-56500000I0J-1500000D01*
G01*
X112640000Y-56500000D02*
G75*
G03*
X111140000Y-55000000I-1500000J0D01*
G01*
X111140000Y-72000000D02*
G75*
G03*
X112640000Y-70500000I-1J1500001D01*
G01*
X95640000Y-70500000D02*
G75*
G03*
X97140000Y-72000000I1500001J1D01*
G01*
X132960000Y-56500000D02*
X132960000Y-70500000D01*
X117460000Y-55000000D02*
X131460000Y-55000000D01*
X115960000Y-70500000D02*
X115960000Y-56500000D01*
X131460000Y-72000000D02*
X117460000Y-72000000D01*
X132960000Y-56500000D02*
G75*
G03*
X131460000Y-55000000I-1500001J-1D01*
G01*
X117460000Y-55000000D02*
G75*
G03*
X115960000Y-56500000I1J-1500001D01*
G01*
X131460000Y-72000000D02*
G75*
G03*
X132960000Y-70500000I0J1500000D01*
G01*
X115960000Y-70500000D02*
G75*
G03*
X117460000Y-72000000I1500000J0D01*
G01*
D15*
X162760000Y-58900000D02*
X165610000Y-58900000D01*
X165370000Y-48840000D02*
X164370000Y-48840000D01*
X162560000Y-58660000D02*
X165370000Y-58660000D01*
X164370000Y-47440000D02*
X162560000Y-47440000D01*
X160750000Y-48840000D02*
X160750000Y-47440000D01*
X160750000Y-47440000D02*
X162560000Y-47440000D01*
X159750000Y-48840000D02*
X160750000Y-48840000D01*
X165610000Y-58900000D02*
X165610000Y-56050000D01*
X162560000Y-58660000D02*
X159750000Y-58660000D01*
X159750000Y-58660000D02*
X159750000Y-48840000D01*
X164370000Y-48840000D02*
X164370000Y-47440000D01*
X165370000Y-58660000D02*
X165370000Y-48840000D01*
X100760000Y-48260000D02*
G75*
G03*
X100760000Y-48260000I-1700000J0D01*
G01*
X102595000Y-128290000D02*
X105685000Y-128290000D01*
X105684830Y-128290000D02*
G75*
G03*
X104139538Y-122740000I-1544830J2560000D01*
G01*
X104140462Y-122740000D02*
G75*
G03*
X102595170Y-128290000I-462J-2990000D01*
G01*
X106640000Y-125730000D02*
G75*
G03*
X106640000Y-125730000I-2500000J0D01*
G01*
X122915000Y-128290000D02*
X126005000Y-128290000D01*
X124460462Y-122740000D02*
G75*
G03*
X122915170Y-128290000I-462J-2990000D01*
G01*
X126004830Y-128290000D02*
G75*
G03*
X124459538Y-122740000I-1544830J2560000D01*
G01*
X126960000Y-125730000D02*
G75*
G03*
X126960000Y-125730000I-2500000J0D01*
G01*
X74390000Y-82530000D02*
G75*
G03*
X74390000Y-82530000I-3270000J0D01*
G01*
X133580000Y-113570000D02*
X133250000Y-113570000D01*
X135660000Y-113570000D02*
X135990000Y-113570000D01*
X133250000Y-120110000D02*
X133580000Y-120110000D01*
X133250000Y-113570000D02*
X133250000Y-120110000D01*
X135990000Y-120110000D02*
X135660000Y-120110000D01*
X135990000Y-113570000D02*
X135990000Y-120110000D01*
X102770000Y-120110000D02*
X103100000Y-120110000D01*
X102770000Y-113570000D02*
X102770000Y-120110000D01*
X105510000Y-120110000D02*
X105180000Y-120110000D01*
X105510000Y-113570000D02*
X105510000Y-120110000D01*
X105180000Y-113570000D02*
X105510000Y-113570000D01*
X103100000Y-113570000D02*
X102770000Y-113570000D01*
X48210000Y-98940000D02*
X48210000Y-100590000D01*
X48210000Y-104240000D02*
X83890000Y-104240000D01*
X83890000Y-104240000D02*
X83890000Y-98940000D01*
X48210000Y-102590000D02*
X48210000Y-104240000D01*
X83890000Y-98940000D02*
X48210000Y-98940000D01*
X48210000Y-102590000D02*
G75*
G03*
X48210000Y-100590000I0J1000000D01*
G01*
X143510000Y-121285000D02*
X140970000Y-121285000D01*
X140970000Y-121285000D02*
X140970000Y-127635000D01*
X140970000Y-127635000D02*
X143510000Y-127635000D01*
X143510000Y-127635000D02*
X143510000Y-121285000D01*
X74390000Y-113130000D02*
X74390000Y-112800000D01*
X67850000Y-110720000D02*
X67850000Y-110390000D01*
X67850000Y-113130000D02*
X74390000Y-113130000D01*
X74390000Y-110390000D02*
X74390000Y-110720000D01*
X67850000Y-110390000D02*
X74390000Y-110390000D01*
X67850000Y-112800000D02*
X67850000Y-113130000D01*
X92435000Y-128290000D02*
X95525000Y-128290000D01*
X95524830Y-128290000D02*
G75*
G03*
X93979538Y-122740000I-1544830J2560000D01*
G01*
X93980462Y-122740000D02*
G75*
G03*
X92435170Y-128290000I-462J-2990000D01*
G01*
X96480000Y-125730000D02*
G75*
G03*
X96480000Y-125730000I-2500000J0D01*
G01*
X108380000Y-48260000D02*
G75*
G03*
X108380000Y-48260000I-1700000J0D01*
G01*
X138860000Y-48260000D02*
G75*
G03*
X138860000Y-48260000I-1700000J0D01*
G01*
X123090000Y-113570000D02*
X123090000Y-120110000D01*
X123090000Y-120110000D02*
X123420000Y-120110000D01*
X125830000Y-120110000D02*
X125500000Y-120110000D01*
X125830000Y-113570000D02*
X125830000Y-120110000D01*
X125500000Y-113570000D02*
X125830000Y-113570000D01*
X123420000Y-113570000D02*
X123090000Y-113570000D01*
X68060000Y-127000000D02*
G75*
G03*
X68060000Y-127000000I-3270000J0D01*
G01*
X64230000Y-92810000D02*
X57690000Y-92810000D01*
X57690000Y-90070000D02*
X57690000Y-90400000D01*
X57690000Y-92810000D02*
X57690000Y-92480000D01*
X64230000Y-90400000D02*
X64230000Y-90070000D01*
X64230000Y-90070000D02*
X57690000Y-90070000D01*
X64230000Y-92480000D02*
X64230000Y-92810000D01*
X112930000Y-120110000D02*
X113260000Y-120110000D01*
X115670000Y-120110000D02*
X115340000Y-120110000D01*
X115340000Y-113570000D02*
X115670000Y-113570000D01*
X112930000Y-113570000D02*
X112930000Y-120110000D01*
X115670000Y-113570000D02*
X115670000Y-120110000D01*
X113260000Y-113570000D02*
X112930000Y-113570000D01*
X146480000Y-48260000D02*
G75*
G03*
X146480000Y-48260000I-1700000J0D01*
G01*
X112755000Y-128290000D02*
X115845000Y-128290000D01*
X115844830Y-128290000D02*
G75*
G03*
X114299538Y-122740000I-1544830J2560000D01*
G01*
X114300462Y-122740000D02*
G75*
G03*
X112755170Y-128290000I-462J-2990000D01*
G01*
X116800000Y-125730000D02*
G75*
G03*
X116800000Y-125730000I-2500000J0D01*
G01*
X133075000Y-128290000D02*
X136165000Y-128290000D01*
X136164830Y-128290000D02*
G75*
G03*
X134619538Y-122740000I-1544830J2560000D01*
G01*
X134620462Y-122740000D02*
G75*
G03*
X133075170Y-128290000I-462J-2990000D01*
G01*
X137120000Y-125730000D02*
G75*
G03*
X137120000Y-125730000I-2500000J0D01*
G01*
D16*
X62130000Y-71770000D02*
X62130000Y-80630000D01*
X49630000Y-80630000D02*
X49630000Y-71770000D01*
X51950000Y-69450000D02*
X59810000Y-69450000D01*
X59810000Y-82950000D02*
X51950000Y-82950000D01*
D17*
X50480000Y-68200000D02*
G75*
G03*
X50480000Y-68200000I-100000J0D01*
G01*
D15*
X74345000Y-121905000D02*
X68095000Y-121905000D01*
X74345000Y-116855000D02*
X68095000Y-116855000D01*
X68095000Y-116855000D02*
G75*
G03*
X68095000Y-121905000I0J-2525000D01*
G01*
X74345000Y-121905000D02*
G75*
G03*
X74345000Y-116855000I0J2525000D01*
G01*
X87630000Y-121285000D02*
X85090000Y-121285000D01*
X85090000Y-121285000D02*
X85090000Y-127635000D01*
X85090000Y-127635000D02*
X87630000Y-127635000D01*
X87630000Y-127635000D02*
X87630000Y-121285000D01*
X116000000Y-48260000D02*
G75*
G03*
X116000000Y-48260000I-1700000J0D01*
G01*
X78220000Y-127000000D02*
G75*
G03*
X78220000Y-127000000I-3270000J0D01*
G01*
X92610000Y-120110000D02*
X92940000Y-120110000D01*
X95020000Y-113570000D02*
X95350000Y-113570000D01*
X92940000Y-113570000D02*
X92610000Y-113570000D01*
X92610000Y-113570000D02*
X92610000Y-120110000D01*
X95350000Y-113570000D02*
X95350000Y-120110000D01*
X95350000Y-120110000D02*
X95020000Y-120110000D01*
M02*
