G04 #@! TF.GenerationSoftware,KiCad,Pcbnew,5.1.8+dfsg1-1+b1*
G04 #@! TF.CreationDate,2021-07-27T16:42:41-05:00*
G04 #@! TF.ProjectId,thermoelectric-tube,74686572-6d6f-4656-9c65-63747269632d,B*
G04 #@! TF.SameCoordinates,Original*
G04 #@! TF.FileFunction,Other,User*
%FSLAX46Y46*%
G04 Gerber Fmt 4.6, Leading zero omitted, Abs format (unit mm)*
G04 Created by KiCad (PCBNEW 5.1.8+dfsg1-1+b1) date 2021-07-27 16:42:41*
%MOMM*%
%LPD*%
G01*
G04 APERTURE LIST*
%ADD10C,0.050000*%
%ADD11C,0.150000*%
G04 APERTURE END LIST*
D10*
X78650000Y-94140000D02*
X78650000Y-88740000D01*
X73750000Y-94140000D02*
X78650000Y-94140000D01*
X73750000Y-88740000D02*
X73750000Y-94140000D01*
X78650000Y-88740000D02*
X73750000Y-88740000D01*
X78650000Y-86340000D02*
X78650000Y-80940000D01*
X73750000Y-86340000D02*
X78650000Y-86340000D01*
X73750000Y-80940000D02*
X73750000Y-86340000D01*
X78650000Y-80940000D02*
X73750000Y-80940000D01*
X159360000Y-59050000D02*
X165760000Y-59050000D01*
X159360000Y-47050000D02*
X159360000Y-59050000D01*
X165760000Y-47050000D02*
X159360000Y-47050000D01*
X165760000Y-59050000D02*
X165760000Y-47050000D01*
D11*
X108348000Y-131174000D02*
X57548000Y-131174000D01*
X108348000Y-112632000D02*
X108348000Y-131174000D01*
X57294000Y-112632000D02*
X108348000Y-112632000D01*
X57294000Y-113394000D02*
X57294000Y-112632000D01*
X57294000Y-131174000D02*
X57294000Y-113394000D01*
X57548000Y-131174000D02*
X57294000Y-131174000D01*
D10*
X138070000Y-88900000D02*
G75*
G03*
X138070000Y-88900000I-3450000J0D01*
G01*
X97430000Y-88900000D02*
G75*
G03*
X97430000Y-88900000I-3450000J0D01*
G01*
X166590000Y-113260000D02*
X176310000Y-113260000D01*
X166590000Y-110260000D02*
X166590000Y-113260000D01*
X176310000Y-110260000D02*
X166590000Y-110260000D01*
X176310000Y-113260000D02*
X176310000Y-110260000D01*
X176270000Y-103610000D02*
X169170000Y-103610000D01*
X176270000Y-103610000D02*
X176270000Y-98870000D01*
X169170000Y-98870000D02*
X169170000Y-103610000D01*
X169170000Y-98870000D02*
X176270000Y-98870000D01*
X159010000Y-91970000D02*
X166110000Y-91970000D01*
X159010000Y-91970000D02*
X159010000Y-96710000D01*
X166110000Y-96710000D02*
X166110000Y-91970000D01*
X166110000Y-96710000D02*
X159010000Y-96710000D01*
X67640000Y-92970000D02*
X67640000Y-82270000D01*
X49190000Y-92970000D02*
X67640000Y-92970000D01*
X49190000Y-82270000D02*
X49190000Y-92970000D01*
X67640000Y-82270000D02*
X49190000Y-82270000D01*
X181250000Y-50800000D02*
G75*
G03*
X181250000Y-50800000I-3450000J0D01*
G01*
X181250000Y-127000000D02*
G75*
G03*
X181250000Y-127000000I-3450000J0D01*
G01*
X54250000Y-127000000D02*
G75*
G03*
X54250000Y-127000000I-3450000J0D01*
G01*
X54250000Y-50800000D02*
G75*
G03*
X54250000Y-50800000I-3450000J0D01*
G01*
X161060000Y-110710000D02*
X161060000Y-120430000D01*
X164060000Y-110710000D02*
X161060000Y-110710000D01*
X164060000Y-120430000D02*
X164060000Y-110710000D01*
X161060000Y-120430000D02*
X164060000Y-120430000D01*
X178850000Y-92480000D02*
X169130000Y-92480000D01*
X178850000Y-95480000D02*
X178850000Y-92480000D01*
X169130000Y-95480000D02*
X178850000Y-95480000D01*
X169130000Y-92480000D02*
X169130000Y-95480000D01*
X146270000Y-95480000D02*
X155990000Y-95480000D01*
X146270000Y-92480000D02*
X146270000Y-95480000D01*
X155990000Y-92480000D02*
X146270000Y-92480000D01*
X155990000Y-95480000D02*
X155990000Y-92480000D01*
X163610000Y-100100000D02*
X153890000Y-100100000D01*
X163610000Y-103100000D02*
X163610000Y-100100000D01*
X153890000Y-103100000D02*
X163610000Y-103100000D01*
X153890000Y-100100000D02*
X153890000Y-103100000D01*
X150900000Y-110710000D02*
X150900000Y-120430000D01*
X153900000Y-110710000D02*
X150900000Y-110710000D01*
X153900000Y-120430000D02*
X153900000Y-110710000D01*
X150900000Y-120430000D02*
X153900000Y-120430000D01*
X49300000Y-57370000D02*
X49300000Y-67090000D01*
X52300000Y-57370000D02*
X49300000Y-57370000D01*
X52300000Y-67090000D02*
X52300000Y-57370000D01*
X49300000Y-67090000D02*
X52300000Y-67090000D01*
X175430000Y-80420000D02*
X164930000Y-80420000D01*
X175430000Y-85330000D02*
X175430000Y-80420000D01*
X164930000Y-85330000D02*
X175430000Y-85330000D01*
X164930000Y-80420000D02*
X164930000Y-85330000D01*
X160190000Y-80420000D02*
X149690000Y-80420000D01*
X160190000Y-85330000D02*
X160190000Y-80420000D01*
X149690000Y-85330000D02*
X160190000Y-85330000D01*
X149690000Y-80420000D02*
X149690000Y-85330000D01*
X175430000Y-67720000D02*
X164930000Y-67720000D01*
X175430000Y-72630000D02*
X175430000Y-67720000D01*
X164930000Y-72630000D02*
X175430000Y-72630000D01*
X164930000Y-67720000D02*
X164930000Y-72630000D01*
X160190000Y-67720000D02*
X149690000Y-67720000D01*
X160190000Y-72630000D02*
X160190000Y-67720000D01*
X149690000Y-72630000D02*
X160190000Y-72630000D01*
X149690000Y-67720000D02*
X149690000Y-72630000D01*
X61290000Y-39340000D02*
X70790000Y-39340000D01*
X61290000Y-48340000D02*
X61290000Y-39340000D01*
X59290000Y-48340000D02*
X61290000Y-48340000D01*
X59290000Y-52340000D02*
X59290000Y-48340000D01*
X61290000Y-52340000D02*
X59290000Y-52340000D01*
X61290000Y-54340000D02*
X61290000Y-52340000D01*
X64040000Y-54340000D02*
X61290000Y-54340000D01*
X64040000Y-55340000D02*
X64040000Y-54340000D01*
X68040000Y-55340000D02*
X64040000Y-55340000D01*
X68040000Y-54340000D02*
X68040000Y-55340000D01*
X70540000Y-54340000D02*
X68040000Y-54340000D01*
X70790000Y-54340000D02*
X70790000Y-39340000D01*
X70540000Y-54340000D02*
X70790000Y-54340000D01*
X159310000Y-122500000D02*
X159310000Y-128950000D01*
X165810000Y-122500000D02*
X159310000Y-122500000D01*
X165810000Y-128950000D02*
X165810000Y-122500000D01*
X159310000Y-128950000D02*
X165810000Y-128950000D01*
X149150000Y-122500000D02*
X149150000Y-128950000D01*
X155650000Y-122500000D02*
X149150000Y-122500000D01*
X155650000Y-128950000D02*
X155650000Y-122500000D01*
X149150000Y-128950000D02*
X155650000Y-128950000D01*
X47550000Y-69160000D02*
X47550000Y-75610000D01*
X54050000Y-69160000D02*
X47550000Y-69160000D01*
X54050000Y-75610000D02*
X54050000Y-69160000D01*
X47550000Y-75610000D02*
X54050000Y-75610000D01*
X63070000Y-99060000D02*
G75*
G03*
X63070000Y-99060000I-3400000J0D01*
G01*
X64960000Y-62210000D02*
G75*
G03*
X64960000Y-62210000I-4000000J0D01*
G01*
M02*
