G04 #@! TF.GenerationSoftware,KiCad,Pcbnew,6.0.6+dfsg-1*
G04 #@! TF.CreationDate,2022-07-08T16:57:29-05:00*
G04 #@! TF.ProjectId,thermoelectric-tube,74686572-6d6f-4656-9c65-63747269632d,C*
G04 #@! TF.SameCoordinates,Original*
G04 #@! TF.FileFunction,Legend,Bot*
G04 #@! TF.FilePolarity,Positive*
%FSLAX46Y46*%
G04 Gerber Fmt 4.6, Leading zero omitted, Abs format (unit mm)*
G04 Created by KiCad (PCBNEW 6.0.6+dfsg-1) date 2022-07-08 16:57:29*
%MOMM*%
%LPD*%
G01*
G04 APERTURE LIST*
%ADD10C,1.270000*%
%ADD11C,0.150000*%
%ADD12C,0.010000*%
G04 APERTURE END LIST*
D10*
X88900000Y-101600000D02*
X139700000Y-101600000D01*
X88900000Y-76200000D02*
X88900000Y-101600000D01*
X139700000Y-76200000D02*
X139700000Y-101600000D01*
X139700000Y-76200000D02*
X88900000Y-76200000D01*
D11*
X76248571Y-49417619D02*
X76248571Y-50417619D01*
X76677142Y-49417619D02*
X76677142Y-49941428D01*
X76629523Y-50036666D01*
X76534285Y-50084285D01*
X76391428Y-50084285D01*
X76296190Y-50036666D01*
X76248571Y-49989047D01*
X77010476Y-50084285D02*
X77391428Y-50084285D01*
X77153333Y-50417619D02*
X77153333Y-49560476D01*
X77200952Y-49465238D01*
X77296190Y-49417619D01*
X77391428Y-49417619D01*
X77581904Y-50084285D02*
X77962857Y-50084285D01*
X77724761Y-50417619D02*
X77724761Y-49560476D01*
X77772380Y-49465238D01*
X77867619Y-49417619D01*
X77962857Y-49417619D01*
X78296190Y-50084285D02*
X78296190Y-49084285D01*
X78296190Y-50036666D02*
X78391428Y-50084285D01*
X78581904Y-50084285D01*
X78677142Y-50036666D01*
X78724761Y-49989047D01*
X78772380Y-49893809D01*
X78772380Y-49608095D01*
X78724761Y-49512857D01*
X78677142Y-49465238D01*
X78581904Y-49417619D01*
X78391428Y-49417619D01*
X78296190Y-49465238D01*
X79153333Y-49465238D02*
X79248571Y-49417619D01*
X79439047Y-49417619D01*
X79534285Y-49465238D01*
X79581904Y-49560476D01*
X79581904Y-49608095D01*
X79534285Y-49703333D01*
X79439047Y-49750952D01*
X79296190Y-49750952D01*
X79200952Y-49798571D01*
X79153333Y-49893809D01*
X79153333Y-49941428D01*
X79200952Y-50036666D01*
X79296190Y-50084285D01*
X79439047Y-50084285D01*
X79534285Y-50036666D01*
X80010476Y-49512857D02*
X80058095Y-49465238D01*
X80010476Y-49417619D01*
X79962857Y-49465238D01*
X80010476Y-49512857D01*
X80010476Y-49417619D01*
X80010476Y-50036666D02*
X80058095Y-49989047D01*
X80010476Y-49941428D01*
X79962857Y-49989047D01*
X80010476Y-50036666D01*
X80010476Y-49941428D01*
X81200952Y-50465238D02*
X80343809Y-49179523D01*
X82248571Y-50465238D02*
X81391428Y-49179523D01*
X83010476Y-50084285D02*
X83010476Y-49274761D01*
X82962857Y-49179523D01*
X82915238Y-49131904D01*
X82819999Y-49084285D01*
X82677142Y-49084285D01*
X82581904Y-49131904D01*
X83010476Y-49465238D02*
X82915238Y-49417619D01*
X82724761Y-49417619D01*
X82629523Y-49465238D01*
X82581904Y-49512857D01*
X82534285Y-49608095D01*
X82534285Y-49893809D01*
X82581904Y-49989047D01*
X82629523Y-50036666D01*
X82724761Y-50084285D01*
X82915238Y-50084285D01*
X83010476Y-50036666D01*
X83486666Y-49417619D02*
X83486666Y-50084285D01*
X83486666Y-50417619D02*
X83439047Y-50370000D01*
X83486666Y-50322380D01*
X83534285Y-50370000D01*
X83486666Y-50417619D01*
X83486666Y-50322380D01*
X83819999Y-50084285D02*
X84200952Y-50084285D01*
X83962857Y-50417619D02*
X83962857Y-49560476D01*
X84010476Y-49465238D01*
X84105714Y-49417619D01*
X84200952Y-49417619D01*
X84534285Y-49417619D02*
X84534285Y-50417619D01*
X84962857Y-49417619D02*
X84962857Y-49941428D01*
X84915238Y-50036666D01*
X84819999Y-50084285D01*
X84677142Y-50084285D01*
X84581904Y-50036666D01*
X84534285Y-49989047D01*
X85867619Y-50084285D02*
X85867619Y-49417619D01*
X85439047Y-50084285D02*
X85439047Y-49560476D01*
X85486666Y-49465238D01*
X85581904Y-49417619D01*
X85724761Y-49417619D01*
X85819999Y-49465238D01*
X85867619Y-49512857D01*
X86343809Y-49417619D02*
X86343809Y-50417619D01*
X86343809Y-50036666D02*
X86439047Y-50084285D01*
X86629523Y-50084285D01*
X86724761Y-50036666D01*
X86772380Y-49989047D01*
X86819999Y-49893809D01*
X86819999Y-49608095D01*
X86772380Y-49512857D01*
X86724761Y-49465238D01*
X86629523Y-49417619D01*
X86439047Y-49417619D01*
X86343809Y-49465238D01*
X87248571Y-49512857D02*
X87296190Y-49465238D01*
X87248571Y-49417619D01*
X87200952Y-49465238D01*
X87248571Y-49512857D01*
X87248571Y-49417619D01*
X88153333Y-49465238D02*
X88058095Y-49417619D01*
X87867619Y-49417619D01*
X87772380Y-49465238D01*
X87724761Y-49512857D01*
X87677142Y-49608095D01*
X87677142Y-49893809D01*
X87724761Y-49989047D01*
X87772380Y-50036666D01*
X87867619Y-50084285D01*
X88058095Y-50084285D01*
X88153333Y-50036666D01*
X88724761Y-49417619D02*
X88629523Y-49465238D01*
X88581904Y-49512857D01*
X88534285Y-49608095D01*
X88534285Y-49893809D01*
X88581904Y-49989047D01*
X88629523Y-50036666D01*
X88724761Y-50084285D01*
X88867619Y-50084285D01*
X88962857Y-50036666D01*
X89010476Y-49989047D01*
X89058095Y-49893809D01*
X89058095Y-49608095D01*
X89010476Y-49512857D01*
X88962857Y-49465238D01*
X88867619Y-49417619D01*
X88724761Y-49417619D01*
X89486666Y-49417619D02*
X89486666Y-50084285D01*
X89486666Y-49989047D02*
X89534285Y-50036666D01*
X89629523Y-50084285D01*
X89772380Y-50084285D01*
X89867619Y-50036666D01*
X89915238Y-49941428D01*
X89915238Y-49417619D01*
X89915238Y-49941428D02*
X89962857Y-50036666D01*
X90058095Y-50084285D01*
X90200952Y-50084285D01*
X90296190Y-50036666D01*
X90343809Y-49941428D01*
X90343809Y-49417619D01*
X91534285Y-50465238D02*
X90677142Y-49179523D01*
X73867619Y-48474285D02*
X73867619Y-47807619D01*
X73439047Y-48474285D02*
X73439047Y-47950476D01*
X73486666Y-47855238D01*
X73581904Y-47807619D01*
X73724761Y-47807619D01*
X73820000Y-47855238D01*
X73867619Y-47902857D01*
X74248571Y-48474285D02*
X74439047Y-47807619D01*
X74629523Y-48283809D01*
X74820000Y-47807619D01*
X75010476Y-48474285D01*
X75391428Y-48188571D02*
X76153333Y-48188571D01*
X76629523Y-47807619D02*
X76629523Y-48474285D01*
X76629523Y-48379047D02*
X76677142Y-48426666D01*
X76772380Y-48474285D01*
X76915238Y-48474285D01*
X77010476Y-48426666D01*
X77058095Y-48331428D01*
X77058095Y-47807619D01*
X77058095Y-48331428D02*
X77105714Y-48426666D01*
X77200952Y-48474285D01*
X77343809Y-48474285D01*
X77439047Y-48426666D01*
X77486666Y-48331428D01*
X77486666Y-47807619D01*
X78391428Y-47807619D02*
X78391428Y-48331428D01*
X78343809Y-48426666D01*
X78248571Y-48474285D01*
X78058095Y-48474285D01*
X77962857Y-48426666D01*
X78391428Y-47855238D02*
X78296190Y-47807619D01*
X78058095Y-47807619D01*
X77962857Y-47855238D01*
X77915238Y-47950476D01*
X77915238Y-48045714D01*
X77962857Y-48140952D01*
X78058095Y-48188571D01*
X78296190Y-48188571D01*
X78391428Y-48236190D01*
X79296190Y-47807619D02*
X79296190Y-48807619D01*
X79296190Y-47855238D02*
X79200952Y-47807619D01*
X79010476Y-47807619D01*
X78915238Y-47855238D01*
X78867619Y-47902857D01*
X78820000Y-47998095D01*
X78820000Y-48283809D01*
X78867619Y-48379047D01*
X78915238Y-48426666D01*
X79010476Y-48474285D01*
X79200952Y-48474285D01*
X79296190Y-48426666D01*
X79772380Y-47807619D02*
X79772380Y-48474285D01*
X79772380Y-48807619D02*
X79724761Y-48760000D01*
X79772380Y-48712380D01*
X79820000Y-48760000D01*
X79772380Y-48807619D01*
X79772380Y-48712380D01*
X80200952Y-47855238D02*
X80296190Y-47807619D01*
X80486666Y-47807619D01*
X80581904Y-47855238D01*
X80629523Y-47950476D01*
X80629523Y-47998095D01*
X80581904Y-48093333D01*
X80486666Y-48140952D01*
X80343809Y-48140952D01*
X80248571Y-48188571D01*
X80200952Y-48283809D01*
X80200952Y-48331428D01*
X80248571Y-48426666D01*
X80343809Y-48474285D01*
X80486666Y-48474285D01*
X80581904Y-48426666D01*
X81200952Y-47807619D02*
X81105714Y-47855238D01*
X81058095Y-47902857D01*
X81010476Y-47998095D01*
X81010476Y-48283809D01*
X81058095Y-48379047D01*
X81105714Y-48426666D01*
X81200952Y-48474285D01*
X81343809Y-48474285D01*
X81439047Y-48426666D01*
X81486666Y-48379047D01*
X81534285Y-48283809D01*
X81534285Y-47998095D01*
X81486666Y-47902857D01*
X81439047Y-47855238D01*
X81343809Y-47807619D01*
X81200952Y-47807619D01*
X81962857Y-48474285D02*
X81962857Y-47807619D01*
X81962857Y-48379047D02*
X82010476Y-48426666D01*
X82105714Y-48474285D01*
X82248571Y-48474285D01*
X82343809Y-48426666D01*
X82391428Y-48331428D01*
X82391428Y-47807619D01*
X82867619Y-48188571D02*
X83629523Y-48188571D01*
X84534285Y-47855238D02*
X84439047Y-47807619D01*
X84248571Y-47807619D01*
X84153333Y-47855238D01*
X84105714Y-47902857D01*
X84058095Y-47998095D01*
X84058095Y-48283809D01*
X84105714Y-48379047D01*
X84153333Y-48426666D01*
X84248571Y-48474285D01*
X84439047Y-48474285D01*
X84534285Y-48426666D01*
X84962857Y-47807619D02*
X84962857Y-48807619D01*
X85391428Y-47807619D02*
X85391428Y-48331428D01*
X85343809Y-48426666D01*
X85248571Y-48474285D01*
X85105714Y-48474285D01*
X85010476Y-48426666D01*
X84962857Y-48379047D01*
X86248571Y-47855238D02*
X86153333Y-47807619D01*
X85962857Y-47807619D01*
X85867619Y-47855238D01*
X85820000Y-47950476D01*
X85820000Y-48331428D01*
X85867619Y-48426666D01*
X85962857Y-48474285D01*
X86153333Y-48474285D01*
X86248571Y-48426666D01*
X86296190Y-48331428D01*
X86296190Y-48236190D01*
X85820000Y-48140952D01*
X86724761Y-47807619D02*
X86724761Y-48474285D01*
X86724761Y-48379047D02*
X86772380Y-48426666D01*
X86867619Y-48474285D01*
X87010476Y-48474285D01*
X87105714Y-48426666D01*
X87153333Y-48331428D01*
X87153333Y-47807619D01*
X87153333Y-48331428D02*
X87200952Y-48426666D01*
X87296190Y-48474285D01*
X87439047Y-48474285D01*
X87534285Y-48426666D01*
X87581904Y-48331428D01*
X87581904Y-47807619D01*
X88058095Y-48188571D02*
X88820000Y-48188571D01*
X89248571Y-47855238D02*
X89343809Y-47807619D01*
X89534285Y-47807619D01*
X89629523Y-47855238D01*
X89677142Y-47950476D01*
X89677142Y-47998095D01*
X89629523Y-48093333D01*
X89534285Y-48140952D01*
X89391428Y-48140952D01*
X89296190Y-48188571D01*
X89248571Y-48283809D01*
X89248571Y-48331428D01*
X89296190Y-48426666D01*
X89391428Y-48474285D01*
X89534285Y-48474285D01*
X89629523Y-48426666D01*
X90105714Y-47807619D02*
X90105714Y-48807619D01*
X90534285Y-47807619D02*
X90534285Y-48331428D01*
X90486666Y-48426666D01*
X90391428Y-48474285D01*
X90248571Y-48474285D01*
X90153333Y-48426666D01*
X90105714Y-48379047D01*
X91153333Y-47807619D02*
X91058095Y-47855238D01*
X91010476Y-47902857D01*
X90962857Y-47998095D01*
X90962857Y-48283809D01*
X91010476Y-48379047D01*
X91058095Y-48426666D01*
X91153333Y-48474285D01*
X91296190Y-48474285D01*
X91391428Y-48426666D01*
X91439047Y-48379047D01*
X91486666Y-48283809D01*
X91486666Y-47998095D01*
X91439047Y-47902857D01*
X91391428Y-47855238D01*
X91296190Y-47807619D01*
X91153333Y-47807619D01*
X91915238Y-48474285D02*
X91915238Y-47474285D01*
X91915238Y-48426666D02*
X92010476Y-48474285D01*
X92200952Y-48474285D01*
X92296190Y-48426666D01*
X92343809Y-48379047D01*
X92391428Y-48283809D01*
X92391428Y-47998095D01*
X92343809Y-47902857D01*
X92296190Y-47855238D01*
X92200952Y-47807619D01*
X92010476Y-47807619D01*
X91915238Y-47855238D01*
X92772380Y-47855238D02*
X92867619Y-47807619D01*
X93058095Y-47807619D01*
X93153333Y-47855238D01*
X93200952Y-47950476D01*
X93200952Y-47998095D01*
X93153333Y-48093333D01*
X93058095Y-48140952D01*
X92915238Y-48140952D01*
X92820000Y-48188571D01*
X92772380Y-48283809D01*
X92772380Y-48331428D01*
X92820000Y-48426666D01*
X92915238Y-48474285D01*
X93058095Y-48474285D01*
X93153333Y-48426666D01*
X94343809Y-48855238D02*
X93486666Y-47569523D01*
X76272380Y-46864285D02*
X76653333Y-46864285D01*
X76415238Y-47197619D02*
X76415238Y-46340476D01*
X76462857Y-46245238D01*
X76558095Y-46197619D01*
X76653333Y-46197619D01*
X76986666Y-46197619D02*
X76986666Y-47197619D01*
X77415238Y-46197619D02*
X77415238Y-46721428D01*
X77367619Y-46816666D01*
X77272380Y-46864285D01*
X77129523Y-46864285D01*
X77034285Y-46816666D01*
X76986666Y-46769047D01*
X78272380Y-46245238D02*
X78177142Y-46197619D01*
X77986666Y-46197619D01*
X77891428Y-46245238D01*
X77843809Y-46340476D01*
X77843809Y-46721428D01*
X77891428Y-46816666D01*
X77986666Y-46864285D01*
X78177142Y-46864285D01*
X78272380Y-46816666D01*
X78320000Y-46721428D01*
X78320000Y-46626190D01*
X77843809Y-46530952D01*
X78748571Y-46197619D02*
X78748571Y-46864285D01*
X78748571Y-46673809D02*
X78796190Y-46769047D01*
X78843809Y-46816666D01*
X78939047Y-46864285D01*
X79034285Y-46864285D01*
X79367619Y-46197619D02*
X79367619Y-46864285D01*
X79367619Y-46769047D02*
X79415238Y-46816666D01*
X79510476Y-46864285D01*
X79653333Y-46864285D01*
X79748571Y-46816666D01*
X79796190Y-46721428D01*
X79796190Y-46197619D01*
X79796190Y-46721428D02*
X79843809Y-46816666D01*
X79939047Y-46864285D01*
X80081904Y-46864285D01*
X80177142Y-46816666D01*
X80224761Y-46721428D01*
X80224761Y-46197619D01*
X80843809Y-46197619D02*
X80748571Y-46245238D01*
X80700952Y-46292857D01*
X80653333Y-46388095D01*
X80653333Y-46673809D01*
X80700952Y-46769047D01*
X80748571Y-46816666D01*
X80843809Y-46864285D01*
X80986666Y-46864285D01*
X81081904Y-46816666D01*
X81129523Y-46769047D01*
X81177142Y-46673809D01*
X81177142Y-46388095D01*
X81129523Y-46292857D01*
X81081904Y-46245238D01*
X80986666Y-46197619D01*
X80843809Y-46197619D01*
X81986666Y-46245238D02*
X81891428Y-46197619D01*
X81700952Y-46197619D01*
X81605714Y-46245238D01*
X81558095Y-46340476D01*
X81558095Y-46721428D01*
X81605714Y-46816666D01*
X81700952Y-46864285D01*
X81891428Y-46864285D01*
X81986666Y-46816666D01*
X82034285Y-46721428D01*
X82034285Y-46626190D01*
X81558095Y-46530952D01*
X82605714Y-46197619D02*
X82510476Y-46245238D01*
X82462857Y-46340476D01*
X82462857Y-47197619D01*
X83367619Y-46245238D02*
X83272380Y-46197619D01*
X83081904Y-46197619D01*
X82986666Y-46245238D01*
X82939047Y-46340476D01*
X82939047Y-46721428D01*
X82986666Y-46816666D01*
X83081904Y-46864285D01*
X83272380Y-46864285D01*
X83367619Y-46816666D01*
X83415238Y-46721428D01*
X83415238Y-46626190D01*
X82939047Y-46530952D01*
X84272380Y-46245238D02*
X84177142Y-46197619D01*
X83986666Y-46197619D01*
X83891428Y-46245238D01*
X83843809Y-46292857D01*
X83796190Y-46388095D01*
X83796190Y-46673809D01*
X83843809Y-46769047D01*
X83891428Y-46816666D01*
X83986666Y-46864285D01*
X84177142Y-46864285D01*
X84272380Y-46816666D01*
X84558095Y-46864285D02*
X84939047Y-46864285D01*
X84700952Y-47197619D02*
X84700952Y-46340476D01*
X84748571Y-46245238D01*
X84843809Y-46197619D01*
X84939047Y-46197619D01*
X85272380Y-46197619D02*
X85272380Y-46864285D01*
X85272380Y-46673809D02*
X85320000Y-46769047D01*
X85367619Y-46816666D01*
X85462857Y-46864285D01*
X85558095Y-46864285D01*
X85891428Y-46197619D02*
X85891428Y-46864285D01*
X85891428Y-47197619D02*
X85843809Y-47150000D01*
X85891428Y-47102380D01*
X85939047Y-47150000D01*
X85891428Y-47197619D01*
X85891428Y-47102380D01*
X86796190Y-46245238D02*
X86700952Y-46197619D01*
X86510476Y-46197619D01*
X86415238Y-46245238D01*
X86367619Y-46292857D01*
X86320000Y-46388095D01*
X86320000Y-46673809D01*
X86367619Y-46769047D01*
X86415238Y-46816666D01*
X86510476Y-46864285D01*
X86700952Y-46864285D01*
X86796190Y-46816666D01*
X87224761Y-46578571D02*
X87986666Y-46578571D01*
X88320000Y-46864285D02*
X88700952Y-46864285D01*
X88462857Y-47197619D02*
X88462857Y-46340476D01*
X88510476Y-46245238D01*
X88605714Y-46197619D01*
X88700952Y-46197619D01*
X89462857Y-46864285D02*
X89462857Y-46197619D01*
X89034285Y-46864285D02*
X89034285Y-46340476D01*
X89081904Y-46245238D01*
X89177142Y-46197619D01*
X89320000Y-46197619D01*
X89415238Y-46245238D01*
X89462857Y-46292857D01*
X89939047Y-46197619D02*
X89939047Y-47197619D01*
X89939047Y-46816666D02*
X90034285Y-46864285D01*
X90224761Y-46864285D01*
X90320000Y-46816666D01*
X90367619Y-46769047D01*
X90415238Y-46673809D01*
X90415238Y-46388095D01*
X90367619Y-46292857D01*
X90320000Y-46245238D01*
X90224761Y-46197619D01*
X90034285Y-46197619D01*
X89939047Y-46245238D01*
X91224761Y-46245238D02*
X91129523Y-46197619D01*
X90939047Y-46197619D01*
X90843809Y-46245238D01*
X90796190Y-46340476D01*
X90796190Y-46721428D01*
X90843809Y-46816666D01*
X90939047Y-46864285D01*
X91129523Y-46864285D01*
X91224761Y-46816666D01*
X91272380Y-46721428D01*
X91272380Y-46626190D01*
X90796190Y-46530952D01*
G36*
X80681617Y-53281656D02*
G01*
X80751932Y-53308480D01*
X80804576Y-53334294D01*
X80838940Y-53367569D01*
X80858907Y-53418490D01*
X80868361Y-53497239D01*
X80871186Y-53614001D01*
X80871264Y-53778958D01*
X80871664Y-53910442D01*
X80874049Y-54036606D01*
X80879741Y-54122777D01*
X80890039Y-54179328D01*
X80906245Y-54216630D01*
X80929655Y-54245057D01*
X80987207Y-54285173D01*
X81083888Y-54300294D01*
X81179535Y-54262083D01*
X81185848Y-54257190D01*
X81205523Y-54234587D01*
X81220037Y-54198336D01*
X81230606Y-54139489D01*
X81238445Y-54049099D01*
X81244773Y-53918221D01*
X81250805Y-53737905D01*
X81265402Y-53255093D01*
X81389483Y-53310717D01*
X81513563Y-53366341D01*
X81513563Y-53807149D01*
X81513049Y-53926902D01*
X81508620Y-54093494D01*
X81497406Y-54217532D01*
X81476728Y-54309013D01*
X81443907Y-54377934D01*
X81396264Y-54434293D01*
X81331123Y-54488086D01*
X81237429Y-54542281D01*
X81089825Y-54577661D01*
X80941513Y-54562311D01*
X80805152Y-54498230D01*
X80693402Y-54387416D01*
X80670239Y-54352727D01*
X80651027Y-54313410D01*
X80637402Y-54263855D01*
X80628123Y-54194432D01*
X80621950Y-54095510D01*
X80617643Y-53957461D01*
X80613962Y-53770654D01*
X80604820Y-53252458D01*
X80681617Y-53281656D01*
G37*
D12*
X80681617Y-53281656D02*
X80751932Y-53308480D01*
X80804576Y-53334294D01*
X80838940Y-53367569D01*
X80858907Y-53418490D01*
X80868361Y-53497239D01*
X80871186Y-53614001D01*
X80871264Y-53778958D01*
X80871664Y-53910442D01*
X80874049Y-54036606D01*
X80879741Y-54122777D01*
X80890039Y-54179328D01*
X80906245Y-54216630D01*
X80929655Y-54245057D01*
X80987207Y-54285173D01*
X81083888Y-54300294D01*
X81179535Y-54262083D01*
X81185848Y-54257190D01*
X81205523Y-54234587D01*
X81220037Y-54198336D01*
X81230606Y-54139489D01*
X81238445Y-54049099D01*
X81244773Y-53918221D01*
X81250805Y-53737905D01*
X81265402Y-53255093D01*
X81389483Y-53310717D01*
X81513563Y-53366341D01*
X81513563Y-53807149D01*
X81513049Y-53926902D01*
X81508620Y-54093494D01*
X81497406Y-54217532D01*
X81476728Y-54309013D01*
X81443907Y-54377934D01*
X81396264Y-54434293D01*
X81331123Y-54488086D01*
X81237429Y-54542281D01*
X81089825Y-54577661D01*
X80941513Y-54562311D01*
X80805152Y-54498230D01*
X80693402Y-54387416D01*
X80670239Y-54352727D01*
X80651027Y-54313410D01*
X80637402Y-54263855D01*
X80628123Y-54194432D01*
X80621950Y-54095510D01*
X80617643Y-53957461D01*
X80613962Y-53770654D01*
X80604820Y-53252458D01*
X80681617Y-53281656D01*
G36*
X83013824Y-53281703D02*
G01*
X83049652Y-53291856D01*
X83114954Y-53313661D01*
X83206897Y-53345712D01*
X83206851Y-53758891D01*
X83206782Y-53795674D01*
X83202919Y-53987420D01*
X83191050Y-54132414D01*
X83168275Y-54240490D01*
X83131693Y-54321481D01*
X83078405Y-54385222D01*
X83005510Y-54441545D01*
X82934414Y-54476801D01*
X82820745Y-54504054D01*
X82708940Y-54505602D01*
X82622989Y-54479090D01*
X82616527Y-54475429D01*
X82596599Y-54475821D01*
X82582981Y-54506494D01*
X82573154Y-54576812D01*
X82564598Y-54696143D01*
X82550000Y-54941027D01*
X82455115Y-54901003D01*
X82360230Y-54860980D01*
X82360230Y-54071294D01*
X82360231Y-54062080D01*
X82360623Y-53854917D01*
X82361671Y-53668568D01*
X82363278Y-53510547D01*
X82365345Y-53388370D01*
X82367775Y-53309552D01*
X82370471Y-53281609D01*
X82371525Y-53281703D01*
X82407353Y-53291856D01*
X82472655Y-53313661D01*
X82564598Y-53345712D01*
X82564598Y-53757009D01*
X82565182Y-53918615D01*
X82567896Y-54035823D01*
X82574142Y-54115585D01*
X82585320Y-54168469D01*
X82602832Y-54205043D01*
X82628078Y-54235877D01*
X82645290Y-54252275D01*
X82738364Y-54297693D01*
X82840949Y-54293672D01*
X82934957Y-54239968D01*
X82948642Y-54226641D01*
X82970561Y-54198968D01*
X82985560Y-54162386D01*
X82994947Y-54107000D01*
X83000032Y-54022912D01*
X83002123Y-53900227D01*
X83002529Y-53729049D01*
X83002724Y-53642231D01*
X83003990Y-53499435D01*
X83006239Y-53385077D01*
X83009242Y-53309140D01*
X83012770Y-53281609D01*
X83013824Y-53281703D01*
G37*
X83013824Y-53281703D02*
X83049652Y-53291856D01*
X83114954Y-53313661D01*
X83206897Y-53345712D01*
X83206851Y-53758891D01*
X83206782Y-53795674D01*
X83202919Y-53987420D01*
X83191050Y-54132414D01*
X83168275Y-54240490D01*
X83131693Y-54321481D01*
X83078405Y-54385222D01*
X83005510Y-54441545D01*
X82934414Y-54476801D01*
X82820745Y-54504054D01*
X82708940Y-54505602D01*
X82622989Y-54479090D01*
X82616527Y-54475429D01*
X82596599Y-54475821D01*
X82582981Y-54506494D01*
X82573154Y-54576812D01*
X82564598Y-54696143D01*
X82550000Y-54941027D01*
X82455115Y-54901003D01*
X82360230Y-54860980D01*
X82360230Y-54071294D01*
X82360231Y-54062080D01*
X82360623Y-53854917D01*
X82361671Y-53668568D01*
X82363278Y-53510547D01*
X82365345Y-53388370D01*
X82367775Y-53309552D01*
X82370471Y-53281609D01*
X82371525Y-53281703D01*
X82407353Y-53291856D01*
X82472655Y-53313661D01*
X82564598Y-53345712D01*
X82564598Y-53757009D01*
X82565182Y-53918615D01*
X82567896Y-54035823D01*
X82574142Y-54115585D01*
X82585320Y-54168469D01*
X82602832Y-54205043D01*
X82628078Y-54235877D01*
X82645290Y-54252275D01*
X82738364Y-54297693D01*
X82840949Y-54293672D01*
X82934957Y-54239968D01*
X82948642Y-54226641D01*
X82970561Y-54198968D01*
X82985560Y-54162386D01*
X82994947Y-54107000D01*
X83000032Y-54022912D01*
X83002123Y-53900227D01*
X83002529Y-53729049D01*
X83002724Y-53642231D01*
X83003990Y-53499435D01*
X83006239Y-53385077D01*
X83009242Y-53309140D01*
X83012770Y-53281609D01*
X83013824Y-53281703D01*
G36*
X84042210Y-53281794D02*
G01*
X84081018Y-53296502D01*
X84145291Y-53327544D01*
X84234120Y-53373479D01*
X84223564Y-53787372D01*
X84222829Y-53814821D01*
X84214445Y-54007483D01*
X84199634Y-54152691D01*
X84175371Y-54260113D01*
X84138636Y-54339416D01*
X84086403Y-54400270D01*
X84015652Y-54452342D01*
X84014343Y-54453158D01*
X83899944Y-54495640D01*
X83767635Y-54502816D01*
X83640005Y-54476326D01*
X83539645Y-54417809D01*
X83495495Y-54372216D01*
X83410653Y-54235928D01*
X83382069Y-54087342D01*
X83382069Y-53985118D01*
X83476037Y-54024628D01*
X83541023Y-54064496D01*
X83592237Y-54147266D01*
X83597496Y-54164331D01*
X83654097Y-54251276D01*
X83739406Y-54298242D01*
X83837359Y-54300259D01*
X83931894Y-54252356D01*
X83946007Y-54240002D01*
X83993203Y-54186317D01*
X84000997Y-54139512D01*
X83965294Y-54093554D01*
X83881997Y-54042412D01*
X83747012Y-53980052D01*
X83737882Y-53976103D01*
X83588031Y-53906228D01*
X83485684Y-53844328D01*
X83422680Y-53782524D01*
X83390862Y-53712938D01*
X83382069Y-53627692D01*
X83393591Y-53533184D01*
X83451772Y-53412215D01*
X83554125Y-53325312D01*
X83628157Y-53299222D01*
X83732633Y-53284945D01*
X83834083Y-53287994D01*
X83906528Y-53309533D01*
X83914223Y-53314896D01*
X83934659Y-53352368D01*
X83920478Y-53418409D01*
X83895839Y-53470247D01*
X83856330Y-53491828D01*
X83781398Y-53490754D01*
X83677370Y-53496945D01*
X83609395Y-53539689D01*
X83586437Y-53618811D01*
X83586458Y-53621084D01*
X83600371Y-53667014D01*
X83647697Y-53709155D01*
X83739713Y-53757728D01*
X83864849Y-53816210D01*
X83947732Y-53848025D01*
X83995580Y-53845975D01*
X84017937Y-53803949D01*
X84024351Y-53715838D01*
X84024368Y-53575531D01*
X84025083Y-53488919D01*
X84028365Y-53381959D01*
X84033700Y-53308750D01*
X84040415Y-53281609D01*
X84042210Y-53281794D01*
G37*
X84042210Y-53281794D02*
X84081018Y-53296502D01*
X84145291Y-53327544D01*
X84234120Y-53373479D01*
X84223564Y-53787372D01*
X84222829Y-53814821D01*
X84214445Y-54007483D01*
X84199634Y-54152691D01*
X84175371Y-54260113D01*
X84138636Y-54339416D01*
X84086403Y-54400270D01*
X84015652Y-54452342D01*
X84014343Y-54453158D01*
X83899944Y-54495640D01*
X83767635Y-54502816D01*
X83640005Y-54476326D01*
X83539645Y-54417809D01*
X83495495Y-54372216D01*
X83410653Y-54235928D01*
X83382069Y-54087342D01*
X83382069Y-53985118D01*
X83476037Y-54024628D01*
X83541023Y-54064496D01*
X83592237Y-54147266D01*
X83597496Y-54164331D01*
X83654097Y-54251276D01*
X83739406Y-54298242D01*
X83837359Y-54300259D01*
X83931894Y-54252356D01*
X83946007Y-54240002D01*
X83993203Y-54186317D01*
X84000997Y-54139512D01*
X83965294Y-54093554D01*
X83881997Y-54042412D01*
X83747012Y-53980052D01*
X83737882Y-53976103D01*
X83588031Y-53906228D01*
X83485684Y-53844328D01*
X83422680Y-53782524D01*
X83390862Y-53712938D01*
X83382069Y-53627692D01*
X83393591Y-53533184D01*
X83451772Y-53412215D01*
X83554125Y-53325312D01*
X83628157Y-53299222D01*
X83732633Y-53284945D01*
X83834083Y-53287994D01*
X83906528Y-53309533D01*
X83914223Y-53314896D01*
X83934659Y-53352368D01*
X83920478Y-53418409D01*
X83895839Y-53470247D01*
X83856330Y-53491828D01*
X83781398Y-53490754D01*
X83677370Y-53496945D01*
X83609395Y-53539689D01*
X83586437Y-53618811D01*
X83586458Y-53621084D01*
X83600371Y-53667014D01*
X83647697Y-53709155D01*
X83739713Y-53757728D01*
X83864849Y-53816210D01*
X83947732Y-53848025D01*
X83995580Y-53845975D01*
X84017937Y-53803949D01*
X84024351Y-53715838D01*
X84024368Y-53575531D01*
X84025083Y-53488919D01*
X84028365Y-53381959D01*
X84033700Y-53308750D01*
X84040415Y-53281609D01*
X84042210Y-53281794D01*
G36*
X86627393Y-55677643D02*
G01*
X86672391Y-55709342D01*
X86749273Y-55774819D01*
X86851279Y-55867952D01*
X86971649Y-55982619D01*
X87103621Y-56112700D01*
X87539961Y-56549768D01*
X86860267Y-57549560D01*
X86963598Y-57773114D01*
X86963904Y-57773775D01*
X87025954Y-57916286D01*
X87089360Y-58074982D01*
X87140442Y-58215632D01*
X87148173Y-58238317D01*
X87187148Y-58343630D01*
X87222293Y-58425466D01*
X87246805Y-58467699D01*
X87256788Y-58473663D01*
X87316714Y-58493671D01*
X87418468Y-58519558D01*
X87550932Y-58548630D01*
X87702989Y-58578194D01*
X87748534Y-58586533D01*
X87913315Y-58616893D01*
X88067070Y-58645491D01*
X88194322Y-58669436D01*
X88279598Y-58685840D01*
X88432874Y-58716094D01*
X88432874Y-59354355D01*
X88432840Y-59432835D01*
X88432192Y-59624297D01*
X88430280Y-59767188D01*
X88426531Y-59868811D01*
X88420378Y-59936469D01*
X88411249Y-59977464D01*
X88398573Y-59999100D01*
X88381782Y-60008680D01*
X88365526Y-60012561D01*
X88299252Y-60026290D01*
X88193521Y-60047255D01*
X88059085Y-60073412D01*
X87906698Y-60102717D01*
X87747110Y-60133123D01*
X87591075Y-60162587D01*
X87449343Y-60189063D01*
X87332669Y-60210506D01*
X87251803Y-60224872D01*
X87217497Y-60230115D01*
X87215178Y-60233280D01*
X87196526Y-60274358D01*
X87164247Y-60352956D01*
X87123609Y-60456379D01*
X87067212Y-60595727D01*
X86997786Y-60756774D01*
X86932712Y-60898709D01*
X86917798Y-60930568D01*
X86875953Y-61030331D01*
X86850882Y-61107279D01*
X86847574Y-61146870D01*
X86849280Y-61149675D01*
X86876369Y-61190995D01*
X86930073Y-61271260D01*
X87005123Y-61382650D01*
X87096254Y-61517345D01*
X87198200Y-61667524D01*
X87313070Y-61838149D01*
X87399239Y-61970689D01*
X87457869Y-62067888D01*
X87492350Y-62135766D01*
X87506074Y-62180344D01*
X87502432Y-62207639D01*
X87501206Y-62209687D01*
X87468253Y-62249464D01*
X87401073Y-62321948D01*
X87306581Y-62419954D01*
X87191694Y-62536298D01*
X87063328Y-62663795D01*
X86930169Y-62793179D01*
X86799731Y-62914791D01*
X86703881Y-62996844D01*
X86640134Y-63041440D01*
X86606004Y-63050683D01*
X86601544Y-63048607D01*
X86554579Y-63020615D01*
X86469315Y-62965916D01*
X86353741Y-62889763D01*
X86215846Y-62797408D01*
X86063619Y-62694103D01*
X85567390Y-62355235D01*
X85343293Y-62456944D01*
X85336781Y-62459891D01*
X85199196Y-62519496D01*
X85053233Y-62578778D01*
X84929425Y-62625315D01*
X84928878Y-62625507D01*
X84830586Y-62661503D01*
X84754919Y-62691905D01*
X84718220Y-62710148D01*
X84717626Y-62710810D01*
X84705167Y-62748169D01*
X84684664Y-62833129D01*
X84658093Y-62956531D01*
X84627433Y-63109218D01*
X84594664Y-63282033D01*
X84593522Y-63288226D01*
X84560807Y-63464569D01*
X84530845Y-63624257D01*
X84505575Y-63757095D01*
X84486935Y-63852887D01*
X84476865Y-63901437D01*
X84476221Y-63904127D01*
X84469592Y-63924912D01*
X84456159Y-63940534D01*
X84428554Y-63951730D01*
X84379407Y-63959238D01*
X84301347Y-63963795D01*
X84187006Y-63966137D01*
X84029014Y-63967002D01*
X83820000Y-63967126D01*
X83793738Y-63967126D01*
X83590825Y-63966955D01*
X83438105Y-63965961D01*
X83328208Y-63963407D01*
X83253765Y-63958555D01*
X83207406Y-63950669D01*
X83181761Y-63939012D01*
X83169461Y-63922847D01*
X83163135Y-63901437D01*
X83162953Y-63900668D01*
X83152559Y-63850337D01*
X83133661Y-63753112D01*
X83108198Y-63619190D01*
X83078110Y-63458765D01*
X83045336Y-63282033D01*
X83042663Y-63267572D01*
X83009990Y-63096041D01*
X82979587Y-62945375D01*
X82953432Y-62824733D01*
X82933504Y-62743271D01*
X82921780Y-62710148D01*
X82921718Y-62710095D01*
X82884771Y-62691771D01*
X82808943Y-62661323D01*
X82710575Y-62625315D01*
X82705035Y-62623360D01*
X82579276Y-62575830D01*
X82432989Y-62516217D01*
X82296707Y-62456944D01*
X82072610Y-62355235D01*
X81576382Y-62694103D01*
X81541430Y-62717937D01*
X81391720Y-62819245D01*
X81258133Y-62908425D01*
X81148657Y-62980227D01*
X81071282Y-63029397D01*
X81033996Y-63050683D01*
X81008448Y-63045804D01*
X80950445Y-63007998D01*
X80860805Y-62933130D01*
X80737043Y-62819097D01*
X80576672Y-62663795D01*
X80562321Y-62649659D01*
X80435067Y-62523001D01*
X80322031Y-62408255D01*
X80230133Y-62312609D01*
X80166293Y-62243254D01*
X80137430Y-62207380D01*
X80137336Y-62207206D01*
X80133669Y-62179894D01*
X80147192Y-62135592D01*
X80181316Y-62068239D01*
X80239452Y-61971774D01*
X80325012Y-61840137D01*
X80441406Y-61667266D01*
X80461241Y-61638088D01*
X80561555Y-61490274D01*
X80650077Y-61359423D01*
X80721535Y-61253357D01*
X80770657Y-61179898D01*
X80792169Y-61146870D01*
X80793792Y-61139874D01*
X80783613Y-61087674D01*
X80753121Y-61002439D01*
X80707288Y-60898709D01*
X80645000Y-60763049D01*
X80575452Y-60602079D01*
X80516391Y-60456379D01*
X80501748Y-60418667D01*
X80463400Y-60322378D01*
X80435230Y-60255296D01*
X80422503Y-60230115D01*
X80408455Y-60228233D01*
X80345319Y-60217349D01*
X80241981Y-60198551D01*
X80109191Y-60173885D01*
X79957703Y-60145396D01*
X79798268Y-60115127D01*
X79641639Y-60085125D01*
X79498567Y-60057434D01*
X79379805Y-60034100D01*
X79296104Y-60017167D01*
X79258218Y-60008680D01*
X79251937Y-60006287D01*
X79236627Y-59993381D01*
X79225237Y-59965904D01*
X79217197Y-59916554D01*
X79211936Y-59838027D01*
X79208884Y-59723020D01*
X79207471Y-59564230D01*
X79207127Y-59354355D01*
X79207127Y-58716094D01*
X79360402Y-58685840D01*
X79378943Y-58682215D01*
X79477404Y-58663431D01*
X79613552Y-58637907D01*
X79771913Y-58608532D01*
X79937012Y-58578194D01*
X80002027Y-58565991D01*
X80147303Y-58536303D01*
X80268374Y-58508230D01*
X80354114Y-58484464D01*
X80393399Y-58467699D01*
X80411201Y-58440306D01*
X80443611Y-58367826D01*
X80476766Y-58274023D01*
X80488436Y-58238897D01*
X80531396Y-58123591D01*
X80586808Y-57987124D01*
X80645647Y-57852046D01*
X80677116Y-57781491D01*
X80721949Y-57676105D01*
X80752760Y-57597182D01*
X80764215Y-57557947D01*
X80763578Y-57554986D01*
X80741850Y-57513361D01*
X80692854Y-57433031D01*
X80621562Y-57321780D01*
X80532946Y-57187395D01*
X80431977Y-57037660D01*
X80099739Y-56550069D01*
X80536229Y-56112851D01*
X80578445Y-56070779D01*
X80707530Y-55944847D01*
X80822893Y-55836246D01*
X80917776Y-55751097D01*
X80985418Y-55695518D01*
X81019062Y-55675632D01*
X81055598Y-55690762D01*
X81132110Y-55734199D01*
X81239804Y-55800730D01*
X81370233Y-55885133D01*
X81514948Y-55982184D01*
X81657090Y-56078036D01*
X81785322Y-56162443D01*
X81889946Y-56229150D01*
X81962829Y-56272976D01*
X81995842Y-56288736D01*
X81997777Y-56288592D01*
X82041631Y-56273055D01*
X82119402Y-56236879D01*
X82215608Y-56187215D01*
X82216619Y-56186671D01*
X82344395Y-56122674D01*
X82431949Y-56091409D01*
X82486274Y-56091323D01*
X82514359Y-56120862D01*
X82526248Y-56149939D01*
X82558332Y-56227812D01*
X82607753Y-56347525D01*
X82671882Y-56502714D01*
X82748089Y-56687016D01*
X82833745Y-56894067D01*
X82926219Y-57117504D01*
X83010038Y-57320774D01*
X83095322Y-57529351D01*
X83170778Y-57715737D01*
X83233874Y-57873593D01*
X83282077Y-57996581D01*
X83312856Y-58078361D01*
X83323678Y-58112594D01*
X83303009Y-58143985D01*
X83245591Y-58196398D01*
X83164312Y-58257296D01*
X82969180Y-58416613D01*
X82794555Y-58620193D01*
X82666765Y-58844192D01*
X82586598Y-59081997D01*
X82554840Y-59326993D01*
X82572278Y-59572567D01*
X82639699Y-59812105D01*
X82757889Y-60038993D01*
X82927636Y-60246617D01*
X83016144Y-60327473D01*
X83228196Y-60470441D01*
X83455095Y-60563648D01*
X83690209Y-60609313D01*
X83926906Y-60609656D01*
X84158554Y-60566895D01*
X84378522Y-60483250D01*
X84580178Y-60360939D01*
X84756889Y-60202183D01*
X84902023Y-60009199D01*
X85008950Y-59784207D01*
X85071036Y-59529425D01*
X85082431Y-59406623D01*
X85066754Y-59140566D01*
X84996154Y-58888144D01*
X84872718Y-58653818D01*
X84698534Y-58442048D01*
X84475689Y-58257296D01*
X84397439Y-58198877D01*
X84338756Y-58145890D01*
X84316322Y-58112644D01*
X84325268Y-58083661D01*
X84354297Y-58006004D01*
X84400974Y-57886549D01*
X84462769Y-57731638D01*
X84537150Y-57547608D01*
X84621588Y-57340800D01*
X84713551Y-57117554D01*
X84797229Y-56915258D01*
X84883634Y-56706314D01*
X84960862Y-56519502D01*
X85026284Y-56361186D01*
X85077269Y-56237731D01*
X85111188Y-56155502D01*
X85125410Y-56120862D01*
X85125575Y-56120452D01*
X85154028Y-56091202D01*
X85208618Y-56091537D01*
X85296391Y-56123020D01*
X85424392Y-56187215D01*
X85434468Y-56192620D01*
X85529519Y-56241250D01*
X85604576Y-56275672D01*
X85644158Y-56288736D01*
X85676600Y-56273298D01*
X85749105Y-56229742D01*
X85853435Y-56163249D01*
X85981461Y-56079002D01*
X86125052Y-55982184D01*
X86266532Y-55887266D01*
X86397389Y-55802510D01*
X86505708Y-55735504D01*
X86583040Y-55691471D01*
X86620938Y-55675632D01*
X86627393Y-55677643D01*
G37*
X86627393Y-55677643D02*
X86672391Y-55709342D01*
X86749273Y-55774819D01*
X86851279Y-55867952D01*
X86971649Y-55982619D01*
X87103621Y-56112700D01*
X87539961Y-56549768D01*
X86860267Y-57549560D01*
X86963598Y-57773114D01*
X86963904Y-57773775D01*
X87025954Y-57916286D01*
X87089360Y-58074982D01*
X87140442Y-58215632D01*
X87148173Y-58238317D01*
X87187148Y-58343630D01*
X87222293Y-58425466D01*
X87246805Y-58467699D01*
X87256788Y-58473663D01*
X87316714Y-58493671D01*
X87418468Y-58519558D01*
X87550932Y-58548630D01*
X87702989Y-58578194D01*
X87748534Y-58586533D01*
X87913315Y-58616893D01*
X88067070Y-58645491D01*
X88194322Y-58669436D01*
X88279598Y-58685840D01*
X88432874Y-58716094D01*
X88432874Y-59354355D01*
X88432840Y-59432835D01*
X88432192Y-59624297D01*
X88430280Y-59767188D01*
X88426531Y-59868811D01*
X88420378Y-59936469D01*
X88411249Y-59977464D01*
X88398573Y-59999100D01*
X88381782Y-60008680D01*
X88365526Y-60012561D01*
X88299252Y-60026290D01*
X88193521Y-60047255D01*
X88059085Y-60073412D01*
X87906698Y-60102717D01*
X87747110Y-60133123D01*
X87591075Y-60162587D01*
X87449343Y-60189063D01*
X87332669Y-60210506D01*
X87251803Y-60224872D01*
X87217497Y-60230115D01*
X87215178Y-60233280D01*
X87196526Y-60274358D01*
X87164247Y-60352956D01*
X87123609Y-60456379D01*
X87067212Y-60595727D01*
X86997786Y-60756774D01*
X86932712Y-60898709D01*
X86917798Y-60930568D01*
X86875953Y-61030331D01*
X86850882Y-61107279D01*
X86847574Y-61146870D01*
X86849280Y-61149675D01*
X86876369Y-61190995D01*
X86930073Y-61271260D01*
X87005123Y-61382650D01*
X87096254Y-61517345D01*
X87198200Y-61667524D01*
X87313070Y-61838149D01*
X87399239Y-61970689D01*
X87457869Y-62067888D01*
X87492350Y-62135766D01*
X87506074Y-62180344D01*
X87502432Y-62207639D01*
X87501206Y-62209687D01*
X87468253Y-62249464D01*
X87401073Y-62321948D01*
X87306581Y-62419954D01*
X87191694Y-62536298D01*
X87063328Y-62663795D01*
X86930169Y-62793179D01*
X86799731Y-62914791D01*
X86703881Y-62996844D01*
X86640134Y-63041440D01*
X86606004Y-63050683D01*
X86601544Y-63048607D01*
X86554579Y-63020615D01*
X86469315Y-62965916D01*
X86353741Y-62889763D01*
X86215846Y-62797408D01*
X86063619Y-62694103D01*
X85567390Y-62355235D01*
X85343293Y-62456944D01*
X85336781Y-62459891D01*
X85199196Y-62519496D01*
X85053233Y-62578778D01*
X84929425Y-62625315D01*
X84928878Y-62625507D01*
X84830586Y-62661503D01*
X84754919Y-62691905D01*
X84718220Y-62710148D01*
X84717626Y-62710810D01*
X84705167Y-62748169D01*
X84684664Y-62833129D01*
X84658093Y-62956531D01*
X84627433Y-63109218D01*
X84594664Y-63282033D01*
X84593522Y-63288226D01*
X84560807Y-63464569D01*
X84530845Y-63624257D01*
X84505575Y-63757095D01*
X84486935Y-63852887D01*
X84476865Y-63901437D01*
X84476221Y-63904127D01*
X84469592Y-63924912D01*
X84456159Y-63940534D01*
X84428554Y-63951730D01*
X84379407Y-63959238D01*
X84301347Y-63963795D01*
X84187006Y-63966137D01*
X84029014Y-63967002D01*
X83820000Y-63967126D01*
X83793738Y-63967126D01*
X83590825Y-63966955D01*
X83438105Y-63965961D01*
X83328208Y-63963407D01*
X83253765Y-63958555D01*
X83207406Y-63950669D01*
X83181761Y-63939012D01*
X83169461Y-63922847D01*
X83163135Y-63901437D01*
X83162953Y-63900668D01*
X83152559Y-63850337D01*
X83133661Y-63753112D01*
X83108198Y-63619190D01*
X83078110Y-63458765D01*
X83045336Y-63282033D01*
X83042663Y-63267572D01*
X83009990Y-63096041D01*
X82979587Y-62945375D01*
X82953432Y-62824733D01*
X82933504Y-62743271D01*
X82921780Y-62710148D01*
X82921718Y-62710095D01*
X82884771Y-62691771D01*
X82808943Y-62661323D01*
X82710575Y-62625315D01*
X82705035Y-62623360D01*
X82579276Y-62575830D01*
X82432989Y-62516217D01*
X82296707Y-62456944D01*
X82072610Y-62355235D01*
X81576382Y-62694103D01*
X81541430Y-62717937D01*
X81391720Y-62819245D01*
X81258133Y-62908425D01*
X81148657Y-62980227D01*
X81071282Y-63029397D01*
X81033996Y-63050683D01*
X81008448Y-63045804D01*
X80950445Y-63007998D01*
X80860805Y-62933130D01*
X80737043Y-62819097D01*
X80576672Y-62663795D01*
X80562321Y-62649659D01*
X80435067Y-62523001D01*
X80322031Y-62408255D01*
X80230133Y-62312609D01*
X80166293Y-62243254D01*
X80137430Y-62207380D01*
X80137336Y-62207206D01*
X80133669Y-62179894D01*
X80147192Y-62135592D01*
X80181316Y-62068239D01*
X80239452Y-61971774D01*
X80325012Y-61840137D01*
X80441406Y-61667266D01*
X80461241Y-61638088D01*
X80561555Y-61490274D01*
X80650077Y-61359423D01*
X80721535Y-61253357D01*
X80770657Y-61179898D01*
X80792169Y-61146870D01*
X80793792Y-61139874D01*
X80783613Y-61087674D01*
X80753121Y-61002439D01*
X80707288Y-60898709D01*
X80645000Y-60763049D01*
X80575452Y-60602079D01*
X80516391Y-60456379D01*
X80501748Y-60418667D01*
X80463400Y-60322378D01*
X80435230Y-60255296D01*
X80422503Y-60230115D01*
X80408455Y-60228233D01*
X80345319Y-60217349D01*
X80241981Y-60198551D01*
X80109191Y-60173885D01*
X79957703Y-60145396D01*
X79798268Y-60115127D01*
X79641639Y-60085125D01*
X79498567Y-60057434D01*
X79379805Y-60034100D01*
X79296104Y-60017167D01*
X79258218Y-60008680D01*
X79251937Y-60006287D01*
X79236627Y-59993381D01*
X79225237Y-59965904D01*
X79217197Y-59916554D01*
X79211936Y-59838027D01*
X79208884Y-59723020D01*
X79207471Y-59564230D01*
X79207127Y-59354355D01*
X79207127Y-58716094D01*
X79360402Y-58685840D01*
X79378943Y-58682215D01*
X79477404Y-58663431D01*
X79613552Y-58637907D01*
X79771913Y-58608532D01*
X79937012Y-58578194D01*
X80002027Y-58565991D01*
X80147303Y-58536303D01*
X80268374Y-58508230D01*
X80354114Y-58484464D01*
X80393399Y-58467699D01*
X80411201Y-58440306D01*
X80443611Y-58367826D01*
X80476766Y-58274023D01*
X80488436Y-58238897D01*
X80531396Y-58123591D01*
X80586808Y-57987124D01*
X80645647Y-57852046D01*
X80677116Y-57781491D01*
X80721949Y-57676105D01*
X80752760Y-57597182D01*
X80764215Y-57557947D01*
X80763578Y-57554986D01*
X80741850Y-57513361D01*
X80692854Y-57433031D01*
X80621562Y-57321780D01*
X80532946Y-57187395D01*
X80431977Y-57037660D01*
X80099739Y-56550069D01*
X80536229Y-56112851D01*
X80578445Y-56070779D01*
X80707530Y-55944847D01*
X80822893Y-55836246D01*
X80917776Y-55751097D01*
X80985418Y-55695518D01*
X81019062Y-55675632D01*
X81055598Y-55690762D01*
X81132110Y-55734199D01*
X81239804Y-55800730D01*
X81370233Y-55885133D01*
X81514948Y-55982184D01*
X81657090Y-56078036D01*
X81785322Y-56162443D01*
X81889946Y-56229150D01*
X81962829Y-56272976D01*
X81995842Y-56288736D01*
X81997777Y-56288592D01*
X82041631Y-56273055D01*
X82119402Y-56236879D01*
X82215608Y-56187215D01*
X82216619Y-56186671D01*
X82344395Y-56122674D01*
X82431949Y-56091409D01*
X82486274Y-56091323D01*
X82514359Y-56120862D01*
X82526248Y-56149939D01*
X82558332Y-56227812D01*
X82607753Y-56347525D01*
X82671882Y-56502714D01*
X82748089Y-56687016D01*
X82833745Y-56894067D01*
X82926219Y-57117504D01*
X83010038Y-57320774D01*
X83095322Y-57529351D01*
X83170778Y-57715737D01*
X83233874Y-57873593D01*
X83282077Y-57996581D01*
X83312856Y-58078361D01*
X83323678Y-58112594D01*
X83303009Y-58143985D01*
X83245591Y-58196398D01*
X83164312Y-58257296D01*
X82969180Y-58416613D01*
X82794555Y-58620193D01*
X82666765Y-58844192D01*
X82586598Y-59081997D01*
X82554840Y-59326993D01*
X82572278Y-59572567D01*
X82639699Y-59812105D01*
X82757889Y-60038993D01*
X82927636Y-60246617D01*
X83016144Y-60327473D01*
X83228196Y-60470441D01*
X83455095Y-60563648D01*
X83690209Y-60609313D01*
X83926906Y-60609656D01*
X84158554Y-60566895D01*
X84378522Y-60483250D01*
X84580178Y-60360939D01*
X84756889Y-60202183D01*
X84902023Y-60009199D01*
X85008950Y-59784207D01*
X85071036Y-59529425D01*
X85082431Y-59406623D01*
X85066754Y-59140566D01*
X84996154Y-58888144D01*
X84872718Y-58653818D01*
X84698534Y-58442048D01*
X84475689Y-58257296D01*
X84397439Y-58198877D01*
X84338756Y-58145890D01*
X84316322Y-58112644D01*
X84325268Y-58083661D01*
X84354297Y-58006004D01*
X84400974Y-57886549D01*
X84462769Y-57731638D01*
X84537150Y-57547608D01*
X84621588Y-57340800D01*
X84713551Y-57117554D01*
X84797229Y-56915258D01*
X84883634Y-56706314D01*
X84960862Y-56519502D01*
X85026284Y-56361186D01*
X85077269Y-56237731D01*
X85111188Y-56155502D01*
X85125410Y-56120862D01*
X85125575Y-56120452D01*
X85154028Y-56091202D01*
X85208618Y-56091537D01*
X85296391Y-56123020D01*
X85424392Y-56187215D01*
X85434468Y-56192620D01*
X85529519Y-56241250D01*
X85604576Y-56275672D01*
X85644158Y-56288736D01*
X85676600Y-56273298D01*
X85749105Y-56229742D01*
X85853435Y-56163249D01*
X85981461Y-56079002D01*
X86125052Y-55982184D01*
X86266532Y-55887266D01*
X86397389Y-55802510D01*
X86505708Y-55735504D01*
X86583040Y-55691471D01*
X86620938Y-55675632D01*
X86627393Y-55677643D01*
G36*
X77251062Y-53892256D02*
G01*
X77252645Y-53751082D01*
X77258084Y-53652715D01*
X77269357Y-53584010D01*
X77288439Y-53531819D01*
X77317306Y-53482996D01*
X77324408Y-53472865D01*
X77399556Y-53392988D01*
X77485180Y-53332747D01*
X77529148Y-53313198D01*
X77687139Y-53280592D01*
X77843387Y-53301683D01*
X77987382Y-53373751D01*
X78108615Y-53494078D01*
X78118850Y-53510197D01*
X78152153Y-53603795D01*
X78174595Y-53734121D01*
X78185484Y-53884629D01*
X78184129Y-54038773D01*
X78169839Y-54180008D01*
X78141925Y-54291787D01*
X78106051Y-54366234D01*
X78005061Y-54482032D01*
X77868221Y-54553985D01*
X77700717Y-54578719D01*
X77655981Y-54577381D01*
X77524242Y-54549992D01*
X77416032Y-54480993D01*
X77316724Y-54362136D01*
X77310816Y-54353319D01*
X77284079Y-54305892D01*
X77266688Y-54252286D01*
X77256688Y-54179451D01*
X77252122Y-54074341D01*
X77251107Y-53933981D01*
X77542989Y-53933981D01*
X77545899Y-54058778D01*
X77560418Y-54177674D01*
X77590390Y-54252816D01*
X77639411Y-54292107D01*
X77711076Y-54303448D01*
X77738368Y-54301193D01*
X77814824Y-54259840D01*
X77865350Y-54167100D01*
X77889616Y-54023853D01*
X77887294Y-53830980D01*
X77886361Y-53818567D01*
X77872758Y-53712143D01*
X77848535Y-53644654D01*
X77807635Y-53598416D01*
X77739059Y-53555105D01*
X77671236Y-53552828D01*
X77601379Y-53602759D01*
X77589229Y-53615898D01*
X77565425Y-53655215D01*
X77551372Y-53712326D01*
X77544687Y-53800744D01*
X77542989Y-53933981D01*
X77251107Y-53933981D01*
X77251035Y-53923908D01*
X77251062Y-53892256D01*
G37*
X77251062Y-53892256D02*
X77252645Y-53751082D01*
X77258084Y-53652715D01*
X77269357Y-53584010D01*
X77288439Y-53531819D01*
X77317306Y-53482996D01*
X77324408Y-53472865D01*
X77399556Y-53392988D01*
X77485180Y-53332747D01*
X77529148Y-53313198D01*
X77687139Y-53280592D01*
X77843387Y-53301683D01*
X77987382Y-53373751D01*
X78108615Y-53494078D01*
X78118850Y-53510197D01*
X78152153Y-53603795D01*
X78174595Y-53734121D01*
X78185484Y-53884629D01*
X78184129Y-54038773D01*
X78169839Y-54180008D01*
X78141925Y-54291787D01*
X78106051Y-54366234D01*
X78005061Y-54482032D01*
X77868221Y-54553985D01*
X77700717Y-54578719D01*
X77655981Y-54577381D01*
X77524242Y-54549992D01*
X77416032Y-54480993D01*
X77316724Y-54362136D01*
X77310816Y-54353319D01*
X77284079Y-54305892D01*
X77266688Y-54252286D01*
X77256688Y-54179451D01*
X77252122Y-54074341D01*
X77251107Y-53933981D01*
X77542989Y-53933981D01*
X77545899Y-54058778D01*
X77560418Y-54177674D01*
X77590390Y-54252816D01*
X77639411Y-54292107D01*
X77711076Y-54303448D01*
X77738368Y-54301193D01*
X77814824Y-54259840D01*
X77865350Y-54167100D01*
X77889616Y-54023853D01*
X77887294Y-53830980D01*
X77886361Y-53818567D01*
X77872758Y-53712143D01*
X77848535Y-53644654D01*
X77807635Y-53598416D01*
X77739059Y-53555105D01*
X77671236Y-53552828D01*
X77601379Y-53602759D01*
X77589229Y-53615898D01*
X77565425Y-53655215D01*
X77551372Y-53712326D01*
X77544687Y-53800744D01*
X77542989Y-53933981D01*
X77251107Y-53933981D01*
X77251035Y-53923908D01*
X77251062Y-53892256D01*
G36*
X88621091Y-53290728D02*
G01*
X88679661Y-53315491D01*
X88681419Y-53316293D01*
X88711833Y-53332215D01*
X88732288Y-53354062D01*
X88744760Y-53392328D01*
X88751223Y-53457505D01*
X88753652Y-53560087D01*
X88754023Y-53710567D01*
X88754771Y-53806026D01*
X88762744Y-53985429D01*
X88781002Y-54116837D01*
X88811474Y-54207141D01*
X88856088Y-54263233D01*
X88916774Y-54292006D01*
X88925193Y-54294011D01*
X89038861Y-54295577D01*
X89127508Y-54244652D01*
X89188735Y-54142555D01*
X89199654Y-54113039D01*
X89224542Y-54047717D01*
X89237146Y-54017700D01*
X89263031Y-54021836D01*
X89319561Y-54044283D01*
X89372285Y-54081353D01*
X89396322Y-54151413D01*
X89389153Y-54201594D01*
X89345103Y-54303382D01*
X89273877Y-54398765D01*
X89190585Y-54464731D01*
X89155690Y-54479982D01*
X89023557Y-54505479D01*
X88883275Y-54495381D01*
X88762739Y-54450607D01*
X88712612Y-54416966D01*
X88661848Y-54368764D01*
X88625638Y-54307449D01*
X88601607Y-54223976D01*
X88587382Y-54109303D01*
X88580588Y-53954387D01*
X88578851Y-53750186D01*
X88579191Y-53644659D01*
X88580899Y-53500459D01*
X88583799Y-53385380D01*
X88587616Y-53309178D01*
X88592075Y-53281609D01*
X88621091Y-53290728D01*
G37*
X88621091Y-53290728D02*
X88679661Y-53315491D01*
X88681419Y-53316293D01*
X88711833Y-53332215D01*
X88732288Y-53354062D01*
X88744760Y-53392328D01*
X88751223Y-53457505D01*
X88753652Y-53560087D01*
X88754023Y-53710567D01*
X88754771Y-53806026D01*
X88762744Y-53985429D01*
X88781002Y-54116837D01*
X88811474Y-54207141D01*
X88856088Y-54263233D01*
X88916774Y-54292006D01*
X88925193Y-54294011D01*
X89038861Y-54295577D01*
X89127508Y-54244652D01*
X89188735Y-54142555D01*
X89199654Y-54113039D01*
X89224542Y-54047717D01*
X89237146Y-54017700D01*
X89263031Y-54021836D01*
X89319561Y-54044283D01*
X89372285Y-54081353D01*
X89396322Y-54151413D01*
X89389153Y-54201594D01*
X89345103Y-54303382D01*
X89273877Y-54398765D01*
X89190585Y-54464731D01*
X89155690Y-54479982D01*
X89023557Y-54505479D01*
X88883275Y-54495381D01*
X88762739Y-54450607D01*
X88712612Y-54416966D01*
X88661848Y-54368764D01*
X88625638Y-54307449D01*
X88601607Y-54223976D01*
X88587382Y-54109303D01*
X88580588Y-53954387D01*
X88578851Y-53750186D01*
X88579191Y-53644659D01*
X88580899Y-53500459D01*
X88583799Y-53385380D01*
X88587616Y-53309178D01*
X88592075Y-53281609D01*
X88621091Y-53290728D01*
G36*
X88270746Y-53290728D02*
G01*
X88329316Y-53315491D01*
X88403678Y-53349373D01*
X88403678Y-53784067D01*
X88403203Y-53895492D01*
X88398707Y-54064699D01*
X88387253Y-54190231D01*
X88366172Y-54281637D01*
X88332794Y-54348468D01*
X88284450Y-54400274D01*
X88218469Y-54446607D01*
X88134406Y-54484844D01*
X87979193Y-54507816D01*
X87908372Y-54505190D01*
X87845806Y-54489298D01*
X87787554Y-54449678D01*
X87712582Y-54375924D01*
X87664367Y-54323837D01*
X87614142Y-54256214D01*
X87591490Y-54192832D01*
X87586207Y-54112416D01*
X87586207Y-53980799D01*
X87675965Y-54027215D01*
X87747096Y-54083775D01*
X87795817Y-54159960D01*
X87804186Y-54180674D01*
X87867944Y-54260959D01*
X87956530Y-54301216D01*
X88053127Y-54297298D01*
X88140920Y-54245057D01*
X88178064Y-54202630D01*
X88199700Y-54148353D01*
X88176539Y-54100046D01*
X88104521Y-54051455D01*
X87979590Y-53996323D01*
X87960632Y-53988708D01*
X87846895Y-53938875D01*
X87749294Y-53889735D01*
X87687197Y-53850920D01*
X87625001Y-53781589D01*
X87583654Y-53670949D01*
X87588043Y-53552218D01*
X87636963Y-53439852D01*
X87729203Y-53348310D01*
X87803890Y-53309342D01*
X87948168Y-53282056D01*
X88028344Y-53285737D01*
X88102565Y-53305640D01*
X88131040Y-53347402D01*
X88120392Y-53416180D01*
X88117295Y-53425274D01*
X88092732Y-53473502D01*
X88051835Y-53491755D01*
X87973921Y-53490534D01*
X87918909Y-53488874D01*
X87854541Y-53503119D01*
X87810439Y-53545708D01*
X87785320Y-53598143D01*
X87782519Y-53653071D01*
X87782648Y-53653392D01*
X87815215Y-53683072D01*
X87884917Y-53726265D01*
X87975102Y-53774539D01*
X88069117Y-53819461D01*
X88150311Y-53852598D01*
X88202032Y-53865517D01*
X88209726Y-53852866D01*
X88219412Y-53793332D01*
X88226046Y-53696113D01*
X88228506Y-53573563D01*
X88229078Y-53488737D01*
X88231775Y-53381906D01*
X88236179Y-53308743D01*
X88241730Y-53281609D01*
X88270746Y-53290728D01*
G37*
X88270746Y-53290728D02*
X88329316Y-53315491D01*
X88403678Y-53349373D01*
X88403678Y-53784067D01*
X88403203Y-53895492D01*
X88398707Y-54064699D01*
X88387253Y-54190231D01*
X88366172Y-54281637D01*
X88332794Y-54348468D01*
X88284450Y-54400274D01*
X88218469Y-54446607D01*
X88134406Y-54484844D01*
X87979193Y-54507816D01*
X87908372Y-54505190D01*
X87845806Y-54489298D01*
X87787554Y-54449678D01*
X87712582Y-54375924D01*
X87664367Y-54323837D01*
X87614142Y-54256214D01*
X87591490Y-54192832D01*
X87586207Y-54112416D01*
X87586207Y-53980799D01*
X87675965Y-54027215D01*
X87747096Y-54083775D01*
X87795817Y-54159960D01*
X87804186Y-54180674D01*
X87867944Y-54260959D01*
X87956530Y-54301216D01*
X88053127Y-54297298D01*
X88140920Y-54245057D01*
X88178064Y-54202630D01*
X88199700Y-54148353D01*
X88176539Y-54100046D01*
X88104521Y-54051455D01*
X87979590Y-53996323D01*
X87960632Y-53988708D01*
X87846895Y-53938875D01*
X87749294Y-53889735D01*
X87687197Y-53850920D01*
X87625001Y-53781589D01*
X87583654Y-53670949D01*
X87588043Y-53552218D01*
X87636963Y-53439852D01*
X87729203Y-53348310D01*
X87803890Y-53309342D01*
X87948168Y-53282056D01*
X88028344Y-53285737D01*
X88102565Y-53305640D01*
X88131040Y-53347402D01*
X88120392Y-53416180D01*
X88117295Y-53425274D01*
X88092732Y-53473502D01*
X88051835Y-53491755D01*
X87973921Y-53490534D01*
X87918909Y-53488874D01*
X87854541Y-53503119D01*
X87810439Y-53545708D01*
X87785320Y-53598143D01*
X87782519Y-53653071D01*
X87782648Y-53653392D01*
X87815215Y-53683072D01*
X87884917Y-53726265D01*
X87975102Y-53774539D01*
X88069117Y-53819461D01*
X88150311Y-53852598D01*
X88202032Y-53865517D01*
X88209726Y-53852866D01*
X88219412Y-53793332D01*
X88226046Y-53696113D01*
X88228506Y-53573563D01*
X88229078Y-53488737D01*
X88231775Y-53381906D01*
X88236179Y-53308743D01*
X88241730Y-53281609D01*
X88270746Y-53290728D01*
G36*
X86707850Y-53294066D02*
G01*
X86743571Y-53298506D01*
X86835699Y-53307898D01*
X86900115Y-53311639D01*
X86919222Y-53311067D01*
X86997610Y-53304874D01*
X87092380Y-53294066D01*
X87122702Y-53290353D01*
X87199089Y-53288893D01*
X87254978Y-53311953D01*
X87318645Y-53368883D01*
X87411035Y-53461273D01*
X87411035Y-53984545D01*
X87410315Y-54139179D01*
X87408071Y-54286609D01*
X87404579Y-54403347D01*
X87400124Y-54480160D01*
X87394987Y-54507816D01*
X87393910Y-54507742D01*
X87356593Y-54493981D01*
X87293543Y-54463656D01*
X87208146Y-54419495D01*
X87200107Y-53960035D01*
X87192069Y-53500575D01*
X87016897Y-53500575D01*
X87008908Y-54004195D01*
X87006376Y-54141096D01*
X87002751Y-54287421D01*
X86998823Y-54403589D01*
X86994920Y-54480191D01*
X86991368Y-54507816D01*
X86990347Y-54507719D01*
X86954949Y-54497557D01*
X86889874Y-54475765D01*
X86797931Y-54443713D01*
X86797484Y-54001339D01*
X86797036Y-53924493D01*
X86793931Y-53775166D01*
X86788378Y-53650456D01*
X86780967Y-53561621D01*
X86772286Y-53519917D01*
X86741229Y-53497611D01*
X86677848Y-53490722D01*
X86608161Y-53500575D01*
X86600173Y-54004195D01*
X86597314Y-54132172D01*
X86591386Y-54283652D01*
X86583635Y-54402470D01*
X86574657Y-54480050D01*
X86565052Y-54507816D01*
X86527590Y-54499030D01*
X86463558Y-54473934D01*
X86389195Y-54440053D01*
X86389195Y-53461273D01*
X86481585Y-53368883D01*
X86502690Y-53348165D01*
X86561153Y-53302115D01*
X86620114Y-53287199D01*
X86707850Y-53294066D01*
G37*
X86707850Y-53294066D02*
X86743571Y-53298506D01*
X86835699Y-53307898D01*
X86900115Y-53311639D01*
X86919222Y-53311067D01*
X86997610Y-53304874D01*
X87092380Y-53294066D01*
X87122702Y-53290353D01*
X87199089Y-53288893D01*
X87254978Y-53311953D01*
X87318645Y-53368883D01*
X87411035Y-53461273D01*
X87411035Y-53984545D01*
X87410315Y-54139179D01*
X87408071Y-54286609D01*
X87404579Y-54403347D01*
X87400124Y-54480160D01*
X87394987Y-54507816D01*
X87393910Y-54507742D01*
X87356593Y-54493981D01*
X87293543Y-54463656D01*
X87208146Y-54419495D01*
X87200107Y-53960035D01*
X87192069Y-53500575D01*
X87016897Y-53500575D01*
X87008908Y-54004195D01*
X87006376Y-54141096D01*
X87002751Y-54287421D01*
X86998823Y-54403589D01*
X86994920Y-54480191D01*
X86991368Y-54507816D01*
X86990347Y-54507719D01*
X86954949Y-54497557D01*
X86889874Y-54475765D01*
X86797931Y-54443713D01*
X86797484Y-54001339D01*
X86797036Y-53924493D01*
X86793931Y-53775166D01*
X86788378Y-53650456D01*
X86780967Y-53561621D01*
X86772286Y-53519917D01*
X86741229Y-53497611D01*
X86677848Y-53490722D01*
X86608161Y-53500575D01*
X86600173Y-54004195D01*
X86597314Y-54132172D01*
X86591386Y-54283652D01*
X86583635Y-54402470D01*
X86574657Y-54480050D01*
X86565052Y-54507816D01*
X86527590Y-54499030D01*
X86463558Y-54473934D01*
X86389195Y-54440053D01*
X86389195Y-53461273D01*
X86481585Y-53368883D01*
X86502690Y-53348165D01*
X86561153Y-53302115D01*
X86620114Y-53287199D01*
X86707850Y-53294066D01*
G36*
X85369781Y-53780865D02*
G01*
X85386261Y-53625680D01*
X85422117Y-53509388D01*
X85481545Y-53420589D01*
X85568743Y-53347881D01*
X85651805Y-53305850D01*
X85791291Y-53282462D01*
X85930588Y-53308035D01*
X86056490Y-53379306D01*
X86155790Y-53493009D01*
X86167781Y-53513976D01*
X86183616Y-53550709D01*
X86195362Y-53597585D01*
X86203622Y-53662645D01*
X86209002Y-53753930D01*
X86212108Y-53879481D01*
X86213543Y-54047339D01*
X86213914Y-54265545D01*
X86214023Y-54942928D01*
X86119138Y-54903181D01*
X86094051Y-54892301D01*
X86054119Y-54867732D01*
X86031261Y-54830525D01*
X86018699Y-54765459D01*
X86009655Y-54657313D01*
X86001395Y-54560212D01*
X85990477Y-54496465D01*
X85974835Y-54472677D01*
X85951264Y-54479057D01*
X85891199Y-54501475D01*
X85783855Y-54507033D01*
X85668376Y-54486272D01*
X85568743Y-54441545D01*
X85513928Y-54400144D01*
X85443548Y-54319368D01*
X85398472Y-54215805D01*
X85374504Y-54078053D01*
X85367761Y-53902894D01*
X85571724Y-53902894D01*
X85572339Y-54002513D01*
X85576593Y-54099749D01*
X85587318Y-54162498D01*
X85607293Y-54204618D01*
X85639296Y-54239968D01*
X85658095Y-54255886D01*
X85755508Y-54298765D01*
X85857563Y-54292015D01*
X85946175Y-54235877D01*
X85965251Y-54213618D01*
X85988514Y-54171707D01*
X86001964Y-54113178D01*
X86008159Y-54024120D01*
X86009655Y-53890621D01*
X86008965Y-53784356D01*
X86004600Y-53688238D01*
X85993808Y-53626189D01*
X85973874Y-53584498D01*
X85942084Y-53549457D01*
X85934636Y-53542721D01*
X85838940Y-53493008D01*
X85737688Y-53498095D01*
X85643386Y-53557638D01*
X85615306Y-53588486D01*
X85591804Y-53629382D01*
X85578678Y-53685920D01*
X85572970Y-53772343D01*
X85571724Y-53902894D01*
X85367761Y-53902894D01*
X85367447Y-53894713D01*
X85369781Y-53780865D01*
G37*
X85369781Y-53780865D02*
X85386261Y-53625680D01*
X85422117Y-53509388D01*
X85481545Y-53420589D01*
X85568743Y-53347881D01*
X85651805Y-53305850D01*
X85791291Y-53282462D01*
X85930588Y-53308035D01*
X86056490Y-53379306D01*
X86155790Y-53493009D01*
X86167781Y-53513976D01*
X86183616Y-53550709D01*
X86195362Y-53597585D01*
X86203622Y-53662645D01*
X86209002Y-53753930D01*
X86212108Y-53879481D01*
X86213543Y-54047339D01*
X86213914Y-54265545D01*
X86214023Y-54942928D01*
X86119138Y-54903181D01*
X86094051Y-54892301D01*
X86054119Y-54867732D01*
X86031261Y-54830525D01*
X86018699Y-54765459D01*
X86009655Y-54657313D01*
X86001395Y-54560212D01*
X85990477Y-54496465D01*
X85974835Y-54472677D01*
X85951264Y-54479057D01*
X85891199Y-54501475D01*
X85783855Y-54507033D01*
X85668376Y-54486272D01*
X85568743Y-54441545D01*
X85513928Y-54400144D01*
X85443548Y-54319368D01*
X85398472Y-54215805D01*
X85374504Y-54078053D01*
X85367761Y-53902894D01*
X85571724Y-53902894D01*
X85572339Y-54002513D01*
X85576593Y-54099749D01*
X85587318Y-54162498D01*
X85607293Y-54204618D01*
X85639296Y-54239968D01*
X85658095Y-54255886D01*
X85755508Y-54298765D01*
X85857563Y-54292015D01*
X85946175Y-54235877D01*
X85965251Y-54213618D01*
X85988514Y-54171707D01*
X86001964Y-54113178D01*
X86008159Y-54024120D01*
X86009655Y-53890621D01*
X86008965Y-53784356D01*
X86004600Y-53688238D01*
X85993808Y-53626189D01*
X85973874Y-53584498D01*
X85942084Y-53549457D01*
X85934636Y-53542721D01*
X85838940Y-53493008D01*
X85737688Y-53498095D01*
X85643386Y-53557638D01*
X85615306Y-53588486D01*
X85591804Y-53629382D01*
X85578678Y-53685920D01*
X85572970Y-53772343D01*
X85571724Y-53902894D01*
X85367761Y-53902894D01*
X85367447Y-53894713D01*
X85369781Y-53780865D01*
G36*
X89572256Y-53811054D02*
G01*
X89579388Y-53657746D01*
X89598052Y-53545559D01*
X89632463Y-53462446D01*
X89686838Y-53396359D01*
X89765390Y-53335253D01*
X89815370Y-53307465D01*
X89895487Y-53288749D01*
X90008030Y-53290226D01*
X90070950Y-53296155D01*
X90146847Y-53314258D01*
X90207513Y-53353609D01*
X90278088Y-53426934D01*
X90287518Y-53437644D01*
X90350966Y-53520062D01*
X90381238Y-53591844D01*
X90388966Y-53676966D01*
X90388966Y-53802054D01*
X90301553Y-53769060D01*
X90237825Y-53730491D01*
X90182433Y-53639992D01*
X90170869Y-53611017D01*
X90106212Y-53528959D01*
X90018196Y-53487653D01*
X89922363Y-53491367D01*
X89834253Y-53544368D01*
X89803972Y-53577418D01*
X89776511Y-53627280D01*
X89785101Y-53672584D01*
X89834537Y-53719210D01*
X89929611Y-53773042D01*
X90075115Y-53839961D01*
X90374368Y-53970944D01*
X90382309Y-54100702D01*
X90378804Y-54197745D01*
X90334664Y-54320383D01*
X90278950Y-54387966D01*
X90163439Y-54463460D01*
X90026412Y-54501597D01*
X89884763Y-54498578D01*
X89755383Y-54450607D01*
X89726901Y-54432187D01*
X89661572Y-54375189D01*
X89616894Y-54303084D01*
X89589359Y-54205147D01*
X89575459Y-54070649D01*
X89573622Y-53982147D01*
X89749899Y-53982147D01*
X89757188Y-54062586D01*
X89775548Y-54141247D01*
X89832812Y-54240349D01*
X89915476Y-54296192D01*
X90014216Y-54303750D01*
X90119711Y-54258000D01*
X90148947Y-54235124D01*
X90184348Y-54183351D01*
X90169547Y-54132185D01*
X90102203Y-54077558D01*
X89979973Y-54015403D01*
X89959747Y-54006399D01*
X89863030Y-53964507D01*
X89790666Y-53935042D01*
X89757039Y-53923908D01*
X89751944Y-53932104D01*
X89749899Y-53982147D01*
X89573622Y-53982147D01*
X89571687Y-53888864D01*
X89572256Y-53811054D01*
G37*
X89572256Y-53811054D02*
X89579388Y-53657746D01*
X89598052Y-53545559D01*
X89632463Y-53462446D01*
X89686838Y-53396359D01*
X89765390Y-53335253D01*
X89815370Y-53307465D01*
X89895487Y-53288749D01*
X90008030Y-53290226D01*
X90070950Y-53296155D01*
X90146847Y-53314258D01*
X90207513Y-53353609D01*
X90278088Y-53426934D01*
X90287518Y-53437644D01*
X90350966Y-53520062D01*
X90381238Y-53591844D01*
X90388966Y-53676966D01*
X90388966Y-53802054D01*
X90301553Y-53769060D01*
X90237825Y-53730491D01*
X90182433Y-53639992D01*
X90170869Y-53611017D01*
X90106212Y-53528959D01*
X90018196Y-53487653D01*
X89922363Y-53491367D01*
X89834253Y-53544368D01*
X89803972Y-53577418D01*
X89776511Y-53627280D01*
X89785101Y-53672584D01*
X89834537Y-53719210D01*
X89929611Y-53773042D01*
X90075115Y-53839961D01*
X90374368Y-53970944D01*
X90382309Y-54100702D01*
X90378804Y-54197745D01*
X90334664Y-54320383D01*
X90278950Y-54387966D01*
X90163439Y-54463460D01*
X90026412Y-54501597D01*
X89884763Y-54498578D01*
X89755383Y-54450607D01*
X89726901Y-54432187D01*
X89661572Y-54375189D01*
X89616894Y-54303084D01*
X89589359Y-54205147D01*
X89575459Y-54070649D01*
X89573622Y-53982147D01*
X89749899Y-53982147D01*
X89757188Y-54062586D01*
X89775548Y-54141247D01*
X89832812Y-54240349D01*
X89915476Y-54296192D01*
X90014216Y-54303750D01*
X90119711Y-54258000D01*
X90148947Y-54235124D01*
X90184348Y-54183351D01*
X90169547Y-54132185D01*
X90102203Y-54077558D01*
X89979973Y-54015403D01*
X89959747Y-54006399D01*
X89863030Y-53964507D01*
X89790666Y-53935042D01*
X89757039Y-53923908D01*
X89751944Y-53932104D01*
X89749899Y-53982147D01*
X89573622Y-53982147D01*
X89571687Y-53888864D01*
X89572256Y-53811054D01*
G36*
X79479832Y-53785361D02*
G01*
X79485074Y-53738474D01*
X79524132Y-53571591D01*
X79594710Y-53444674D01*
X79702045Y-53347398D01*
X79708112Y-53343384D01*
X79844560Y-53286294D01*
X79987027Y-53281214D01*
X80124304Y-53324689D01*
X80245181Y-53413266D01*
X80338448Y-53543491D01*
X80340014Y-53546631D01*
X80371007Y-53627499D01*
X80393708Y-53719407D01*
X80405750Y-53805689D01*
X80404763Y-53869679D01*
X80388377Y-53894713D01*
X80373821Y-53893191D01*
X80304208Y-53865504D01*
X80225303Y-53814591D01*
X80158180Y-53755657D01*
X80123913Y-53703906D01*
X80088293Y-53633709D01*
X80015289Y-53569862D01*
X79930515Y-53544368D01*
X79899442Y-53551739D01*
X79838109Y-53588846D01*
X79784685Y-53640356D01*
X79761839Y-53687087D01*
X79761846Y-53687260D01*
X79787767Y-53708720D01*
X79856873Y-53747435D01*
X79958751Y-53797963D01*
X80082989Y-53854866D01*
X80083672Y-53855167D01*
X80218645Y-53915262D01*
X80309116Y-53958560D01*
X80363961Y-53991821D01*
X80392056Y-54021806D01*
X80402276Y-54055274D01*
X80403497Y-54098985D01*
X80392749Y-54203735D01*
X80339611Y-54346051D01*
X80250658Y-54457889D01*
X80135552Y-54535324D01*
X80003955Y-54574432D01*
X79865528Y-54571289D01*
X79729935Y-54521970D01*
X79606836Y-54422553D01*
X79538634Y-54324171D01*
X79489644Y-54183739D01*
X79481678Y-54109876D01*
X79761839Y-54109876D01*
X79776965Y-54189999D01*
X79829403Y-54262811D01*
X79905323Y-54300561D01*
X79989960Y-54296749D01*
X80068553Y-54244879D01*
X80099445Y-54209035D01*
X80106781Y-54181756D01*
X80077030Y-54155735D01*
X80002899Y-54116744D01*
X80000726Y-54115641D01*
X79913267Y-54073991D01*
X79835026Y-54040765D01*
X79785389Y-54026709D01*
X79765479Y-54045497D01*
X79761839Y-54109876D01*
X79481678Y-54109876D01*
X79470548Y-54006671D01*
X79479832Y-53785361D01*
G37*
X79479832Y-53785361D02*
X79485074Y-53738474D01*
X79524132Y-53571591D01*
X79594710Y-53444674D01*
X79702045Y-53347398D01*
X79708112Y-53343384D01*
X79844560Y-53286294D01*
X79987027Y-53281214D01*
X80124304Y-53324689D01*
X80245181Y-53413266D01*
X80338448Y-53543491D01*
X80340014Y-53546631D01*
X80371007Y-53627499D01*
X80393708Y-53719407D01*
X80405750Y-53805689D01*
X80404763Y-53869679D01*
X80388377Y-53894713D01*
X80373821Y-53893191D01*
X80304208Y-53865504D01*
X80225303Y-53814591D01*
X80158180Y-53755657D01*
X80123913Y-53703906D01*
X80088293Y-53633709D01*
X80015289Y-53569862D01*
X79930515Y-53544368D01*
X79899442Y-53551739D01*
X79838109Y-53588846D01*
X79784685Y-53640356D01*
X79761839Y-53687087D01*
X79761846Y-53687260D01*
X79787767Y-53708720D01*
X79856873Y-53747435D01*
X79958751Y-53797963D01*
X80082989Y-53854866D01*
X80083672Y-53855167D01*
X80218645Y-53915262D01*
X80309116Y-53958560D01*
X80363961Y-53991821D01*
X80392056Y-54021806D01*
X80402276Y-54055274D01*
X80403497Y-54098985D01*
X80392749Y-54203735D01*
X80339611Y-54346051D01*
X80250658Y-54457889D01*
X80135552Y-54535324D01*
X80003955Y-54574432D01*
X79865528Y-54571289D01*
X79729935Y-54521970D01*
X79606836Y-54422553D01*
X79538634Y-54324171D01*
X79489644Y-54183739D01*
X79481678Y-54109876D01*
X79761839Y-54109876D01*
X79776965Y-54189999D01*
X79829403Y-54262811D01*
X79905323Y-54300561D01*
X79989960Y-54296749D01*
X80068553Y-54244879D01*
X80099445Y-54209035D01*
X80106781Y-54181756D01*
X80077030Y-54155735D01*
X80002899Y-54116744D01*
X80000726Y-54115641D01*
X79913267Y-54073991D01*
X79835026Y-54040765D01*
X79785389Y-54026709D01*
X79765479Y-54045497D01*
X79761839Y-54109876D01*
X79481678Y-54109876D01*
X79470548Y-54006671D01*
X79479832Y-53785361D01*
G36*
X84437733Y-53289780D02*
G01*
X84502626Y-53314537D01*
X84517906Y-53321777D01*
X84541773Y-53338165D01*
X84558231Y-53365107D01*
X84568995Y-53412167D01*
X84575781Y-53488912D01*
X84580307Y-53604905D01*
X84584287Y-53769713D01*
X84585378Y-53817888D01*
X84589593Y-53970040D01*
X84595064Y-54076524D01*
X84603446Y-54147435D01*
X84616394Y-54192871D01*
X84635561Y-54222928D01*
X84662602Y-54247704D01*
X84742663Y-54291139D01*
X84841154Y-54299502D01*
X84929281Y-54266266D01*
X84992686Y-54197452D01*
X85017012Y-54099080D01*
X85017689Y-54072342D01*
X85030976Y-54023935D01*
X85070204Y-54016550D01*
X85147017Y-54045376D01*
X85164808Y-54054622D01*
X85212891Y-54108994D01*
X85213843Y-54189839D01*
X85168032Y-54301648D01*
X85126010Y-54362581D01*
X85018565Y-54449141D01*
X84885943Y-54498080D01*
X84744133Y-54504740D01*
X84609128Y-54464464D01*
X84599910Y-54459362D01*
X84524619Y-54400920D01*
X84457302Y-54325785D01*
X84445561Y-54308804D01*
X84423117Y-54269175D01*
X84407082Y-54222142D01*
X84396055Y-54157508D01*
X84388635Y-54065077D01*
X84383421Y-53934651D01*
X84379011Y-53756035D01*
X84378386Y-53725838D01*
X84376380Y-53530059D01*
X84379208Y-53391397D01*
X84386912Y-53308897D01*
X84399534Y-53281609D01*
X84437733Y-53289780D01*
G37*
X84437733Y-53289780D02*
X84502626Y-53314537D01*
X84517906Y-53321777D01*
X84541773Y-53338165D01*
X84558231Y-53365107D01*
X84568995Y-53412167D01*
X84575781Y-53488912D01*
X84580307Y-53604905D01*
X84584287Y-53769713D01*
X84585378Y-53817888D01*
X84589593Y-53970040D01*
X84595064Y-54076524D01*
X84603446Y-54147435D01*
X84616394Y-54192871D01*
X84635561Y-54222928D01*
X84662602Y-54247704D01*
X84742663Y-54291139D01*
X84841154Y-54299502D01*
X84929281Y-54266266D01*
X84992686Y-54197452D01*
X85017012Y-54099080D01*
X85017689Y-54072342D01*
X85030976Y-54023935D01*
X85070204Y-54016550D01*
X85147017Y-54045376D01*
X85164808Y-54054622D01*
X85212891Y-54108994D01*
X85213843Y-54189839D01*
X85168032Y-54301648D01*
X85126010Y-54362581D01*
X85018565Y-54449141D01*
X84885943Y-54498080D01*
X84744133Y-54504740D01*
X84609128Y-54464464D01*
X84599910Y-54459362D01*
X84524619Y-54400920D01*
X84457302Y-54325785D01*
X84445561Y-54308804D01*
X84423117Y-54269175D01*
X84407082Y-54222142D01*
X84396055Y-54157508D01*
X84388635Y-54065077D01*
X84383421Y-53934651D01*
X84379011Y-53756035D01*
X84378386Y-53725838D01*
X84376380Y-53530059D01*
X84379208Y-53391397D01*
X84386912Y-53308897D01*
X84399534Y-53281609D01*
X84437733Y-53289780D01*
G36*
X78366332Y-53566264D02*
G01*
X78365529Y-53501215D01*
X78362960Y-53283740D01*
X78362444Y-53117328D01*
X78365563Y-52996154D01*
X78373900Y-52914393D01*
X78389038Y-52866219D01*
X78412559Y-52845806D01*
X78446044Y-52847328D01*
X78491077Y-52864961D01*
X78549239Y-52892879D01*
X78561668Y-52898836D01*
X78613422Y-52927994D01*
X78640450Y-52962686D01*
X78650793Y-53020530D01*
X78652491Y-53119143D01*
X78652567Y-53296207D01*
X78834962Y-53296207D01*
X78947160Y-53301120D01*
X79035380Y-53321047D01*
X79108642Y-53361322D01*
X79114104Y-53365259D01*
X79188442Y-53431757D01*
X79240177Y-53512092D01*
X79272804Y-53617242D01*
X79289818Y-53758185D01*
X79294713Y-53945899D01*
X79293629Y-54082878D01*
X79288693Y-54186636D01*
X79277728Y-54258588D01*
X79258562Y-54312500D01*
X79229023Y-54362136D01*
X79201908Y-54400069D01*
X79103450Y-54502478D01*
X78991900Y-54558097D01*
X78851754Y-54575703D01*
X78691365Y-54558153D01*
X78552712Y-54495203D01*
X78443049Y-54384176D01*
X78434782Y-54372422D01*
X78415501Y-54341187D01*
X78400731Y-54305493D01*
X78389746Y-54257636D01*
X78381826Y-54189913D01*
X78376247Y-54094618D01*
X78372287Y-53964048D01*
X78371812Y-53937179D01*
X78652414Y-53937179D01*
X78653780Y-54012555D01*
X78668598Y-54149638D01*
X78702421Y-54239452D01*
X78758611Y-54288540D01*
X78840528Y-54303448D01*
X78875044Y-54300271D01*
X78934765Y-54268746D01*
X78974248Y-54198495D01*
X78996058Y-54083417D01*
X79002759Y-53917412D01*
X79002709Y-53890724D01*
X78999936Y-53770262D01*
X78991033Y-53691516D01*
X78973383Y-53640382D01*
X78944368Y-53602759D01*
X78942560Y-53600962D01*
X78871247Y-53552280D01*
X78802135Y-53557079D01*
X78724075Y-53616029D01*
X78704981Y-53636177D01*
X78676858Y-53677485D01*
X78661000Y-53731213D01*
X78653991Y-53812674D01*
X78652414Y-53937179D01*
X78371812Y-53937179D01*
X78369222Y-53790498D01*
X78366332Y-53566264D01*
G37*
X78366332Y-53566264D02*
X78365529Y-53501215D01*
X78362960Y-53283740D01*
X78362444Y-53117328D01*
X78365563Y-52996154D01*
X78373900Y-52914393D01*
X78389038Y-52866219D01*
X78412559Y-52845806D01*
X78446044Y-52847328D01*
X78491077Y-52864961D01*
X78549239Y-52892879D01*
X78561668Y-52898836D01*
X78613422Y-52927994D01*
X78640450Y-52962686D01*
X78650793Y-53020530D01*
X78652491Y-53119143D01*
X78652567Y-53296207D01*
X78834962Y-53296207D01*
X78947160Y-53301120D01*
X79035380Y-53321047D01*
X79108642Y-53361322D01*
X79114104Y-53365259D01*
X79188442Y-53431757D01*
X79240177Y-53512092D01*
X79272804Y-53617242D01*
X79289818Y-53758185D01*
X79294713Y-53945899D01*
X79293629Y-54082878D01*
X79288693Y-54186636D01*
X79277728Y-54258588D01*
X79258562Y-54312500D01*
X79229023Y-54362136D01*
X79201908Y-54400069D01*
X79103450Y-54502478D01*
X78991900Y-54558097D01*
X78851754Y-54575703D01*
X78691365Y-54558153D01*
X78552712Y-54495203D01*
X78443049Y-54384176D01*
X78434782Y-54372422D01*
X78415501Y-54341187D01*
X78400731Y-54305493D01*
X78389746Y-54257636D01*
X78381826Y-54189913D01*
X78376247Y-54094618D01*
X78372287Y-53964048D01*
X78371812Y-53937179D01*
X78652414Y-53937179D01*
X78653780Y-54012555D01*
X78668598Y-54149638D01*
X78702421Y-54239452D01*
X78758611Y-54288540D01*
X78840528Y-54303448D01*
X78875044Y-54300271D01*
X78934765Y-54268746D01*
X78974248Y-54198495D01*
X78996058Y-54083417D01*
X79002759Y-53917412D01*
X79002709Y-53890724D01*
X78999936Y-53770262D01*
X78991033Y-53691516D01*
X78973383Y-53640382D01*
X78944368Y-53602759D01*
X78942560Y-53600962D01*
X78871247Y-53552280D01*
X78802135Y-53557079D01*
X78724075Y-53616029D01*
X78704981Y-53636177D01*
X78676858Y-53677485D01*
X78661000Y-53731213D01*
X78653991Y-53812674D01*
X78652414Y-53937179D01*
X78371812Y-53937179D01*
X78369222Y-53790498D01*
X78366332Y-53566264D01*
M02*
