G04 #@! TF.GenerationSoftware,KiCad,Pcbnew,5.1.8+dfsg1-1+b1*
G04 #@! TF.CreationDate,2021-07-27T16:42:41-05:00*
G04 #@! TF.ProjectId,thermoelectric-tube,74686572-6d6f-4656-9c65-63747269632d,B*
G04 #@! TF.SameCoordinates,Original*
G04 #@! TF.FileFunction,Legend,Top*
G04 #@! TF.FilePolarity,Positive*
%FSLAX46Y46*%
G04 Gerber Fmt 4.6, Leading zero omitted, Abs format (unit mm)*
G04 Created by KiCad (PCBNEW 5.1.8+dfsg1-1+b1) date 2021-07-27 16:42:41*
%MOMM*%
%LPD*%
G01*
G04 APERTURE LIST*
%ADD10C,0.635000*%
%ADD11C,0.150000*%
%ADD12C,0.300000*%
%ADD13C,1.270000*%
%ADD14C,0.120000*%
%ADD15C,0.075000*%
G04 APERTURE END LIST*
D10*
X92649523Y-105289047D02*
X94100952Y-105289047D01*
X93375238Y-107829047D02*
X93375238Y-105289047D01*
X94947619Y-107829047D02*
X94947619Y-105289047D01*
X94947619Y-106498571D02*
X96399047Y-106498571D01*
X96399047Y-107829047D02*
X96399047Y-105289047D01*
X97608571Y-106498571D02*
X98455238Y-106498571D01*
X98818095Y-107829047D02*
X97608571Y-107829047D01*
X97608571Y-105289047D01*
X98818095Y-105289047D01*
X101358095Y-107829047D02*
X100511428Y-106619523D01*
X99906666Y-107829047D02*
X99906666Y-105289047D01*
X100874285Y-105289047D01*
X101116190Y-105410000D01*
X101237142Y-105530952D01*
X101358095Y-105772857D01*
X101358095Y-106135714D01*
X101237142Y-106377619D01*
X101116190Y-106498571D01*
X100874285Y-106619523D01*
X99906666Y-106619523D01*
X102446666Y-107829047D02*
X102446666Y-105289047D01*
X103293333Y-107103333D01*
X104140000Y-105289047D01*
X104140000Y-107829047D01*
X105833333Y-105289047D02*
X106317142Y-105289047D01*
X106559047Y-105410000D01*
X106800952Y-105651904D01*
X106921904Y-106135714D01*
X106921904Y-106982380D01*
X106800952Y-107466190D01*
X106559047Y-107708095D01*
X106317142Y-107829047D01*
X105833333Y-107829047D01*
X105591428Y-107708095D01*
X105349523Y-107466190D01*
X105228571Y-106982380D01*
X105228571Y-106135714D01*
X105349523Y-105651904D01*
X105591428Y-105410000D01*
X105833333Y-105289047D01*
X108010476Y-106498571D02*
X108857142Y-106498571D01*
X109220000Y-107829047D02*
X108010476Y-107829047D01*
X108010476Y-105289047D01*
X109220000Y-105289047D01*
X111518095Y-107829047D02*
X110308571Y-107829047D01*
X110308571Y-105289047D01*
X112364761Y-106498571D02*
X113211428Y-106498571D01*
X113574285Y-107829047D02*
X112364761Y-107829047D01*
X112364761Y-105289047D01*
X113574285Y-105289047D01*
X116114285Y-107587142D02*
X115993333Y-107708095D01*
X115630476Y-107829047D01*
X115388571Y-107829047D01*
X115025714Y-107708095D01*
X114783809Y-107466190D01*
X114662857Y-107224285D01*
X114541904Y-106740476D01*
X114541904Y-106377619D01*
X114662857Y-105893809D01*
X114783809Y-105651904D01*
X115025714Y-105410000D01*
X115388571Y-105289047D01*
X115630476Y-105289047D01*
X115993333Y-105410000D01*
X116114285Y-105530952D01*
X116840000Y-105289047D02*
X118291428Y-105289047D01*
X117565714Y-107829047D02*
X117565714Y-105289047D01*
X120589523Y-107829047D02*
X119742857Y-106619523D01*
X119138095Y-107829047D02*
X119138095Y-105289047D01*
X120105714Y-105289047D01*
X120347619Y-105410000D01*
X120468571Y-105530952D01*
X120589523Y-105772857D01*
X120589523Y-106135714D01*
X120468571Y-106377619D01*
X120347619Y-106498571D01*
X120105714Y-106619523D01*
X119138095Y-106619523D01*
X121678095Y-107829047D02*
X121678095Y-105289047D01*
X124339047Y-107587142D02*
X124218095Y-107708095D01*
X123855238Y-107829047D01*
X123613333Y-107829047D01*
X123250476Y-107708095D01*
X123008571Y-107466190D01*
X122887619Y-107224285D01*
X122766666Y-106740476D01*
X122766666Y-106377619D01*
X122887619Y-105893809D01*
X123008571Y-105651904D01*
X123250476Y-105410000D01*
X123613333Y-105289047D01*
X123855238Y-105289047D01*
X124218095Y-105410000D01*
X124339047Y-105530952D01*
X127000000Y-105289047D02*
X128451428Y-105289047D01*
X127725714Y-107829047D02*
X127725714Y-105289047D01*
X129298095Y-105289047D02*
X129298095Y-107345238D01*
X129419047Y-107587142D01*
X129540000Y-107708095D01*
X129781904Y-107829047D01*
X130265714Y-107829047D01*
X130507619Y-107708095D01*
X130628571Y-107587142D01*
X130749523Y-107345238D01*
X130749523Y-105289047D01*
X132805714Y-106498571D02*
X133168571Y-106619523D01*
X133289523Y-106740476D01*
X133410476Y-106982380D01*
X133410476Y-107345238D01*
X133289523Y-107587142D01*
X133168571Y-107708095D01*
X132926666Y-107829047D01*
X131959047Y-107829047D01*
X131959047Y-105289047D01*
X132805714Y-105289047D01*
X133047619Y-105410000D01*
X133168571Y-105530952D01*
X133289523Y-105772857D01*
X133289523Y-106014761D01*
X133168571Y-106256666D01*
X133047619Y-106377619D01*
X132805714Y-106498571D01*
X131959047Y-106498571D01*
X134499047Y-106498571D02*
X135345714Y-106498571D01*
X135708571Y-107829047D02*
X134499047Y-107829047D01*
X134499047Y-105289047D01*
X135708571Y-105289047D01*
D11*
X87613333Y-54236428D02*
X87470476Y-54188809D01*
X87422857Y-54141190D01*
X87375238Y-54045952D01*
X87375238Y-53903095D01*
X87422857Y-53807857D01*
X87470476Y-53760238D01*
X87565714Y-53712619D01*
X87946666Y-53712619D01*
X87946666Y-54712619D01*
X87613333Y-54712619D01*
X87518095Y-54665000D01*
X87470476Y-54617380D01*
X87422857Y-54522142D01*
X87422857Y-54426904D01*
X87470476Y-54331666D01*
X87518095Y-54284047D01*
X87613333Y-54236428D01*
X87946666Y-54236428D01*
X86470476Y-53712619D02*
X86946666Y-53712619D01*
X86946666Y-54712619D01*
X86184761Y-53998333D02*
X85708571Y-53998333D01*
X86280000Y-53712619D02*
X85946666Y-54712619D01*
X85613333Y-53712619D01*
X85280000Y-53712619D02*
X85280000Y-54712619D01*
X84851428Y-53760238D02*
X84708571Y-53712619D01*
X84470476Y-53712619D01*
X84375238Y-53760238D01*
X84327619Y-53807857D01*
X84280000Y-53903095D01*
X84280000Y-53998333D01*
X84327619Y-54093571D01*
X84375238Y-54141190D01*
X84470476Y-54188809D01*
X84660952Y-54236428D01*
X84756190Y-54284047D01*
X84803809Y-54331666D01*
X84851428Y-54426904D01*
X84851428Y-54522142D01*
X84803809Y-54617380D01*
X84756190Y-54665000D01*
X84660952Y-54712619D01*
X84422857Y-54712619D01*
X84280000Y-54665000D01*
X83851428Y-54236428D02*
X83518095Y-54236428D01*
X83375238Y-53712619D02*
X83851428Y-53712619D01*
X83851428Y-54712619D01*
X83375238Y-54712619D01*
X82327619Y-54712619D02*
X81756190Y-54712619D01*
X82041904Y-53712619D02*
X82041904Y-54712619D01*
X81422857Y-53712619D02*
X81422857Y-54712619D01*
X81422857Y-54236428D02*
X80851428Y-54236428D01*
X80851428Y-53712619D02*
X80851428Y-54712619D01*
X80184761Y-54712619D02*
X79994285Y-54712619D01*
X79899047Y-54665000D01*
X79803809Y-54569761D01*
X79756190Y-54379285D01*
X79756190Y-54045952D01*
X79803809Y-53855476D01*
X79899047Y-53760238D01*
X79994285Y-53712619D01*
X80184761Y-53712619D01*
X80280000Y-53760238D01*
X80375238Y-53855476D01*
X80422857Y-54045952D01*
X80422857Y-54379285D01*
X80375238Y-54569761D01*
X80280000Y-54665000D01*
X80184761Y-54712619D01*
X79327619Y-53712619D02*
X79327619Y-54712619D01*
X78994285Y-53998333D01*
X78660952Y-54712619D01*
X78660952Y-53712619D01*
X78184761Y-53712619D02*
X78184761Y-54712619D01*
X77803809Y-54712619D01*
X77708571Y-54665000D01*
X77660952Y-54617380D01*
X77613333Y-54522142D01*
X77613333Y-54379285D01*
X77660952Y-54284047D01*
X77708571Y-54236428D01*
X77803809Y-54188809D01*
X78184761Y-54188809D01*
X77232380Y-53760238D02*
X77089523Y-53712619D01*
X76851428Y-53712619D01*
X76756190Y-53760238D01*
X76708571Y-53807857D01*
X76660952Y-53903095D01*
X76660952Y-53998333D01*
X76708571Y-54093571D01*
X76756190Y-54141190D01*
X76851428Y-54188809D01*
X77041904Y-54236428D01*
X77137142Y-54284047D01*
X77184761Y-54331666D01*
X77232380Y-54426904D01*
X77232380Y-54522142D01*
X77184761Y-54617380D01*
X77137142Y-54665000D01*
X77041904Y-54712619D01*
X76803809Y-54712619D01*
X76660952Y-54665000D01*
X76041904Y-54712619D02*
X75851428Y-54712619D01*
X75756190Y-54665000D01*
X75660952Y-54569761D01*
X75613333Y-54379285D01*
X75613333Y-54045952D01*
X75660952Y-53855476D01*
X75756190Y-53760238D01*
X75851428Y-53712619D01*
X76041904Y-53712619D01*
X76137142Y-53760238D01*
X76232380Y-53855476D01*
X76280000Y-54045952D01*
X76280000Y-54379285D01*
X76232380Y-54569761D01*
X76137142Y-54665000D01*
X76041904Y-54712619D01*
X75184761Y-53712619D02*
X75184761Y-54712619D01*
X74613333Y-53712619D01*
X74613333Y-54712619D01*
X88018095Y-52062619D02*
X88018095Y-53062619D01*
X87541904Y-52062619D02*
X87541904Y-53062619D01*
X86970476Y-52062619D01*
X86970476Y-53062619D01*
X86541904Y-52110238D02*
X86399047Y-52062619D01*
X86160952Y-52062619D01*
X86065714Y-52110238D01*
X86018095Y-52157857D01*
X85970476Y-52253095D01*
X85970476Y-52348333D01*
X86018095Y-52443571D01*
X86065714Y-52491190D01*
X86160952Y-52538809D01*
X86351428Y-52586428D01*
X86446666Y-52634047D01*
X86494285Y-52681666D01*
X86541904Y-52776904D01*
X86541904Y-52872142D01*
X86494285Y-52967380D01*
X86446666Y-53015000D01*
X86351428Y-53062619D01*
X86113333Y-53062619D01*
X85970476Y-53015000D01*
X85684761Y-53062619D02*
X85113333Y-53062619D01*
X85399047Y-52062619D02*
X85399047Y-53062619D01*
X84208571Y-52062619D02*
X84541904Y-52538809D01*
X84780000Y-52062619D02*
X84780000Y-53062619D01*
X84399047Y-53062619D01*
X84303809Y-53015000D01*
X84256190Y-52967380D01*
X84208571Y-52872142D01*
X84208571Y-52729285D01*
X84256190Y-52634047D01*
X84303809Y-52586428D01*
X84399047Y-52538809D01*
X84780000Y-52538809D01*
X83780000Y-53062619D02*
X83780000Y-52253095D01*
X83732380Y-52157857D01*
X83684761Y-52110238D01*
X83589523Y-52062619D01*
X83399047Y-52062619D01*
X83303809Y-52110238D01*
X83256190Y-52157857D01*
X83208571Y-52253095D01*
X83208571Y-53062619D01*
X82732380Y-52062619D02*
X82732380Y-53062619D01*
X82399047Y-52348333D01*
X82065714Y-53062619D01*
X82065714Y-52062619D01*
X81589523Y-52586428D02*
X81256190Y-52586428D01*
X81113333Y-52062619D02*
X81589523Y-52062619D01*
X81589523Y-53062619D01*
X81113333Y-53062619D01*
X80684761Y-52062619D02*
X80684761Y-53062619D01*
X80113333Y-52062619D01*
X80113333Y-53062619D01*
X79780000Y-53062619D02*
X79208571Y-53062619D01*
X79494285Y-52062619D02*
X79494285Y-53062619D01*
X78160952Y-52110238D02*
X78018095Y-52062619D01*
X77780000Y-52062619D01*
X77684761Y-52110238D01*
X77637142Y-52157857D01*
X77589523Y-52253095D01*
X77589523Y-52348333D01*
X77637142Y-52443571D01*
X77684761Y-52491190D01*
X77780000Y-52538809D01*
X77970476Y-52586428D01*
X78065714Y-52634047D01*
X78113333Y-52681666D01*
X78160952Y-52776904D01*
X78160952Y-52872142D01*
X78113333Y-52967380D01*
X78065714Y-53015000D01*
X77970476Y-53062619D01*
X77732380Y-53062619D01*
X77589523Y-53015000D01*
X77160952Y-52062619D02*
X77160952Y-53062619D01*
X77160952Y-52586428D02*
X76589523Y-52586428D01*
X76589523Y-52062619D02*
X76589523Y-53062619D01*
X75922857Y-53062619D02*
X75732380Y-53062619D01*
X75637142Y-53015000D01*
X75541904Y-52919761D01*
X75494285Y-52729285D01*
X75494285Y-52395952D01*
X75541904Y-52205476D01*
X75637142Y-52110238D01*
X75732380Y-52062619D01*
X75922857Y-52062619D01*
X76018095Y-52110238D01*
X76113333Y-52205476D01*
X76160952Y-52395952D01*
X76160952Y-52729285D01*
X76113333Y-52919761D01*
X76018095Y-53015000D01*
X75922857Y-53062619D01*
X75065714Y-52062619D02*
X75065714Y-53062619D01*
X74684761Y-53062619D01*
X74589523Y-53015000D01*
X74541904Y-52967380D01*
X74494285Y-52872142D01*
X74494285Y-52729285D01*
X74541904Y-52634047D01*
X74589523Y-52586428D01*
X74684761Y-52538809D01*
X75065714Y-52538809D01*
X84732380Y-48632619D02*
X85065714Y-49108809D01*
X85303809Y-48632619D02*
X85303809Y-49632619D01*
X84922857Y-49632619D01*
X84827619Y-49585000D01*
X84780000Y-49537380D01*
X84732380Y-49442142D01*
X84732380Y-49299285D01*
X84780000Y-49204047D01*
X84827619Y-49156428D01*
X84922857Y-49108809D01*
X85303809Y-49108809D01*
X84303809Y-49156428D02*
X83970476Y-49156428D01*
X83827619Y-48632619D02*
X84303809Y-48632619D01*
X84303809Y-49632619D01*
X83827619Y-49632619D01*
X83541904Y-49632619D02*
X83208571Y-48632619D01*
X82875238Y-49632619D01*
X82541904Y-48632619D02*
X82541904Y-49632619D01*
X82113333Y-48680238D02*
X81970476Y-48632619D01*
X81732380Y-48632619D01*
X81637142Y-48680238D01*
X81589523Y-48727857D01*
X81541904Y-48823095D01*
X81541904Y-48918333D01*
X81589523Y-49013571D01*
X81637142Y-49061190D01*
X81732380Y-49108809D01*
X81922857Y-49156428D01*
X82018095Y-49204047D01*
X82065714Y-49251666D01*
X82113333Y-49346904D01*
X82113333Y-49442142D01*
X82065714Y-49537380D01*
X82018095Y-49585000D01*
X81922857Y-49632619D01*
X81684761Y-49632619D01*
X81541904Y-49585000D01*
X81113333Y-48632619D02*
X81113333Y-49632619D01*
X80446666Y-49632619D02*
X80256190Y-49632619D01*
X80160952Y-49585000D01*
X80065714Y-49489761D01*
X80018095Y-49299285D01*
X80018095Y-48965952D01*
X80065714Y-48775476D01*
X80160952Y-48680238D01*
X80256190Y-48632619D01*
X80446666Y-48632619D01*
X80541904Y-48680238D01*
X80637142Y-48775476D01*
X80684761Y-48965952D01*
X80684761Y-49299285D01*
X80637142Y-49489761D01*
X80541904Y-49585000D01*
X80446666Y-49632619D01*
X79589523Y-48632619D02*
X79589523Y-49632619D01*
X79018095Y-48632619D01*
X79018095Y-49632619D01*
X77446666Y-49156428D02*
X77303809Y-49108809D01*
X77256190Y-49061190D01*
X77208571Y-48965952D01*
X77208571Y-48823095D01*
X77256190Y-48727857D01*
X77303809Y-48680238D01*
X77399047Y-48632619D01*
X77780000Y-48632619D01*
X77780000Y-49632619D01*
X77446666Y-49632619D01*
X77351428Y-49585000D01*
X77303809Y-49537380D01*
X77256190Y-49442142D01*
X77256190Y-49346904D01*
X77303809Y-49251666D01*
X77351428Y-49204047D01*
X77446666Y-49156428D01*
X77780000Y-49156428D01*
X84780000Y-47982619D02*
X84780000Y-47268333D01*
X84827619Y-47125476D01*
X84922857Y-47030238D01*
X85065714Y-46982619D01*
X85160952Y-46982619D01*
X84303809Y-47982619D02*
X84303809Y-47173095D01*
X84256190Y-47077857D01*
X84208571Y-47030238D01*
X84113333Y-46982619D01*
X83922857Y-46982619D01*
X83827619Y-47030238D01*
X83780000Y-47077857D01*
X83732380Y-47173095D01*
X83732380Y-47982619D01*
X82780000Y-46982619D02*
X83256190Y-46982619D01*
X83256190Y-47982619D01*
X82256190Y-47458809D02*
X82256190Y-46982619D01*
X82589523Y-47982619D02*
X82256190Y-47458809D01*
X81922857Y-47982619D01*
X80875238Y-47887380D02*
X80827619Y-47935000D01*
X80732380Y-47982619D01*
X80494285Y-47982619D01*
X80399047Y-47935000D01*
X80351428Y-47887380D01*
X80303809Y-47792142D01*
X80303809Y-47696904D01*
X80351428Y-47554047D01*
X80922857Y-46982619D01*
X80303809Y-46982619D01*
X79684761Y-47982619D02*
X79589523Y-47982619D01*
X79494285Y-47935000D01*
X79446666Y-47887380D01*
X79399047Y-47792142D01*
X79351428Y-47601666D01*
X79351428Y-47363571D01*
X79399047Y-47173095D01*
X79446666Y-47077857D01*
X79494285Y-47030238D01*
X79589523Y-46982619D01*
X79684761Y-46982619D01*
X79780000Y-47030238D01*
X79827619Y-47077857D01*
X79875238Y-47173095D01*
X79922857Y-47363571D01*
X79922857Y-47601666D01*
X79875238Y-47792142D01*
X79827619Y-47887380D01*
X79780000Y-47935000D01*
X79684761Y-47982619D01*
X78970476Y-47887380D02*
X78922857Y-47935000D01*
X78827619Y-47982619D01*
X78589523Y-47982619D01*
X78494285Y-47935000D01*
X78446666Y-47887380D01*
X78399047Y-47792142D01*
X78399047Y-47696904D01*
X78446666Y-47554047D01*
X79018095Y-46982619D01*
X78399047Y-46982619D01*
X77446666Y-46982619D02*
X78018095Y-46982619D01*
X77732380Y-46982619D02*
X77732380Y-47982619D01*
X77827619Y-47839761D01*
X77922857Y-47744523D01*
X78018095Y-47696904D01*
D12*
X56808571Y-45041428D02*
X57665714Y-45041428D01*
X57237142Y-45041428D02*
X57237142Y-46541428D01*
X57380000Y-46327142D01*
X57522857Y-46184285D01*
X57665714Y-46112857D01*
X56237142Y-46398571D02*
X56165714Y-46470000D01*
X56022857Y-46541428D01*
X55665714Y-46541428D01*
X55522857Y-46470000D01*
X55451428Y-46398571D01*
X55380000Y-46255714D01*
X55380000Y-46112857D01*
X55451428Y-45898571D01*
X56308571Y-45041428D01*
X55380000Y-45041428D01*
X54951428Y-46541428D02*
X54451428Y-45041428D01*
X53951428Y-46541428D01*
D11*
X161417142Y-129897142D02*
X161369523Y-129944761D01*
X161226666Y-129992380D01*
X161131428Y-129992380D01*
X160988571Y-129944761D01*
X160893333Y-129849523D01*
X160845714Y-129754285D01*
X160798095Y-129563809D01*
X160798095Y-129420952D01*
X160845714Y-129230476D01*
X160893333Y-129135238D01*
X160988571Y-129040000D01*
X161131428Y-128992380D01*
X161226666Y-128992380D01*
X161369523Y-129040000D01*
X161417142Y-129087619D01*
X162036190Y-128992380D02*
X162226666Y-128992380D01*
X162321904Y-129040000D01*
X162417142Y-129135238D01*
X162464761Y-129325714D01*
X162464761Y-129659047D01*
X162417142Y-129849523D01*
X162321904Y-129944761D01*
X162226666Y-129992380D01*
X162036190Y-129992380D01*
X161940952Y-129944761D01*
X161845714Y-129849523D01*
X161798095Y-129659047D01*
X161798095Y-129325714D01*
X161845714Y-129135238D01*
X161940952Y-129040000D01*
X162036190Y-128992380D01*
X163083809Y-128992380D02*
X163274285Y-128992380D01*
X163369523Y-129040000D01*
X163464761Y-129135238D01*
X163512380Y-129325714D01*
X163512380Y-129659047D01*
X163464761Y-129849523D01*
X163369523Y-129944761D01*
X163274285Y-129992380D01*
X163083809Y-129992380D01*
X162988571Y-129944761D01*
X162893333Y-129849523D01*
X162845714Y-129659047D01*
X162845714Y-129325714D01*
X162893333Y-129135238D01*
X162988571Y-129040000D01*
X163083809Y-128992380D01*
X164417142Y-129992380D02*
X163940952Y-129992380D01*
X163940952Y-128992380D01*
X150852380Y-129992380D02*
X150852380Y-128992380D01*
X150852380Y-129468571D02*
X151423809Y-129468571D01*
X151423809Y-129992380D02*
X151423809Y-128992380D01*
X151900000Y-129468571D02*
X152233333Y-129468571D01*
X152376190Y-129992380D02*
X151900000Y-129992380D01*
X151900000Y-128992380D01*
X152376190Y-128992380D01*
X152757142Y-129706666D02*
X153233333Y-129706666D01*
X152661904Y-129992380D02*
X152995238Y-128992380D01*
X153328571Y-129992380D01*
X153519047Y-128992380D02*
X154090476Y-128992380D01*
X153804761Y-129992380D02*
X153804761Y-128992380D01*
X48490476Y-76652380D02*
X48490476Y-75652380D01*
X48871428Y-75652380D01*
X48966666Y-75700000D01*
X49014285Y-75747619D01*
X49061904Y-75842857D01*
X49061904Y-75985714D01*
X49014285Y-76080952D01*
X48966666Y-76128571D01*
X48871428Y-76176190D01*
X48490476Y-76176190D01*
X49680952Y-75652380D02*
X49871428Y-75652380D01*
X49966666Y-75700000D01*
X50061904Y-75795238D01*
X50109523Y-75985714D01*
X50109523Y-76319047D01*
X50061904Y-76509523D01*
X49966666Y-76604761D01*
X49871428Y-76652380D01*
X49680952Y-76652380D01*
X49585714Y-76604761D01*
X49490476Y-76509523D01*
X49442857Y-76319047D01*
X49442857Y-75985714D01*
X49490476Y-75795238D01*
X49585714Y-75700000D01*
X49680952Y-75652380D01*
X50442857Y-75652380D02*
X50680952Y-76652380D01*
X50871428Y-75938095D01*
X51061904Y-76652380D01*
X51300000Y-75652380D01*
X51680952Y-76128571D02*
X52014285Y-76128571D01*
X52157142Y-76652380D02*
X51680952Y-76652380D01*
X51680952Y-75652380D01*
X52157142Y-75652380D01*
X53157142Y-76652380D02*
X52823809Y-76176190D01*
X52585714Y-76652380D02*
X52585714Y-75652380D01*
X52966666Y-75652380D01*
X53061904Y-75700000D01*
X53109523Y-75747619D01*
X53157142Y-75842857D01*
X53157142Y-75985714D01*
X53109523Y-76080952D01*
X53061904Y-76128571D01*
X52966666Y-76176190D01*
X52585714Y-76176190D01*
D13*
X139700000Y-101600000D02*
X139700000Y-76200000D01*
X139700000Y-101600000D02*
X88900000Y-101600000D01*
X88900000Y-76200000D02*
X139700000Y-76200000D01*
X88900000Y-101600000D02*
X88900000Y-76200000D01*
D14*
X165610000Y-58900000D02*
X165610000Y-56050000D01*
X162760000Y-58900000D02*
X165610000Y-58900000D01*
X160750000Y-47440000D02*
X162560000Y-47440000D01*
X160750000Y-48840000D02*
X160750000Y-47440000D01*
X159750000Y-48840000D02*
X160750000Y-48840000D01*
X159750000Y-58660000D02*
X159750000Y-48840000D01*
X162560000Y-58660000D02*
X159750000Y-58660000D01*
X164370000Y-47440000D02*
X162560000Y-47440000D01*
X164370000Y-48840000D02*
X164370000Y-47440000D01*
X165370000Y-48840000D02*
X164370000Y-48840000D01*
X165370000Y-58660000D02*
X165370000Y-48840000D01*
X162560000Y-58660000D02*
X165370000Y-58660000D01*
D11*
X57580000Y-130920000D02*
X108060000Y-130920000D01*
X59580000Y-112920000D02*
X59580000Y-130920000D01*
X57580000Y-112886000D02*
X108060000Y-112886000D01*
X108060000Y-112920000D02*
X108060000Y-130920000D01*
X57580000Y-112886000D02*
X57580000Y-130920000D01*
X132960000Y-56500000D02*
X132960000Y-70500000D01*
X117460000Y-55000000D02*
X131460000Y-55000000D01*
X115960000Y-70500000D02*
X115960000Y-56500000D01*
X131460000Y-72000000D02*
X117460000Y-72000000D01*
X117460000Y-72000000D02*
G75*
G02*
X115960000Y-70500000I0J1500000D01*
G01*
X115960000Y-56500000D02*
G75*
G02*
X117460000Y-55000000I1500000J0D01*
G01*
X131460000Y-55000000D02*
G75*
G02*
X132960000Y-56500000I0J-1500000D01*
G01*
X132960000Y-70500000D02*
G75*
G02*
X131460000Y-72000000I-1500000J0D01*
G01*
X95640000Y-70500000D02*
X95640000Y-56500000D01*
X111140000Y-72000000D02*
X97140000Y-72000000D01*
X112640000Y-56500000D02*
X112640000Y-70500000D01*
X97140000Y-55000000D02*
X111140000Y-55000000D01*
X111140000Y-55000000D02*
G75*
G02*
X112640000Y-56500000I0J-1500000D01*
G01*
X112640000Y-70500000D02*
G75*
G02*
X111140000Y-72000000I-1500000J0D01*
G01*
X97140000Y-72000000D02*
G75*
G02*
X95640000Y-70500000I0J1500000D01*
G01*
X95640000Y-56500000D02*
G75*
G02*
X97140000Y-55000000I1500000J0D01*
G01*
D14*
X168180000Y-110390000D02*
X168180000Y-110720000D01*
X174720000Y-110390000D02*
X168180000Y-110390000D01*
X174720000Y-110720000D02*
X174720000Y-110390000D01*
X168180000Y-113130000D02*
X168180000Y-112800000D01*
X174720000Y-113130000D02*
X168180000Y-113130000D01*
X174720000Y-112800000D02*
X174720000Y-113130000D01*
X170920000Y-103450000D02*
X174520000Y-103450000D01*
X175044184Y-102722795D02*
G75*
G02*
X174520000Y-103450000I-2324184J1122795D01*
G01*
X175076400Y-100501193D02*
G75*
G03*
X172720000Y-99000000I-2356400J-1098807D01*
G01*
X170363600Y-100501193D02*
G75*
G02*
X172720000Y-99000000I2356400J-1098807D01*
G01*
X170395816Y-102722795D02*
G75*
G03*
X170920000Y-103450000I2324184J1122795D01*
G01*
X164360000Y-92130000D02*
X160760000Y-92130000D01*
X160235816Y-92857205D02*
G75*
G02*
X160760000Y-92130000I2324184J-1122795D01*
G01*
X160203600Y-95078807D02*
G75*
G03*
X162560000Y-96580000I2356400J1098807D01*
G01*
X164916400Y-95078807D02*
G75*
G02*
X162560000Y-96580000I-2356400J1098807D01*
G01*
X164884184Y-92857205D02*
G75*
G03*
X164360000Y-92130000I-2324184J-1122795D01*
G01*
X67430000Y-92880000D02*
X67430000Y-82380000D01*
X49410000Y-92880000D02*
X67430000Y-92880000D01*
X49410000Y-82380000D02*
X49410000Y-92880000D01*
X67430000Y-82380000D02*
X49410000Y-82380000D01*
X67370000Y-89880000D02*
X67370000Y-88630000D01*
X49470000Y-89880000D02*
X67370000Y-89880000D01*
X49470000Y-85380000D02*
X49470000Y-89880000D01*
X67370000Y-85380000D02*
X49470000Y-85380000D01*
X67370000Y-86630000D02*
X67370000Y-85380000D01*
X67370000Y-88630000D02*
G75*
G02*
X67370000Y-86630000I0J1000000D01*
G01*
X163930000Y-112300000D02*
X163600000Y-112300000D01*
X163930000Y-118840000D02*
X163930000Y-112300000D01*
X163600000Y-118840000D02*
X163930000Y-118840000D01*
X161190000Y-112300000D02*
X161520000Y-112300000D01*
X161190000Y-118840000D02*
X161190000Y-112300000D01*
X161520000Y-118840000D02*
X161190000Y-118840000D01*
X177260000Y-95350000D02*
X177260000Y-95020000D01*
X170720000Y-95350000D02*
X177260000Y-95350000D01*
X170720000Y-95020000D02*
X170720000Y-95350000D01*
X177260000Y-92610000D02*
X177260000Y-92940000D01*
X170720000Y-92610000D02*
X177260000Y-92610000D01*
X170720000Y-92940000D02*
X170720000Y-92610000D01*
X147860000Y-92610000D02*
X147860000Y-92940000D01*
X154400000Y-92610000D02*
X147860000Y-92610000D01*
X154400000Y-92940000D02*
X154400000Y-92610000D01*
X147860000Y-95350000D02*
X147860000Y-95020000D01*
X154400000Y-95350000D02*
X147860000Y-95350000D01*
X154400000Y-95020000D02*
X154400000Y-95350000D01*
X162020000Y-102970000D02*
X162020000Y-102640000D01*
X155480000Y-102970000D02*
X162020000Y-102970000D01*
X155480000Y-102640000D02*
X155480000Y-102970000D01*
X162020000Y-100230000D02*
X162020000Y-100560000D01*
X155480000Y-100230000D02*
X162020000Y-100230000D01*
X155480000Y-100560000D02*
X155480000Y-100230000D01*
X153770000Y-112300000D02*
X153440000Y-112300000D01*
X153770000Y-118840000D02*
X153770000Y-112300000D01*
X153440000Y-118840000D02*
X153770000Y-118840000D01*
X151030000Y-112300000D02*
X151360000Y-112300000D01*
X151030000Y-118840000D02*
X151030000Y-112300000D01*
X151360000Y-118840000D02*
X151030000Y-118840000D01*
X52170000Y-58960000D02*
X51840000Y-58960000D01*
X52170000Y-65500000D02*
X52170000Y-58960000D01*
X51840000Y-65500000D02*
X52170000Y-65500000D01*
X49430000Y-58960000D02*
X49760000Y-58960000D01*
X49430000Y-65500000D02*
X49430000Y-58960000D01*
X49760000Y-65500000D02*
X49430000Y-65500000D01*
X172031000Y-80550000D02*
X172031000Y-82060000D01*
X168330000Y-80550000D02*
X168330000Y-82060000D01*
X165060000Y-82060000D02*
X175300000Y-82060000D01*
X175300000Y-80550000D02*
X175300000Y-85191000D01*
X165060000Y-80550000D02*
X165060000Y-85191000D01*
X165060000Y-85191000D02*
X175300000Y-85191000D01*
X165060000Y-80550000D02*
X175300000Y-80550000D01*
X156791000Y-80550000D02*
X156791000Y-82060000D01*
X153090000Y-80550000D02*
X153090000Y-82060000D01*
X149820000Y-82060000D02*
X160060000Y-82060000D01*
X160060000Y-80550000D02*
X160060000Y-85191000D01*
X149820000Y-80550000D02*
X149820000Y-85191000D01*
X149820000Y-85191000D02*
X160060000Y-85191000D01*
X149820000Y-80550000D02*
X160060000Y-80550000D01*
X172031000Y-67850000D02*
X172031000Y-69360000D01*
X168330000Y-67850000D02*
X168330000Y-69360000D01*
X165060000Y-69360000D02*
X175300000Y-69360000D01*
X175300000Y-67850000D02*
X175300000Y-72491000D01*
X165060000Y-67850000D02*
X165060000Y-72491000D01*
X165060000Y-72491000D02*
X175300000Y-72491000D01*
X165060000Y-67850000D02*
X175300000Y-67850000D01*
X156791000Y-67850000D02*
X156791000Y-69360000D01*
X153090000Y-67850000D02*
X153090000Y-69360000D01*
X149820000Y-69360000D02*
X160060000Y-69360000D01*
X160060000Y-67850000D02*
X160060000Y-72491000D01*
X149820000Y-67850000D02*
X149820000Y-72491000D01*
X149820000Y-72491000D02*
X160060000Y-72491000D01*
X149820000Y-67850000D02*
X160060000Y-67850000D01*
X70640000Y-54240000D02*
X68040000Y-54240000D01*
X70640000Y-39540000D02*
X70640000Y-54240000D01*
X61440000Y-54240000D02*
X61440000Y-52340000D01*
X64140000Y-54240000D02*
X61440000Y-54240000D01*
X61440000Y-39540000D02*
X70640000Y-39540000D01*
X61440000Y-48340000D02*
X61440000Y-39540000D01*
X70840000Y-53390000D02*
X70840000Y-54440000D01*
X69790000Y-54440000D02*
X70840000Y-54440000D01*
X161015000Y-128290000D02*
X164105000Y-128290000D01*
X165060000Y-125730000D02*
G75*
G03*
X165060000Y-125730000I-2500000J0D01*
G01*
X162559538Y-122740000D02*
G75*
G02*
X164104830Y-128290000I462J-2990000D01*
G01*
X162560462Y-122740000D02*
G75*
G03*
X161015170Y-128290000I-462J-2990000D01*
G01*
X150855000Y-128290000D02*
X153945000Y-128290000D01*
X154900000Y-125730000D02*
G75*
G03*
X154900000Y-125730000I-2500000J0D01*
G01*
X152399538Y-122740000D02*
G75*
G02*
X153944830Y-128290000I462J-2990000D01*
G01*
X152400462Y-122740000D02*
G75*
G03*
X150855170Y-128290000I-462J-2990000D01*
G01*
X49255000Y-74950000D02*
X52345000Y-74950000D01*
X53300000Y-72390000D02*
G75*
G03*
X53300000Y-72390000I-2500000J0D01*
G01*
X50799538Y-69400000D02*
G75*
G02*
X52344830Y-74950000I462J-2990000D01*
G01*
X50800462Y-69400000D02*
G75*
G03*
X49255170Y-74950000I-462J-2990000D01*
G01*
X62940000Y-99060000D02*
G75*
G03*
X62940000Y-99060000I-3270000J0D01*
G01*
X63510000Y-58442789D02*
X62760000Y-58442789D01*
X63135000Y-58067789D02*
X63135000Y-58817789D01*
X61401000Y-66051000D02*
X60519000Y-66051000D01*
X61653000Y-66011000D02*
X60267000Y-66011000D01*
X61837000Y-65971000D02*
X60083000Y-65971000D01*
X61988000Y-65931000D02*
X59932000Y-65931000D01*
X62118000Y-65891000D02*
X59802000Y-65891000D01*
X62235000Y-65851000D02*
X59685000Y-65851000D01*
X62341000Y-65811000D02*
X59579000Y-65811000D01*
X62438000Y-65771000D02*
X59482000Y-65771000D01*
X62529000Y-65731000D02*
X59391000Y-65731000D01*
X62614000Y-65691000D02*
X59306000Y-65691000D01*
X62693000Y-65651000D02*
X59227000Y-65651000D01*
X62769000Y-65611000D02*
X59151000Y-65611000D01*
X62841000Y-65571000D02*
X59079000Y-65571000D01*
X62909000Y-65531000D02*
X59011000Y-65531000D01*
X62974000Y-65491000D02*
X58946000Y-65491000D01*
X63037000Y-65451000D02*
X58883000Y-65451000D01*
X63097000Y-65411000D02*
X58823000Y-65411000D01*
X63155000Y-65371000D02*
X58765000Y-65371000D01*
X63210000Y-65331000D02*
X58710000Y-65331000D01*
X63264000Y-65291000D02*
X58656000Y-65291000D01*
X63315000Y-65251000D02*
X58605000Y-65251000D01*
X63365000Y-65211000D02*
X58555000Y-65211000D01*
X63414000Y-65171000D02*
X58506000Y-65171000D01*
X63460000Y-65131000D02*
X58460000Y-65131000D01*
X63506000Y-65091000D02*
X58414000Y-65091000D01*
X63549000Y-65051000D02*
X58371000Y-65051000D01*
X63592000Y-65011000D02*
X58328000Y-65011000D01*
X63633000Y-64971000D02*
X58287000Y-64971000D01*
X63673000Y-64931000D02*
X58247000Y-64931000D01*
X63712000Y-64891000D02*
X58208000Y-64891000D01*
X63750000Y-64851000D02*
X58170000Y-64851000D01*
X63787000Y-64811000D02*
X58133000Y-64811000D01*
X63823000Y-64771000D02*
X58097000Y-64771000D01*
X63858000Y-64731000D02*
X58062000Y-64731000D01*
X63891000Y-64691000D02*
X58029000Y-64691000D01*
X63924000Y-64651000D02*
X57996000Y-64651000D01*
X63956000Y-64611000D02*
X57964000Y-64611000D01*
X63988000Y-64571000D02*
X57932000Y-64571000D01*
X64018000Y-64531000D02*
X57902000Y-64531000D01*
X59920000Y-64491000D02*
X57872000Y-64491000D01*
X64048000Y-64491000D02*
X62000000Y-64491000D01*
X59920000Y-64451000D02*
X57844000Y-64451000D01*
X64076000Y-64451000D02*
X62000000Y-64451000D01*
X59920000Y-64411000D02*
X57816000Y-64411000D01*
X64104000Y-64411000D02*
X62000000Y-64411000D01*
X59920000Y-64371000D02*
X57788000Y-64371000D01*
X64132000Y-64371000D02*
X62000000Y-64371000D01*
X59920000Y-64331000D02*
X57762000Y-64331000D01*
X64158000Y-64331000D02*
X62000000Y-64331000D01*
X59920000Y-64291000D02*
X57736000Y-64291000D01*
X64184000Y-64291000D02*
X62000000Y-64291000D01*
X59920000Y-64251000D02*
X57711000Y-64251000D01*
X64209000Y-64251000D02*
X62000000Y-64251000D01*
X59920000Y-64211000D02*
X57686000Y-64211000D01*
X64234000Y-64211000D02*
X62000000Y-64211000D01*
X59920000Y-64171000D02*
X57663000Y-64171000D01*
X64257000Y-64171000D02*
X62000000Y-64171000D01*
X59920000Y-64131000D02*
X57639000Y-64131000D01*
X64281000Y-64131000D02*
X62000000Y-64131000D01*
X59920000Y-64091000D02*
X57617000Y-64091000D01*
X64303000Y-64091000D02*
X62000000Y-64091000D01*
X59920000Y-64051000D02*
X57595000Y-64051000D01*
X64325000Y-64051000D02*
X62000000Y-64051000D01*
X59920000Y-64011000D02*
X57574000Y-64011000D01*
X64346000Y-64011000D02*
X62000000Y-64011000D01*
X59920000Y-63971000D02*
X57553000Y-63971000D01*
X64367000Y-63971000D02*
X62000000Y-63971000D01*
X59920000Y-63931000D02*
X57533000Y-63931000D01*
X64387000Y-63931000D02*
X62000000Y-63931000D01*
X59920000Y-63891000D02*
X57513000Y-63891000D01*
X64407000Y-63891000D02*
X62000000Y-63891000D01*
X59920000Y-63851000D02*
X57494000Y-63851000D01*
X64426000Y-63851000D02*
X62000000Y-63851000D01*
X59920000Y-63811000D02*
X57476000Y-63811000D01*
X64444000Y-63811000D02*
X62000000Y-63811000D01*
X59920000Y-63771000D02*
X57458000Y-63771000D01*
X64462000Y-63771000D02*
X62000000Y-63771000D01*
X59920000Y-63731000D02*
X57440000Y-63731000D01*
X64480000Y-63731000D02*
X62000000Y-63731000D01*
X59920000Y-63691000D02*
X57424000Y-63691000D01*
X64496000Y-63691000D02*
X62000000Y-63691000D01*
X59920000Y-63651000D02*
X57407000Y-63651000D01*
X64513000Y-63651000D02*
X62000000Y-63651000D01*
X59920000Y-63611000D02*
X57392000Y-63611000D01*
X64528000Y-63611000D02*
X62000000Y-63611000D01*
X59920000Y-63571000D02*
X57376000Y-63571000D01*
X64544000Y-63571000D02*
X62000000Y-63571000D01*
X59920000Y-63531000D02*
X57362000Y-63531000D01*
X64558000Y-63531000D02*
X62000000Y-63531000D01*
X59920000Y-63491000D02*
X57347000Y-63491000D01*
X64573000Y-63491000D02*
X62000000Y-63491000D01*
X59920000Y-63451000D02*
X57334000Y-63451000D01*
X64586000Y-63451000D02*
X62000000Y-63451000D01*
X59920000Y-63411000D02*
X57320000Y-63411000D01*
X64600000Y-63411000D02*
X62000000Y-63411000D01*
X59920000Y-63371000D02*
X57307000Y-63371000D01*
X64613000Y-63371000D02*
X62000000Y-63371000D01*
X59920000Y-63331000D02*
X57295000Y-63331000D01*
X64625000Y-63331000D02*
X62000000Y-63331000D01*
X59920000Y-63291000D02*
X57283000Y-63291000D01*
X64637000Y-63291000D02*
X62000000Y-63291000D01*
X59920000Y-63251000D02*
X57272000Y-63251000D01*
X64648000Y-63251000D02*
X62000000Y-63251000D01*
X59920000Y-63211000D02*
X57261000Y-63211000D01*
X64659000Y-63211000D02*
X62000000Y-63211000D01*
X59920000Y-63171000D02*
X57250000Y-63171000D01*
X64670000Y-63171000D02*
X62000000Y-63171000D01*
X59920000Y-63131000D02*
X57240000Y-63131000D01*
X64680000Y-63131000D02*
X62000000Y-63131000D01*
X59920000Y-63091000D02*
X57231000Y-63091000D01*
X64689000Y-63091000D02*
X62000000Y-63091000D01*
X59920000Y-63051000D02*
X57222000Y-63051000D01*
X64698000Y-63051000D02*
X62000000Y-63051000D01*
X59920000Y-63011000D02*
X57213000Y-63011000D01*
X64707000Y-63011000D02*
X62000000Y-63011000D01*
X59920000Y-62971000D02*
X57205000Y-62971000D01*
X64715000Y-62971000D02*
X62000000Y-62971000D01*
X59920000Y-62931000D02*
X57197000Y-62931000D01*
X64723000Y-62931000D02*
X62000000Y-62931000D01*
X59920000Y-62890000D02*
X57190000Y-62890000D01*
X64730000Y-62890000D02*
X62000000Y-62890000D01*
X59920000Y-62850000D02*
X57183000Y-62850000D01*
X64737000Y-62850000D02*
X62000000Y-62850000D01*
X59920000Y-62810000D02*
X57176000Y-62810000D01*
X64744000Y-62810000D02*
X62000000Y-62810000D01*
X59920000Y-62770000D02*
X57170000Y-62770000D01*
X64750000Y-62770000D02*
X62000000Y-62770000D01*
X59920000Y-62730000D02*
X57165000Y-62730000D01*
X64755000Y-62730000D02*
X62000000Y-62730000D01*
X59920000Y-62690000D02*
X57159000Y-62690000D01*
X64761000Y-62690000D02*
X62000000Y-62690000D01*
X59920000Y-62650000D02*
X57155000Y-62650000D01*
X64765000Y-62650000D02*
X62000000Y-62650000D01*
X59920000Y-62610000D02*
X57150000Y-62610000D01*
X64770000Y-62610000D02*
X62000000Y-62610000D01*
X59920000Y-62570000D02*
X57146000Y-62570000D01*
X64774000Y-62570000D02*
X62000000Y-62570000D01*
X59920000Y-62530000D02*
X57143000Y-62530000D01*
X64777000Y-62530000D02*
X62000000Y-62530000D01*
X59920000Y-62490000D02*
X57140000Y-62490000D01*
X64780000Y-62490000D02*
X62000000Y-62490000D01*
X59920000Y-62450000D02*
X57137000Y-62450000D01*
X64783000Y-62450000D02*
X62000000Y-62450000D01*
X64785000Y-62410000D02*
X57135000Y-62410000D01*
X64787000Y-62370000D02*
X57133000Y-62370000D01*
X64789000Y-62330000D02*
X57131000Y-62330000D01*
X64790000Y-62290000D02*
X57130000Y-62290000D01*
X64790000Y-62250000D02*
X57130000Y-62250000D01*
X64790000Y-62210000D02*
X57130000Y-62210000D01*
X64830000Y-62210000D02*
G75*
G03*
X64830000Y-62210000I-3870000J0D01*
G01*
D11*
X78802380Y-88801904D02*
X78802380Y-88230476D01*
X79802380Y-88516190D02*
X78802380Y-88516190D01*
X79707142Y-87325714D02*
X79754761Y-87373333D01*
X79802380Y-87516190D01*
X79802380Y-87611428D01*
X79754761Y-87754285D01*
X79659523Y-87849523D01*
X79564285Y-87897142D01*
X79373809Y-87944761D01*
X79230952Y-87944761D01*
X79040476Y-87897142D01*
X78945238Y-87849523D01*
X78850000Y-87754285D01*
X78802380Y-87611428D01*
X78802380Y-87516190D01*
X78850000Y-87373333D01*
X78897619Y-87325714D01*
X79802380Y-86373333D02*
X79802380Y-86944761D01*
X79802380Y-86659047D02*
X78802380Y-86659047D01*
X78945238Y-86754285D01*
X79040476Y-86849523D01*
X79088095Y-86944761D01*
X161369523Y-60202380D02*
X161369523Y-59202380D01*
X161750476Y-59202380D01*
X161845714Y-59250000D01*
X161893333Y-59297619D01*
X161940952Y-59392857D01*
X161940952Y-59535714D01*
X161893333Y-59630952D01*
X161845714Y-59678571D01*
X161750476Y-59726190D01*
X161369523Y-59726190D01*
X162369523Y-59678571D02*
X162702857Y-59678571D01*
X162845714Y-60202380D02*
X162369523Y-60202380D01*
X162369523Y-59202380D01*
X162845714Y-59202380D01*
X163798095Y-60202380D02*
X163226666Y-60202380D01*
X163512380Y-60202380D02*
X163512380Y-59202380D01*
X163417142Y-59345238D01*
X163321904Y-59440476D01*
X163226666Y-59488095D01*
X60881904Y-111322380D02*
X61548571Y-112322380D01*
X61548571Y-111322380D02*
X60881904Y-112322380D01*
X61881904Y-112036666D02*
X62358095Y-112036666D01*
X61786666Y-112322380D02*
X62120000Y-111322380D01*
X62453333Y-112322380D01*
X63310476Y-112322380D02*
X62739047Y-112322380D01*
X63024761Y-112322380D02*
X63024761Y-111322380D01*
X62929523Y-111465238D01*
X62834285Y-111560476D01*
X62739047Y-111608095D01*
D15*
X58290190Y-122533952D02*
X58694952Y-122533952D01*
X58742571Y-122510142D01*
X58766380Y-122486333D01*
X58790190Y-122438714D01*
X58790190Y-122343476D01*
X58766380Y-122295857D01*
X58742571Y-122272047D01*
X58694952Y-122248238D01*
X58290190Y-122248238D01*
X58766380Y-122033952D02*
X58790190Y-121962523D01*
X58790190Y-121843476D01*
X58766380Y-121795857D01*
X58742571Y-121772047D01*
X58694952Y-121748238D01*
X58647333Y-121748238D01*
X58599714Y-121772047D01*
X58575904Y-121795857D01*
X58552095Y-121843476D01*
X58528285Y-121938714D01*
X58504476Y-121986333D01*
X58480666Y-122010142D01*
X58433047Y-122033952D01*
X58385428Y-122033952D01*
X58337809Y-122010142D01*
X58314000Y-121986333D01*
X58290190Y-121938714D01*
X58290190Y-121819666D01*
X58314000Y-121748238D01*
X58528285Y-121367285D02*
X58552095Y-121295857D01*
X58575904Y-121272047D01*
X58623523Y-121248238D01*
X58694952Y-121248238D01*
X58742571Y-121272047D01*
X58766380Y-121295857D01*
X58790190Y-121343476D01*
X58790190Y-121533952D01*
X58290190Y-121533952D01*
X58290190Y-121367285D01*
X58314000Y-121319666D01*
X58337809Y-121295857D01*
X58385428Y-121272047D01*
X58433047Y-121272047D01*
X58480666Y-121295857D01*
X58504476Y-121319666D01*
X58528285Y-121367285D01*
X58528285Y-121533952D01*
X65301904Y-127852190D02*
X65611428Y-127852190D01*
X65444761Y-128042666D01*
X65516190Y-128042666D01*
X65563809Y-128066476D01*
X65587619Y-128090285D01*
X65611428Y-128137904D01*
X65611428Y-128256952D01*
X65587619Y-128304571D01*
X65563809Y-128328380D01*
X65516190Y-128352190D01*
X65373333Y-128352190D01*
X65325714Y-128328380D01*
X65301904Y-128304571D01*
X65825714Y-128304571D02*
X65849523Y-128328380D01*
X65825714Y-128352190D01*
X65801904Y-128328380D01*
X65825714Y-128304571D01*
X65825714Y-128352190D01*
X66016190Y-127852190D02*
X66325714Y-127852190D01*
X66159047Y-128042666D01*
X66230476Y-128042666D01*
X66278095Y-128066476D01*
X66301904Y-128090285D01*
X66325714Y-128137904D01*
X66325714Y-128256952D01*
X66301904Y-128304571D01*
X66278095Y-128328380D01*
X66230476Y-128352190D01*
X66087619Y-128352190D01*
X66040000Y-128328380D01*
X66016190Y-128304571D01*
X66468571Y-127852190D02*
X66635238Y-128352190D01*
X66801904Y-127852190D01*
D11*
X124412380Y-64309523D02*
X123412380Y-64309523D01*
X124126666Y-63976190D01*
X123412380Y-63642857D01*
X124412380Y-63642857D01*
X123507619Y-63214285D02*
X123460000Y-63166666D01*
X123412380Y-63071428D01*
X123412380Y-62833333D01*
X123460000Y-62738095D01*
X123507619Y-62690476D01*
X123602857Y-62642857D01*
X123698095Y-62642857D01*
X123840952Y-62690476D01*
X124412380Y-63261904D01*
X124412380Y-62642857D01*
X135961428Y-56260952D02*
X135961428Y-55499047D01*
X135961428Y-58800952D02*
X135961428Y-58039047D01*
X136342380Y-58420000D02*
X135580476Y-58420000D01*
X105092380Y-64309523D02*
X104092380Y-64309523D01*
X104806666Y-63976190D01*
X104092380Y-63642857D01*
X105092380Y-63642857D01*
X105092380Y-62642857D02*
X105092380Y-63214285D01*
X105092380Y-62928571D02*
X104092380Y-62928571D01*
X104235238Y-63023809D01*
X104330476Y-63119047D01*
X104378095Y-63214285D01*
X92781428Y-71500952D02*
X92781428Y-70739047D01*
X92781428Y-68960952D02*
X92781428Y-68199047D01*
X93162380Y-68580000D02*
X92400476Y-68580000D01*
X171283333Y-114582380D02*
X170950000Y-114106190D01*
X170711904Y-114582380D02*
X170711904Y-113582380D01*
X171092857Y-113582380D01*
X171188095Y-113630000D01*
X171235714Y-113677619D01*
X171283333Y-113772857D01*
X171283333Y-113915714D01*
X171235714Y-114010952D01*
X171188095Y-114058571D01*
X171092857Y-114106190D01*
X170711904Y-114106190D01*
X172140476Y-113582380D02*
X171950000Y-113582380D01*
X171854761Y-113630000D01*
X171807142Y-113677619D01*
X171711904Y-113820476D01*
X171664285Y-114010952D01*
X171664285Y-114391904D01*
X171711904Y-114487142D01*
X171759523Y-114534761D01*
X171854761Y-114582380D01*
X172045238Y-114582380D01*
X172140476Y-114534761D01*
X172188095Y-114487142D01*
X172235714Y-114391904D01*
X172235714Y-114153809D01*
X172188095Y-114058571D01*
X172140476Y-114010952D01*
X172045238Y-113963333D01*
X171854761Y-113963333D01*
X171759523Y-114010952D01*
X171711904Y-114058571D01*
X171664285Y-114153809D01*
X172624761Y-98587619D02*
X172529523Y-98540000D01*
X172434285Y-98444761D01*
X172291428Y-98301904D01*
X172196190Y-98254285D01*
X172100952Y-98254285D01*
X172148571Y-98492380D02*
X172053333Y-98444761D01*
X171958095Y-98349523D01*
X171910476Y-98159047D01*
X171910476Y-97825714D01*
X171958095Y-97635238D01*
X172053333Y-97540000D01*
X172148571Y-97492380D01*
X172339047Y-97492380D01*
X172434285Y-97540000D01*
X172529523Y-97635238D01*
X172577142Y-97825714D01*
X172577142Y-98159047D01*
X172529523Y-98349523D01*
X172434285Y-98444761D01*
X172339047Y-98492380D01*
X172148571Y-98492380D01*
X173434285Y-97825714D02*
X173434285Y-98492380D01*
X173196190Y-97444761D02*
X172958095Y-98159047D01*
X173577142Y-98159047D01*
X162464761Y-98087619D02*
X162369523Y-98040000D01*
X162274285Y-97944761D01*
X162131428Y-97801904D01*
X162036190Y-97754285D01*
X161940952Y-97754285D01*
X161988571Y-97992380D02*
X161893333Y-97944761D01*
X161798095Y-97849523D01*
X161750476Y-97659047D01*
X161750476Y-97325714D01*
X161798095Y-97135238D01*
X161893333Y-97040000D01*
X161988571Y-96992380D01*
X162179047Y-96992380D01*
X162274285Y-97040000D01*
X162369523Y-97135238D01*
X162417142Y-97325714D01*
X162417142Y-97659047D01*
X162369523Y-97849523D01*
X162274285Y-97944761D01*
X162179047Y-97992380D01*
X161988571Y-97992380D01*
X163369523Y-97992380D02*
X162798095Y-97992380D01*
X163083809Y-97992380D02*
X163083809Y-96992380D01*
X162988571Y-97135238D01*
X162893333Y-97230476D01*
X162798095Y-97278095D01*
X67822380Y-88391904D02*
X68631904Y-88391904D01*
X68727142Y-88344285D01*
X68774761Y-88296666D01*
X68822380Y-88201428D01*
X68822380Y-88010952D01*
X68774761Y-87915714D01*
X68727142Y-87868095D01*
X68631904Y-87820476D01*
X67822380Y-87820476D01*
X68822380Y-86820476D02*
X68822380Y-87391904D01*
X68822380Y-87106190D02*
X67822380Y-87106190D01*
X67965238Y-87201428D01*
X68060476Y-87296666D01*
X68108095Y-87391904D01*
X160642380Y-115736666D02*
X160166190Y-116070000D01*
X160642380Y-116308095D02*
X159642380Y-116308095D01*
X159642380Y-115927142D01*
X159690000Y-115831904D01*
X159737619Y-115784285D01*
X159832857Y-115736666D01*
X159975714Y-115736666D01*
X160070952Y-115784285D01*
X160118571Y-115831904D01*
X160166190Y-115927142D01*
X160166190Y-116308095D01*
X159642380Y-115403333D02*
X159642380Y-114736666D01*
X160642380Y-115165238D01*
X173823333Y-92062380D02*
X173490000Y-91586190D01*
X173251904Y-92062380D02*
X173251904Y-91062380D01*
X173632857Y-91062380D01*
X173728095Y-91110000D01*
X173775714Y-91157619D01*
X173823333Y-91252857D01*
X173823333Y-91395714D01*
X173775714Y-91490952D01*
X173728095Y-91538571D01*
X173632857Y-91586190D01*
X173251904Y-91586190D01*
X174728095Y-91062380D02*
X174251904Y-91062380D01*
X174204285Y-91538571D01*
X174251904Y-91490952D01*
X174347142Y-91443333D01*
X174585238Y-91443333D01*
X174680476Y-91490952D01*
X174728095Y-91538571D01*
X174775714Y-91633809D01*
X174775714Y-91871904D01*
X174728095Y-91967142D01*
X174680476Y-92014761D01*
X174585238Y-92062380D01*
X174347142Y-92062380D01*
X174251904Y-92014761D01*
X174204285Y-91967142D01*
X150963333Y-96802380D02*
X150630000Y-96326190D01*
X150391904Y-96802380D02*
X150391904Y-95802380D01*
X150772857Y-95802380D01*
X150868095Y-95850000D01*
X150915714Y-95897619D01*
X150963333Y-95992857D01*
X150963333Y-96135714D01*
X150915714Y-96230952D01*
X150868095Y-96278571D01*
X150772857Y-96326190D01*
X150391904Y-96326190D01*
X151820476Y-96135714D02*
X151820476Y-96802380D01*
X151582380Y-95754761D02*
X151344285Y-96469047D01*
X151963333Y-96469047D01*
X158583333Y-99682380D02*
X158250000Y-99206190D01*
X158011904Y-99682380D02*
X158011904Y-98682380D01*
X158392857Y-98682380D01*
X158488095Y-98730000D01*
X158535714Y-98777619D01*
X158583333Y-98872857D01*
X158583333Y-99015714D01*
X158535714Y-99110952D01*
X158488095Y-99158571D01*
X158392857Y-99206190D01*
X158011904Y-99206190D01*
X158916666Y-98682380D02*
X159535714Y-98682380D01*
X159202380Y-99063333D01*
X159345238Y-99063333D01*
X159440476Y-99110952D01*
X159488095Y-99158571D01*
X159535714Y-99253809D01*
X159535714Y-99491904D01*
X159488095Y-99587142D01*
X159440476Y-99634761D01*
X159345238Y-99682380D01*
X159059523Y-99682380D01*
X158964285Y-99634761D01*
X158916666Y-99587142D01*
X150482380Y-115736666D02*
X150006190Y-116070000D01*
X150482380Y-116308095D02*
X149482380Y-116308095D01*
X149482380Y-115927142D01*
X149530000Y-115831904D01*
X149577619Y-115784285D01*
X149672857Y-115736666D01*
X149815714Y-115736666D01*
X149910952Y-115784285D01*
X149958571Y-115831904D01*
X150006190Y-115927142D01*
X150006190Y-116308095D01*
X149577619Y-115355714D02*
X149530000Y-115308095D01*
X149482380Y-115212857D01*
X149482380Y-114974761D01*
X149530000Y-114879523D01*
X149577619Y-114831904D01*
X149672857Y-114784285D01*
X149768095Y-114784285D01*
X149910952Y-114831904D01*
X150482380Y-115403333D01*
X150482380Y-114784285D01*
X48882380Y-62396666D02*
X48406190Y-62730000D01*
X48882380Y-62968095D02*
X47882380Y-62968095D01*
X47882380Y-62587142D01*
X47930000Y-62491904D01*
X47977619Y-62444285D01*
X48072857Y-62396666D01*
X48215714Y-62396666D01*
X48310952Y-62444285D01*
X48358571Y-62491904D01*
X48406190Y-62587142D01*
X48406190Y-62968095D01*
X48882380Y-61444285D02*
X48882380Y-62015714D01*
X48882380Y-61730000D02*
X47882380Y-61730000D01*
X48025238Y-61825238D01*
X48120476Y-61920476D01*
X48168095Y-62015714D01*
X170084761Y-80097619D02*
X169989523Y-80050000D01*
X169894285Y-79954761D01*
X169751428Y-79811904D01*
X169656190Y-79764285D01*
X169560952Y-79764285D01*
X169608571Y-80002380D02*
X169513333Y-79954761D01*
X169418095Y-79859523D01*
X169370476Y-79669047D01*
X169370476Y-79335714D01*
X169418095Y-79145238D01*
X169513333Y-79050000D01*
X169608571Y-79002380D01*
X169799047Y-79002380D01*
X169894285Y-79050000D01*
X169989523Y-79145238D01*
X170037142Y-79335714D01*
X170037142Y-79669047D01*
X169989523Y-79859523D01*
X169894285Y-79954761D01*
X169799047Y-80002380D01*
X169608571Y-80002380D01*
X170894285Y-79002380D02*
X170703809Y-79002380D01*
X170608571Y-79050000D01*
X170560952Y-79097619D01*
X170465714Y-79240476D01*
X170418095Y-79430952D01*
X170418095Y-79811904D01*
X170465714Y-79907142D01*
X170513333Y-79954761D01*
X170608571Y-80002380D01*
X170799047Y-80002380D01*
X170894285Y-79954761D01*
X170941904Y-79907142D01*
X170989523Y-79811904D01*
X170989523Y-79573809D01*
X170941904Y-79478571D01*
X170894285Y-79430952D01*
X170799047Y-79383333D01*
X170608571Y-79383333D01*
X170513333Y-79430952D01*
X170465714Y-79478571D01*
X170418095Y-79573809D01*
X154844761Y-80097619D02*
X154749523Y-80050000D01*
X154654285Y-79954761D01*
X154511428Y-79811904D01*
X154416190Y-79764285D01*
X154320952Y-79764285D01*
X154368571Y-80002380D02*
X154273333Y-79954761D01*
X154178095Y-79859523D01*
X154130476Y-79669047D01*
X154130476Y-79335714D01*
X154178095Y-79145238D01*
X154273333Y-79050000D01*
X154368571Y-79002380D01*
X154559047Y-79002380D01*
X154654285Y-79050000D01*
X154749523Y-79145238D01*
X154797142Y-79335714D01*
X154797142Y-79669047D01*
X154749523Y-79859523D01*
X154654285Y-79954761D01*
X154559047Y-80002380D01*
X154368571Y-80002380D01*
X155701904Y-79002380D02*
X155225714Y-79002380D01*
X155178095Y-79478571D01*
X155225714Y-79430952D01*
X155320952Y-79383333D01*
X155559047Y-79383333D01*
X155654285Y-79430952D01*
X155701904Y-79478571D01*
X155749523Y-79573809D01*
X155749523Y-79811904D01*
X155701904Y-79907142D01*
X155654285Y-79954761D01*
X155559047Y-80002380D01*
X155320952Y-80002380D01*
X155225714Y-79954761D01*
X155178095Y-79907142D01*
X170084761Y-67397619D02*
X169989523Y-67350000D01*
X169894285Y-67254761D01*
X169751428Y-67111904D01*
X169656190Y-67064285D01*
X169560952Y-67064285D01*
X169608571Y-67302380D02*
X169513333Y-67254761D01*
X169418095Y-67159523D01*
X169370476Y-66969047D01*
X169370476Y-66635714D01*
X169418095Y-66445238D01*
X169513333Y-66350000D01*
X169608571Y-66302380D01*
X169799047Y-66302380D01*
X169894285Y-66350000D01*
X169989523Y-66445238D01*
X170037142Y-66635714D01*
X170037142Y-66969047D01*
X169989523Y-67159523D01*
X169894285Y-67254761D01*
X169799047Y-67302380D01*
X169608571Y-67302380D01*
X170370476Y-66302380D02*
X170989523Y-66302380D01*
X170656190Y-66683333D01*
X170799047Y-66683333D01*
X170894285Y-66730952D01*
X170941904Y-66778571D01*
X170989523Y-66873809D01*
X170989523Y-67111904D01*
X170941904Y-67207142D01*
X170894285Y-67254761D01*
X170799047Y-67302380D01*
X170513333Y-67302380D01*
X170418095Y-67254761D01*
X170370476Y-67207142D01*
X154844761Y-67397619D02*
X154749523Y-67350000D01*
X154654285Y-67254761D01*
X154511428Y-67111904D01*
X154416190Y-67064285D01*
X154320952Y-67064285D01*
X154368571Y-67302380D02*
X154273333Y-67254761D01*
X154178095Y-67159523D01*
X154130476Y-66969047D01*
X154130476Y-66635714D01*
X154178095Y-66445238D01*
X154273333Y-66350000D01*
X154368571Y-66302380D01*
X154559047Y-66302380D01*
X154654285Y-66350000D01*
X154749523Y-66445238D01*
X154797142Y-66635714D01*
X154797142Y-66969047D01*
X154749523Y-67159523D01*
X154654285Y-67254761D01*
X154559047Y-67302380D01*
X154368571Y-67302380D01*
X155178095Y-66397619D02*
X155225714Y-66350000D01*
X155320952Y-66302380D01*
X155559047Y-66302380D01*
X155654285Y-66350000D01*
X155701904Y-66397619D01*
X155749523Y-66492857D01*
X155749523Y-66588095D01*
X155701904Y-66730952D01*
X155130476Y-67302380D01*
X155749523Y-67302380D01*
X59742380Y-45223333D02*
X60456666Y-45223333D01*
X60599523Y-45270952D01*
X60694761Y-45366190D01*
X60742380Y-45509047D01*
X60742380Y-45604285D01*
X60742380Y-44223333D02*
X60742380Y-44794761D01*
X60742380Y-44509047D02*
X59742380Y-44509047D01*
X59885238Y-44604285D01*
X59980476Y-44699523D01*
X60028095Y-44794761D01*
X159052380Y-126468095D02*
X158052380Y-126468095D01*
X158052380Y-126230000D01*
X158100000Y-126087142D01*
X158195238Y-125991904D01*
X158290476Y-125944285D01*
X158480952Y-125896666D01*
X158623809Y-125896666D01*
X158814285Y-125944285D01*
X158909523Y-125991904D01*
X159004761Y-126087142D01*
X159052380Y-126230000D01*
X159052380Y-126468095D01*
X158052380Y-125563333D02*
X158052380Y-124944285D01*
X158433333Y-125277619D01*
X158433333Y-125134761D01*
X158480952Y-125039523D01*
X158528571Y-124991904D01*
X158623809Y-124944285D01*
X158861904Y-124944285D01*
X158957142Y-124991904D01*
X159004761Y-125039523D01*
X159052380Y-125134761D01*
X159052380Y-125420476D01*
X159004761Y-125515714D01*
X158957142Y-125563333D01*
X148892380Y-126468095D02*
X147892380Y-126468095D01*
X147892380Y-126230000D01*
X147940000Y-126087142D01*
X148035238Y-125991904D01*
X148130476Y-125944285D01*
X148320952Y-125896666D01*
X148463809Y-125896666D01*
X148654285Y-125944285D01*
X148749523Y-125991904D01*
X148844761Y-126087142D01*
X148892380Y-126230000D01*
X148892380Y-126468095D01*
X147987619Y-125515714D02*
X147940000Y-125468095D01*
X147892380Y-125372857D01*
X147892380Y-125134761D01*
X147940000Y-125039523D01*
X147987619Y-124991904D01*
X148082857Y-124944285D01*
X148178095Y-124944285D01*
X148320952Y-124991904D01*
X148892380Y-125563333D01*
X148892380Y-124944285D01*
X47292380Y-73128095D02*
X46292380Y-73128095D01*
X46292380Y-72890000D01*
X46340000Y-72747142D01*
X46435238Y-72651904D01*
X46530476Y-72604285D01*
X46720952Y-72556666D01*
X46863809Y-72556666D01*
X47054285Y-72604285D01*
X47149523Y-72651904D01*
X47244761Y-72747142D01*
X47292380Y-72890000D01*
X47292380Y-73128095D01*
X47292380Y-71604285D02*
X47292380Y-72175714D01*
X47292380Y-71890000D02*
X46292380Y-71890000D01*
X46435238Y-71985238D01*
X46530476Y-72080476D01*
X46578095Y-72175714D01*
X59503333Y-103817142D02*
X59455714Y-103864761D01*
X59312857Y-103912380D01*
X59217619Y-103912380D01*
X59074761Y-103864761D01*
X58979523Y-103769523D01*
X58931904Y-103674285D01*
X58884285Y-103483809D01*
X58884285Y-103340952D01*
X58931904Y-103150476D01*
X58979523Y-103055238D01*
X59074761Y-102960000D01*
X59217619Y-102912380D01*
X59312857Y-102912380D01*
X59455714Y-102960000D01*
X59503333Y-103007619D01*
X59884285Y-103007619D02*
X59931904Y-102960000D01*
X60027142Y-102912380D01*
X60265238Y-102912380D01*
X60360476Y-102960000D01*
X60408095Y-103007619D01*
X60455714Y-103102857D01*
X60455714Y-103198095D01*
X60408095Y-103340952D01*
X59836666Y-103912380D01*
X60455714Y-103912380D01*
X66317142Y-62376666D02*
X66364761Y-62424285D01*
X66412380Y-62567142D01*
X66412380Y-62662380D01*
X66364761Y-62805238D01*
X66269523Y-62900476D01*
X66174285Y-62948095D01*
X65983809Y-62995714D01*
X65840952Y-62995714D01*
X65650476Y-62948095D01*
X65555238Y-62900476D01*
X65460000Y-62805238D01*
X65412380Y-62662380D01*
X65412380Y-62567142D01*
X65460000Y-62424285D01*
X65507619Y-62376666D01*
X66412380Y-61424285D02*
X66412380Y-61995714D01*
X66412380Y-61710000D02*
X65412380Y-61710000D01*
X65555238Y-61805238D01*
X65650476Y-61900476D01*
X65698095Y-61995714D01*
M02*
