G04 #@! TF.GenerationSoftware,KiCad,Pcbnew,5.1.8+dfsg1-1+b1*
G04 #@! TF.CreationDate,2021-07-27T16:42:41-05:00*
G04 #@! TF.ProjectId,thermoelectric-tube,74686572-6d6f-4656-9c65-63747269632d,B*
G04 #@! TF.SameCoordinates,Original*
G04 #@! TF.FileFunction,Other,Fab,Top*
%FSLAX46Y46*%
G04 Gerber Fmt 4.6, Leading zero omitted, Abs format (unit mm)*
G04 Created by KiCad (PCBNEW 5.1.8+dfsg1-1+b1) date 2021-07-27 16:42:41*
%MOMM*%
%LPD*%
G01*
G04 APERTURE LIST*
%ADD10C,0.100000*%
%ADD11C,0.150000*%
%ADD12C,0.200000*%
G04 APERTURE END LIST*
D10*
X78150000Y-91440000D02*
G75*
G03*
X78150000Y-91440000I-1950000J0D01*
G01*
X78150000Y-83640000D02*
G75*
G03*
X78150000Y-83640000I-1950000J0D01*
G01*
X165610000Y-58900000D02*
X165610000Y-56050000D01*
X162760000Y-58900000D02*
X165610000Y-58900000D01*
X160910000Y-49800000D02*
X164210000Y-49800000D01*
X160910000Y-52275000D02*
X160910000Y-49800000D01*
X161735000Y-53100000D02*
X160910000Y-52275000D01*
X163385000Y-53100000D02*
X161735000Y-53100000D01*
X164210000Y-52275000D02*
X163385000Y-53100000D01*
X164210000Y-49800000D02*
X164210000Y-52275000D01*
X160910000Y-57300000D02*
X164210000Y-57300000D01*
X160910000Y-54000000D02*
X160910000Y-57300000D01*
X164210000Y-54000000D02*
X160910000Y-54000000D01*
X164210000Y-57300000D02*
X164210000Y-54000000D01*
X160860000Y-47550000D02*
X160860000Y-48950000D01*
X164260000Y-47550000D02*
X160860000Y-47550000D01*
X164260000Y-48950000D02*
X164260000Y-47550000D01*
X159860000Y-58550000D02*
X165260000Y-58550000D01*
X159860000Y-48950000D02*
X159860000Y-58550000D01*
X165260000Y-48950000D02*
X159860000Y-48950000D01*
X165260000Y-58550000D02*
X165260000Y-48950000D01*
X167640000Y-111760000D02*
X168300000Y-111760000D01*
X175260000Y-111760000D02*
X174600000Y-111760000D01*
X168300000Y-113010000D02*
X174600000Y-113010000D01*
X168300000Y-110510000D02*
X168300000Y-113010000D01*
X174600000Y-110510000D02*
X168300000Y-110510000D01*
X174600000Y-113010000D02*
X174600000Y-110510000D01*
X170980000Y-103350000D02*
X174480000Y-103350000D01*
X170966375Y-103353625D02*
G75*
G02*
X172720000Y-99120000I1753625J1753625D01*
G01*
X174473625Y-103353625D02*
G75*
G03*
X172720000Y-99120000I-1753625J1753625D01*
G01*
X164300000Y-92230000D02*
X160800000Y-92230000D01*
X164313625Y-92226375D02*
G75*
G02*
X162560000Y-96460000I-1753625J-1753625D01*
G01*
X160806375Y-92226375D02*
G75*
G03*
X162560000Y-96460000I1753625J-1753625D01*
G01*
X67370000Y-92710000D02*
X67370000Y-82550000D01*
X49470000Y-92710000D02*
X67370000Y-92710000D01*
X49470000Y-82550000D02*
X49470000Y-92710000D01*
X67370000Y-82550000D02*
X49470000Y-82550000D01*
X66310000Y-84455000D02*
X67310000Y-85455000D01*
X49530000Y-84455000D02*
X66310000Y-84455000D01*
X49530000Y-90805000D02*
X49530000Y-84455000D01*
X67310000Y-90805000D02*
X49530000Y-90805000D01*
X67310000Y-85455000D02*
X67310000Y-90805000D01*
X162560000Y-111760000D02*
X162560000Y-112420000D01*
X162560000Y-119380000D02*
X162560000Y-118720000D01*
X161310000Y-112420000D02*
X161310000Y-118720000D01*
X163810000Y-112420000D02*
X161310000Y-112420000D01*
X163810000Y-118720000D02*
X163810000Y-112420000D01*
X161310000Y-118720000D02*
X163810000Y-118720000D01*
X177800000Y-93980000D02*
X177140000Y-93980000D01*
X170180000Y-93980000D02*
X170840000Y-93980000D01*
X177140000Y-92730000D02*
X170840000Y-92730000D01*
X177140000Y-95230000D02*
X177140000Y-92730000D01*
X170840000Y-95230000D02*
X177140000Y-95230000D01*
X170840000Y-92730000D02*
X170840000Y-95230000D01*
X147320000Y-93980000D02*
X147980000Y-93980000D01*
X154940000Y-93980000D02*
X154280000Y-93980000D01*
X147980000Y-95230000D02*
X154280000Y-95230000D01*
X147980000Y-92730000D02*
X147980000Y-95230000D01*
X154280000Y-92730000D02*
X147980000Y-92730000D01*
X154280000Y-95230000D02*
X154280000Y-92730000D01*
X162560000Y-101600000D02*
X161900000Y-101600000D01*
X154940000Y-101600000D02*
X155600000Y-101600000D01*
X161900000Y-100350000D02*
X155600000Y-100350000D01*
X161900000Y-102850000D02*
X161900000Y-100350000D01*
X155600000Y-102850000D02*
X161900000Y-102850000D01*
X155600000Y-100350000D02*
X155600000Y-102850000D01*
X152400000Y-111760000D02*
X152400000Y-112420000D01*
X152400000Y-119380000D02*
X152400000Y-118720000D01*
X151150000Y-112420000D02*
X151150000Y-118720000D01*
X153650000Y-112420000D02*
X151150000Y-112420000D01*
X153650000Y-118720000D02*
X153650000Y-112420000D01*
X151150000Y-118720000D02*
X153650000Y-118720000D01*
X50800000Y-58420000D02*
X50800000Y-59080000D01*
X50800000Y-66040000D02*
X50800000Y-65380000D01*
X49550000Y-59080000D02*
X49550000Y-65380000D01*
X52050000Y-59080000D02*
X49550000Y-59080000D01*
X52050000Y-65380000D02*
X52050000Y-59080000D01*
X49550000Y-65380000D02*
X52050000Y-65380000D01*
X172030000Y-80670000D02*
X172030000Y-81940000D01*
X168330000Y-80670000D02*
X168330000Y-81940000D01*
X165180000Y-81940000D02*
X175180000Y-81940000D01*
X175180000Y-80670000D02*
X165180000Y-80670000D01*
X175180000Y-85070000D02*
X175180000Y-80670000D01*
X165180000Y-85070000D02*
X175180000Y-85070000D01*
X165180000Y-80670000D02*
X165180000Y-85070000D01*
X156790000Y-80670000D02*
X156790000Y-81940000D01*
X153090000Y-80670000D02*
X153090000Y-81940000D01*
X149940000Y-81940000D02*
X159940000Y-81940000D01*
X159940000Y-80670000D02*
X149940000Y-80670000D01*
X159940000Y-85070000D02*
X159940000Y-80670000D01*
X149940000Y-85070000D02*
X159940000Y-85070000D01*
X149940000Y-80670000D02*
X149940000Y-85070000D01*
X172030000Y-67970000D02*
X172030000Y-69240000D01*
X168330000Y-67970000D02*
X168330000Y-69240000D01*
X165180000Y-69240000D02*
X175180000Y-69240000D01*
X175180000Y-67970000D02*
X165180000Y-67970000D01*
X175180000Y-72370000D02*
X175180000Y-67970000D01*
X165180000Y-72370000D02*
X175180000Y-72370000D01*
X165180000Y-67970000D02*
X165180000Y-72370000D01*
X156790000Y-67970000D02*
X156790000Y-69240000D01*
X153090000Y-67970000D02*
X153090000Y-69240000D01*
X149940000Y-69240000D02*
X159940000Y-69240000D01*
X159940000Y-67970000D02*
X149940000Y-67970000D01*
X159940000Y-72370000D02*
X159940000Y-67970000D01*
X149940000Y-72370000D02*
X159940000Y-72370000D01*
X149940000Y-67970000D02*
X149940000Y-72370000D01*
X70540000Y-53340000D02*
X70540000Y-39640000D01*
X61540000Y-54140000D02*
X69790000Y-54140000D01*
X61540000Y-39640000D02*
X61540000Y-54140000D01*
X70540000Y-39640000D02*
X61540000Y-39640000D01*
X70540000Y-43140000D02*
X61540000Y-43140000D01*
X70545425Y-53336787D02*
X69790000Y-54140000D01*
X161090306Y-128230000D02*
X164029694Y-128230000D01*
X165060000Y-125730000D02*
G75*
G03*
X165060000Y-125730000I-2500000J0D01*
G01*
X164029666Y-128230016D02*
G75*
G03*
X161090306Y-128230000I-1469666J2500016D01*
G01*
X150930306Y-128230000D02*
X153869694Y-128230000D01*
X154900000Y-125730000D02*
G75*
G03*
X154900000Y-125730000I-2500000J0D01*
G01*
X153869666Y-128230016D02*
G75*
G03*
X150930306Y-128230000I-1469666J2500016D01*
G01*
X49330306Y-74890000D02*
X52269694Y-74890000D01*
X53300000Y-72390000D02*
G75*
G03*
X53300000Y-72390000I-2500000J0D01*
G01*
X52269666Y-74890016D02*
G75*
G03*
X49330306Y-74890000I-1469666J2500016D01*
G01*
X62820000Y-99060000D02*
G75*
G03*
X62820000Y-99060000I-3150000J0D01*
G01*
X62972500Y-59373767D02*
X62222500Y-59373767D01*
X62597500Y-58998767D02*
X62597500Y-59748767D01*
X64710000Y-62210000D02*
G75*
G03*
X64710000Y-62210000I-3750000J0D01*
G01*
D11*
X72502380Y-92611428D02*
X72502380Y-92040000D01*
X73502380Y-92325714D02*
X72502380Y-92325714D01*
X73502380Y-91706666D02*
X72502380Y-91706666D01*
X73502380Y-91278095D02*
X72978571Y-91278095D01*
X72883333Y-91325714D01*
X72835714Y-91420952D01*
X72835714Y-91563809D01*
X72883333Y-91659047D01*
X72930952Y-91706666D01*
X73454761Y-90420952D02*
X73502380Y-90516190D01*
X73502380Y-90706666D01*
X73454761Y-90801904D01*
X73359523Y-90849523D01*
X72978571Y-90849523D01*
X72883333Y-90801904D01*
X72835714Y-90706666D01*
X72835714Y-90516190D01*
X72883333Y-90420952D01*
X72978571Y-90373333D01*
X73073809Y-90373333D01*
X73169047Y-90849523D01*
X73502380Y-89944761D02*
X72835714Y-89944761D01*
X73026190Y-89944761D02*
X72930952Y-89897142D01*
X72883333Y-89849523D01*
X72835714Y-89754285D01*
X72835714Y-89659047D01*
X73502380Y-89325714D02*
X72835714Y-89325714D01*
X72930952Y-89325714D02*
X72883333Y-89278095D01*
X72835714Y-89182857D01*
X72835714Y-89040000D01*
X72883333Y-88944761D01*
X72978571Y-88897142D01*
X73502380Y-88897142D01*
X72978571Y-88897142D02*
X72883333Y-88849523D01*
X72835714Y-88754285D01*
X72835714Y-88611428D01*
X72883333Y-88516190D01*
X72978571Y-88468571D01*
X73502380Y-88468571D01*
X73502380Y-87849523D02*
X73454761Y-87944761D01*
X73407142Y-87992380D01*
X73311904Y-88040000D01*
X73026190Y-88040000D01*
X72930952Y-87992380D01*
X72883333Y-87944761D01*
X72835714Y-87849523D01*
X72835714Y-87706666D01*
X72883333Y-87611428D01*
X72930952Y-87563809D01*
X73026190Y-87516190D01*
X73311904Y-87516190D01*
X73407142Y-87563809D01*
X73454761Y-87611428D01*
X73502380Y-87706666D01*
X73502380Y-87849523D01*
X73454761Y-86659047D02*
X73502380Y-86754285D01*
X73502380Y-86944761D01*
X73454761Y-87040000D01*
X73407142Y-87087619D01*
X73311904Y-87135238D01*
X73026190Y-87135238D01*
X72930952Y-87087619D01*
X72883333Y-87040000D01*
X72835714Y-86944761D01*
X72835714Y-86754285D01*
X72883333Y-86659047D01*
X73502380Y-86087619D02*
X73454761Y-86182857D01*
X73407142Y-86230476D01*
X73311904Y-86278095D01*
X73026190Y-86278095D01*
X72930952Y-86230476D01*
X72883333Y-86182857D01*
X72835714Y-86087619D01*
X72835714Y-85944761D01*
X72883333Y-85849523D01*
X72930952Y-85801904D01*
X73026190Y-85754285D01*
X73311904Y-85754285D01*
X73407142Y-85801904D01*
X73454761Y-85849523D01*
X73502380Y-85944761D01*
X73502380Y-86087619D01*
X72835714Y-84897142D02*
X73502380Y-84897142D01*
X72835714Y-85325714D02*
X73359523Y-85325714D01*
X73454761Y-85278095D01*
X73502380Y-85182857D01*
X73502380Y-85040000D01*
X73454761Y-84944761D01*
X73407142Y-84897142D01*
X72835714Y-84420952D02*
X73835714Y-84420952D01*
X72883333Y-84420952D02*
X72835714Y-84325714D01*
X72835714Y-84135238D01*
X72883333Y-84040000D01*
X72930952Y-83992380D01*
X73026190Y-83944761D01*
X73311904Y-83944761D01*
X73407142Y-83992380D01*
X73454761Y-84040000D01*
X73502380Y-84135238D01*
X73502380Y-84325714D01*
X73454761Y-84420952D01*
X73502380Y-83373333D02*
X73454761Y-83468571D01*
X73359523Y-83516190D01*
X72502380Y-83516190D01*
X73454761Y-82611428D02*
X73502380Y-82706666D01*
X73502380Y-82897142D01*
X73454761Y-82992380D01*
X73359523Y-83040000D01*
X72978571Y-83040000D01*
X72883333Y-82992380D01*
X72835714Y-82897142D01*
X72835714Y-82706666D01*
X72883333Y-82611428D01*
X72978571Y-82563809D01*
X73073809Y-82563809D01*
X73169047Y-83040000D01*
X74938095Y-86992380D02*
X75509523Y-86992380D01*
X75223809Y-87992380D02*
X75223809Y-86992380D01*
X76414285Y-87897142D02*
X76366666Y-87944761D01*
X76223809Y-87992380D01*
X76128571Y-87992380D01*
X75985714Y-87944761D01*
X75890476Y-87849523D01*
X75842857Y-87754285D01*
X75795238Y-87563809D01*
X75795238Y-87420952D01*
X75842857Y-87230476D01*
X75890476Y-87135238D01*
X75985714Y-87040000D01*
X76128571Y-86992380D01*
X76223809Y-86992380D01*
X76366666Y-87040000D01*
X76414285Y-87087619D01*
X77366666Y-87992380D02*
X76795238Y-87992380D01*
X77080952Y-87992380D02*
X77080952Y-86992380D01*
X76985714Y-87135238D01*
X76890476Y-87230476D01*
X76795238Y-87278095D01*
X156988571Y-46802380D02*
X156988571Y-45802380D01*
X157369523Y-45802380D01*
X157464761Y-45850000D01*
X157512380Y-45897619D01*
X157560000Y-45992857D01*
X157560000Y-46135714D01*
X157512380Y-46230952D01*
X157464761Y-46278571D01*
X157369523Y-46326190D01*
X156988571Y-46326190D01*
X158369523Y-46754761D02*
X158274285Y-46802380D01*
X158083809Y-46802380D01*
X157988571Y-46754761D01*
X157940952Y-46659523D01*
X157940952Y-46278571D01*
X157988571Y-46183333D01*
X158083809Y-46135714D01*
X158274285Y-46135714D01*
X158369523Y-46183333D01*
X158417142Y-46278571D01*
X158417142Y-46373809D01*
X157940952Y-46469047D01*
X158988571Y-46802380D02*
X158893333Y-46754761D01*
X158845714Y-46659523D01*
X158845714Y-45802380D01*
X159226666Y-46135714D02*
X159607619Y-46135714D01*
X159369523Y-45802380D02*
X159369523Y-46659523D01*
X159417142Y-46754761D01*
X159512380Y-46802380D01*
X159607619Y-46802380D01*
X159940952Y-46802380D02*
X159940952Y-46135714D01*
X159940952Y-45802380D02*
X159893333Y-45850000D01*
X159940952Y-45897619D01*
X159988571Y-45850000D01*
X159940952Y-45802380D01*
X159940952Y-45897619D01*
X160798095Y-46754761D02*
X160702857Y-46802380D01*
X160512380Y-46802380D01*
X160417142Y-46754761D01*
X160369523Y-46659523D01*
X160369523Y-46278571D01*
X160417142Y-46183333D01*
X160512380Y-46135714D01*
X160702857Y-46135714D01*
X160798095Y-46183333D01*
X160845714Y-46278571D01*
X160845714Y-46373809D01*
X160369523Y-46469047D01*
X161274285Y-46802380D02*
X161274285Y-46135714D01*
X161274285Y-46326190D02*
X161321904Y-46230952D01*
X161369523Y-46183333D01*
X161464761Y-46135714D01*
X161560000Y-46135714D01*
X161655238Y-46897619D02*
X162417142Y-46897619D01*
X162655238Y-46278571D02*
X162988571Y-46278571D01*
X163131428Y-46802380D02*
X162655238Y-46802380D01*
X162655238Y-45802380D01*
X163131428Y-45802380D01*
X163702857Y-46802380D02*
X163607619Y-46754761D01*
X163560000Y-46659523D01*
X163560000Y-45802380D01*
X164464761Y-46754761D02*
X164369523Y-46802380D01*
X164179047Y-46802380D01*
X164083809Y-46754761D01*
X164036190Y-46659523D01*
X164036190Y-46278571D01*
X164083809Y-46183333D01*
X164179047Y-46135714D01*
X164369523Y-46135714D01*
X164464761Y-46183333D01*
X164512380Y-46278571D01*
X164512380Y-46373809D01*
X164036190Y-46469047D01*
X164940952Y-46802380D02*
X164940952Y-46135714D01*
X164940952Y-46230952D02*
X164988571Y-46183333D01*
X165083809Y-46135714D01*
X165226666Y-46135714D01*
X165321904Y-46183333D01*
X165369523Y-46278571D01*
X165369523Y-46802380D01*
X165369523Y-46278571D02*
X165417142Y-46183333D01*
X165512380Y-46135714D01*
X165655238Y-46135714D01*
X165750476Y-46183333D01*
X165798095Y-46278571D01*
X165798095Y-46802380D01*
X166655238Y-46754761D02*
X166560000Y-46802380D01*
X166369523Y-46802380D01*
X166274285Y-46754761D01*
X166226666Y-46659523D01*
X166226666Y-46278571D01*
X166274285Y-46183333D01*
X166369523Y-46135714D01*
X166560000Y-46135714D01*
X166655238Y-46183333D01*
X166702857Y-46278571D01*
X166702857Y-46373809D01*
X166226666Y-46469047D01*
X167131428Y-46135714D02*
X167131428Y-46802380D01*
X167131428Y-46230952D02*
X167179047Y-46183333D01*
X167274285Y-46135714D01*
X167417142Y-46135714D01*
X167512380Y-46183333D01*
X167560000Y-46278571D01*
X167560000Y-46802380D01*
X167893333Y-46135714D02*
X168274285Y-46135714D01*
X168036190Y-45802380D02*
X168036190Y-46659523D01*
X168083809Y-46754761D01*
X168179047Y-46802380D01*
X168274285Y-46802380D01*
X161369523Y-58302380D02*
X161369523Y-57302380D01*
X161750476Y-57302380D01*
X161845714Y-57350000D01*
X161893333Y-57397619D01*
X161940952Y-57492857D01*
X161940952Y-57635714D01*
X161893333Y-57730952D01*
X161845714Y-57778571D01*
X161750476Y-57826190D01*
X161369523Y-57826190D01*
X162369523Y-57778571D02*
X162702857Y-57778571D01*
X162845714Y-58302380D02*
X162369523Y-58302380D01*
X162369523Y-57302380D01*
X162845714Y-57302380D01*
X163798095Y-58302380D02*
X163226666Y-58302380D01*
X163512380Y-58302380D02*
X163512380Y-57302380D01*
X163417142Y-57445238D01*
X163321904Y-57540476D01*
X163226666Y-57588095D01*
X67240666Y-112036666D02*
X67716857Y-112036666D01*
X67145428Y-112322380D02*
X67478761Y-111322380D01*
X67812095Y-112322380D01*
X68145428Y-112322380D02*
X68145428Y-111655714D01*
X68145428Y-111846190D02*
X68193047Y-111750952D01*
X68240666Y-111703333D01*
X68335904Y-111655714D01*
X68431142Y-111655714D01*
X69193047Y-112322380D02*
X69193047Y-111322380D01*
X69193047Y-112274761D02*
X69097809Y-112322380D01*
X68907333Y-112322380D01*
X68812095Y-112274761D01*
X68764476Y-112227142D01*
X68716857Y-112131904D01*
X68716857Y-111846190D01*
X68764476Y-111750952D01*
X68812095Y-111703333D01*
X68907333Y-111655714D01*
X69097809Y-111655714D01*
X69193047Y-111703333D01*
X70097809Y-111655714D02*
X70097809Y-112322380D01*
X69669238Y-111655714D02*
X69669238Y-112179523D01*
X69716857Y-112274761D01*
X69812095Y-112322380D01*
X69954952Y-112322380D01*
X70050190Y-112274761D01*
X70097809Y-112227142D01*
X70574000Y-112322380D02*
X70574000Y-111655714D01*
X70574000Y-111322380D02*
X70526380Y-111370000D01*
X70574000Y-111417619D01*
X70621619Y-111370000D01*
X70574000Y-111322380D01*
X70574000Y-111417619D01*
X71050190Y-111655714D02*
X71050190Y-112322380D01*
X71050190Y-111750952D02*
X71097809Y-111703333D01*
X71193047Y-111655714D01*
X71335904Y-111655714D01*
X71431142Y-111703333D01*
X71478761Y-111798571D01*
X71478761Y-112322380D01*
X72097809Y-112322380D02*
X72002571Y-112274761D01*
X71954952Y-112227142D01*
X71907333Y-112131904D01*
X71907333Y-111846190D01*
X71954952Y-111750952D01*
X72002571Y-111703333D01*
X72097809Y-111655714D01*
X72240666Y-111655714D01*
X72335904Y-111703333D01*
X72383523Y-111750952D01*
X72431142Y-111846190D01*
X72431142Y-112131904D01*
X72383523Y-112227142D01*
X72335904Y-112274761D01*
X72240666Y-112322380D01*
X72097809Y-112322380D01*
X72621619Y-112417619D02*
X73383523Y-112417619D01*
X73621619Y-112322380D02*
X73621619Y-111322380D01*
X73954952Y-112036666D01*
X74288285Y-111322380D01*
X74288285Y-112322380D01*
X74764476Y-112322380D02*
X74764476Y-111655714D01*
X74764476Y-111322380D02*
X74716857Y-111370000D01*
X74764476Y-111417619D01*
X74812095Y-111370000D01*
X74764476Y-111322380D01*
X74764476Y-111417619D01*
X75669238Y-112274761D02*
X75574000Y-112322380D01*
X75383523Y-112322380D01*
X75288285Y-112274761D01*
X75240666Y-112227142D01*
X75193047Y-112131904D01*
X75193047Y-111846190D01*
X75240666Y-111750952D01*
X75288285Y-111703333D01*
X75383523Y-111655714D01*
X75574000Y-111655714D01*
X75669238Y-111703333D01*
X76097809Y-112322380D02*
X76097809Y-111655714D01*
X76097809Y-111846190D02*
X76145428Y-111750952D01*
X76193047Y-111703333D01*
X76288285Y-111655714D01*
X76383523Y-111655714D01*
X76859714Y-112322380D02*
X76764476Y-112274761D01*
X76716857Y-112227142D01*
X76669238Y-112131904D01*
X76669238Y-111846190D01*
X76716857Y-111750952D01*
X76764476Y-111703333D01*
X76859714Y-111655714D01*
X77002571Y-111655714D01*
X77097809Y-111703333D01*
X77145428Y-111750952D01*
X77193047Y-111846190D01*
X77193047Y-112131904D01*
X77145428Y-112227142D01*
X77097809Y-112274761D01*
X77002571Y-112322380D01*
X76859714Y-112322380D01*
X77383523Y-112417619D02*
X78145428Y-112417619D01*
X78335904Y-112274761D02*
X78478761Y-112322380D01*
X78716857Y-112322380D01*
X78812095Y-112274761D01*
X78859714Y-112227142D01*
X78907333Y-112131904D01*
X78907333Y-112036666D01*
X78859714Y-111941428D01*
X78812095Y-111893809D01*
X78716857Y-111846190D01*
X78526380Y-111798571D01*
X78431142Y-111750952D01*
X78383523Y-111703333D01*
X78335904Y-111608095D01*
X78335904Y-111512857D01*
X78383523Y-111417619D01*
X78431142Y-111370000D01*
X78526380Y-111322380D01*
X78764476Y-111322380D01*
X78907333Y-111370000D01*
X79478761Y-112322380D02*
X79383523Y-112274761D01*
X79335904Y-112227142D01*
X79288285Y-112131904D01*
X79288285Y-111846190D01*
X79335904Y-111750952D01*
X79383523Y-111703333D01*
X79478761Y-111655714D01*
X79621619Y-111655714D01*
X79716857Y-111703333D01*
X79764476Y-111750952D01*
X79812095Y-111846190D01*
X79812095Y-112131904D01*
X79764476Y-112227142D01*
X79716857Y-112274761D01*
X79621619Y-112322380D01*
X79478761Y-112322380D01*
X80669238Y-112274761D02*
X80574000Y-112322380D01*
X80383523Y-112322380D01*
X80288285Y-112274761D01*
X80240666Y-112227142D01*
X80193047Y-112131904D01*
X80193047Y-111846190D01*
X80240666Y-111750952D01*
X80288285Y-111703333D01*
X80383523Y-111655714D01*
X80574000Y-111655714D01*
X80669238Y-111703333D01*
X81097809Y-112322380D02*
X81097809Y-111322380D01*
X81193047Y-111941428D02*
X81478761Y-112322380D01*
X81478761Y-111655714D02*
X81097809Y-112036666D01*
X82288285Y-112274761D02*
X82193047Y-112322380D01*
X82002571Y-112322380D01*
X81907333Y-112274761D01*
X81859714Y-112179523D01*
X81859714Y-111798571D01*
X81907333Y-111703333D01*
X82002571Y-111655714D01*
X82193047Y-111655714D01*
X82288285Y-111703333D01*
X82335904Y-111798571D01*
X82335904Y-111893809D01*
X81859714Y-111989047D01*
X82621619Y-111655714D02*
X83002571Y-111655714D01*
X82764476Y-111322380D02*
X82764476Y-112179523D01*
X82812095Y-112274761D01*
X82907333Y-112322380D01*
X83002571Y-112322380D01*
X124888571Y-64261904D02*
X124888571Y-64595238D01*
X125412380Y-64595238D02*
X124412380Y-64595238D01*
X124412380Y-64119047D01*
X125412380Y-63309523D02*
X124888571Y-63309523D01*
X124793333Y-63357142D01*
X124745714Y-63452380D01*
X124745714Y-63642857D01*
X124793333Y-63738095D01*
X125364761Y-63309523D02*
X125412380Y-63404761D01*
X125412380Y-63642857D01*
X125364761Y-63738095D01*
X125269523Y-63785714D01*
X125174285Y-63785714D01*
X125079047Y-63738095D01*
X125031428Y-63642857D01*
X125031428Y-63404761D01*
X124983809Y-63309523D01*
X124745714Y-62833333D02*
X125412380Y-62833333D01*
X124840952Y-62833333D02*
X124793333Y-62785714D01*
X124745714Y-62690476D01*
X124745714Y-62547619D01*
X124793333Y-62452380D01*
X124888571Y-62404761D01*
X125412380Y-62404761D01*
X103568571Y-64261904D02*
X103568571Y-64595238D01*
X104092380Y-64595238D02*
X103092380Y-64595238D01*
X103092380Y-64119047D01*
X104092380Y-63309523D02*
X103568571Y-63309523D01*
X103473333Y-63357142D01*
X103425714Y-63452380D01*
X103425714Y-63642857D01*
X103473333Y-63738095D01*
X104044761Y-63309523D02*
X104092380Y-63404761D01*
X104092380Y-63642857D01*
X104044761Y-63738095D01*
X103949523Y-63785714D01*
X103854285Y-63785714D01*
X103759047Y-63738095D01*
X103711428Y-63642857D01*
X103711428Y-63404761D01*
X103663809Y-63309523D01*
X103425714Y-62833333D02*
X104092380Y-62833333D01*
X103520952Y-62833333D02*
X103473333Y-62785714D01*
X103425714Y-62690476D01*
X103425714Y-62547619D01*
X103473333Y-62452380D01*
X103568571Y-62404761D01*
X104092380Y-62404761D01*
X170378571Y-109842380D02*
X170045238Y-109366190D01*
X169807142Y-109842380D02*
X169807142Y-108842380D01*
X170188095Y-108842380D01*
X170283333Y-108890000D01*
X170330952Y-108937619D01*
X170378571Y-109032857D01*
X170378571Y-109175714D01*
X170330952Y-109270952D01*
X170283333Y-109318571D01*
X170188095Y-109366190D01*
X169807142Y-109366190D01*
X170569047Y-109937619D02*
X171330952Y-109937619D01*
X171569047Y-108842380D02*
X171569047Y-109651904D01*
X171616666Y-109747142D01*
X171664285Y-109794761D01*
X171759523Y-109842380D01*
X171950000Y-109842380D01*
X172045238Y-109794761D01*
X172092857Y-109747142D01*
X172140476Y-109651904D01*
X172140476Y-108842380D01*
X172569047Y-109794761D02*
X172711904Y-109842380D01*
X172950000Y-109842380D01*
X173045238Y-109794761D01*
X173092857Y-109747142D01*
X173140476Y-109651904D01*
X173140476Y-109556666D01*
X173092857Y-109461428D01*
X173045238Y-109413809D01*
X172950000Y-109366190D01*
X172759523Y-109318571D01*
X172664285Y-109270952D01*
X172616666Y-109223333D01*
X172569047Y-109128095D01*
X172569047Y-109032857D01*
X172616666Y-108937619D01*
X172664285Y-108890000D01*
X172759523Y-108842380D01*
X172997619Y-108842380D01*
X173140476Y-108890000D01*
X171283333Y-112212380D02*
X170950000Y-111736190D01*
X170711904Y-112212380D02*
X170711904Y-111212380D01*
X171092857Y-111212380D01*
X171188095Y-111260000D01*
X171235714Y-111307619D01*
X171283333Y-111402857D01*
X171283333Y-111545714D01*
X171235714Y-111640952D01*
X171188095Y-111688571D01*
X171092857Y-111736190D01*
X170711904Y-111736190D01*
X172140476Y-111212380D02*
X171950000Y-111212380D01*
X171854761Y-111260000D01*
X171807142Y-111307619D01*
X171711904Y-111450476D01*
X171664285Y-111640952D01*
X171664285Y-112021904D01*
X171711904Y-112117142D01*
X171759523Y-112164761D01*
X171854761Y-112212380D01*
X172045238Y-112212380D01*
X172140476Y-112164761D01*
X172188095Y-112117142D01*
X172235714Y-112021904D01*
X172235714Y-111783809D01*
X172188095Y-111688571D01*
X172140476Y-111640952D01*
X172045238Y-111593333D01*
X171854761Y-111593333D01*
X171759523Y-111640952D01*
X171711904Y-111688571D01*
X171664285Y-111783809D01*
X170005714Y-103937619D02*
X170053333Y-103890000D01*
X170148571Y-103842380D01*
X170386666Y-103842380D01*
X170481904Y-103890000D01*
X170529523Y-103937619D01*
X170577142Y-104032857D01*
X170577142Y-104128095D01*
X170529523Y-104270952D01*
X169958095Y-104842380D01*
X170577142Y-104842380D01*
X171005714Y-104842380D02*
X171005714Y-103842380D01*
X171577142Y-104842380D01*
X171577142Y-103842380D01*
X171958095Y-103842380D02*
X172577142Y-103842380D01*
X172243809Y-104223333D01*
X172386666Y-104223333D01*
X172481904Y-104270952D01*
X172529523Y-104318571D01*
X172577142Y-104413809D01*
X172577142Y-104651904D01*
X172529523Y-104747142D01*
X172481904Y-104794761D01*
X172386666Y-104842380D01*
X172100952Y-104842380D01*
X172005714Y-104794761D01*
X171958095Y-104747142D01*
X173053333Y-104842380D02*
X173243809Y-104842380D01*
X173339047Y-104794761D01*
X173386666Y-104747142D01*
X173481904Y-104604285D01*
X173529523Y-104413809D01*
X173529523Y-104032857D01*
X173481904Y-103937619D01*
X173434285Y-103890000D01*
X173339047Y-103842380D01*
X173148571Y-103842380D01*
X173053333Y-103890000D01*
X173005714Y-103937619D01*
X172958095Y-104032857D01*
X172958095Y-104270952D01*
X173005714Y-104366190D01*
X173053333Y-104413809D01*
X173148571Y-104461428D01*
X173339047Y-104461428D01*
X173434285Y-104413809D01*
X173481904Y-104366190D01*
X173529523Y-104270952D01*
X174148571Y-103842380D02*
X174243809Y-103842380D01*
X174339047Y-103890000D01*
X174386666Y-103937619D01*
X174434285Y-104032857D01*
X174481904Y-104223333D01*
X174481904Y-104461428D01*
X174434285Y-104651904D01*
X174386666Y-104747142D01*
X174339047Y-104794761D01*
X174243809Y-104842380D01*
X174148571Y-104842380D01*
X174053333Y-104794761D01*
X174005714Y-104747142D01*
X173958095Y-104651904D01*
X173910476Y-104461428D01*
X173910476Y-104223333D01*
X173958095Y-104032857D01*
X174005714Y-103937619D01*
X174053333Y-103890000D01*
X174148571Y-103842380D01*
X175339047Y-104175714D02*
X175339047Y-104842380D01*
X175100952Y-103794761D02*
X174862857Y-104509047D01*
X175481904Y-104509047D01*
X172624761Y-98587619D02*
X172529523Y-98540000D01*
X172434285Y-98444761D01*
X172291428Y-98301904D01*
X172196190Y-98254285D01*
X172100952Y-98254285D01*
X172148571Y-98492380D02*
X172053333Y-98444761D01*
X171958095Y-98349523D01*
X171910476Y-98159047D01*
X171910476Y-97825714D01*
X171958095Y-97635238D01*
X172053333Y-97540000D01*
X172148571Y-97492380D01*
X172339047Y-97492380D01*
X172434285Y-97540000D01*
X172529523Y-97635238D01*
X172577142Y-97825714D01*
X172577142Y-98159047D01*
X172529523Y-98349523D01*
X172434285Y-98444761D01*
X172339047Y-98492380D01*
X172148571Y-98492380D01*
X173434285Y-97825714D02*
X173434285Y-98492380D01*
X173196190Y-97444761D02*
X172958095Y-98159047D01*
X173577142Y-98159047D01*
X159845714Y-90737619D02*
X159893333Y-90690000D01*
X159988571Y-90642380D01*
X160226666Y-90642380D01*
X160321904Y-90690000D01*
X160369523Y-90737619D01*
X160417142Y-90832857D01*
X160417142Y-90928095D01*
X160369523Y-91070952D01*
X159798095Y-91642380D01*
X160417142Y-91642380D01*
X160845714Y-91642380D02*
X160845714Y-90642380D01*
X161417142Y-91642380D01*
X161417142Y-90642380D01*
X161798095Y-90642380D02*
X162417142Y-90642380D01*
X162083809Y-91023333D01*
X162226666Y-91023333D01*
X162321904Y-91070952D01*
X162369523Y-91118571D01*
X162417142Y-91213809D01*
X162417142Y-91451904D01*
X162369523Y-91547142D01*
X162321904Y-91594761D01*
X162226666Y-91642380D01*
X161940952Y-91642380D01*
X161845714Y-91594761D01*
X161798095Y-91547142D01*
X162893333Y-91642380D02*
X163083809Y-91642380D01*
X163179047Y-91594761D01*
X163226666Y-91547142D01*
X163321904Y-91404285D01*
X163369523Y-91213809D01*
X163369523Y-90832857D01*
X163321904Y-90737619D01*
X163274285Y-90690000D01*
X163179047Y-90642380D01*
X162988571Y-90642380D01*
X162893333Y-90690000D01*
X162845714Y-90737619D01*
X162798095Y-90832857D01*
X162798095Y-91070952D01*
X162845714Y-91166190D01*
X162893333Y-91213809D01*
X162988571Y-91261428D01*
X163179047Y-91261428D01*
X163274285Y-91213809D01*
X163321904Y-91166190D01*
X163369523Y-91070952D01*
X163988571Y-90642380D02*
X164083809Y-90642380D01*
X164179047Y-90690000D01*
X164226666Y-90737619D01*
X164274285Y-90832857D01*
X164321904Y-91023333D01*
X164321904Y-91261428D01*
X164274285Y-91451904D01*
X164226666Y-91547142D01*
X164179047Y-91594761D01*
X164083809Y-91642380D01*
X163988571Y-91642380D01*
X163893333Y-91594761D01*
X163845714Y-91547142D01*
X163798095Y-91451904D01*
X163750476Y-91261428D01*
X163750476Y-91023333D01*
X163798095Y-90832857D01*
X163845714Y-90737619D01*
X163893333Y-90690000D01*
X163988571Y-90642380D01*
X165179047Y-90975714D02*
X165179047Y-91642380D01*
X164940952Y-90594761D02*
X164702857Y-91309047D01*
X165321904Y-91309047D01*
X162464761Y-98087619D02*
X162369523Y-98040000D01*
X162274285Y-97944761D01*
X162131428Y-97801904D01*
X162036190Y-97754285D01*
X161940952Y-97754285D01*
X161988571Y-97992380D02*
X161893333Y-97944761D01*
X161798095Y-97849523D01*
X161750476Y-97659047D01*
X161750476Y-97325714D01*
X161798095Y-97135238D01*
X161893333Y-97040000D01*
X161988571Y-96992380D01*
X162179047Y-96992380D01*
X162274285Y-97040000D01*
X162369523Y-97135238D01*
X162417142Y-97325714D01*
X162417142Y-97659047D01*
X162369523Y-97849523D01*
X162274285Y-97944761D01*
X162179047Y-97992380D01*
X161988571Y-97992380D01*
X163369523Y-97992380D02*
X162798095Y-97992380D01*
X163083809Y-97992380D02*
X163083809Y-96992380D01*
X162988571Y-97135238D01*
X162893333Y-97230476D01*
X162798095Y-97278095D01*
X48636666Y-90749047D02*
X48636666Y-90272857D01*
X48922380Y-90844285D02*
X47922380Y-90510952D01*
X48922380Y-90177619D01*
X48922380Y-89844285D02*
X47922380Y-89844285D01*
X47922380Y-89606190D01*
X47970000Y-89463333D01*
X48065238Y-89368095D01*
X48160476Y-89320476D01*
X48350952Y-89272857D01*
X48493809Y-89272857D01*
X48684285Y-89320476D01*
X48779523Y-89368095D01*
X48874761Y-89463333D01*
X48922380Y-89606190D01*
X48922380Y-89844285D01*
X47922380Y-88368095D02*
X47922380Y-88844285D01*
X48398571Y-88891904D01*
X48350952Y-88844285D01*
X48303333Y-88749047D01*
X48303333Y-88510952D01*
X48350952Y-88415714D01*
X48398571Y-88368095D01*
X48493809Y-88320476D01*
X48731904Y-88320476D01*
X48827142Y-88368095D01*
X48874761Y-88415714D01*
X48922380Y-88510952D01*
X48922380Y-88749047D01*
X48874761Y-88844285D01*
X48827142Y-88891904D01*
X48922380Y-87844285D02*
X48922380Y-87653809D01*
X48874761Y-87558571D01*
X48827142Y-87510952D01*
X48684285Y-87415714D01*
X48493809Y-87368095D01*
X48112857Y-87368095D01*
X48017619Y-87415714D01*
X47970000Y-87463333D01*
X47922380Y-87558571D01*
X47922380Y-87749047D01*
X47970000Y-87844285D01*
X48017619Y-87891904D01*
X48112857Y-87939523D01*
X48350952Y-87939523D01*
X48446190Y-87891904D01*
X48493809Y-87844285D01*
X48541428Y-87749047D01*
X48541428Y-87558571D01*
X48493809Y-87463333D01*
X48446190Y-87415714D01*
X48350952Y-87368095D01*
X47922380Y-86463333D02*
X47922380Y-86939523D01*
X48398571Y-86987142D01*
X48350952Y-86939523D01*
X48303333Y-86844285D01*
X48303333Y-86606190D01*
X48350952Y-86510952D01*
X48398571Y-86463333D01*
X48493809Y-86415714D01*
X48731904Y-86415714D01*
X48827142Y-86463333D01*
X48874761Y-86510952D01*
X48922380Y-86606190D01*
X48922380Y-86844285D01*
X48874761Y-86939523D01*
X48827142Y-86987142D01*
X48636666Y-86034761D02*
X48636666Y-85558571D01*
X48922380Y-86130000D02*
X47922380Y-85796666D01*
X48922380Y-85463333D01*
X49017619Y-84463333D02*
X48970000Y-84558571D01*
X48874761Y-84653809D01*
X48731904Y-84796666D01*
X48684285Y-84891904D01*
X48684285Y-84987142D01*
X48922380Y-84939523D02*
X48874761Y-85034761D01*
X48779523Y-85130000D01*
X48589047Y-85177619D01*
X48255714Y-85177619D01*
X48065238Y-85130000D01*
X47970000Y-85034761D01*
X47922380Y-84939523D01*
X47922380Y-84749047D01*
X47970000Y-84653809D01*
X48065238Y-84558571D01*
X48255714Y-84510952D01*
X48589047Y-84510952D01*
X48779523Y-84558571D01*
X48874761Y-84653809D01*
X48922380Y-84749047D01*
X48922380Y-84939523D01*
X57872380Y-88391904D02*
X58681904Y-88391904D01*
X58777142Y-88344285D01*
X58824761Y-88296666D01*
X58872380Y-88201428D01*
X58872380Y-88010952D01*
X58824761Y-87915714D01*
X58777142Y-87868095D01*
X58681904Y-87820476D01*
X57872380Y-87820476D01*
X58872380Y-86820476D02*
X58872380Y-87391904D01*
X58872380Y-87106190D02*
X57872380Y-87106190D01*
X58015238Y-87201428D01*
X58110476Y-87296666D01*
X58158095Y-87391904D01*
X165382380Y-116165238D02*
X165382380Y-116736666D01*
X165382380Y-116450952D02*
X164382380Y-116450952D01*
X164525238Y-116546190D01*
X164620476Y-116641428D01*
X164668095Y-116736666D01*
X164382380Y-115546190D02*
X164382380Y-115450952D01*
X164430000Y-115355714D01*
X164477619Y-115308095D01*
X164572857Y-115260476D01*
X164763333Y-115212857D01*
X165001428Y-115212857D01*
X165191904Y-115260476D01*
X165287142Y-115308095D01*
X165334761Y-115355714D01*
X165382380Y-115450952D01*
X165382380Y-115546190D01*
X165334761Y-115641428D01*
X165287142Y-115689047D01*
X165191904Y-115736666D01*
X165001428Y-115784285D01*
X164763333Y-115784285D01*
X164572857Y-115736666D01*
X164477619Y-115689047D01*
X164430000Y-115641428D01*
X164382380Y-115546190D01*
X165382380Y-114784285D02*
X164382380Y-114784285D01*
X165001428Y-114689047D02*
X165382380Y-114403333D01*
X164715714Y-114403333D02*
X165096666Y-114784285D01*
X163012380Y-115736666D02*
X162536190Y-116070000D01*
X163012380Y-116308095D02*
X162012380Y-116308095D01*
X162012380Y-115927142D01*
X162060000Y-115831904D01*
X162107619Y-115784285D01*
X162202857Y-115736666D01*
X162345714Y-115736666D01*
X162440952Y-115784285D01*
X162488571Y-115831904D01*
X162536190Y-115927142D01*
X162536190Y-116308095D01*
X162012380Y-115403333D02*
X162012380Y-114736666D01*
X163012380Y-115165238D01*
X173870952Y-96802380D02*
X173299523Y-96802380D01*
X173585238Y-96802380D02*
X173585238Y-95802380D01*
X173490000Y-95945238D01*
X173394761Y-96040476D01*
X173299523Y-96088095D01*
X174299523Y-96802380D02*
X174299523Y-95802380D01*
X174394761Y-96421428D02*
X174680476Y-96802380D01*
X174680476Y-96135714D02*
X174299523Y-96516666D01*
X173823333Y-94432380D02*
X173490000Y-93956190D01*
X173251904Y-94432380D02*
X173251904Y-93432380D01*
X173632857Y-93432380D01*
X173728095Y-93480000D01*
X173775714Y-93527619D01*
X173823333Y-93622857D01*
X173823333Y-93765714D01*
X173775714Y-93860952D01*
X173728095Y-93908571D01*
X173632857Y-93956190D01*
X173251904Y-93956190D01*
X174728095Y-93432380D02*
X174251904Y-93432380D01*
X174204285Y-93908571D01*
X174251904Y-93860952D01*
X174347142Y-93813333D01*
X174585238Y-93813333D01*
X174680476Y-93860952D01*
X174728095Y-93908571D01*
X174775714Y-94003809D01*
X174775714Y-94241904D01*
X174728095Y-94337142D01*
X174680476Y-94384761D01*
X174585238Y-94432380D01*
X174347142Y-94432380D01*
X174251904Y-94384761D01*
X174204285Y-94337142D01*
X151010952Y-92062380D02*
X150439523Y-92062380D01*
X150725238Y-92062380D02*
X150725238Y-91062380D01*
X150630000Y-91205238D01*
X150534761Y-91300476D01*
X150439523Y-91348095D01*
X151439523Y-92062380D02*
X151439523Y-91062380D01*
X151534761Y-91681428D02*
X151820476Y-92062380D01*
X151820476Y-91395714D02*
X151439523Y-91776666D01*
X150963333Y-94432380D02*
X150630000Y-93956190D01*
X150391904Y-94432380D02*
X150391904Y-93432380D01*
X150772857Y-93432380D01*
X150868095Y-93480000D01*
X150915714Y-93527619D01*
X150963333Y-93622857D01*
X150963333Y-93765714D01*
X150915714Y-93860952D01*
X150868095Y-93908571D01*
X150772857Y-93956190D01*
X150391904Y-93956190D01*
X151820476Y-93765714D02*
X151820476Y-94432380D01*
X151582380Y-93384761D02*
X151344285Y-94099047D01*
X151963333Y-94099047D01*
X158154761Y-104422380D02*
X157583333Y-104422380D01*
X157869047Y-104422380D02*
X157869047Y-103422380D01*
X157773809Y-103565238D01*
X157678571Y-103660476D01*
X157583333Y-103708095D01*
X158773809Y-103422380D02*
X158869047Y-103422380D01*
X158964285Y-103470000D01*
X159011904Y-103517619D01*
X159059523Y-103612857D01*
X159107142Y-103803333D01*
X159107142Y-104041428D01*
X159059523Y-104231904D01*
X159011904Y-104327142D01*
X158964285Y-104374761D01*
X158869047Y-104422380D01*
X158773809Y-104422380D01*
X158678571Y-104374761D01*
X158630952Y-104327142D01*
X158583333Y-104231904D01*
X158535714Y-104041428D01*
X158535714Y-103803333D01*
X158583333Y-103612857D01*
X158630952Y-103517619D01*
X158678571Y-103470000D01*
X158773809Y-103422380D01*
X159535714Y-104422380D02*
X159535714Y-103422380D01*
X159630952Y-104041428D02*
X159916666Y-104422380D01*
X159916666Y-103755714D02*
X159535714Y-104136666D01*
X158583333Y-102052380D02*
X158250000Y-101576190D01*
X158011904Y-102052380D02*
X158011904Y-101052380D01*
X158392857Y-101052380D01*
X158488095Y-101100000D01*
X158535714Y-101147619D01*
X158583333Y-101242857D01*
X158583333Y-101385714D01*
X158535714Y-101480952D01*
X158488095Y-101528571D01*
X158392857Y-101576190D01*
X158011904Y-101576190D01*
X158916666Y-101052380D02*
X159535714Y-101052380D01*
X159202380Y-101433333D01*
X159345238Y-101433333D01*
X159440476Y-101480952D01*
X159488095Y-101528571D01*
X159535714Y-101623809D01*
X159535714Y-101861904D01*
X159488095Y-101957142D01*
X159440476Y-102004761D01*
X159345238Y-102052380D01*
X159059523Y-102052380D01*
X158964285Y-102004761D01*
X158916666Y-101957142D01*
X155222380Y-116165238D02*
X155222380Y-116736666D01*
X155222380Y-116450952D02*
X154222380Y-116450952D01*
X154365238Y-116546190D01*
X154460476Y-116641428D01*
X154508095Y-116736666D01*
X154222380Y-115546190D02*
X154222380Y-115450952D01*
X154270000Y-115355714D01*
X154317619Y-115308095D01*
X154412857Y-115260476D01*
X154603333Y-115212857D01*
X154841428Y-115212857D01*
X155031904Y-115260476D01*
X155127142Y-115308095D01*
X155174761Y-115355714D01*
X155222380Y-115450952D01*
X155222380Y-115546190D01*
X155174761Y-115641428D01*
X155127142Y-115689047D01*
X155031904Y-115736666D01*
X154841428Y-115784285D01*
X154603333Y-115784285D01*
X154412857Y-115736666D01*
X154317619Y-115689047D01*
X154270000Y-115641428D01*
X154222380Y-115546190D01*
X155222380Y-114784285D02*
X154222380Y-114784285D01*
X154841428Y-114689047D02*
X155222380Y-114403333D01*
X154555714Y-114403333D02*
X154936666Y-114784285D01*
X152852380Y-115736666D02*
X152376190Y-116070000D01*
X152852380Y-116308095D02*
X151852380Y-116308095D01*
X151852380Y-115927142D01*
X151900000Y-115831904D01*
X151947619Y-115784285D01*
X152042857Y-115736666D01*
X152185714Y-115736666D01*
X152280952Y-115784285D01*
X152328571Y-115831904D01*
X152376190Y-115927142D01*
X152376190Y-116308095D01*
X151947619Y-115355714D02*
X151900000Y-115308095D01*
X151852380Y-115212857D01*
X151852380Y-114974761D01*
X151900000Y-114879523D01*
X151947619Y-114831904D01*
X152042857Y-114784285D01*
X152138095Y-114784285D01*
X152280952Y-114831904D01*
X152852380Y-115403333D01*
X152852380Y-114784285D01*
X53622380Y-62825238D02*
X53622380Y-63396666D01*
X53622380Y-63110952D02*
X52622380Y-63110952D01*
X52765238Y-63206190D01*
X52860476Y-63301428D01*
X52908095Y-63396666D01*
X52622380Y-62206190D02*
X52622380Y-62110952D01*
X52670000Y-62015714D01*
X52717619Y-61968095D01*
X52812857Y-61920476D01*
X53003333Y-61872857D01*
X53241428Y-61872857D01*
X53431904Y-61920476D01*
X53527142Y-61968095D01*
X53574761Y-62015714D01*
X53622380Y-62110952D01*
X53622380Y-62206190D01*
X53574761Y-62301428D01*
X53527142Y-62349047D01*
X53431904Y-62396666D01*
X53241428Y-62444285D01*
X53003333Y-62444285D01*
X52812857Y-62396666D01*
X52717619Y-62349047D01*
X52670000Y-62301428D01*
X52622380Y-62206190D01*
X53622380Y-61444285D02*
X52622380Y-61444285D01*
X53241428Y-61349047D02*
X53622380Y-61063333D01*
X52955714Y-61063333D02*
X53336666Y-61444285D01*
X51252380Y-62396666D02*
X50776190Y-62730000D01*
X51252380Y-62968095D02*
X50252380Y-62968095D01*
X50252380Y-62587142D01*
X50300000Y-62491904D01*
X50347619Y-62444285D01*
X50442857Y-62396666D01*
X50585714Y-62396666D01*
X50680952Y-62444285D01*
X50728571Y-62491904D01*
X50776190Y-62587142D01*
X50776190Y-62968095D01*
X51252380Y-61444285D02*
X51252380Y-62015714D01*
X51252380Y-61730000D02*
X50252380Y-61730000D01*
X50395238Y-61825238D01*
X50490476Y-61920476D01*
X50538095Y-62015714D01*
X167822857Y-86772380D02*
X167822857Y-85772380D01*
X168870476Y-86772380D02*
X168537142Y-86296190D01*
X168299047Y-86772380D02*
X168299047Y-85772380D01*
X168680000Y-85772380D01*
X168775238Y-85820000D01*
X168822857Y-85867619D01*
X168870476Y-85962857D01*
X168870476Y-86105714D01*
X168822857Y-86200952D01*
X168775238Y-86248571D01*
X168680000Y-86296190D01*
X168299047Y-86296190D01*
X169632380Y-86248571D02*
X169299047Y-86248571D01*
X169299047Y-86772380D02*
X169299047Y-85772380D01*
X169775238Y-85772380D01*
X170584761Y-85772380D02*
X170394285Y-85772380D01*
X170299047Y-85820000D01*
X170251428Y-85867619D01*
X170156190Y-86010476D01*
X170108571Y-86200952D01*
X170108571Y-86581904D01*
X170156190Y-86677142D01*
X170203809Y-86724761D01*
X170299047Y-86772380D01*
X170489523Y-86772380D01*
X170584761Y-86724761D01*
X170632380Y-86677142D01*
X170680000Y-86581904D01*
X170680000Y-86343809D01*
X170632380Y-86248571D01*
X170584761Y-86200952D01*
X170489523Y-86153333D01*
X170299047Y-86153333D01*
X170203809Y-86200952D01*
X170156190Y-86248571D01*
X170108571Y-86343809D01*
X171013333Y-85772380D02*
X171632380Y-85772380D01*
X171299047Y-86153333D01*
X171441904Y-86153333D01*
X171537142Y-86200952D01*
X171584761Y-86248571D01*
X171632380Y-86343809D01*
X171632380Y-86581904D01*
X171584761Y-86677142D01*
X171537142Y-86724761D01*
X171441904Y-86772380D01*
X171156190Y-86772380D01*
X171060952Y-86724761D01*
X171013333Y-86677142D01*
X172251428Y-85772380D02*
X172346666Y-85772380D01*
X172441904Y-85820000D01*
X172489523Y-85867619D01*
X172537142Y-85962857D01*
X172584761Y-86153333D01*
X172584761Y-86391428D01*
X172537142Y-86581904D01*
X172489523Y-86677142D01*
X172441904Y-86724761D01*
X172346666Y-86772380D01*
X172251428Y-86772380D01*
X172156190Y-86724761D01*
X172108571Y-86677142D01*
X172060952Y-86581904D01*
X172013333Y-86391428D01*
X172013333Y-86153333D01*
X172060952Y-85962857D01*
X172108571Y-85867619D01*
X172156190Y-85820000D01*
X172251428Y-85772380D01*
X170084761Y-80097619D02*
X169989523Y-80050000D01*
X169894285Y-79954761D01*
X169751428Y-79811904D01*
X169656190Y-79764285D01*
X169560952Y-79764285D01*
X169608571Y-80002380D02*
X169513333Y-79954761D01*
X169418095Y-79859523D01*
X169370476Y-79669047D01*
X169370476Y-79335714D01*
X169418095Y-79145238D01*
X169513333Y-79050000D01*
X169608571Y-79002380D01*
X169799047Y-79002380D01*
X169894285Y-79050000D01*
X169989523Y-79145238D01*
X170037142Y-79335714D01*
X170037142Y-79669047D01*
X169989523Y-79859523D01*
X169894285Y-79954761D01*
X169799047Y-80002380D01*
X169608571Y-80002380D01*
X170894285Y-79002380D02*
X170703809Y-79002380D01*
X170608571Y-79050000D01*
X170560952Y-79097619D01*
X170465714Y-79240476D01*
X170418095Y-79430952D01*
X170418095Y-79811904D01*
X170465714Y-79907142D01*
X170513333Y-79954761D01*
X170608571Y-80002380D01*
X170799047Y-80002380D01*
X170894285Y-79954761D01*
X170941904Y-79907142D01*
X170989523Y-79811904D01*
X170989523Y-79573809D01*
X170941904Y-79478571D01*
X170894285Y-79430952D01*
X170799047Y-79383333D01*
X170608571Y-79383333D01*
X170513333Y-79430952D01*
X170465714Y-79478571D01*
X170418095Y-79573809D01*
X152106666Y-86772380D02*
X152106666Y-85772380D01*
X153154285Y-86772380D02*
X152820952Y-86296190D01*
X152582857Y-86772380D02*
X152582857Y-85772380D01*
X152963809Y-85772380D01*
X153059047Y-85820000D01*
X153106666Y-85867619D01*
X153154285Y-85962857D01*
X153154285Y-86105714D01*
X153106666Y-86200952D01*
X153059047Y-86248571D01*
X152963809Y-86296190D01*
X152582857Y-86296190D01*
X153916190Y-86248571D02*
X153582857Y-86248571D01*
X153582857Y-86772380D02*
X153582857Y-85772380D01*
X154059047Y-85772380D01*
X154487619Y-86772380D02*
X154678095Y-86772380D01*
X154773333Y-86724761D01*
X154820952Y-86677142D01*
X154916190Y-86534285D01*
X154963809Y-86343809D01*
X154963809Y-85962857D01*
X154916190Y-85867619D01*
X154868571Y-85820000D01*
X154773333Y-85772380D01*
X154582857Y-85772380D01*
X154487619Y-85820000D01*
X154440000Y-85867619D01*
X154392380Y-85962857D01*
X154392380Y-86200952D01*
X154440000Y-86296190D01*
X154487619Y-86343809D01*
X154582857Y-86391428D01*
X154773333Y-86391428D01*
X154868571Y-86343809D01*
X154916190Y-86296190D01*
X154963809Y-86200952D01*
X155820952Y-85772380D02*
X155630476Y-85772380D01*
X155535238Y-85820000D01*
X155487619Y-85867619D01*
X155392380Y-86010476D01*
X155344761Y-86200952D01*
X155344761Y-86581904D01*
X155392380Y-86677142D01*
X155440000Y-86724761D01*
X155535238Y-86772380D01*
X155725714Y-86772380D01*
X155820952Y-86724761D01*
X155868571Y-86677142D01*
X155916190Y-86581904D01*
X155916190Y-86343809D01*
X155868571Y-86248571D01*
X155820952Y-86200952D01*
X155725714Y-86153333D01*
X155535238Y-86153333D01*
X155440000Y-86200952D01*
X155392380Y-86248571D01*
X155344761Y-86343809D01*
X156249523Y-85772380D02*
X156868571Y-85772380D01*
X156535238Y-86153333D01*
X156678095Y-86153333D01*
X156773333Y-86200952D01*
X156820952Y-86248571D01*
X156868571Y-86343809D01*
X156868571Y-86581904D01*
X156820952Y-86677142D01*
X156773333Y-86724761D01*
X156678095Y-86772380D01*
X156392380Y-86772380D01*
X156297142Y-86724761D01*
X156249523Y-86677142D01*
X157487619Y-85772380D02*
X157582857Y-85772380D01*
X157678095Y-85820000D01*
X157725714Y-85867619D01*
X157773333Y-85962857D01*
X157820952Y-86153333D01*
X157820952Y-86391428D01*
X157773333Y-86581904D01*
X157725714Y-86677142D01*
X157678095Y-86724761D01*
X157582857Y-86772380D01*
X157487619Y-86772380D01*
X157392380Y-86724761D01*
X157344761Y-86677142D01*
X157297142Y-86581904D01*
X157249523Y-86391428D01*
X157249523Y-86153333D01*
X157297142Y-85962857D01*
X157344761Y-85867619D01*
X157392380Y-85820000D01*
X157487619Y-85772380D01*
X154844761Y-80097619D02*
X154749523Y-80050000D01*
X154654285Y-79954761D01*
X154511428Y-79811904D01*
X154416190Y-79764285D01*
X154320952Y-79764285D01*
X154368571Y-80002380D02*
X154273333Y-79954761D01*
X154178095Y-79859523D01*
X154130476Y-79669047D01*
X154130476Y-79335714D01*
X154178095Y-79145238D01*
X154273333Y-79050000D01*
X154368571Y-79002380D01*
X154559047Y-79002380D01*
X154654285Y-79050000D01*
X154749523Y-79145238D01*
X154797142Y-79335714D01*
X154797142Y-79669047D01*
X154749523Y-79859523D01*
X154654285Y-79954761D01*
X154559047Y-80002380D01*
X154368571Y-80002380D01*
X155701904Y-79002380D02*
X155225714Y-79002380D01*
X155178095Y-79478571D01*
X155225714Y-79430952D01*
X155320952Y-79383333D01*
X155559047Y-79383333D01*
X155654285Y-79430952D01*
X155701904Y-79478571D01*
X155749523Y-79573809D01*
X155749523Y-79811904D01*
X155701904Y-79907142D01*
X155654285Y-79954761D01*
X155559047Y-80002380D01*
X155320952Y-80002380D01*
X155225714Y-79954761D01*
X155178095Y-79907142D01*
X167822857Y-74072380D02*
X167822857Y-73072380D01*
X168870476Y-74072380D02*
X168537142Y-73596190D01*
X168299047Y-74072380D02*
X168299047Y-73072380D01*
X168680000Y-73072380D01*
X168775238Y-73120000D01*
X168822857Y-73167619D01*
X168870476Y-73262857D01*
X168870476Y-73405714D01*
X168822857Y-73500952D01*
X168775238Y-73548571D01*
X168680000Y-73596190D01*
X168299047Y-73596190D01*
X169632380Y-73548571D02*
X169299047Y-73548571D01*
X169299047Y-74072380D02*
X169299047Y-73072380D01*
X169775238Y-73072380D01*
X170584761Y-73072380D02*
X170394285Y-73072380D01*
X170299047Y-73120000D01*
X170251428Y-73167619D01*
X170156190Y-73310476D01*
X170108571Y-73500952D01*
X170108571Y-73881904D01*
X170156190Y-73977142D01*
X170203809Y-74024761D01*
X170299047Y-74072380D01*
X170489523Y-74072380D01*
X170584761Y-74024761D01*
X170632380Y-73977142D01*
X170680000Y-73881904D01*
X170680000Y-73643809D01*
X170632380Y-73548571D01*
X170584761Y-73500952D01*
X170489523Y-73453333D01*
X170299047Y-73453333D01*
X170203809Y-73500952D01*
X170156190Y-73548571D01*
X170108571Y-73643809D01*
X171013333Y-73072380D02*
X171632380Y-73072380D01*
X171299047Y-73453333D01*
X171441904Y-73453333D01*
X171537142Y-73500952D01*
X171584761Y-73548571D01*
X171632380Y-73643809D01*
X171632380Y-73881904D01*
X171584761Y-73977142D01*
X171537142Y-74024761D01*
X171441904Y-74072380D01*
X171156190Y-74072380D01*
X171060952Y-74024761D01*
X171013333Y-73977142D01*
X172251428Y-73072380D02*
X172346666Y-73072380D01*
X172441904Y-73120000D01*
X172489523Y-73167619D01*
X172537142Y-73262857D01*
X172584761Y-73453333D01*
X172584761Y-73691428D01*
X172537142Y-73881904D01*
X172489523Y-73977142D01*
X172441904Y-74024761D01*
X172346666Y-74072380D01*
X172251428Y-74072380D01*
X172156190Y-74024761D01*
X172108571Y-73977142D01*
X172060952Y-73881904D01*
X172013333Y-73691428D01*
X172013333Y-73453333D01*
X172060952Y-73262857D01*
X172108571Y-73167619D01*
X172156190Y-73120000D01*
X172251428Y-73072380D01*
X170084761Y-67397619D02*
X169989523Y-67350000D01*
X169894285Y-67254761D01*
X169751428Y-67111904D01*
X169656190Y-67064285D01*
X169560952Y-67064285D01*
X169608571Y-67302380D02*
X169513333Y-67254761D01*
X169418095Y-67159523D01*
X169370476Y-66969047D01*
X169370476Y-66635714D01*
X169418095Y-66445238D01*
X169513333Y-66350000D01*
X169608571Y-66302380D01*
X169799047Y-66302380D01*
X169894285Y-66350000D01*
X169989523Y-66445238D01*
X170037142Y-66635714D01*
X170037142Y-66969047D01*
X169989523Y-67159523D01*
X169894285Y-67254761D01*
X169799047Y-67302380D01*
X169608571Y-67302380D01*
X170370476Y-66302380D02*
X170989523Y-66302380D01*
X170656190Y-66683333D01*
X170799047Y-66683333D01*
X170894285Y-66730952D01*
X170941904Y-66778571D01*
X170989523Y-66873809D01*
X170989523Y-67111904D01*
X170941904Y-67207142D01*
X170894285Y-67254761D01*
X170799047Y-67302380D01*
X170513333Y-67302380D01*
X170418095Y-67254761D01*
X170370476Y-67207142D01*
X152106666Y-74072380D02*
X152106666Y-73072380D01*
X153154285Y-74072380D02*
X152820952Y-73596190D01*
X152582857Y-74072380D02*
X152582857Y-73072380D01*
X152963809Y-73072380D01*
X153059047Y-73120000D01*
X153106666Y-73167619D01*
X153154285Y-73262857D01*
X153154285Y-73405714D01*
X153106666Y-73500952D01*
X153059047Y-73548571D01*
X152963809Y-73596190D01*
X152582857Y-73596190D01*
X153916190Y-73548571D02*
X153582857Y-73548571D01*
X153582857Y-74072380D02*
X153582857Y-73072380D01*
X154059047Y-73072380D01*
X154487619Y-74072380D02*
X154678095Y-74072380D01*
X154773333Y-74024761D01*
X154820952Y-73977142D01*
X154916190Y-73834285D01*
X154963809Y-73643809D01*
X154963809Y-73262857D01*
X154916190Y-73167619D01*
X154868571Y-73120000D01*
X154773333Y-73072380D01*
X154582857Y-73072380D01*
X154487619Y-73120000D01*
X154440000Y-73167619D01*
X154392380Y-73262857D01*
X154392380Y-73500952D01*
X154440000Y-73596190D01*
X154487619Y-73643809D01*
X154582857Y-73691428D01*
X154773333Y-73691428D01*
X154868571Y-73643809D01*
X154916190Y-73596190D01*
X154963809Y-73500952D01*
X155820952Y-73072380D02*
X155630476Y-73072380D01*
X155535238Y-73120000D01*
X155487619Y-73167619D01*
X155392380Y-73310476D01*
X155344761Y-73500952D01*
X155344761Y-73881904D01*
X155392380Y-73977142D01*
X155440000Y-74024761D01*
X155535238Y-74072380D01*
X155725714Y-74072380D01*
X155820952Y-74024761D01*
X155868571Y-73977142D01*
X155916190Y-73881904D01*
X155916190Y-73643809D01*
X155868571Y-73548571D01*
X155820952Y-73500952D01*
X155725714Y-73453333D01*
X155535238Y-73453333D01*
X155440000Y-73500952D01*
X155392380Y-73548571D01*
X155344761Y-73643809D01*
X156249523Y-73072380D02*
X156868571Y-73072380D01*
X156535238Y-73453333D01*
X156678095Y-73453333D01*
X156773333Y-73500952D01*
X156820952Y-73548571D01*
X156868571Y-73643809D01*
X156868571Y-73881904D01*
X156820952Y-73977142D01*
X156773333Y-74024761D01*
X156678095Y-74072380D01*
X156392380Y-74072380D01*
X156297142Y-74024761D01*
X156249523Y-73977142D01*
X157487619Y-73072380D02*
X157582857Y-73072380D01*
X157678095Y-73120000D01*
X157725714Y-73167619D01*
X157773333Y-73262857D01*
X157820952Y-73453333D01*
X157820952Y-73691428D01*
X157773333Y-73881904D01*
X157725714Y-73977142D01*
X157678095Y-74024761D01*
X157582857Y-74072380D01*
X157487619Y-74072380D01*
X157392380Y-74024761D01*
X157344761Y-73977142D01*
X157297142Y-73881904D01*
X157249523Y-73691428D01*
X157249523Y-73453333D01*
X157297142Y-73262857D01*
X157344761Y-73167619D01*
X157392380Y-73120000D01*
X157487619Y-73072380D01*
X154844761Y-67397619D02*
X154749523Y-67350000D01*
X154654285Y-67254761D01*
X154511428Y-67111904D01*
X154416190Y-67064285D01*
X154320952Y-67064285D01*
X154368571Y-67302380D02*
X154273333Y-67254761D01*
X154178095Y-67159523D01*
X154130476Y-66969047D01*
X154130476Y-66635714D01*
X154178095Y-66445238D01*
X154273333Y-66350000D01*
X154368571Y-66302380D01*
X154559047Y-66302380D01*
X154654285Y-66350000D01*
X154749523Y-66445238D01*
X154797142Y-66635714D01*
X154797142Y-66969047D01*
X154749523Y-67159523D01*
X154654285Y-67254761D01*
X154559047Y-67302380D01*
X154368571Y-67302380D01*
X155178095Y-66397619D02*
X155225714Y-66350000D01*
X155320952Y-66302380D01*
X155559047Y-66302380D01*
X155654285Y-66350000D01*
X155701904Y-66397619D01*
X155749523Y-66492857D01*
X155749523Y-66588095D01*
X155701904Y-66730952D01*
X155130476Y-67302380D01*
X155749523Y-67302380D01*
X71468571Y-50878095D02*
X71516190Y-50735238D01*
X71563809Y-50687619D01*
X71659047Y-50640000D01*
X71801904Y-50640000D01*
X71897142Y-50687619D01*
X71944761Y-50735238D01*
X71992380Y-50830476D01*
X71992380Y-51211428D01*
X70992380Y-51211428D01*
X70992380Y-50878095D01*
X71040000Y-50782857D01*
X71087619Y-50735238D01*
X71182857Y-50687619D01*
X71278095Y-50687619D01*
X71373333Y-50735238D01*
X71420952Y-50782857D01*
X71468571Y-50878095D01*
X71468571Y-51211428D01*
X71992380Y-49782857D02*
X71468571Y-49782857D01*
X71373333Y-49830476D01*
X71325714Y-49925714D01*
X71325714Y-50116190D01*
X71373333Y-50211428D01*
X71944761Y-49782857D02*
X71992380Y-49878095D01*
X71992380Y-50116190D01*
X71944761Y-50211428D01*
X71849523Y-50259047D01*
X71754285Y-50259047D01*
X71659047Y-50211428D01*
X71611428Y-50116190D01*
X71611428Y-49878095D01*
X71563809Y-49782857D01*
X71992380Y-49306666D02*
X71325714Y-49306666D01*
X71516190Y-49306666D02*
X71420952Y-49259047D01*
X71373333Y-49211428D01*
X71325714Y-49116190D01*
X71325714Y-49020952D01*
X71992380Y-48687619D02*
X71325714Y-48687619D01*
X71516190Y-48687619D02*
X71420952Y-48640000D01*
X71373333Y-48592380D01*
X71325714Y-48497142D01*
X71325714Y-48401904D01*
X71944761Y-47687619D02*
X71992380Y-47782857D01*
X71992380Y-47973333D01*
X71944761Y-48068571D01*
X71849523Y-48116190D01*
X71468571Y-48116190D01*
X71373333Y-48068571D01*
X71325714Y-47973333D01*
X71325714Y-47782857D01*
X71373333Y-47687619D01*
X71468571Y-47640000D01*
X71563809Y-47640000D01*
X71659047Y-48116190D01*
X71992380Y-47068571D02*
X71944761Y-47163809D01*
X71849523Y-47211428D01*
X70992380Y-47211428D01*
X72087619Y-46925714D02*
X72087619Y-46163809D01*
X70992380Y-45640000D02*
X71706666Y-45640000D01*
X71849523Y-45687619D01*
X71944761Y-45782857D01*
X71992380Y-45925714D01*
X71992380Y-46020952D01*
X71992380Y-44735238D02*
X71468571Y-44735238D01*
X71373333Y-44782857D01*
X71325714Y-44878095D01*
X71325714Y-45068571D01*
X71373333Y-45163809D01*
X71944761Y-44735238D02*
X71992380Y-44830476D01*
X71992380Y-45068571D01*
X71944761Y-45163809D01*
X71849523Y-45211428D01*
X71754285Y-45211428D01*
X71659047Y-45163809D01*
X71611428Y-45068571D01*
X71611428Y-44830476D01*
X71563809Y-44735238D01*
X71944761Y-43830476D02*
X71992380Y-43925714D01*
X71992380Y-44116190D01*
X71944761Y-44211428D01*
X71897142Y-44259047D01*
X71801904Y-44306666D01*
X71516190Y-44306666D01*
X71420952Y-44259047D01*
X71373333Y-44211428D01*
X71325714Y-44116190D01*
X71325714Y-43925714D01*
X71373333Y-43830476D01*
X71992380Y-43401904D02*
X70992380Y-43401904D01*
X71611428Y-43306666D02*
X71992380Y-43020952D01*
X71325714Y-43020952D02*
X71706666Y-43401904D01*
X68442380Y-50673333D02*
X69156666Y-50673333D01*
X69299523Y-50720952D01*
X69394761Y-50816190D01*
X69442380Y-50959047D01*
X69442380Y-51054285D01*
X69442380Y-49673333D02*
X69442380Y-50244761D01*
X69442380Y-49959047D02*
X68442380Y-49959047D01*
X68585238Y-50054285D01*
X68680476Y-50149523D01*
X68728095Y-50244761D01*
X166972380Y-126372857D02*
X166972380Y-126849047D01*
X165972380Y-126849047D01*
X166448571Y-126039523D02*
X166448571Y-125706190D01*
X166972380Y-125563333D02*
X166972380Y-126039523D01*
X165972380Y-126039523D01*
X165972380Y-125563333D01*
X166972380Y-125134761D02*
X165972380Y-125134761D01*
X165972380Y-124896666D01*
X166020000Y-124753809D01*
X166115238Y-124658571D01*
X166210476Y-124610952D01*
X166400952Y-124563333D01*
X166543809Y-124563333D01*
X166734285Y-124610952D01*
X166829523Y-124658571D01*
X166924761Y-124753809D01*
X166972380Y-124896666D01*
X166972380Y-125134761D01*
D12*
X162921904Y-126340476D02*
X162121904Y-126340476D01*
X162121904Y-126150000D01*
X162160000Y-126035714D01*
X162236190Y-125959523D01*
X162312380Y-125921428D01*
X162464761Y-125883333D01*
X162579047Y-125883333D01*
X162731428Y-125921428D01*
X162807619Y-125959523D01*
X162883809Y-126035714D01*
X162921904Y-126150000D01*
X162921904Y-126340476D01*
X162121904Y-125616666D02*
X162121904Y-125121428D01*
X162426666Y-125388095D01*
X162426666Y-125273809D01*
X162464761Y-125197619D01*
X162502857Y-125159523D01*
X162579047Y-125121428D01*
X162769523Y-125121428D01*
X162845714Y-125159523D01*
X162883809Y-125197619D01*
X162921904Y-125273809D01*
X162921904Y-125502380D01*
X162883809Y-125578571D01*
X162845714Y-125616666D01*
D11*
X156812380Y-126372857D02*
X156812380Y-126849047D01*
X155812380Y-126849047D01*
X156288571Y-126039523D02*
X156288571Y-125706190D01*
X156812380Y-125563333D02*
X156812380Y-126039523D01*
X155812380Y-126039523D01*
X155812380Y-125563333D01*
X156812380Y-125134761D02*
X155812380Y-125134761D01*
X155812380Y-124896666D01*
X155860000Y-124753809D01*
X155955238Y-124658571D01*
X156050476Y-124610952D01*
X156240952Y-124563333D01*
X156383809Y-124563333D01*
X156574285Y-124610952D01*
X156669523Y-124658571D01*
X156764761Y-124753809D01*
X156812380Y-124896666D01*
X156812380Y-125134761D01*
D12*
X152761904Y-126340476D02*
X151961904Y-126340476D01*
X151961904Y-126150000D01*
X152000000Y-126035714D01*
X152076190Y-125959523D01*
X152152380Y-125921428D01*
X152304761Y-125883333D01*
X152419047Y-125883333D01*
X152571428Y-125921428D01*
X152647619Y-125959523D01*
X152723809Y-126035714D01*
X152761904Y-126150000D01*
X152761904Y-126340476D01*
X152038095Y-125578571D02*
X152000000Y-125540476D01*
X151961904Y-125464285D01*
X151961904Y-125273809D01*
X152000000Y-125197619D01*
X152038095Y-125159523D01*
X152114285Y-125121428D01*
X152190476Y-125121428D01*
X152304761Y-125159523D01*
X152761904Y-125616666D01*
X152761904Y-125121428D01*
D11*
X55212380Y-73032857D02*
X55212380Y-73509047D01*
X54212380Y-73509047D01*
X54688571Y-72699523D02*
X54688571Y-72366190D01*
X55212380Y-72223333D02*
X55212380Y-72699523D01*
X54212380Y-72699523D01*
X54212380Y-72223333D01*
X55212380Y-71794761D02*
X54212380Y-71794761D01*
X54212380Y-71556666D01*
X54260000Y-71413809D01*
X54355238Y-71318571D01*
X54450476Y-71270952D01*
X54640952Y-71223333D01*
X54783809Y-71223333D01*
X54974285Y-71270952D01*
X55069523Y-71318571D01*
X55164761Y-71413809D01*
X55212380Y-71556666D01*
X55212380Y-71794761D01*
D12*
X51161904Y-73000476D02*
X50361904Y-73000476D01*
X50361904Y-72810000D01*
X50400000Y-72695714D01*
X50476190Y-72619523D01*
X50552380Y-72581428D01*
X50704761Y-72543333D01*
X50819047Y-72543333D01*
X50971428Y-72581428D01*
X51047619Y-72619523D01*
X51123809Y-72695714D01*
X51161904Y-72810000D01*
X51161904Y-73000476D01*
X51161904Y-71781428D02*
X51161904Y-72238571D01*
X51161904Y-72010000D02*
X50361904Y-72010000D01*
X50476190Y-72086190D01*
X50552380Y-72162380D01*
X50590476Y-72238571D01*
D11*
X58550952Y-95112380D02*
X57979523Y-95112380D01*
X58265238Y-95112380D02*
X58265238Y-94112380D01*
X58170000Y-94255238D01*
X58074761Y-94350476D01*
X57979523Y-94398095D01*
X59170000Y-94112380D02*
X59265238Y-94112380D01*
X59360476Y-94160000D01*
X59408095Y-94207619D01*
X59455714Y-94302857D01*
X59503333Y-94493333D01*
X59503333Y-94731428D01*
X59455714Y-94921904D01*
X59408095Y-95017142D01*
X59360476Y-95064761D01*
X59265238Y-95112380D01*
X59170000Y-95112380D01*
X59074761Y-95064761D01*
X59027142Y-95017142D01*
X58979523Y-94921904D01*
X58931904Y-94731428D01*
X58931904Y-94493333D01*
X58979523Y-94302857D01*
X59027142Y-94207619D01*
X59074761Y-94160000D01*
X59170000Y-94112380D01*
X60122380Y-94112380D02*
X60217619Y-94112380D01*
X60312857Y-94160000D01*
X60360476Y-94207619D01*
X60408095Y-94302857D01*
X60455714Y-94493333D01*
X60455714Y-94731428D01*
X60408095Y-94921904D01*
X60360476Y-95017142D01*
X60312857Y-95064761D01*
X60217619Y-95112380D01*
X60122380Y-95112380D01*
X60027142Y-95064761D01*
X59979523Y-95017142D01*
X59931904Y-94921904D01*
X59884285Y-94731428D01*
X59884285Y-94493333D01*
X59931904Y-94302857D01*
X59979523Y-94207619D01*
X60027142Y-94160000D01*
X60122380Y-94112380D01*
X60884285Y-94445714D02*
X60884285Y-95112380D01*
X60884285Y-94540952D02*
X60931904Y-94493333D01*
X61027142Y-94445714D01*
X61170000Y-94445714D01*
X61265238Y-94493333D01*
X61312857Y-94588571D01*
X61312857Y-95112380D01*
X59503333Y-99417142D02*
X59455714Y-99464761D01*
X59312857Y-99512380D01*
X59217619Y-99512380D01*
X59074761Y-99464761D01*
X58979523Y-99369523D01*
X58931904Y-99274285D01*
X58884285Y-99083809D01*
X58884285Y-98940952D01*
X58931904Y-98750476D01*
X58979523Y-98655238D01*
X59074761Y-98560000D01*
X59217619Y-98512380D01*
X59312857Y-98512380D01*
X59455714Y-98560000D01*
X59503333Y-98607619D01*
X59884285Y-98607619D02*
X59931904Y-98560000D01*
X60027142Y-98512380D01*
X60265238Y-98512380D01*
X60360476Y-98560000D01*
X60408095Y-98607619D01*
X60455714Y-98702857D01*
X60455714Y-98798095D01*
X60408095Y-98940952D01*
X59836666Y-99512380D01*
X60455714Y-99512380D01*
X56317142Y-62876666D02*
X56364761Y-62924285D01*
X56412380Y-63067142D01*
X56412380Y-63162380D01*
X56364761Y-63305238D01*
X56269523Y-63400476D01*
X56174285Y-63448095D01*
X55983809Y-63495714D01*
X55840952Y-63495714D01*
X55650476Y-63448095D01*
X55555238Y-63400476D01*
X55460000Y-63305238D01*
X55412380Y-63162380D01*
X55412380Y-63067142D01*
X55460000Y-62924285D01*
X55507619Y-62876666D01*
X56412380Y-62448095D02*
X55412380Y-62448095D01*
X55412380Y-62067142D01*
X55460000Y-61971904D01*
X55507619Y-61924285D01*
X55602857Y-61876666D01*
X55745714Y-61876666D01*
X55840952Y-61924285D01*
X55888571Y-61971904D01*
X55936190Y-62067142D01*
X55936190Y-62448095D01*
X56412380Y-60924285D02*
X56412380Y-61495714D01*
X56412380Y-61210000D02*
X55412380Y-61210000D01*
X55555238Y-61305238D01*
X55650476Y-61400476D01*
X55698095Y-61495714D01*
X61317142Y-62376666D02*
X61364761Y-62424285D01*
X61412380Y-62567142D01*
X61412380Y-62662380D01*
X61364761Y-62805238D01*
X61269523Y-62900476D01*
X61174285Y-62948095D01*
X60983809Y-62995714D01*
X60840952Y-62995714D01*
X60650476Y-62948095D01*
X60555238Y-62900476D01*
X60460000Y-62805238D01*
X60412380Y-62662380D01*
X60412380Y-62567142D01*
X60460000Y-62424285D01*
X60507619Y-62376666D01*
X61412380Y-61424285D02*
X61412380Y-61995714D01*
X61412380Y-61710000D02*
X60412380Y-61710000D01*
X60555238Y-61805238D01*
X60650476Y-61900476D01*
X60698095Y-61995714D01*
M02*
